<svg width="21" height="21" viewBox="0 0 21 21" fill="none" xmlns="http://www.w3.org/2000/svg">
<path d="M14.1224 1.86931C14.0804 2.1318 14.0594 2.3943 14.0594 2.6568C14.0594 5.01929 15.9704 6.92923 18.3224 6.92923C18.5849 6.92923 18.8369 6.89878 19.0994 6.85678V15.3292C19.0994 18.8897 16.9994 21.0002 13.4294 21.0002H5.67102C2.09999 21.0002 0 18.8897 0 15.3292V7.56028C0 3.9903 2.09999 1.86931 5.67102 1.86931H14.1224ZM14.3335 8.25327C14.0489 8.22177 13.7665 8.34777 13.5974 8.57877L11.0575 11.8653L8.14796 9.57627C7.96946 9.43977 7.75946 9.38622 7.54946 9.40827C7.34051 9.43977 7.15151 9.55422 7.02447 9.72222L3.91753 13.7657L3.85348 13.8602C3.67498 14.1952 3.75898 14.6257 4.07398 14.8577C4.22098 14.9522 4.37848 15.0152 4.55698 15.0152C4.79953 15.0257 5.02948 14.8987 5.17647 14.7002L7.81196 11.3077L10.8044 13.5557L10.8989 13.6177C11.2349 13.7962 11.6549 13.7132 11.8964 13.3972L14.9309 9.48177L14.8889 9.50277C15.0569 9.27177 15.0884 8.97777 14.9729 8.71527C14.8585 8.45277 14.6054 8.27427 14.3335 8.25327ZM18.4695 0C19.866 0 21 1.13399 21 2.53049C21 3.92698 19.866 5.06098 18.4695 5.06098C17.073 5.06098 15.939 3.92698 15.939 2.53049C15.939 1.13399 17.073 0 18.4695 0Z" fill="#F9FAFB"/>
</svg>
