<svg width="1474" height="1118" viewBox="0 0 1474 1118" fill="none" xmlns="http://www.w3.org/2000/svg">
<path d="M48.2723 0L95.5445 27.925L142.817 0L190.089 27.925L95.5445 83.775L1 27.925" stroke="#DAE1E7" stroke-opacity="0.14"/>
<path d="M48.2723 0L1 27.925V83.775L48.5455 111.7" stroke="#DAE1E7" stroke-opacity="0.14"/>
<path d="M48.5449 111.7V167.55L95.5439 195.475M95.5439 195.475V83.7748M95.5439 195.475L143.089 167.55V111.7L190.088 83.7748V27.9248" stroke="#DAE1E7" stroke-opacity="0.14"/>
<path d="M190.362 83.7754L237.634 111.7L284.907 83.7754L332.179 111.7L237.634 167.55L143.09 111.7" stroke="#DAE1E7" stroke-opacity="0.14"/>
<path d="M190.362 83.7754L143.09 111.7V167.55L190.635 195.475" stroke="#DAE1E7" stroke-opacity="0.14"/>
<path d="M190.635 195.476V251.326L237.634 279.251M237.634 279.251V167.551M237.634 279.251L285.179 251.326V195.476L332.178 167.551V111.701" stroke="#DAE1E7" stroke-opacity="0.14"/>
<path d="M615.54 0L662.812 27.925L710.084 0L757.357 27.925L662.812 83.775L568.268 27.925" stroke="#DAE1E7" stroke-opacity="0.14"/>
<path d="M615.54 0L568.268 27.925V83.775L615.813 111.7" stroke="#DAE1E7" stroke-opacity="0.14"/>
<path d="M615.812 111.7V167.55L662.812 195.475M662.812 195.475V83.7748M662.812 195.475L710.357 167.55V111.7L757.356 83.7748V27.9248" stroke="#DAE1E7" stroke-opacity="0.14"/>
<path d="M757.63 83.7754L804.902 111.7L852.174 83.7754L899.446 111.7L804.902 167.55L710.357 111.7" stroke="#DAE1E7" stroke-opacity="0.14"/>
<path d="M757.63 83.7754L710.357 111.7V167.55L757.903 195.475" stroke="#DAE1E7" stroke-opacity="0.14"/>
<path d="M757.902 195.476V251.326L804.901 279.251M804.901 279.251V167.551M804.901 279.251L852.447 251.326V195.476L899.446 167.551V111.701" stroke="#DAE1E7" stroke-opacity="0.14"/>
<path d="M331.905 0L379.177 27.925L426.45 0L473.722 27.925L379.177 83.775L284.633 27.925" stroke="#DAE1E7" stroke-opacity="0.14"/>
<path d="M331.905 0L284.633 27.925V83.775L332.178 111.7" stroke="#DAE1E7" stroke-opacity="0.14"/>
<path d="M332.178 111.7V167.55L379.177 195.475M379.177 195.475V83.7748M379.177 195.475L426.722 167.55V111.7L473.721 83.7748V27.9248" stroke="#DAE1E7" stroke-opacity="0.14"/>
<path d="M473.995 83.7754L521.267 111.7L568.539 83.7754L615.812 111.7L521.267 167.55L426.723 111.7" stroke="#DAE1E7" stroke-opacity="0.14"/>
<path d="M473.995 83.7754L426.723 111.7V167.55L474.268 195.475" stroke="#DAE1E7" stroke-opacity="0.14"/>
<path d="M474.268 195.476V251.326L521.267 279.251M521.267 279.251V167.551M521.267 279.251L568.812 251.326V195.476L615.811 167.551V111.701" stroke="#DAE1E7" stroke-opacity="0.14"/>
<path d="M48.8191 167.551L96.0914 195.476L143.364 167.551L190.636 195.476L96.0914 251.326L1.54688 195.476" stroke="#DAE1E7" stroke-opacity="0.14"/>
<path d="M48.8191 167.551L1.54688 195.476V251.326L49.0924 279.251" stroke="#DAE1E7" stroke-opacity="0.14"/>
<path d="M49.0918 279.251V335.101L96.0908 363.026M96.0908 363.026V251.326M96.0908 363.026L143.636 335.101V279.251L190.635 251.326V195.476" stroke="#DAE1E7" stroke-opacity="0.14"/>
<path d="M190.909 251.325L238.181 279.25L285.453 251.325L332.726 279.25L238.181 335.1L143.637 279.25" stroke="#DAE1E7" stroke-opacity="0.14"/>
<path d="M190.909 251.325L143.637 279.25V335.1L191.182 363.025" stroke="#DAE1E7" stroke-opacity="0.14"/>
<path d="M191.182 363.025V418.875L238.181 446.8M238.181 446.8V335.1M238.181 446.8L285.726 418.875V363.025L332.725 335.1V279.25" stroke="#DAE1E7" stroke-opacity="0.14"/>
<path d="M616.087 167.551L663.359 195.476L710.631 167.551L757.903 195.476L663.359 251.326L568.814 195.476" stroke="#DAE1E7" stroke-opacity="0.14"/>
<path d="M616.087 167.551L568.814 195.476V251.326L616.36 279.251" stroke="#DAE1E7" stroke-opacity="0.14"/>
<path d="M616.359 279.251V335.101L663.358 363.026M663.358 363.026V251.326M663.358 363.026L710.904 335.101V279.251L757.903 251.326V195.476" stroke="#DAE1E7" stroke-opacity="0.14"/>
<path d="M758.177 251.325L805.449 279.25L852.721 251.325L899.993 279.25L805.449 335.1L710.904 279.25" stroke="#DAE1E7" stroke-opacity="0.14"/>
<path d="M758.177 251.325L710.904 279.25V335.1L758.45 363.025" stroke="#DAE1E7" stroke-opacity="0.14"/>
<path d="M758.449 363.025V418.875L805.448 446.8M805.448 446.8V335.1M805.448 446.8L852.994 418.875V363.025L899.993 335.1V279.25" stroke="#DAE1E7" stroke-opacity="0.14"/>
<path d="M332.452 167.551L379.724 195.476L426.996 167.551L474.269 195.476L379.724 251.326L285.18 195.476" stroke="#DAE1E7" stroke-opacity="0.14"/>
<path d="M332.452 167.551L285.18 195.476V251.326L332.725 279.251" stroke="#DAE1E7" stroke-opacity="0.14"/>
<path d="M332.725 279.251V335.101L379.724 363.026M379.724 363.026V251.326M379.724 363.026L427.269 335.101V279.251L474.268 251.326V195.476" stroke="#DAE1E7" stroke-opacity="0.14"/>
<path d="M474.542 251.325L521.814 279.25L569.086 251.325L616.359 279.25L521.814 335.1L427.27 279.25" stroke="#DAE1E7" stroke-opacity="0.14"/>
<path d="M474.542 251.325L427.27 279.25V335.1L474.815 363.025" stroke="#DAE1E7" stroke-opacity="0.14"/>
<path d="M474.814 363.025V418.875L521.813 446.8M521.813 446.8V335.1M521.813 446.8L569.359 418.875V363.025L616.358 335.1V279.25" stroke="#DAE1E7" stroke-opacity="0.14"/>
<path d="M48.8191 335.1L96.0914 363.025L143.364 335.1L190.636 363.025L96.0914 418.875L1.54688 363.025" stroke="#DAE1E7" stroke-opacity="0.14"/>
<path d="M48.8191 335.1L1.54688 363.025V418.875L49.0924 446.8" stroke="#DAE1E7" stroke-opacity="0.14"/>
<path d="M49.0918 446.799V502.649L96.0908 530.574M96.0908 530.574V418.874M96.0908 530.574L143.636 502.649V446.799L190.635 418.874V363.024" stroke="#DAE1E7" stroke-opacity="0.14"/>
<path d="M190.909 418.875L238.181 446.8L285.453 418.875L332.726 446.8L238.181 502.65L143.637 446.8" stroke="#DAE1E7" stroke-opacity="0.14"/>
<path d="M190.909 418.875L143.637 446.8V502.65L191.182 530.575" stroke="#DAE1E7" stroke-opacity="0.14"/>
<path d="M191.182 530.575V586.425L238.181 614.35M238.181 614.35V502.65M238.181 614.35L285.726 586.425V530.575L332.725 502.65V446.8" stroke="#DAE1E7" stroke-opacity="0.14"/>
<path d="M616.087 335.1L663.359 363.025L710.631 335.1L757.903 363.025L663.359 418.875L568.814 363.025" stroke="#DAE1E7" stroke-opacity="0.14"/>
<path d="M616.087 335.1L568.814 363.025V418.875L616.36 446.8" stroke="#DAE1E7" stroke-opacity="0.14"/>
<path d="M616.359 446.799V502.649L663.358 530.574M663.358 530.574V418.874M663.358 530.574L710.904 502.649V446.799L757.903 418.874V363.024" stroke="#DAE1E7" stroke-opacity="0.14"/>
<path d="M758.177 418.875L805.449 446.8L852.721 418.875L899.993 446.8L805.449 502.65L710.904 446.8" stroke="#DAE1E7" stroke-opacity="0.14"/>
<path d="M758.177 418.875L710.904 446.8V502.65L758.45 530.575" stroke="#DAE1E7" stroke-opacity="0.14"/>
<path d="M758.449 530.575V586.425L805.448 614.35M805.448 614.35V502.65M805.448 614.35L852.994 586.425V530.575L899.993 502.65V446.8" stroke="#DAE1E7" stroke-opacity="0.14"/>
<path d="M332.452 335.1L379.724 363.025L426.996 335.1L474.269 363.025L379.724 418.875L285.18 363.025" stroke="#DAE1E7" stroke-opacity="0.14"/>
<path d="M332.452 335.1L285.18 363.025V418.875L332.725 446.8" stroke="#DAE1E7" stroke-opacity="0.14"/>
<path d="M332.725 446.799V502.649L379.724 530.574M379.724 530.574V418.874M379.724 530.574L427.269 502.649V446.799L474.268 418.874V363.024" stroke="#DAE1E7" stroke-opacity="0.14"/>
<path d="M474.542 418.875L521.814 446.8L569.086 418.875L616.359 446.8L521.814 502.65L427.27 446.8" stroke="#DAE1E7" stroke-opacity="0.14"/>
<path d="M474.542 418.875L427.27 446.8V502.65L474.815 530.575" stroke="#DAE1E7" stroke-opacity="0.14"/>
<path d="M474.814 530.575V586.425L521.813 614.35M521.813 614.35V502.65M521.813 614.35L569.359 586.425V530.575L616.358 502.65V446.8" stroke="#DAE1E7" stroke-opacity="0.14"/>
<path d="M48.8191 502.65L96.0914 530.575L143.364 502.65L190.636 530.575L96.0914 586.425L1.54688 530.575" stroke="#DAE1E7" stroke-opacity="0.14"/>
<path d="M48.8191 502.65L1.54688 530.575V586.425L49.0924 614.35" stroke="#DAE1E7" stroke-opacity="0.14"/>
<path d="M49.0918 614.351V670.201L96.0908 698.126M96.0908 698.126V586.426M96.0908 698.126L143.636 670.201V614.351L190.635 586.426V530.576" stroke="#DAE1E7" stroke-opacity="0.14"/>
<path d="M190.909 586.426L238.181 614.351L285.453 586.426L332.726 614.351L238.181 670.201L143.637 614.351" stroke="#DAE1E7" stroke-opacity="0.14"/>
<path d="M190.909 586.426L143.637 614.351V670.201L191.182 698.126" stroke="#DAE1E7" stroke-opacity="0.14"/>
<path d="M191.182 698.126V753.976L238.181 781.901M238.181 781.901V670.201M238.181 781.901L285.726 753.976V698.126L332.725 670.201V614.351" stroke="#DAE1E7" stroke-opacity="0.14"/>
<path d="M616.087 502.65L663.359 530.575L710.631 502.65L757.903 530.575L663.359 586.425L568.814 530.575" stroke="#DAE1E7" stroke-opacity="0.14"/>
<path d="M616.087 502.65L568.814 530.575V586.425L616.36 614.35" stroke="#DAE1E7" stroke-opacity="0.14"/>
<path d="M616.359 614.351V670.201L663.358 698.126M663.358 698.126V586.426M663.358 698.126L710.904 670.201V614.351L757.903 586.426V530.576" stroke="#DAE1E7" stroke-opacity="0.14"/>
<path d="M758.177 586.426L805.449 614.351L852.721 586.426L899.993 614.351L805.449 670.201L710.904 614.351" stroke="#DAE1E7" stroke-opacity="0.14"/>
<path d="M758.177 586.426L710.904 614.351V670.201L758.45 698.126" stroke="#DAE1E7" stroke-opacity="0.14"/>
<path d="M758.449 698.126V753.976L805.448 781.901M805.448 781.901V670.201M805.448 781.901L852.994 753.976V698.126L899.993 670.201V614.351" stroke="#DAE1E7" stroke-opacity="0.14"/>
<path d="M332.452 502.65L379.724 530.575L426.996 502.65L474.269 530.575L379.724 586.425L285.18 530.575" stroke="#DAE1E7" stroke-opacity="0.14"/>
<path d="M332.452 502.65L285.18 530.575V586.425L332.725 614.35" stroke="#DAE1E7" stroke-opacity="0.14"/>
<path d="M332.725 614.351V670.201L379.724 698.126M379.724 698.126V586.426M379.724 698.126L427.269 670.201V614.351L474.268 586.426V530.576" stroke="#DAE1E7" stroke-opacity="0.14"/>
<path d="M474.542 586.426L521.814 614.351L569.086 586.426L616.359 614.351L521.814 670.201L427.27 614.351" stroke="#DAE1E7" stroke-opacity="0.14"/>
<path d="M474.542 586.426L427.27 614.351V670.201L474.815 698.126" stroke="#DAE1E7" stroke-opacity="0.14"/>
<path d="M474.814 698.126V753.976L521.813 781.901M521.813 781.901V670.201M521.813 781.901L569.359 753.976V698.126L616.358 670.201V614.351" stroke="#DAE1E7" stroke-opacity="0.14"/>
<path d="M49.366 670.199L96.6383 698.124L143.911 670.199L191.183 698.124L96.6383 753.974L2.09375 698.124" stroke="#DAE1E7" stroke-opacity="0.14"/>
<path d="M49.366 670.199L2.09375 698.124V753.974L49.6393 781.899" stroke="#DAE1E7" stroke-opacity="0.14"/>
<path d="M49.6387 781.899V837.749L96.6377 865.674M96.6377 865.674V753.974M96.6377 865.674L144.183 837.749V781.899L191.182 753.974V698.124" stroke="#DAE1E7" stroke-opacity="0.14"/>
<path d="M191.456 753.975L238.728 781.9L286 753.975L333.273 781.9L238.728 837.75L144.184 781.9" stroke="#DAE1E7" stroke-opacity="0.14"/>
<path d="M191.456 753.975L144.184 781.9V837.75L191.729 865.675" stroke="#DAE1E7" stroke-opacity="0.14"/>
<path d="M191.729 865.674V921.524L238.728 949.449M238.728 949.449V837.749M238.728 949.449L286.273 921.524V865.674L333.272 837.749V781.899" stroke="#DAE1E7" stroke-opacity="0.14"/>
<path d="M616.634 670.199L663.906 698.124L711.178 670.199L758.45 698.124L663.906 753.974L569.361 698.124" stroke="#DAE1E7" stroke-opacity="0.14"/>
<path d="M616.634 670.199L569.361 698.124V753.974L616.907 781.899" stroke="#DAE1E7" stroke-opacity="0.14"/>
<path d="M616.906 781.899V837.749L663.905 865.674M663.905 865.674V753.974M663.905 865.674L711.451 837.749V781.899L758.45 753.974V698.124" stroke="#DAE1E7" stroke-opacity="0.14"/>
<path d="M758.723 753.975L805.996 781.9L853.268 753.975L900.54 781.9L805.996 837.75L711.451 781.9" stroke="#DAE1E7" stroke-opacity="0.14"/>
<path d="M758.723 753.975L711.451 781.9V837.75L758.997 865.675" stroke="#DAE1E7" stroke-opacity="0.14"/>
<path d="M758.996 865.674V921.524L805.995 949.449M805.995 949.449V837.749M805.995 949.449L853.541 921.524V865.674L900.54 837.749V781.899" stroke="#DAE1E7" stroke-opacity="0.14"/>
<path d="M332.999 670.199L380.271 698.124L427.543 670.199L474.816 698.124L380.271 753.974L285.727 698.124" stroke="#DAE1E7" stroke-opacity="0.14"/>
<path d="M332.999 670.199L285.727 698.124V753.974L333.272 781.899" stroke="#DAE1E7" stroke-opacity="0.14"/>
<path d="M333.271 781.899V837.749L380.27 865.674M380.27 865.674V753.974M380.27 865.674L427.816 837.749V781.899L474.815 753.974V698.124" stroke="#DAE1E7" stroke-opacity="0.14"/>
<path d="M475.089 753.975L522.361 781.9L569.633 753.975L616.905 781.9L522.361 837.75L427.816 781.9" stroke="#DAE1E7" stroke-opacity="0.14"/>
<path d="M475.089 753.975L427.816 781.9V837.75L475.362 865.675" stroke="#DAE1E7" stroke-opacity="0.14"/>
<path d="M475.361 865.674V921.524L522.36 949.449M522.36 949.449V837.749M522.36 949.449L569.906 921.524V865.674L616.905 837.749V781.899" stroke="#DAE1E7" stroke-opacity="0.14"/>
<path d="M49.366 837.75L96.6383 865.675L143.911 837.75L191.183 865.675L96.6383 921.525L2.09375 865.675" stroke="#DAE1E7" stroke-opacity="0.14"/>
<path d="M49.366 837.75L2.09375 865.675V921.525L49.6393 949.45" stroke="#DAE1E7" stroke-opacity="0.14"/>
<path d="M49.6387 949.45V1005.3L96.6377 1033.22M96.6377 1033.22V921.525M96.6377 1033.22L144.183 1005.3V949.45L191.182 921.525V865.675" stroke="#DAE1E7" stroke-opacity="0.14"/>
<path d="M191.456 921.525L238.728 949.45L286 921.525L333.273 949.45L238.728 1005.3L144.184 949.45" stroke="#DAE1E7" stroke-opacity="0.14"/>
<path d="M191.456 921.525L144.184 949.45V1005.3L191.729 1033.23" stroke="#DAE1E7" stroke-opacity="0.14"/>
<path d="M191.729 1033.23V1089.08L238.728 1117M238.728 1117V1005.3M238.728 1117L286.273 1089.08V1033.23L333.272 1005.3V949.451" stroke="#DAE1E7" stroke-opacity="0.14"/>
<path d="M616.634 837.75L663.906 865.675L711.178 837.75L758.45 865.675L663.906 921.525L569.361 865.675" stroke="#DAE1E7" stroke-opacity="0.14"/>
<path d="M616.634 837.75L569.361 865.675V921.525L616.907 949.45" stroke="#DAE1E7" stroke-opacity="0.14"/>
<path d="M616.906 949.45V1005.3L663.905 1033.22M663.905 1033.22V921.525M663.905 1033.22L711.451 1005.3V949.45L758.45 921.525V865.675" stroke="#DAE1E7" stroke-opacity="0.14"/>
<path d="M758.723 921.525L805.996 949.45L853.268 921.525L900.54 949.45L805.996 1005.3L711.451 949.45" stroke="#DAE1E7" stroke-opacity="0.14"/>
<path d="M758.723 921.525L711.451 949.45V1005.3L758.997 1033.23" stroke="#DAE1E7" stroke-opacity="0.14"/>
<path d="M758.996 1033.23V1089.08L805.995 1117M805.995 1117V1005.3M805.995 1117L853.541 1089.08V1033.23L900.54 1005.3V949.451" stroke="#DAE1E7" stroke-opacity="0.14"/>
<path d="M332.999 837.75L380.271 865.675L427.543 837.75L474.816 865.675L380.271 921.525L285.727 865.675" stroke="#DAE1E7" stroke-opacity="0.14"/>
<path d="M332.999 837.75L285.727 865.675V921.525L333.272 949.45" stroke="#DAE1E7" stroke-opacity="0.14"/>
<path d="M333.271 949.45V1005.3L380.27 1033.22M380.27 1033.22V921.525M380.27 1033.22L427.816 1005.3V949.45L474.815 921.525V865.675" stroke="#DAE1E7" stroke-opacity="0.14"/>
<path d="M475.089 921.525L522.361 949.45L569.633 921.525L616.905 949.45L522.361 1005.3L427.816 949.45" stroke="#DAE1E7" stroke-opacity="0.14"/>
<path d="M475.089 921.525L427.816 949.45V1005.3L475.362 1033.23" stroke="#DAE1E7" stroke-opacity="0.14"/>
<path d="M475.361 1033.23V1089.08L522.36 1117M522.36 1117V1005.3M522.36 1117L569.906 1089.08V1033.23L616.905 1005.3V949.451" stroke="#DAE1E7" stroke-opacity="0.14"/>
<path d="M899.173 0L946.445 27.925L993.717 0L1040.99 27.925L946.445 83.775L851.9 27.925" stroke="#DAE1E7" stroke-opacity="0.14"/>
<path d="M899.173 0L851.9 27.925V83.775L899.446 111.7" stroke="#DAE1E7" stroke-opacity="0.14"/>
<path d="M899.445 111.7V167.55L946.444 195.475M946.444 195.475V83.7748M946.444 195.475L993.99 167.55V111.7L1040.99 83.7748V27.9248" stroke="#DAE1E7" stroke-opacity="0.14"/>
<path d="M1041.26 83.7754L1088.53 111.7L1135.81 83.7754L1183.08 111.7L1088.53 167.55L993.99 111.7" stroke="#DAE1E7" stroke-opacity="0.14"/>
<path d="M1041.26 83.7754L993.99 111.7V167.55L1041.54 195.475" stroke="#DAE1E7" stroke-opacity="0.14"/>
<path d="M1041.54 195.476V251.326L1088.53 279.251M1088.53 279.251V167.551M1088.53 279.251L1136.08 251.326V195.476L1183.08 167.551V111.701" stroke="#DAE1E7" stroke-opacity="0.14"/>
<path d="M1466.44 0L1513.71 27.925L1560.98 0L1608.26 27.925L1513.71 83.775L1419.17 27.925" stroke="#DAE1E7" stroke-opacity="0.14"/>
<path d="M1466.44 0L1419.17 27.925V83.775L1466.71 111.7" stroke="#DAE1E7" stroke-opacity="0.14"/>
<path d="M1466.71 111.7V167.55L1513.71 195.475M1513.71 195.475V83.7748M1513.71 195.475L1561.26 167.55V111.7L1608.26 83.7748V27.9248" stroke="#DAE1E7" stroke-opacity="0.14"/>
<path d="M1182.81 0L1230.08 27.925L1277.35 0L1324.62 27.925L1230.08 83.775L1135.53 27.925" stroke="#DAE1E7" stroke-opacity="0.14"/>
<path d="M1182.81 0L1135.53 27.925V83.775L1183.08 111.7" stroke="#DAE1E7" stroke-opacity="0.14"/>
<path d="M1183.08 111.7V167.55L1230.08 195.475M1230.08 195.475V83.7748M1230.08 195.475L1277.62 167.55V111.7L1324.62 83.7748V27.9248" stroke="#DAE1E7" stroke-opacity="0.14"/>
<path d="M1324.9 83.7754L1372.17 111.7L1419.44 83.7754L1466.71 111.7L1372.17 167.55L1277.62 111.7" stroke="#DAE1E7" stroke-opacity="0.14"/>
<path d="M1324.9 83.7754L1277.62 111.7V167.55L1325.17 195.475" stroke="#DAE1E7" stroke-opacity="0.14"/>
<path d="M1325.17 195.476V251.326L1372.17 279.251M1372.17 279.251V167.551M1372.17 279.251L1419.71 251.326V195.476L1466.71 167.551V111.701" stroke="#DAE1E7" stroke-opacity="0.14"/>
<path d="M899.72 167.551L946.992 195.476L994.264 167.551L1041.54 195.476L946.992 251.326L852.447 195.476" stroke="#DAE1E7" stroke-opacity="0.14"/>
<path d="M899.72 167.551L852.447 195.476V251.326L899.993 279.251" stroke="#DAE1E7" stroke-opacity="0.14"/>
<path d="M899.992 279.251V335.101L946.991 363.026M946.991 363.026V251.326M946.991 363.026L994.537 335.101V279.251L1041.54 251.326V195.476" stroke="#DAE1E7" stroke-opacity="0.14"/>
<path d="M1041.81 251.325L1089.08 279.25L1136.35 251.325L1183.63 279.25L1089.08 335.1L994.537 279.25" stroke="#DAE1E7" stroke-opacity="0.14"/>
<path d="M1041.81 251.325L994.537 279.25V335.1L1042.08 363.025" stroke="#DAE1E7" stroke-opacity="0.14"/>
<path d="M1042.08 363.025V418.875L1089.08 446.8M1089.08 446.8V335.1M1089.08 446.8L1136.63 418.875V363.025L1183.63 335.1V279.25" stroke="#DAE1E7" stroke-opacity="0.14"/>
<path d="M1466.99 167.551L1514.26 195.476L1561.53 167.551L1608.8 195.476L1514.26 251.326L1419.71 195.476" stroke="#DAE1E7" stroke-opacity="0.14"/>
<path d="M1466.99 167.551L1419.71 195.476V251.326L1467.26 279.251" stroke="#DAE1E7" stroke-opacity="0.14"/>
<path d="M1467.26 279.251V335.101L1514.26 363.026M1514.26 363.026V251.326M1514.26 363.026L1561.8 335.101V279.251L1608.8 251.326V195.476" stroke="#DAE1E7" stroke-opacity="0.14"/>
<path d="M1183.35 167.551L1230.62 195.476L1277.9 167.551L1325.17 195.476L1230.62 251.326L1136.08 195.476" stroke="#DAE1E7" stroke-opacity="0.14"/>
<path d="M1183.35 167.551L1136.08 195.476V251.326L1183.63 279.251" stroke="#DAE1E7" stroke-opacity="0.14"/>
<path d="M1183.62 279.251V335.101L1230.62 363.026M1230.62 363.026V251.326M1230.62 363.026L1278.17 335.101V279.251L1325.17 251.326V195.476" stroke="#DAE1E7" stroke-opacity="0.14"/>
<path d="M1325.44 251.325L1372.71 279.25L1419.99 251.325L1467.26 279.25L1372.71 335.1L1278.17 279.25" stroke="#DAE1E7" stroke-opacity="0.14"/>
<path d="M1325.44 251.325L1278.17 279.25V335.1L1325.72 363.025" stroke="#DAE1E7" stroke-opacity="0.14"/>
<path d="M1325.71 363.025V418.875L1372.71 446.8M1372.71 446.8V335.1M1372.71 446.8L1420.26 418.875V363.025L1467.26 335.1V279.25" stroke="#DAE1E7" stroke-opacity="0.14"/>
<path d="M899.72 335.1L946.992 363.025L994.264 335.1L1041.54 363.025L946.992 418.875L852.447 363.025" stroke="#DAE1E7" stroke-opacity="0.14"/>
<path d="M899.72 335.1L852.447 363.025V418.875L899.993 446.8" stroke="#DAE1E7" stroke-opacity="0.14"/>
<path d="M899.992 446.799V502.649L946.991 530.574M946.991 530.574V418.874M946.991 530.574L994.537 502.649V446.799L1041.54 418.874V363.024" stroke="#DAE1E7" stroke-opacity="0.14"/>
<path d="M1041.81 418.875L1089.08 446.8L1136.35 418.875L1183.63 446.8L1089.08 502.65L994.537 446.8" stroke="#DAE1E7" stroke-opacity="0.14"/>
<path d="M1041.81 418.875L994.537 446.8V502.65L1042.08 530.575" stroke="#DAE1E7" stroke-opacity="0.14"/>
<path d="M1042.08 530.575V586.425L1089.08 614.35M1089.08 614.35V502.65M1089.08 614.35L1136.63 586.425V530.575L1183.63 502.65V446.8" stroke="#DAE1E7" stroke-opacity="0.14"/>
<path d="M1466.99 335.1L1514.26 363.025L1561.53 335.1L1608.8 363.025L1514.26 418.875L1419.71 363.025" stroke="#DAE1E7" stroke-opacity="0.14"/>
<path d="M1466.99 335.1L1419.71 363.025V418.875L1467.26 446.8" stroke="#DAE1E7" stroke-opacity="0.14"/>
<path d="M1467.26 446.799V502.649L1514.26 530.574M1514.26 530.574V418.874M1514.26 530.574L1561.8 502.649V446.799L1608.8 418.874V363.024" stroke="#DAE1E7" stroke-opacity="0.14"/>
<path d="M1183.35 335.1L1230.62 363.025L1277.9 335.1L1325.17 363.025L1230.62 418.875L1136.08 363.025" stroke="#DAE1E7" stroke-opacity="0.14"/>
<path d="M1183.35 335.1L1136.08 363.025V418.875L1183.63 446.8" stroke="#DAE1E7" stroke-opacity="0.14"/>
<path d="M1183.62 446.799V502.649L1230.62 530.574M1230.62 530.574V418.874M1230.62 530.574L1278.17 502.649V446.799L1325.17 418.874V363.024" stroke="#DAE1E7" stroke-opacity="0.14"/>
<path d="M1325.44 418.875L1372.71 446.8L1419.99 418.875L1467.26 446.8L1372.71 502.65L1278.17 446.8" stroke="#DAE1E7" stroke-opacity="0.14"/>
<path d="M1325.44 418.875L1278.17 446.8V502.65L1325.72 530.575" stroke="#DAE1E7" stroke-opacity="0.14"/>
<path d="M1325.71 530.575V586.425L1372.71 614.35M1372.71 614.35V502.65M1372.71 614.35L1420.26 586.425V530.575L1467.26 502.65V446.8" stroke="#DAE1E7" stroke-opacity="0.14"/>
<path d="M899.72 502.65L946.992 530.575L994.264 502.65L1041.54 530.575L946.992 586.425L852.447 530.575" stroke="#DAE1E7" stroke-opacity="0.14"/>
<path d="M899.72 502.65L852.447 530.575V586.425L899.993 614.35" stroke="#DAE1E7" stroke-opacity="0.14"/>
<path d="M899.992 614.351V670.201L946.991 698.126M946.991 698.126V586.426M946.991 698.126L994.537 670.201V614.351L1041.54 586.426V530.576" stroke="#DAE1E7" stroke-opacity="0.14"/>
<path d="M1041.81 586.426L1089.08 614.351L1136.35 586.426L1183.63 614.351L1089.08 670.201L994.537 614.351" stroke="#DAE1E7" stroke-opacity="0.14"/>
<path d="M1041.81 586.426L994.537 614.351V670.201L1042.08 698.126" stroke="#DAE1E7" stroke-opacity="0.14"/>
<path d="M1042.08 698.126V753.976L1089.08 781.901M1089.08 781.901V670.201M1089.08 781.901L1136.63 753.976V698.126L1183.63 670.201V614.351" stroke="#DAE1E7" stroke-opacity="0.14"/>
<path d="M1466.99 502.65L1514.26 530.575L1561.53 502.65L1608.8 530.575L1514.26 586.425L1419.71 530.575" stroke="#DAE1E7" stroke-opacity="0.14"/>
<path d="M1466.99 502.65L1419.71 530.575V586.425L1467.26 614.35" stroke="#DAE1E7" stroke-opacity="0.14"/>
<path d="M1467.26 614.351V670.201L1514.26 698.126M1514.26 698.126V586.426M1514.26 698.126L1561.8 670.201V614.351L1608.8 586.426V530.576" stroke="#DAE1E7" stroke-opacity="0.14"/>
<path d="M1183.35 502.65L1230.62 530.575L1277.9 502.65L1325.17 530.575L1230.62 586.425L1136.08 530.575" stroke="#DAE1E7" stroke-opacity="0.14"/>
<path d="M1183.35 502.65L1136.08 530.575V586.425L1183.63 614.35" stroke="#DAE1E7" stroke-opacity="0.14"/>
<path d="M1183.62 614.351V670.201L1230.62 698.126M1230.62 698.126V586.426M1230.62 698.126L1278.17 670.201V614.351L1325.17 586.426V530.576" stroke="#DAE1E7" stroke-opacity="0.14"/>
<path d="M1325.44 586.426L1372.71 614.351L1419.99 586.426L1467.26 614.351L1372.71 670.201L1278.17 614.351" stroke="#DAE1E7" stroke-opacity="0.14"/>
<path d="M1325.44 586.426L1278.17 614.351V670.201L1325.72 698.126" stroke="#DAE1E7" stroke-opacity="0.14"/>
<path d="M1325.71 698.126V753.976L1372.71 781.901M1372.71 781.901V670.201M1372.71 781.901L1420.26 753.976V698.126L1467.26 670.201V614.351" stroke="#DAE1E7" stroke-opacity="0.14"/>
<path d="M900.266 670.199L947.539 698.124L994.811 670.199L1042.08 698.124L947.539 753.974L852.994 698.124" stroke="#DAE1E7" stroke-opacity="0.14"/>
<path d="M900.266 670.199L852.994 698.124V753.974L900.54 781.899" stroke="#DAE1E7" stroke-opacity="0.14"/>
<path d="M900.539 781.899V837.749L947.538 865.674M947.538 865.674V753.974M947.538 865.674L995.084 837.749V781.899L1042.08 753.974V698.124" stroke="#DAE1E7" stroke-opacity="0.14"/>
<path d="M1042.36 753.975L1089.63 781.9L1136.9 753.975L1184.17 781.9L1089.63 837.75L995.084 781.9" stroke="#DAE1E7" stroke-opacity="0.14"/>
<path d="M1042.36 753.975L995.084 781.9V837.75L1042.63 865.675" stroke="#DAE1E7" stroke-opacity="0.14"/>
<path d="M1042.63 865.674V921.524L1089.63 949.449M1089.63 949.449V837.749M1089.63 949.449L1137.17 921.524V865.674L1184.17 837.749V781.899" stroke="#DAE1E7" stroke-opacity="0.14"/>
<path d="M1467.53 670.199L1514.81 698.124L1562.08 670.199L1609.35 698.124L1514.81 753.974L1420.26 698.124" stroke="#DAE1E7" stroke-opacity="0.14"/>
<path d="M1467.53 670.199L1420.26 698.124V753.974L1467.81 781.899" stroke="#DAE1E7" stroke-opacity="0.14"/>
<path d="M1467.81 781.899V837.749L1514.81 865.674M1514.81 865.674V753.974M1514.81 865.674L1562.35 837.749V781.899L1609.35 753.974V698.124" stroke="#DAE1E7" stroke-opacity="0.14"/>
<path d="M1183.9 670.199L1231.17 698.124L1278.44 670.199L1325.72 698.124L1231.17 753.974L1136.63 698.124" stroke="#DAE1E7" stroke-opacity="0.14"/>
<path d="M1183.9 670.199L1136.63 698.124V753.974L1184.17 781.899" stroke="#DAE1E7" stroke-opacity="0.14"/>
<path d="M1184.17 781.899V837.749L1231.17 865.674M1231.17 865.674V753.974M1231.17 865.674L1278.72 837.749V781.899L1325.72 753.974V698.124" stroke="#DAE1E7" stroke-opacity="0.14"/>
<path d="M1325.99 753.975L1373.26 781.9L1420.53 753.975L1467.81 781.9L1373.26 837.75L1278.72 781.9" stroke="#DAE1E7" stroke-opacity="0.14"/>
<path d="M1325.99 753.975L1278.72 781.9V837.75L1326.26 865.675" stroke="#DAE1E7" stroke-opacity="0.14"/>
<path d="M1326.26 865.674V921.524L1373.26 949.449M1373.26 949.449V837.749M1373.26 949.449L1420.81 921.524V865.674L1467.81 837.749V781.899" stroke="#DAE1E7" stroke-opacity="0.14"/>
<path d="M900.266 837.75L947.539 865.675L994.811 837.75L1042.08 865.675L947.539 921.525L852.994 865.675" stroke="#DAE1E7" stroke-opacity="0.14"/>
<path d="M900.266 837.75L852.994 865.675V921.525L900.54 949.45" stroke="#DAE1E7" stroke-opacity="0.14"/>
<path d="M900.539 949.45V1005.3L947.538 1033.22M947.538 1033.22V921.525M947.538 1033.22L995.084 1005.3V949.45L1042.08 921.525V865.675" stroke="#DAE1E7" stroke-opacity="0.14"/>
<path d="M1042.36 921.525L1089.63 949.45L1136.9 921.525L1184.17 949.45L1089.63 1005.3L995.084 949.45" stroke="#DAE1E7" stroke-opacity="0.14"/>
<path d="M1042.36 921.525L995.084 949.45V1005.3L1042.63 1033.23" stroke="#DAE1E7" stroke-opacity="0.14"/>
<path d="M1042.63 1033.23V1089.08L1089.63 1117M1089.63 1117V1005.3M1089.63 1117L1137.17 1089.08V1033.23L1184.17 1005.3V949.451" stroke="#DAE1E7" stroke-opacity="0.14"/>
<path d="M1467.53 837.75L1514.81 865.675L1562.08 837.75L1609.35 865.675L1514.81 921.525L1420.26 865.675" stroke="#DAE1E7" stroke-opacity="0.14"/>
<path d="M1467.53 837.75L1420.26 865.675V921.525L1467.81 949.45" stroke="#DAE1E7" stroke-opacity="0.14"/>
<path d="M1467.81 949.45V1005.3L1514.81 1033.22M1514.81 1033.22V921.525M1514.81 1033.22L1562.35 1005.3V949.45L1609.35 921.525V865.675" stroke="#DAE1E7" stroke-opacity="0.14"/>
<path d="M1183.9 837.75L1231.17 865.675L1278.44 837.75L1325.72 865.675L1231.17 921.525L1136.63 865.675" stroke="#DAE1E7" stroke-opacity="0.14"/>
<path d="M1183.9 837.75L1136.63 865.675V921.525L1184.17 949.45" stroke="#DAE1E7" stroke-opacity="0.14"/>
<path d="M1184.17 949.45V1005.3L1231.17 1033.22M1231.17 1033.22V921.525M1231.17 1033.22L1278.72 1005.3V949.45L1325.72 921.525V865.675" stroke="#DAE1E7" stroke-opacity="0.14"/>
<path d="M1325.99 921.525L1373.26 949.45L1420.53 921.525L1467.81 949.45L1373.26 1005.3L1278.72 949.45" stroke="#DAE1E7" stroke-opacity="0.14"/>
<path d="M1325.99 921.525L1278.72 949.45V1005.3L1326.26 1033.23" stroke="#DAE1E7" stroke-opacity="0.14"/>
<path d="M1326.26 1033.23V1089.08L1373.26 1117M1373.26 1117V1005.3M1373.26 1117L1420.81 1089.08V1033.23L1467.81 1005.3V949.451" stroke="#DAE1E7" stroke-opacity="0.14"/>
</svg>
