<svg width="1728" height="1117" viewBox="0 0 1728 1117" fill="none" xmlns="http://www.w3.org/2000/svg">
<mask id="mask0_31_1704" style="mask-type:alpha" maskUnits="userSpaceOnUse" x="0" y="0" width="1751" height="1117">
<rect width="1750.44" height="1117" fill="url(#paint0_linear_31_1704)"/>
</mask>
<g mask="url(#mask0_31_1704)">
<path d="M47.2723 0L94.5445 27.925L141.817 0L189.089 27.925L94.5445 83.775L0 27.925" stroke="#DAE1E7" stroke-opacity="0.25"/>
<path d="M47.2723 0L0 27.925V83.775L47.5455 111.7" stroke="#DAE1E7" stroke-opacity="0.25"/>
<path d="M47.5455 111.7V167.55L94.5445 195.475M94.5445 195.475V83.7748M94.5445 195.475L142.09 167.55V111.7L189.089 83.7748V27.9248" stroke="#DAE1E7" stroke-opacity="0.25"/>
<path d="M189.362 83.7754L236.634 111.7L283.907 83.7754L331.179 111.7L236.634 167.55L142.09 111.7" stroke="#DAE1E7" stroke-opacity="0.25"/>
<path d="M189.362 83.7754L142.09 111.7V167.55L189.635 195.475" stroke="#DAE1E7" stroke-opacity="0.25"/>
<path d="M189.635 195.476V251.326L236.635 279.251M236.635 279.251V167.551M236.635 279.251L284.18 251.326V195.476L331.179 167.551V111.701" stroke="#DAE1E7" stroke-opacity="0.25"/>
<path d="M614.539 0L661.812 27.925L709.084 0L756.356 27.925L661.812 83.775L567.267 27.925" stroke="#DAE1E7" stroke-opacity="0.25"/>
<path d="M614.539 0L567.267 27.925V83.775L614.813 111.7" stroke="#DAE1E7" stroke-opacity="0.25"/>
<path d="M614.812 111.7V167.55L661.812 195.475M661.812 195.475V83.7748M661.812 195.475L709.357 167.55V111.7L756.356 83.7748V27.9248" stroke="#DAE1E7" stroke-opacity="0.25"/>
<path d="M756.629 83.7754L803.901 111.7L851.174 83.7754L898.446 111.7L803.901 167.55L709.357 111.7" stroke="#DAE1E7" stroke-opacity="0.25"/>
<path d="M756.629 83.7754L709.357 111.7V167.55L756.902 195.475" stroke="#DAE1E7" stroke-opacity="0.25"/>
<path d="M756.902 195.476V251.326L803.901 279.251M803.901 279.251V167.551M803.901 279.251L851.447 251.326V195.476L898.446 167.551V111.701" stroke="#DAE1E7" stroke-opacity="0.25"/>
<path d="M330.906 0L378.178 27.925L425.45 0L472.723 27.925L378.178 83.775L283.634 27.925" stroke="#DAE1E7" stroke-opacity="0.25"/>
<path d="M330.906 0L283.634 27.925V83.775L331.179 111.7" stroke="#DAE1E7" stroke-opacity="0.25"/>
<path d="M331.179 111.7V167.55L378.178 195.475M378.178 195.475V83.7748M378.178 195.475L425.724 167.55V111.7L472.723 83.7748V27.9248" stroke="#DAE1E7" stroke-opacity="0.25"/>
<path d="M472.996 83.7754L520.268 111.7L567.54 83.7754L614.813 111.7L520.268 167.55L425.724 111.7" stroke="#DAE1E7" stroke-opacity="0.25"/>
<path d="M472.996 83.7754L425.724 111.7V167.55L473.269 195.475" stroke="#DAE1E7" stroke-opacity="0.25"/>
<path d="M473.269 195.476V251.326L520.268 279.251M520.268 279.251V167.551M520.268 279.251L567.814 251.326V195.476L614.813 167.551V111.701" stroke="#DAE1E7" stroke-opacity="0.25"/>
<path d="M47.8188 167.551L95.091 195.476L142.363 167.551L189.636 195.476L95.091 251.326L0.546509 195.476" stroke="#DAE1E7" stroke-opacity="0.25"/>
<path d="M47.8188 167.551L0.546509 195.476V251.326L48.092 279.251" stroke="#DAE1E7" stroke-opacity="0.25"/>
<path d="M48.092 279.251V335.101L95.091 363.026M95.091 363.026V251.326M95.091 363.026L142.637 335.101V279.251L189.636 251.326V195.476" stroke="#DAE1E7" stroke-opacity="0.25"/>
<path d="M189.909 251.325L237.181 279.25L284.453 251.325L331.725 279.25L237.181 335.1L142.636 279.25" stroke="#DAE1E7" stroke-opacity="0.25"/>
<path d="M189.909 251.325L142.636 279.25V335.1L190.182 363.025" stroke="#DAE1E7" stroke-opacity="0.25"/>
<path d="M190.182 363.025V418.875L237.181 446.8M237.181 446.8V335.1M237.181 446.8L284.727 418.875V363.025L331.726 335.1V279.25" stroke="#DAE1E7" stroke-opacity="0.25"/>
<path d="M615.086 167.551L662.358 195.476L709.63 167.551L756.902 195.476L662.358 251.326L567.813 195.476" stroke="#DAE1E7" stroke-opacity="0.25"/>
<path d="M615.086 167.551L567.813 195.476V251.326L615.359 279.251" stroke="#DAE1E7" stroke-opacity="0.25"/>
<path d="M615.359 279.251V335.101L662.358 363.026M662.358 363.026V251.326M662.358 363.026L709.903 335.101V279.251L756.902 251.326V195.476" stroke="#DAE1E7" stroke-opacity="0.25"/>
<path d="M757.176 251.325L804.448 279.25L851.72 251.325L898.993 279.25L804.448 335.1L709.904 279.25" stroke="#DAE1E7" stroke-opacity="0.25"/>
<path d="M757.176 251.325L709.904 279.25V335.1L757.449 363.025" stroke="#DAE1E7" stroke-opacity="0.25"/>
<path d="M757.449 363.025V418.875L804.448 446.8M804.448 446.8V335.1M804.448 446.8L851.993 418.875V363.025L898.992 335.1V279.25" stroke="#DAE1E7" stroke-opacity="0.25"/>
<path d="M331.452 167.551L378.724 195.476L425.997 167.551L473.269 195.476L378.724 251.326L284.18 195.476" stroke="#DAE1E7" stroke-opacity="0.25"/>
<path d="M331.452 167.551L284.18 195.476V251.326L331.725 279.251" stroke="#DAE1E7" stroke-opacity="0.25"/>
<path d="M331.725 279.251V335.101L378.724 363.026M378.724 363.026V251.326M378.724 363.026L426.27 335.101V279.251L473.269 251.326V195.476" stroke="#DAE1E7" stroke-opacity="0.25"/>
<path d="M473.542 251.325L520.815 279.25L568.087 251.325L615.359 279.25L520.815 335.1L426.27 279.25" stroke="#DAE1E7" stroke-opacity="0.25"/>
<path d="M473.542 251.325L426.27 279.25V335.1L473.816 363.025" stroke="#DAE1E7" stroke-opacity="0.25"/>
<path d="M473.815 363.025V418.875L520.814 446.8M520.814 446.8V335.1M520.814 446.8L568.36 418.875V363.025L615.359 335.1V279.25" stroke="#DAE1E7" stroke-opacity="0.25"/>
<path d="M47.8188 335.1L95.091 363.025L142.363 335.1L189.636 363.025L95.091 418.875L0.546509 363.025" stroke="#DAE1E7" stroke-opacity="0.25"/>
<path d="M47.8188 335.1L0.546509 363.025V418.875L48.092 446.8" stroke="#DAE1E7" stroke-opacity="0.25"/>
<path d="M48.092 446.799V502.649L95.091 530.574M95.091 530.574V418.874M95.091 530.574L142.637 502.649V446.799L189.636 418.874V363.024" stroke="#DAE1E7" stroke-opacity="0.25"/>
<path d="M189.909 418.875L237.181 446.8L284.453 418.875L331.725 446.8L237.181 502.65L142.636 446.8" stroke="#DAE1E7" stroke-opacity="0.25"/>
<path d="M189.909 418.875L142.636 446.8V502.65L190.182 530.575" stroke="#DAE1E7" stroke-opacity="0.25"/>
<path d="M190.182 530.575V586.425L237.181 614.35M237.181 614.35V502.65M237.181 614.35L284.727 586.425V530.575L331.726 502.65V446.8" stroke="#DAE1E7" stroke-opacity="0.25"/>
<path d="M615.086 335.1L662.358 363.025L709.63 335.1L756.902 363.025L662.358 418.875L567.813 363.025" stroke="#DAE1E7" stroke-opacity="0.25"/>
<path d="M615.086 335.1L567.813 363.025V418.875L615.359 446.8" stroke="#DAE1E7" stroke-opacity="0.25"/>
<path d="M615.359 446.799V502.649L662.358 530.574M662.358 530.574V418.874M662.358 530.574L709.904 502.649V446.799L756.903 418.874V363.024" stroke="#DAE1E7" stroke-opacity="0.25"/>
<path d="M757.176 418.875L804.448 446.8L851.72 418.875L898.993 446.8L804.448 502.65L709.904 446.8" stroke="#DAE1E7" stroke-opacity="0.25"/>
<path d="M757.176 418.875L709.904 446.8V502.65L757.449 530.575" stroke="#DAE1E7" stroke-opacity="0.25"/>
<path d="M757.449 530.575V586.425L804.448 614.35M804.448 614.35V502.65M804.448 614.35L851.993 586.425V530.575L898.992 502.65V446.8" stroke="#DAE1E7" stroke-opacity="0.25"/>
<path d="M331.452 335.1L378.725 363.025L425.997 335.1L473.269 363.025L378.725 418.875L284.18 363.025" stroke="#DAE1E7" stroke-opacity="0.25"/>
<path d="M331.452 335.1L284.18 363.025V418.875L331.726 446.8" stroke="#DAE1E7" stroke-opacity="0.25"/>
<path d="M331.726 446.799V502.649L378.725 530.574M378.725 530.574V418.874M378.725 530.574L426.27 502.649V446.799L473.269 418.874V363.024" stroke="#DAE1E7" stroke-opacity="0.25"/>
<path d="M473.542 418.875L520.815 446.8L568.087 418.875L615.359 446.8L520.815 502.65L426.27 446.8" stroke="#DAE1E7" stroke-opacity="0.25"/>
<path d="M473.542 418.875L426.27 446.8V502.65L473.816 530.575" stroke="#DAE1E7" stroke-opacity="0.25"/>
<path d="M473.815 530.575V586.425L520.814 614.35M520.814 614.35V502.65M520.814 614.35L568.36 586.425V530.575L615.359 502.65V446.8" stroke="#DAE1E7" stroke-opacity="0.25"/>
<path d="M47.8188 502.65L95.091 530.575L142.363 502.65L189.636 530.575L95.091 586.425L0.546509 530.575" stroke="#DAE1E7" stroke-opacity="0.25"/>
<path d="M47.8188 502.65L0.546509 530.575V586.425L48.092 614.35" stroke="#DAE1E7" stroke-opacity="0.25"/>
<path d="M48.092 614.351V670.201L95.091 698.126M95.091 698.126V586.426M95.091 698.126L142.637 670.201V614.351L189.636 586.426V530.576" stroke="#DAE1E7" stroke-opacity="0.25"/>
<path d="M189.909 586.426L237.181 614.351L284.453 586.426L331.725 614.351L237.181 670.201L142.636 614.351" stroke="#DAE1E7" stroke-opacity="0.25"/>
<path d="M189.909 586.426L142.636 614.351V670.201L190.182 698.126" stroke="#DAE1E7" stroke-opacity="0.25"/>
<path d="M190.182 698.126V753.976L237.181 781.901M237.181 781.901V670.201M237.181 781.901L284.727 753.976V698.126L331.726 670.201V614.351" stroke="#DAE1E7" stroke-opacity="0.25"/>
<path d="M615.086 502.65L662.358 530.575L709.63 502.65L756.902 530.575L662.358 586.425L567.813 530.575" stroke="#DAE1E7" stroke-opacity="0.25"/>
<path d="M615.086 502.65L567.813 530.575V586.425L615.359 614.35" stroke="#DAE1E7" stroke-opacity="0.25"/>
<path d="M615.359 614.351V670.201L662.358 698.126M662.358 698.126V586.426M662.358 698.126L709.904 670.201V614.351L756.903 586.426V530.576" stroke="#DAE1E7" stroke-opacity="0.25"/>
<path d="M757.176 586.426L804.448 614.351L851.72 586.426L898.993 614.351L804.448 670.201L709.904 614.351" stroke="#DAE1E7" stroke-opacity="0.25"/>
<path d="M757.176 586.426L709.904 614.351V670.201L757.449 698.126" stroke="#DAE1E7" stroke-opacity="0.25"/>
<path d="M757.449 698.126V753.976L804.448 781.901M804.448 781.901V670.201M804.448 781.901L851.993 753.976V698.126L898.992 670.201V614.351" stroke="#DAE1E7" stroke-opacity="0.25"/>
<path d="M331.452 502.65L378.725 530.575L425.997 502.65L473.269 530.575L378.725 586.425L284.18 530.575" stroke="#DAE1E7" stroke-opacity="0.25"/>
<path d="M331.452 502.65L284.18 530.575V586.425L331.726 614.35" stroke="#DAE1E7" stroke-opacity="0.25"/>
<path d="M331.726 614.351V670.201L378.725 698.126M378.725 698.126V586.426M378.725 698.126L426.27 670.201V614.351L473.269 586.426V530.576" stroke="#DAE1E7" stroke-opacity="0.25"/>
<path d="M473.542 586.426L520.815 614.351L568.087 586.426L615.359 614.351L520.815 670.201L426.27 614.351" stroke="#DAE1E7" stroke-opacity="0.25"/>
<path d="M473.542 586.426L426.27 614.351V670.201L473.816 698.126" stroke="#DAE1E7" stroke-opacity="0.25"/>
<path d="M473.815 698.126V753.976L520.814 781.901M520.814 781.901V670.201M520.814 781.901L568.36 753.976V698.126L615.359 670.201V614.351" stroke="#DAE1E7" stroke-opacity="0.25"/>
<path d="M48.3653 670.199L95.6375 698.124L142.91 670.199L190.182 698.124L95.6375 753.974L1.09302 698.124" stroke="#DAE1E7" stroke-opacity="0.25"/>
<path d="M48.3653 670.199L1.09302 698.124V753.974L48.6385 781.899" stroke="#DAE1E7" stroke-opacity="0.25"/>
<path d="M48.6385 781.899V837.749L95.6376 865.674M95.6376 865.674V753.974M95.6376 865.674L143.183 837.749V781.899L190.182 753.974V698.124" stroke="#DAE1E7" stroke-opacity="0.25"/>
<path d="M190.455 753.975L237.727 781.9L285 753.975L332.272 781.9L237.727 837.75L143.183 781.9" stroke="#DAE1E7" stroke-opacity="0.25"/>
<path d="M190.455 753.975L143.183 781.9V837.75L190.728 865.675" stroke="#DAE1E7" stroke-opacity="0.25"/>
<path d="M190.729 865.674V921.524L237.728 949.449M237.728 949.449V837.749M237.728 949.449L285.273 921.524V865.674L332.272 837.749V781.899" stroke="#DAE1E7" stroke-opacity="0.25"/>
<path d="M615.632 670.199L662.904 698.124L710.177 670.199L757.449 698.124L662.904 753.974L568.36 698.124" stroke="#DAE1E7" stroke-opacity="0.25"/>
<path d="M615.632 670.199L568.36 698.124V753.974L615.905 781.899" stroke="#DAE1E7" stroke-opacity="0.25"/>
<path d="M615.906 781.899V837.749L662.905 865.674M662.905 865.674V753.974M662.905 865.674L710.45 837.749V781.899L757.449 753.974V698.124" stroke="#DAE1E7" stroke-opacity="0.25"/>
<path d="M757.722 753.975L804.995 781.9L852.267 753.975L899.539 781.9L804.995 837.75L710.45 781.9" stroke="#DAE1E7" stroke-opacity="0.25"/>
<path d="M757.722 753.975L710.45 781.9V837.75L757.996 865.675" stroke="#DAE1E7" stroke-opacity="0.25"/>
<path d="M757.995 865.674V921.524L804.994 949.449M804.994 949.449V837.749M804.994 949.449L852.54 921.524V865.674L899.539 837.749V781.899" stroke="#DAE1E7" stroke-opacity="0.25"/>
<path d="M331.999 670.199L379.271 698.124L426.543 670.199L473.816 698.124L379.271 753.974L284.727 698.124" stroke="#DAE1E7" stroke-opacity="0.25"/>
<path d="M331.999 670.199L284.727 698.124V753.974L332.272 781.899" stroke="#DAE1E7" stroke-opacity="0.25"/>
<path d="M332.272 781.899V837.749L379.271 865.674M379.271 865.674V753.974M379.271 865.674L426.816 837.749V781.899L473.815 753.974V698.124" stroke="#DAE1E7" stroke-opacity="0.25"/>
<path d="M474.089 753.975L521.361 781.9L568.633 753.975L615.905 781.9L521.361 837.75L426.816 781.9" stroke="#DAE1E7" stroke-opacity="0.25"/>
<path d="M474.089 753.975L426.816 781.9V837.75L474.362 865.675" stroke="#DAE1E7" stroke-opacity="0.25"/>
<path d="M474.362 865.674V921.524L521.361 949.449M521.361 949.449V837.749M521.361 949.449L568.906 921.524V865.674L615.905 837.749V781.899" stroke="#DAE1E7" stroke-opacity="0.25"/>
<path d="M48.3653 837.75L95.6375 865.675L142.91 837.75L190.182 865.675L95.6375 921.525L1.09302 865.675" stroke="#DAE1E7" stroke-opacity="0.25"/>
<path d="M48.3653 837.75L1.09302 865.675V921.525L48.6385 949.45" stroke="#DAE1E7" stroke-opacity="0.25"/>
<path d="M48.6385 949.45V1005.3L95.6376 1033.22M95.6376 1033.22V921.525M95.6376 1033.22L143.183 1005.3V949.45L190.182 921.525V865.675" stroke="#DAE1E7" stroke-opacity="0.25"/>
<path d="M190.455 921.525L237.727 949.45L285 921.525L332.272 949.45L237.727 1005.3L143.183 949.45" stroke="#DAE1E7" stroke-opacity="0.25"/>
<path d="M190.455 921.525L143.183 949.45V1005.3L190.728 1033.23" stroke="#DAE1E7" stroke-opacity="0.25"/>
<path d="M190.729 1033.23V1089.08L237.728 1117M237.728 1117V1005.3M237.728 1117L285.273 1089.08V1033.23L332.272 1005.3V949.451" stroke="#DAE1E7" stroke-opacity="0.25"/>
<path d="M615.632 837.75L662.904 865.675L710.177 837.75L757.449 865.675L662.904 921.525L568.36 865.675" stroke="#DAE1E7" stroke-opacity="0.25"/>
<path d="M615.632 837.75L568.36 865.675V921.525L615.905 949.45" stroke="#DAE1E7" stroke-opacity="0.25"/>
<path d="M615.906 949.45V1005.3L662.905 1033.22M662.905 1033.22V921.525M662.905 1033.22L710.45 1005.3V949.45L757.449 921.525V865.675" stroke="#DAE1E7" stroke-opacity="0.25"/>
<path d="M757.722 921.525L804.995 949.45L852.267 921.525L899.539 949.45L804.995 1005.3L710.45 949.45" stroke="#DAE1E7" stroke-opacity="0.25"/>
<path d="M757.722 921.525L710.45 949.45V1005.3L757.996 1033.23" stroke="#DAE1E7" stroke-opacity="0.25"/>
<path d="M757.995 1033.23V1089.08L804.994 1117M804.994 1117V1005.3M804.994 1117L852.54 1089.08V1033.23L899.539 1005.3V949.451" stroke="#DAE1E7" stroke-opacity="0.25"/>
<path d="M331.999 837.75L379.271 865.675L426.543 837.75L473.816 865.675L379.271 921.525L284.727 865.675" stroke="#DAE1E7" stroke-opacity="0.25"/>
<path d="M331.999 837.75L284.727 865.675V921.525L332.272 949.45" stroke="#DAE1E7" stroke-opacity="0.25"/>
<path d="M332.272 949.45V1005.3L379.271 1033.22M379.271 1033.22V921.525M379.271 1033.22L426.816 1005.3V949.45L473.815 921.525V865.675" stroke="#DAE1E7" stroke-opacity="0.25"/>
<path d="M474.089 921.525L521.361 949.45L568.633 921.525L615.905 949.45L521.361 1005.3L426.816 949.45" stroke="#DAE1E7" stroke-opacity="0.25"/>
<path d="M474.089 921.525L426.816 949.45V1005.3L474.362 1033.23" stroke="#DAE1E7" stroke-opacity="0.25"/>
<path d="M474.362 1033.23V1089.08L521.361 1117M521.361 1117V1005.3M521.361 1117L568.906 1089.08V1033.23L615.905 1005.3V949.451" stroke="#DAE1E7" stroke-opacity="0.25"/>
<path d="M898.173 0L945.445 27.925L992.717 0L1039.99 27.925L945.445 83.775L850.901 27.925" stroke="#DAE1E7" stroke-opacity="0.25"/>
<path d="M898.173 0L850.901 27.925V83.775L898.446 111.7" stroke="#DAE1E7" stroke-opacity="0.25"/>
<path d="M898.446 111.7V167.55L945.445 195.475M945.445 195.475V83.7748M945.445 195.475L992.991 167.55V111.7L1039.99 83.7748V27.9248" stroke="#DAE1E7" stroke-opacity="0.25"/>
<path d="M1040.26 83.7754L1087.53 111.7L1134.81 83.7754L1182.08 111.7L1087.53 167.55L992.99 111.7" stroke="#DAE1E7" stroke-opacity="0.25"/>
<path d="M1040.26 83.7754L992.99 111.7V167.55L1040.54 195.475" stroke="#DAE1E7" stroke-opacity="0.25"/>
<path d="M1040.54 195.476V251.326L1087.54 279.251M1087.54 279.251V167.551M1087.54 279.251L1135.08 251.326V195.476L1182.08 167.551V111.701" stroke="#DAE1E7" stroke-opacity="0.25"/>
<path d="M1465.44 0L1512.71 27.925L1559.98 0L1607.26 27.925L1512.71 83.775L1418.17 27.925" stroke="#DAE1E7" stroke-opacity="0.25"/>
<path d="M1465.44 0L1418.17 27.925V83.775L1465.71 111.7" stroke="#DAE1E7" stroke-opacity="0.25"/>
<path d="M1465.71 111.7V167.55L1512.71 195.475M1512.71 195.475V83.7748M1512.71 195.475L1560.26 167.55V111.7L1607.26 83.7748V27.9248" stroke="#DAE1E7" stroke-opacity="0.25"/>
<path d="M1607.53 83.7754L1654.8 111.7L1702.07 83.7754L1749.35 111.7L1654.8 167.55L1560.26 111.7" stroke="#DAE1E7" stroke-opacity="0.25"/>
<path d="M1607.53 83.7754L1560.26 111.7V167.55L1607.8 195.475" stroke="#DAE1E7" stroke-opacity="0.25"/>
<path d="M1607.8 195.476V251.326L1654.8 279.251M1654.8 279.251V167.551M1654.8 279.251L1702.35 251.326V195.476L1749.35 167.551V111.701" stroke="#DAE1E7" stroke-opacity="0.25"/>
<path d="M1181.81 0L1229.08 27.925L1276.35 0L1323.62 27.925L1229.08 83.775L1134.53 27.925" stroke="#DAE1E7" stroke-opacity="0.25"/>
<path d="M1181.81 0L1134.53 27.925V83.775L1182.08 111.7" stroke="#DAE1E7" stroke-opacity="0.25"/>
<path d="M1182.08 111.7V167.55L1229.08 195.475M1229.08 195.475V83.7748M1229.08 195.475L1276.62 167.55V111.7L1323.62 83.7748V27.9248" stroke="#DAE1E7" stroke-opacity="0.25"/>
<path d="M1323.9 83.7754L1371.17 111.7L1418.44 83.7754L1465.71 111.7L1371.17 167.55L1276.62 111.7" stroke="#DAE1E7" stroke-opacity="0.25"/>
<path d="M1323.9 83.7754L1276.62 111.7V167.55L1324.17 195.475" stroke="#DAE1E7" stroke-opacity="0.25"/>
<path d="M1324.17 195.476V251.326L1371.17 279.251M1371.17 279.251V167.551M1371.17 279.251L1418.71 251.326V195.476L1465.71 167.551V111.701" stroke="#DAE1E7" stroke-opacity="0.25"/>
<path d="M898.719 167.551L945.992 195.476L993.264 167.551L1040.54 195.476L945.992 251.326L851.447 195.476" stroke="#DAE1E7" stroke-opacity="0.25"/>
<path d="M898.719 167.551L851.447 195.476V251.326L898.993 279.251" stroke="#DAE1E7" stroke-opacity="0.25"/>
<path d="M898.993 279.251V335.101L945.992 363.026M945.992 363.026V251.326M945.992 363.026L993.537 335.101V279.251L1040.54 251.326V195.476" stroke="#DAE1E7" stroke-opacity="0.25"/>
<path d="M1040.81 251.325L1088.08 279.25L1135.35 251.325L1182.63 279.25L1088.08 335.1L993.537 279.25" stroke="#DAE1E7" stroke-opacity="0.25"/>
<path d="M1040.81 251.325L993.537 279.25V335.1L1041.08 363.025" stroke="#DAE1E7" stroke-opacity="0.25"/>
<path d="M1041.08 363.025V418.875L1088.08 446.8M1088.08 446.8V335.1M1088.08 446.8L1135.63 418.875V363.025L1182.63 335.1V279.25" stroke="#DAE1E7" stroke-opacity="0.25"/>
<path d="M1465.99 167.551L1513.26 195.476L1560.53 167.551L1607.8 195.476L1513.26 251.326L1418.71 195.476" stroke="#DAE1E7" stroke-opacity="0.25"/>
<path d="M1465.99 167.551L1418.71 195.476V251.326L1466.26 279.251" stroke="#DAE1E7" stroke-opacity="0.25"/>
<path d="M1466.26 279.251V335.101L1513.26 363.026M1513.26 363.026V251.326M1513.26 363.026L1560.8 335.101V279.251L1607.8 251.326V195.476" stroke="#DAE1E7" stroke-opacity="0.25"/>
<path d="M1608.08 251.325L1655.35 279.25L1702.62 251.325L1749.89 279.25L1655.35 335.1L1560.8 279.25" stroke="#DAE1E7" stroke-opacity="0.25"/>
<path d="M1608.08 251.325L1560.8 279.25V335.1L1608.35 363.025" stroke="#DAE1E7" stroke-opacity="0.25"/>
<path d="M1608.35 363.025V418.875L1655.35 446.8M1655.35 446.8V335.1M1655.35 446.8L1702.89 418.875V363.025L1749.89 335.1V279.25" stroke="#DAE1E7" stroke-opacity="0.25"/>
<path d="M1182.35 167.551L1229.63 195.476L1276.9 167.551L1324.17 195.476L1229.63 251.326L1135.08 195.476" stroke="#DAE1E7" stroke-opacity="0.25"/>
<path d="M1182.35 167.551L1135.08 195.476V251.326L1182.63 279.251" stroke="#DAE1E7" stroke-opacity="0.25"/>
<path d="M1182.63 279.251V335.101L1229.62 363.026M1229.62 363.026V251.326M1229.62 363.026L1277.17 335.101V279.251L1324.17 251.326V195.476" stroke="#DAE1E7" stroke-opacity="0.25"/>
<path d="M1324.44 251.325L1371.72 279.25L1418.99 251.325L1466.26 279.25L1371.72 335.1L1277.17 279.25" stroke="#DAE1E7" stroke-opacity="0.25"/>
<path d="M1324.44 251.325L1277.17 279.25V335.1L1324.72 363.025" stroke="#DAE1E7" stroke-opacity="0.25"/>
<path d="M1324.72 363.025V418.875L1371.71 446.8M1371.71 446.8V335.1M1371.71 446.8L1419.26 418.875V363.025L1466.26 335.1V279.25" stroke="#DAE1E7" stroke-opacity="0.25"/>
<path d="M898.719 335.1L945.991 363.025L993.264 335.1L1040.54 363.025L945.991 418.875L851.447 363.025" stroke="#DAE1E7" stroke-opacity="0.25"/>
<path d="M898.719 335.1L851.447 363.025V418.875L898.992 446.8" stroke="#DAE1E7" stroke-opacity="0.25"/>
<path d="M898.992 446.799V502.649L945.991 530.574M945.991 530.574V418.874M945.991 530.574L993.537 502.649V446.799L1040.54 418.874V363.024" stroke="#DAE1E7" stroke-opacity="0.25"/>
<path d="M1040.81 418.875L1088.08 446.8L1135.35 418.875L1182.63 446.8L1088.08 502.65L993.537 446.8" stroke="#DAE1E7" stroke-opacity="0.25"/>
<path d="M1040.81 418.875L993.537 446.8V502.65L1041.08 530.575" stroke="#DAE1E7" stroke-opacity="0.25"/>
<path d="M1041.08 530.575V586.425L1088.08 614.35M1088.08 614.35V502.65M1088.08 614.35L1135.63 586.425V530.575L1182.63 502.65V446.8" stroke="#DAE1E7" stroke-opacity="0.25"/>
<path d="M1465.99 335.1L1513.26 363.025L1560.53 335.1L1607.8 363.025L1513.26 418.875L1418.71 363.025" stroke="#DAE1E7" stroke-opacity="0.25"/>
<path d="M1465.99 335.1L1418.71 363.025V418.875L1466.26 446.8" stroke="#DAE1E7" stroke-opacity="0.25"/>
<path d="M1466.26 446.799V502.649L1513.26 530.574M1513.26 530.574V418.874M1513.26 530.574L1560.8 502.649V446.799L1607.8 418.874V363.024" stroke="#DAE1E7" stroke-opacity="0.25"/>
<path d="M1608.08 418.875L1655.35 446.8L1702.62 418.875L1749.89 446.8L1655.35 502.65L1560.8 446.8" stroke="#DAE1E7" stroke-opacity="0.25"/>
<path d="M1608.08 418.875L1560.8 446.8V502.65L1608.35 530.575" stroke="#DAE1E7" stroke-opacity="0.25"/>
<path d="M1608.35 530.575V586.425L1655.35 614.35M1655.35 614.35V502.65M1655.35 614.35L1702.89 586.425V530.575L1749.89 502.65V446.8" stroke="#DAE1E7" stroke-opacity="0.25"/>
<path d="M1182.35 335.1L1229.62 363.025L1276.9 335.1L1324.17 363.025L1229.62 418.875L1135.08 363.025" stroke="#DAE1E7" stroke-opacity="0.25"/>
<path d="M1182.35 335.1L1135.08 363.025V418.875L1182.63 446.8" stroke="#DAE1E7" stroke-opacity="0.25"/>
<path d="M1182.63 446.799V502.649L1229.62 530.574M1229.62 530.574V418.874M1229.62 530.574L1277.17 502.649V446.799L1324.17 418.874V363.024" stroke="#DAE1E7" stroke-opacity="0.25"/>
<path d="M1324.44 418.875L1371.71 446.8L1418.99 418.875L1466.26 446.8L1371.71 502.65L1277.17 446.8" stroke="#DAE1E7" stroke-opacity="0.25"/>
<path d="M1324.44 418.875L1277.17 446.8V502.65L1324.72 530.575" stroke="#DAE1E7" stroke-opacity="0.25"/>
<path d="M1324.72 530.575V586.425L1371.71 614.35M1371.71 614.35V502.65M1371.71 614.35L1419.26 586.425V530.575L1466.26 502.65V446.8" stroke="#DAE1E7" stroke-opacity="0.25"/>
<path d="M898.719 502.65L945.991 530.575L993.264 502.65L1040.54 530.575L945.991 586.425L851.447 530.575" stroke="#DAE1E7" stroke-opacity="0.25"/>
<path d="M898.719 502.65L851.447 530.575V586.425L898.992 614.35" stroke="#DAE1E7" stroke-opacity="0.25"/>
<path d="M898.992 614.351V670.201L945.991 698.126M945.991 698.126V586.426M945.991 698.126L993.537 670.201V614.351L1040.54 586.426V530.576" stroke="#DAE1E7" stroke-opacity="0.25"/>
<path d="M1040.81 586.426L1088.08 614.351L1135.35 586.426L1182.63 614.351L1088.08 670.201L993.537 614.351" stroke="#DAE1E7" stroke-opacity="0.25"/>
<path d="M1040.81 586.426L993.537 614.351V670.201L1041.08 698.126" stroke="#DAE1E7" stroke-opacity="0.25"/>
<path d="M1041.08 698.126V753.976L1088.08 781.901M1088.08 781.901V670.201M1088.08 781.901L1135.63 753.976V698.126L1182.63 670.201V614.351" stroke="#DAE1E7" stroke-opacity="0.25"/>
<path d="M1465.99 502.65L1513.26 530.575L1560.53 502.65L1607.8 530.575L1513.26 586.425L1418.71 530.575" stroke="#DAE1E7" stroke-opacity="0.25"/>
<path d="M1465.99 502.65L1418.71 530.575V586.425L1466.26 614.35" stroke="#DAE1E7" stroke-opacity="0.25"/>
<path d="M1466.26 614.351V670.201L1513.26 698.126M1513.26 698.126V586.426M1513.26 698.126L1560.8 670.201V614.351L1607.8 586.426V530.576" stroke="#DAE1E7" stroke-opacity="0.25"/>
<path d="M1608.08 586.426L1655.35 614.351L1702.62 586.426L1749.89 614.351L1655.35 670.201L1560.8 614.351" stroke="#DAE1E7" stroke-opacity="0.25"/>
<path d="M1608.08 586.426L1560.8 614.351V670.201L1608.35 698.126" stroke="#DAE1E7" stroke-opacity="0.25"/>
<path d="M1608.35 698.126V753.976L1655.35 781.901M1655.35 781.901V670.201M1655.35 781.901L1702.89 753.976V698.126L1749.89 670.201V614.351" stroke="#DAE1E7" stroke-opacity="0.25"/>
<path d="M1182.35 502.65L1229.62 530.575L1276.9 502.65L1324.17 530.575L1229.62 586.425L1135.08 530.575" stroke="#DAE1E7" stroke-opacity="0.25"/>
<path d="M1182.35 502.65L1135.08 530.575V586.425L1182.63 614.35" stroke="#DAE1E7" stroke-opacity="0.25"/>
<path d="M1182.63 614.351V670.201L1229.62 698.126M1229.62 698.126V586.426M1229.62 698.126L1277.17 670.201V614.351L1324.17 586.426V530.576" stroke="#DAE1E7" stroke-opacity="0.25"/>
<path d="M1324.44 586.426L1371.71 614.351L1418.99 586.426L1466.26 614.351L1371.71 670.201L1277.17 614.351" stroke="#DAE1E7" stroke-opacity="0.25"/>
<path d="M1324.44 586.426L1277.17 614.351V670.201L1324.72 698.126" stroke="#DAE1E7" stroke-opacity="0.25"/>
<path d="M1324.72 698.126V753.976L1371.71 781.901M1371.71 781.901V670.201M1371.71 781.901L1419.26 753.976V698.126L1466.26 670.201V614.351" stroke="#DAE1E7" stroke-opacity="0.25"/>
<path d="M899.266 670.199L946.538 698.124L993.81 670.199L1041.08 698.124L946.538 753.974L851.994 698.124" stroke="#DAE1E7" stroke-opacity="0.25"/>
<path d="M899.266 670.199L851.994 698.124V753.974L899.539 781.899" stroke="#DAE1E7" stroke-opacity="0.25"/>
<path d="M899.539 781.899V837.749L946.538 865.674M946.538 865.674V753.974M946.538 865.674L994.084 837.749V781.899L1041.08 753.974V698.124" stroke="#DAE1E7" stroke-opacity="0.25"/>
<path d="M1041.36 753.975L1088.63 781.9L1135.9 753.975L1183.17 781.9L1088.63 837.75L994.083 781.9" stroke="#DAE1E7" stroke-opacity="0.25"/>
<path d="M1041.36 753.975L994.083 781.9V837.75L1041.63 865.675" stroke="#DAE1E7" stroke-opacity="0.25"/>
<path d="M1041.63 865.674V921.524L1088.63 949.449M1088.63 949.449V837.749M1088.63 949.449L1136.17 921.524V865.674L1183.17 837.749V781.899" stroke="#DAE1E7" stroke-opacity="0.25"/>
<path d="M1466.53 670.199L1513.81 698.124L1561.08 670.199L1608.35 698.124L1513.81 753.974L1419.26 698.124" stroke="#DAE1E7" stroke-opacity="0.25"/>
<path d="M1466.53 670.199L1419.26 698.124V753.974L1466.81 781.899" stroke="#DAE1E7" stroke-opacity="0.25"/>
<path d="M1466.81 781.899V837.749L1513.81 865.674M1513.81 865.674V753.974M1513.81 865.674L1561.35 837.749V781.899L1608.35 753.974V698.124" stroke="#DAE1E7" stroke-opacity="0.25"/>
<path d="M1608.62 753.975L1655.89 781.9L1703.17 753.975L1750.44 781.9L1655.89 837.75L1561.35 781.9" stroke="#DAE1E7" stroke-opacity="0.25"/>
<path d="M1608.62 753.975L1561.35 781.9V837.75L1608.9 865.675" stroke="#DAE1E7" stroke-opacity="0.25"/>
<path d="M1608.9 865.674V921.524L1655.89 949.449M1655.89 949.449V837.749M1655.89 949.449L1703.44 921.524V865.674L1750.44 837.749V781.899" stroke="#DAE1E7" stroke-opacity="0.25"/>
<path d="M1182.9 670.199L1230.17 698.124L1277.44 670.199L1324.72 698.124L1230.17 753.974L1135.63 698.124" stroke="#DAE1E7" stroke-opacity="0.25"/>
<path d="M1182.9 670.199L1135.63 698.124V753.974L1183.17 781.899" stroke="#DAE1E7" stroke-opacity="0.25"/>
<path d="M1183.17 781.899V837.749L1230.17 865.674M1230.17 865.674V753.974M1230.17 865.674L1277.72 837.749V781.899L1324.72 753.974V698.124" stroke="#DAE1E7" stroke-opacity="0.25"/>
<path d="M1324.99 753.975L1372.26 781.9L1419.53 753.975L1466.81 781.9L1372.26 837.75L1277.72 781.9" stroke="#DAE1E7" stroke-opacity="0.25"/>
<path d="M1324.99 753.975L1277.72 781.9V837.75L1325.26 865.675" stroke="#DAE1E7" stroke-opacity="0.25"/>
<path d="M1325.26 865.674V921.524L1372.26 949.449M1372.26 949.449V837.749M1372.26 949.449L1419.81 921.524V865.674L1466.81 837.749V781.899" stroke="#DAE1E7" stroke-opacity="0.25"/>
<path d="M899.266 837.75L946.538 865.675L993.81 837.75L1041.08 865.675L946.538 921.525L851.994 865.675" stroke="#DAE1E7" stroke-opacity="0.25"/>
<path d="M899.266 837.75L851.994 865.675V921.525L899.539 949.45" stroke="#DAE1E7" stroke-opacity="0.25"/>
<path d="M899.539 949.45V1005.3L946.538 1033.22M946.538 1033.22V921.525M946.538 1033.22L994.084 1005.3V949.45L1041.08 921.525V865.675" stroke="#DAE1E7" stroke-opacity="0.25"/>
<path d="M1041.36 921.525L1088.63 949.45L1135.9 921.525L1183.17 949.45L1088.63 1005.3L994.083 949.45" stroke="#DAE1E7" stroke-opacity="0.25"/>
<path d="M1041.36 921.525L994.083 949.45V1005.3L1041.63 1033.23" stroke="#DAE1E7" stroke-opacity="0.25"/>
<path d="M1041.63 1033.23V1089.08L1088.63 1117M1088.63 1117V1005.3M1088.63 1117L1136.17 1089.08V1033.23L1183.17 1005.3V949.451" stroke="#DAE1E7" stroke-opacity="0.25"/>
<path d="M1466.53 837.75L1513.81 865.675L1561.08 837.75L1608.35 865.675L1513.81 921.525L1419.26 865.675" stroke="#DAE1E7" stroke-opacity="0.25"/>
<path d="M1466.53 837.75L1419.26 865.675V921.525L1466.81 949.45" stroke="#DAE1E7" stroke-opacity="0.25"/>
<path d="M1466.81 949.45V1005.3L1513.81 1033.22M1513.81 1033.22V921.525M1513.81 1033.22L1561.35 1005.3V949.45L1608.35 921.525V865.675" stroke="#DAE1E7" stroke-opacity="0.25"/>
<path d="M1608.62 921.525L1655.89 949.45L1703.17 921.525L1750.44 949.45L1655.89 1005.3L1561.35 949.45" stroke="#DAE1E7" stroke-opacity="0.25"/>
<path d="M1608.62 921.525L1561.35 949.45V1005.3L1608.9 1033.23" stroke="#DAE1E7" stroke-opacity="0.25"/>
<path d="M1608.9 1033.23V1089.08L1655.89 1117M1655.89 1117V1005.3M1655.89 1117L1703.44 1089.08V1033.23L1750.44 1005.3V949.451" stroke="#DAE1E7" stroke-opacity="0.25"/>
<path d="M1182.9 837.75L1230.17 865.675L1277.44 837.75L1324.72 865.675L1230.17 921.525L1135.63 865.675" stroke="#DAE1E7" stroke-opacity="0.25"/>
<path d="M1182.9 837.75L1135.63 865.675V921.525L1183.17 949.45" stroke="#DAE1E7" stroke-opacity="0.25"/>
<path d="M1183.17 949.45V1005.3L1230.17 1033.22M1230.17 1033.22V921.525M1230.17 1033.22L1277.72 1005.3V949.45L1324.72 921.525V865.675" stroke="#DAE1E7" stroke-opacity="0.25"/>
<path d="M1324.99 921.525L1372.26 949.45L1419.53 921.525L1466.81 949.45L1372.26 1005.3L1277.72 949.45" stroke="#DAE1E7" stroke-opacity="0.25"/>
<path d="M1324.99 921.525L1277.72 949.45V1005.3L1325.26 1033.23" stroke="#DAE1E7" stroke-opacity="0.25"/>
<path d="M1325.26 1033.23V1089.08L1372.26 1117M1372.26 1117V1005.3M1372.26 1117L1419.81 1089.08V1033.23L1466.81 1005.3V949.451" stroke="#DAE1E7" stroke-opacity="0.25"/>
</g>
<defs>
<linearGradient id="paint0_linear_31_1704" x1="875.22" y1="0" x2="875.22" y2="1117" gradientUnits="userSpaceOnUse">
<stop stop-color="white"/>
<stop offset="1" stop-color="#D9D9D9" stop-opacity="0"/>
</linearGradient>
</defs>
</svg>
