<svg width="1728" height="790" viewBox="0 0 1728 790" fill="none" xmlns="http://www.w3.org/2000/svg">
<mask id="mask0_963_3917" style="mask-type:alpha" maskUnits="userSpaceOnUse" x="0" y="-327" width="1728" height="1117">
<rect y="-327" width="1728" height="1117" fill="url(#paint0_linear_963_3917)"/>
</mask>
<g mask="url(#mask0_963_3917)">
<path d="M47.4755 -47.7484V8.10156L93.872 36.0266M93.872 36.0266V-75.6734M93.872 36.0266L140.808 8.10156V-47.7484L187.204 -75.6734V-131.523" stroke="#DAE1E7" stroke-opacity="0.07"/>
<path d="M187.474 -75.6758L234.14 -47.7508L280.807 -75.6758L327.473 -47.7508L234.14 8.09922L140.808 -47.7508" stroke="#DAE1E7" stroke-opacity="0.07"/>
<path d="M187.474 -75.6758L140.808 -47.7508V8.09923L187.744 36.0242" stroke="#DAE1E7" stroke-opacity="0.07"/>
<path d="M187.744 36.025V91.875L234.14 119.8M234.14 119.8V8.1M234.14 119.8L281.076 91.875V36.025L327.473 8.1V-47.75" stroke="#DAE1E7" stroke-opacity="0.07"/>
<path d="M607.47 -47.7484V8.10156L653.867 36.0266M653.867 36.0266V-75.6734M653.867 36.0266L700.803 8.10156V-47.7484L747.199 -75.6734V-131.523" stroke="#DAE1E7" stroke-opacity="0.07"/>
<path d="M747.469 -75.6758L794.136 -47.7508L840.802 -75.6758L887.468 -47.7508L794.136 8.09922L700.803 -47.7508" stroke="#DAE1E7" stroke-opacity="0.07"/>
<path d="M747.469 -75.6758L700.803 -47.7508V8.09923L747.739 36.0242" stroke="#DAE1E7" stroke-opacity="0.07"/>
<path d="M747.739 36.025V91.875L794.136 119.8M794.136 119.8V8.1M794.136 119.8L841.072 91.875V36.025L887.468 8.1V-47.75" stroke="#DAE1E7" stroke-opacity="0.07"/>
<path d="M327.473 -47.7484V8.10156L373.87 36.0266M373.87 36.0266V-75.6734M373.87 36.0266L420.806 8.10156V-47.7484L467.202 -75.6734V-131.523" stroke="#DAE1E7" stroke-opacity="0.07"/>
<path d="M467.472 -75.6758L514.138 -47.7508L560.804 -75.6758L607.47 -47.7508L514.138 8.09922L420.805 -47.7508" stroke="#DAE1E7" stroke-opacity="0.07"/>
<path d="M467.472 -75.6758L420.805 -47.7508V8.09923L467.741 36.0242" stroke="#DAE1E7" stroke-opacity="0.07"/>
<path d="M467.741 36.025V91.875L514.138 119.8M514.138 119.8V8.1M514.138 119.8L561.074 91.875V36.025L607.47 8.1V-47.75" stroke="#DAE1E7" stroke-opacity="0.07"/>
<path d="M47.2058 8.09961L93.872 36.0246L140.538 8.09961L187.205 36.0246L93.872 91.8746L0.539536 36.0246" stroke="#DAE1E7" stroke-opacity="0.07"/>
<path d="M47.2058 8.09961L0.539536 36.0246V91.8746L47.4755 119.8" stroke="#DAE1E7" stroke-opacity="0.07"/>
<path d="M47.4755 119.8V175.65L93.872 203.575M93.872 203.575V91.8754M93.872 203.575L140.808 175.65V119.8L187.204 91.8754V36.0254" stroke="#DAE1E7" stroke-opacity="0.07"/>
<path d="M187.474 91.875L234.14 119.8L280.807 91.875L327.473 119.8L234.14 175.65L140.808 119.8" stroke="#DAE1E7" stroke-opacity="0.07"/>
<path d="M187.474 91.875L140.808 119.8V175.65L187.744 203.575" stroke="#DAE1E7" stroke-opacity="0.07"/>
<path d="M187.744 203.576V259.426L234.14 287.351M234.14 287.351V175.651M234.14 287.351L281.076 259.426V203.576L327.473 175.651V119.801" stroke="#DAE1E7" stroke-opacity="0.07"/>
<path d="M607.201 8.09961L653.867 36.0246L700.533 8.09961L747.2 36.0246L653.867 91.8746L560.535 36.0246" stroke="#DAE1E7" stroke-opacity="0.07"/>
<path d="M607.201 8.09961L560.535 36.0246V91.8746L607.471 119.8" stroke="#DAE1E7" stroke-opacity="0.07"/>
<path d="M607.471 119.8V175.65L653.867 203.575M653.867 203.575V91.8754M653.867 203.575L700.803 175.65V119.8L747.2 91.8754V36.0254" stroke="#DAE1E7" stroke-opacity="0.07"/>
<path d="M747.469 91.875L794.136 119.8L840.802 91.875L887.468 119.8L794.136 175.65L700.803 119.8" stroke="#DAE1E7" stroke-opacity="0.07"/>
<path d="M747.469 91.875L700.803 119.8V175.65L747.739 203.575" stroke="#DAE1E7" stroke-opacity="0.07"/>
<path d="M747.739 203.576V259.426L794.136 287.351M794.136 287.351V175.651M794.136 287.351L841.072 259.426V203.576L887.468 175.651V119.801" stroke="#DAE1E7" stroke-opacity="0.07"/>
<path d="M327.203 8.09961L373.87 36.0246L420.536 8.09961L467.202 36.0246L373.87 91.8746L280.537 36.0246" stroke="#DAE1E7" stroke-opacity="0.07"/>
<path d="M327.203 8.09961L280.537 36.0246V91.8746L327.473 119.8" stroke="#DAE1E7" stroke-opacity="0.07"/>
<path d="M327.473 119.8V175.65L373.87 203.575M373.87 203.575V91.8754M373.87 203.575L420.806 175.65V119.8L467.202 91.8754V36.0254" stroke="#DAE1E7" stroke-opacity="0.07"/>
<path d="M467.472 91.875L514.138 119.8L560.804 91.875L607.47 119.8L514.138 175.65L420.805 119.8" stroke="#DAE1E7" stroke-opacity="0.07"/>
<path d="M467.472 91.875L420.805 119.8V175.65L467.741 203.575" stroke="#DAE1E7" stroke-opacity="0.07"/>
<path d="M467.741 203.576V259.426L514.138 287.351M514.138 287.351V175.651M514.138 287.351L561.074 259.426V203.576L607.47 175.651V119.801" stroke="#DAE1E7" stroke-opacity="0.07"/>
<path d="M47.2058 175.65L93.872 203.575L140.538 175.65L187.205 203.575L93.872 259.425L0.539536 203.575" stroke="#DAE1E7" stroke-opacity="0.07"/>
<path d="M47.2058 175.65L0.539536 203.575V259.425L47.4755 287.35" stroke="#DAE1E7" stroke-opacity="0.07"/>
<path d="M47.4755 287.351V343.201L93.872 371.126M93.872 371.126V259.426M93.872 371.126L140.808 343.201V287.351L187.204 259.426V203.576" stroke="#DAE1E7" stroke-opacity="0.07"/>
<path d="M187.474 259.426L234.14 287.351L280.807 259.426L327.473 287.351L234.14 343.201L140.808 287.351" stroke="#DAE1E7" stroke-opacity="0.07"/>
<path d="M187.474 259.426L140.808 287.351V343.201L187.744 371.126" stroke="#DAE1E7" stroke-opacity="0.07"/>
<path d="M187.744 371.127V426.977L234.14 454.902M234.14 454.902V343.202M234.14 454.902L281.076 426.977V371.127L327.473 343.202V287.352" stroke="#DAE1E7" stroke-opacity="0.07"/>
<path d="M607.201 175.65L653.867 203.575L700.533 175.65L747.2 203.575L653.867 259.425L560.535 203.575" stroke="#DAE1E7" stroke-opacity="0.07"/>
<path d="M607.201 175.65L560.535 203.575V259.425L607.471 287.35" stroke="#DAE1E7" stroke-opacity="0.07"/>
<path d="M607.471 287.351V343.201L653.867 371.126M653.867 371.126V259.426M653.867 371.126L700.803 343.201V287.351L747.2 259.426V203.576" stroke="#DAE1E7" stroke-opacity="0.07"/>
<path d="M747.469 259.426L794.136 287.351L840.802 259.426L887.468 287.351L794.136 343.201L700.803 287.351" stroke="#DAE1E7" stroke-opacity="0.07"/>
<path d="M747.469 259.426L700.803 287.351V343.201L747.739 371.126" stroke="#DAE1E7" stroke-opacity="0.07"/>
<path d="M747.739 371.127V426.977L794.136 454.902M794.136 454.902V343.202M794.136 454.902L841.072 426.977V371.127L887.468 343.202V287.352" stroke="#DAE1E7" stroke-opacity="0.07"/>
<path d="M327.203 175.65L373.87 203.575L420.536 175.65L467.202 203.575L373.87 259.425L280.537 203.575" stroke="#DAE1E7" stroke-opacity="0.07"/>
<path d="M327.203 175.65L280.537 203.575V259.425L327.473 287.35" stroke="#DAE1E7" stroke-opacity="0.07"/>
<path d="M327.473 287.351V343.201L373.87 371.126M373.87 371.126V259.426M373.87 371.126L420.806 343.201V287.351L467.202 259.426V203.576" stroke="#DAE1E7" stroke-opacity="0.07"/>
<path d="M467.472 259.426L514.138 287.351L560.804 259.426L607.47 287.351L514.138 343.201L420.805 287.351" stroke="#DAE1E7" stroke-opacity="0.07"/>
<path d="M467.472 259.426L420.805 287.351V343.201L467.741 371.126" stroke="#DAE1E7" stroke-opacity="0.07"/>
<path d="M467.741 371.127V426.977L514.138 454.902M514.138 454.902V343.202M514.138 454.902L561.074 426.977V371.127L607.47 343.202V287.352" stroke="#DAE1E7" stroke-opacity="0.07"/>
<path d="M47.7452 343.199L94.4114 371.124L141.078 343.199L187.744 371.124L94.4114 426.974L1.07895 371.124" stroke="#DAE1E7" stroke-opacity="0.07"/>
<path d="M47.7452 343.199L1.07895 371.124V426.974L48.015 454.899" stroke="#DAE1E7" stroke-opacity="0.07"/>
<path d="M48.015 454.9V510.75L94.4115 538.675M94.4115 538.675V426.975M94.4115 538.675L141.347 510.75V454.9L187.744 426.975V371.125" stroke="#DAE1E7" stroke-opacity="0.07"/>
<path d="M188.014 426.975L234.68 454.9L281.346 426.975L328.013 454.9L234.68 510.75L141.348 454.9" stroke="#DAE1E7" stroke-opacity="0.07"/>
<path d="M188.014 426.975L141.348 454.9V510.75L188.284 538.675" stroke="#DAE1E7" stroke-opacity="0.07"/>
<path d="M188.283 538.675V594.525L234.68 622.45M234.68 622.45V510.75M234.68 622.45L281.616 594.525V538.675L328.012 510.75V454.9" stroke="#DAE1E7" stroke-opacity="0.07"/>
<path d="M607.74 343.199L654.406 371.124L701.073 343.199L747.739 371.124L654.406 426.974L561.074 371.124" stroke="#DAE1E7" stroke-opacity="0.07"/>
<path d="M607.74 343.199L561.074 371.124V426.974L608.01 454.899" stroke="#DAE1E7" stroke-opacity="0.07"/>
<path d="M608.01 454.9V510.75L654.407 538.675M654.407 538.675V426.975M654.407 538.675L701.343 510.75V454.9L747.739 426.975V371.125" stroke="#DAE1E7" stroke-opacity="0.07"/>
<path d="M748.009 426.975L794.675 454.9L841.341 426.975L888.007 454.9L794.675 510.75L701.342 454.9" stroke="#DAE1E7" stroke-opacity="0.07"/>
<path d="M748.009 426.975L701.342 454.9V510.75L748.278 538.675" stroke="#DAE1E7" stroke-opacity="0.07"/>
<path d="M748.278 538.675V594.525L794.675 622.45M794.675 622.45V510.75M794.675 622.45L841.611 594.525V538.675L888.007 510.75V454.9" stroke="#DAE1E7" stroke-opacity="0.07"/>
<path d="M327.743 343.199L374.409 371.124L421.075 343.199L467.742 371.124L374.409 426.974L281.077 371.124" stroke="#DAE1E7" stroke-opacity="0.07"/>
<path d="M327.743 343.199L281.077 371.124V426.974L328.013 454.899" stroke="#DAE1E7" stroke-opacity="0.07"/>
<path d="M328.012 454.9V510.75L374.409 538.675M374.409 538.675V426.975M374.409 538.675L421.345 510.75V454.9L467.741 426.975V371.125" stroke="#DAE1E7" stroke-opacity="0.07"/>
<path d="M468.011 426.975L514.677 454.9L561.344 426.975L608.01 454.9L514.677 510.75L421.345 454.9" stroke="#DAE1E7" stroke-opacity="0.07"/>
<path d="M468.011 426.975L421.345 454.9V510.75L468.281 538.675" stroke="#DAE1E7" stroke-opacity="0.07"/>
<path d="M468.281 538.675V594.525L514.677 622.45M514.677 622.45V510.75M514.677 622.45L561.613 594.525V538.675L608.01 510.75V454.9" stroke="#DAE1E7" stroke-opacity="0.07"/>
<path d="M47.7452 510.75L94.4114 538.675L141.078 510.75L187.744 538.675L94.4114 594.525L1.07895 538.675" stroke="#DAE1E7" stroke-opacity="0.07"/>
<path d="M47.7452 510.75L1.07895 538.675V594.525L48.015 622.45" stroke="#DAE1E7" stroke-opacity="0.07"/>
<path d="M48.015 622.451V678.301L94.4115 706.226M94.4115 706.226V594.526M94.4115 706.226L141.347 678.301V622.451L187.744 594.526V538.676" stroke="#DAE1E7" stroke-opacity="0.07"/>
<path d="M188.014 594.525L234.68 622.45L281.346 594.525L328.013 622.45L234.68 678.3L141.348 622.45" stroke="#DAE1E7" stroke-opacity="0.07"/>
<path d="M188.014 594.525L141.348 622.45V678.3L188.284 706.225" stroke="#DAE1E7" stroke-opacity="0.07"/>
<path d="M188.283 706.226V762.076L234.68 790.001M234.68 790.001V678.301M234.68 790.001L281.616 762.076V706.226L328.012 678.301V622.451" stroke="#DAE1E7" stroke-opacity="0.07"/>
<path d="M607.74 510.75L654.406 538.675L701.073 510.75L747.739 538.675L654.406 594.525L561.074 538.675" stroke="#DAE1E7" stroke-opacity="0.07"/>
<path d="M607.74 510.75L561.074 538.675V594.525L608.01 622.45" stroke="#DAE1E7" stroke-opacity="0.07"/>
<path d="M608.01 622.451V678.301L654.407 706.226M654.407 706.226V594.526M654.407 706.226L701.343 678.301V622.451L747.739 594.526V538.676" stroke="#DAE1E7" stroke-opacity="0.07"/>
<path d="M748.009 594.525L794.675 622.45L841.341 594.525L888.007 622.45L794.675 678.3L701.342 622.45" stroke="#DAE1E7" stroke-opacity="0.07"/>
<path d="M748.009 594.525L701.342 622.45V678.3L748.278 706.225" stroke="#DAE1E7" stroke-opacity="0.07"/>
<path d="M748.278 706.226V762.076L794.675 790.001M794.675 790.001V678.301M794.675 790.001L841.611 762.076V706.226L888.007 678.301V622.451" stroke="#DAE1E7" stroke-opacity="0.07"/>
<path d="M327.743 510.75L374.409 538.675L421.075 510.75L467.742 538.675L374.409 594.525L281.077 538.675" stroke="#DAE1E7" stroke-opacity="0.07"/>
<path d="M327.743 510.75L281.077 538.675V594.525L328.013 622.45" stroke="#DAE1E7" stroke-opacity="0.07"/>
<path d="M328.012 622.451V678.301L374.409 706.226M374.409 706.226V594.526M374.409 706.226L421.345 678.301V622.451L467.741 594.526V538.676" stroke="#DAE1E7" stroke-opacity="0.07"/>
<path d="M468.011 594.525L514.677 622.45L561.344 594.525L608.01 622.45L514.677 678.3L421.345 622.45" stroke="#DAE1E7" stroke-opacity="0.07"/>
<path d="M468.011 594.525L421.345 622.45V678.3L468.281 706.225" stroke="#DAE1E7" stroke-opacity="0.07"/>
<path d="M468.281 706.226V762.076L514.677 790.001M514.677 790.001V678.301M514.677 790.001L561.613 762.076V706.226L608.01 678.301V622.451" stroke="#DAE1E7" stroke-opacity="0.07"/>
<path d="M887.468 -47.7484V8.10156L933.865 36.0266M933.865 36.0266V-75.6734M933.865 36.0266L980.801 8.10156V-47.7484L1027.2 -75.6734V-131.523" stroke="#DAE1E7" stroke-opacity="0.07"/>
<path d="M1027.47 -75.6758L1074.13 -47.7508L1120.8 -75.6758L1167.47 -47.7508L1074.13 8.09922L980.801 -47.7508" stroke="#DAE1E7" stroke-opacity="0.07"/>
<path d="M1027.47 -75.6758L980.801 -47.7508V8.09923L1027.74 36.0242" stroke="#DAE1E7" stroke-opacity="0.07"/>
<path d="M1027.74 36.025V91.875L1074.13 119.8M1074.13 119.8V8.1M1074.13 119.8L1121.07 91.875V36.025L1167.47 8.1V-47.75" stroke="#DAE1E7" stroke-opacity="0.07"/>
<path d="M1447.46 -47.7484V8.10156L1493.86 36.0266M1493.86 36.0266V-75.6734M1493.86 36.0266L1540.8 8.10156V-47.7484L1587.19 -75.6734V-131.523" stroke="#DAE1E7" stroke-opacity="0.07"/>
<path d="M1587.46 -75.6758L1634.13 -47.7508L1680.79 -75.6758L1727.46 -47.7508L1634.13 8.09922L1540.8 -47.7508" stroke="#DAE1E7" stroke-opacity="0.07"/>
<path d="M1587.46 -75.6758L1540.8 -47.7508V8.09923L1587.73 36.0242" stroke="#DAE1E7" stroke-opacity="0.07"/>
<path d="M1587.73 36.025V91.875L1634.13 119.8M1634.13 119.8V8.1M1634.13 119.8L1681.06 91.875V36.025L1727.46 8.1V-47.75" stroke="#DAE1E7" stroke-opacity="0.07"/>
<path d="M1167.47 -47.7484V8.10156L1213.86 36.0266M1213.86 36.0266V-75.6734M1213.86 36.0266L1260.8 8.10156V-47.7484L1307.19 -75.6734V-131.523" stroke="#DAE1E7" stroke-opacity="0.07"/>
<path d="M1307.46 -75.6758L1354.13 -47.7508L1400.8 -75.6758L1447.46 -47.7508L1354.13 8.09922L1260.8 -47.7508" stroke="#DAE1E7" stroke-opacity="0.07"/>
<path d="M1307.46 -75.6758L1260.8 -47.7508V8.09923L1307.73 36.0242" stroke="#DAE1E7" stroke-opacity="0.07"/>
<path d="M1307.73 36.025V91.875L1354.13 119.8M1354.13 119.8V8.1M1354.13 119.8L1401.07 91.875V36.025L1447.46 8.1V-47.75" stroke="#DAE1E7" stroke-opacity="0.07"/>
<path d="M887.198 8.09961L933.864 36.0246L980.531 8.09961L1027.2 36.0246L933.864 91.8746L840.532 36.0246" stroke="#DAE1E7" stroke-opacity="0.07"/>
<path d="M887.198 8.09961L840.532 36.0246V91.8746L887.468 119.8" stroke="#DAE1E7" stroke-opacity="0.07"/>
<path d="M887.468 119.8V175.65L933.864 203.575M933.864 203.575V91.8754M933.864 203.575L980.8 175.65V119.8L1027.2 91.8754V36.0254" stroke="#DAE1E7" stroke-opacity="0.07"/>
<path d="M1027.47 91.875L1074.13 119.8L1120.8 91.875L1167.47 119.8L1074.13 175.65L980.8 119.8" stroke="#DAE1E7" stroke-opacity="0.07"/>
<path d="M1027.47 91.875L980.8 119.8V175.65L1027.74 203.575" stroke="#DAE1E7" stroke-opacity="0.07"/>
<path d="M1027.74 203.576V259.426L1074.13 287.351M1074.13 287.351V175.651M1074.13 287.351L1121.07 259.426V203.576L1167.47 175.651V119.801" stroke="#DAE1E7" stroke-opacity="0.07"/>
<path d="M1447.19 8.09961L1493.86 36.0246L1540.53 8.09961L1587.19 36.0246L1493.86 91.8746L1400.53 36.0246" stroke="#DAE1E7" stroke-opacity="0.07"/>
<path d="M1447.19 8.09961L1400.53 36.0246V91.8746L1447.46 119.8" stroke="#DAE1E7" stroke-opacity="0.07"/>
<path d="M1447.46 119.8V175.65L1493.86 203.575M1493.86 203.575V91.8754M1493.86 203.575L1540.8 175.65V119.8L1587.19 91.8754V36.0254" stroke="#DAE1E7" stroke-opacity="0.07"/>
<path d="M1587.46 91.875L1634.13 119.8L1680.79 91.875L1727.46 119.8L1634.13 175.65L1540.8 119.8" stroke="#DAE1E7" stroke-opacity="0.07"/>
<path d="M1587.46 91.875L1540.8 119.8V175.65L1587.73 203.575" stroke="#DAE1E7" stroke-opacity="0.07"/>
<path d="M1587.73 203.576V259.426L1634.13 287.351M1634.13 287.351V175.651M1634.13 287.351L1681.06 259.426V203.576L1727.46 175.651V119.801" stroke="#DAE1E7" stroke-opacity="0.07"/>
<path d="M1167.2 8.09961L1213.86 36.0246L1260.53 8.09961L1307.19 36.0246L1213.86 91.8746L1120.53 36.0246" stroke="#DAE1E7" stroke-opacity="0.07"/>
<path d="M1167.2 8.09961L1120.53 36.0246V91.8746L1167.47 119.8" stroke="#DAE1E7" stroke-opacity="0.07"/>
<path d="M1167.47 119.8V175.65L1213.86 203.575M1213.86 203.575V91.8754M1213.86 203.575L1260.8 175.65V119.8L1307.19 91.8754V36.0254" stroke="#DAE1E7" stroke-opacity="0.07"/>
<path d="M1307.46 91.875L1354.13 119.8L1400.8 91.875L1447.46 119.8L1354.13 175.65L1260.8 119.8" stroke="#DAE1E7" stroke-opacity="0.07"/>
<path d="M1307.46 91.875L1260.8 119.8V175.65L1307.73 203.575" stroke="#DAE1E7" stroke-opacity="0.07"/>
<path d="M1307.73 203.576V259.426L1354.13 287.351M1354.13 287.351V175.651M1354.13 287.351L1401.07 259.426V203.576L1447.46 175.651V119.801" stroke="#DAE1E7" stroke-opacity="0.07"/>
<path d="M887.198 175.65L933.864 203.575L980.531 175.65L1027.2 203.575L933.864 259.425L840.532 203.575" stroke="#DAE1E7" stroke-opacity="0.07"/>
<path d="M887.198 175.65L840.532 203.575V259.425L887.468 287.35" stroke="#DAE1E7" stroke-opacity="0.07"/>
<path d="M887.468 287.351V343.201L933.864 371.126M933.864 371.126V259.426M933.864 371.126L980.8 343.201V287.351L1027.2 259.426V203.576" stroke="#DAE1E7" stroke-opacity="0.07"/>
<path d="M1027.47 259.426L1074.13 287.351L1120.8 259.426L1167.47 287.351L1074.13 343.201L980.8 287.351" stroke="#DAE1E7" stroke-opacity="0.07"/>
<path d="M1027.47 259.426L980.8 287.351V343.201L1027.74 371.126" stroke="#DAE1E7" stroke-opacity="0.07"/>
<path d="M1027.74 371.127V426.977L1074.13 454.902M1074.13 454.902V343.202M1074.13 454.902L1121.07 426.977V371.127L1167.47 343.202V287.352" stroke="#DAE1E7" stroke-opacity="0.07"/>
<path d="M1447.19 175.65L1493.86 203.575L1540.53 175.65L1587.19 203.575L1493.86 259.425L1400.53 203.575" stroke="#DAE1E7" stroke-opacity="0.07"/>
<path d="M1447.19 175.65L1400.53 203.575V259.425L1447.46 287.35" stroke="#DAE1E7" stroke-opacity="0.07"/>
<path d="M1447.46 287.351V343.201L1493.86 371.126M1493.86 371.126V259.426M1493.86 371.126L1540.8 343.201V287.351L1587.19 259.426V203.576" stroke="#DAE1E7" stroke-opacity="0.07"/>
<path d="M1587.46 259.426L1634.13 287.351L1680.79 259.426L1727.46 287.351L1634.13 343.201L1540.8 287.351" stroke="#DAE1E7" stroke-opacity="0.07"/>
<path d="M1587.46 259.426L1540.8 287.351V343.201L1587.73 371.126" stroke="#DAE1E7" stroke-opacity="0.07"/>
<path d="M1587.73 371.127V426.977L1634.13 454.902M1634.13 454.902V343.202M1634.13 454.902L1681.06 426.977V371.127L1727.46 343.202V287.352" stroke="#DAE1E7" stroke-opacity="0.07"/>
<path d="M1167.2 175.65L1213.86 203.575L1260.53 175.65L1307.19 203.575L1213.86 259.425L1120.53 203.575" stroke="#DAE1E7" stroke-opacity="0.07"/>
<path d="M1167.2 175.65L1120.53 203.575V259.425L1167.47 287.35" stroke="#DAE1E7" stroke-opacity="0.07"/>
<path d="M1167.47 287.351V343.201L1213.86 371.126M1213.86 371.126V259.426M1213.86 371.126L1260.8 343.201V287.351L1307.19 259.426V203.576" stroke="#DAE1E7" stroke-opacity="0.07"/>
<path d="M1307.46 259.426L1354.13 287.351L1400.8 259.426L1447.46 287.351L1354.13 343.201L1260.8 287.351" stroke="#DAE1E7" stroke-opacity="0.07"/>
<path d="M1307.46 259.426L1260.8 287.351V343.201L1307.73 371.126" stroke="#DAE1E7" stroke-opacity="0.07"/>
<path d="M1307.73 371.127V426.977L1354.13 454.902M1354.13 454.902V343.202M1354.13 454.902L1401.07 426.977V371.127L1447.46 343.202V287.352" stroke="#DAE1E7" stroke-opacity="0.07"/>
<path d="M887.738 343.199L934.404 371.124L981.07 343.199L1027.74 371.124L934.404 426.974L841.072 371.124" stroke="#DAE1E7" stroke-opacity="0.07"/>
<path d="M887.738 343.199L841.072 371.124V426.974L888.008 454.899" stroke="#DAE1E7" stroke-opacity="0.07"/>
<path d="M888.008 454.9V510.75L934.404 538.675M934.404 538.675V426.975M934.404 538.675L981.34 510.75V454.9L1027.74 426.975V371.125" stroke="#DAE1E7" stroke-opacity="0.07"/>
<path d="M1028.01 426.975L1074.67 454.9L1121.34 426.975L1168 454.9L1074.67 510.75L981.34 454.9" stroke="#DAE1E7" stroke-opacity="0.07"/>
<path d="M1028.01 426.975L981.34 454.9V510.75L1028.28 538.675" stroke="#DAE1E7" stroke-opacity="0.07"/>
<path d="M1028.28 538.675V594.525L1074.67 622.45M1074.67 622.45V510.75M1074.67 622.45L1121.61 594.525V538.675L1168.01 510.75V454.9" stroke="#DAE1E7" stroke-opacity="0.07"/>
<path d="M1447.73 343.199L1494.4 371.124L1541.07 343.199L1587.73 371.124L1494.4 426.974L1401.07 371.124" stroke="#DAE1E7" stroke-opacity="0.07"/>
<path d="M1447.73 343.199L1401.07 371.124V426.974L1448 454.899" stroke="#DAE1E7" stroke-opacity="0.07"/>
<path d="M1448 454.9V510.75L1494.4 538.675M1494.4 538.675V426.975M1494.4 538.675L1541.34 510.75V454.9L1587.73 426.975V371.125" stroke="#DAE1E7" stroke-opacity="0.07"/>
<path d="M1588 426.975L1634.67 454.9L1681.33 426.975L1728 454.9L1634.67 510.75L1541.33 454.9" stroke="#DAE1E7" stroke-opacity="0.07"/>
<path d="M1588 426.975L1541.33 454.9V510.75L1588.27 538.675" stroke="#DAE1E7" stroke-opacity="0.07"/>
<path d="M1588.27 538.675V594.525L1634.67 622.45M1634.67 622.45V510.75M1634.67 622.45L1681.6 594.525V538.675L1728 510.75V454.9" stroke="#DAE1E7" stroke-opacity="0.07"/>
<path d="M1167.74 343.199L1214.4 371.124L1261.07 343.199L1307.73 371.124L1214.4 426.974L1121.07 371.124" stroke="#DAE1E7" stroke-opacity="0.07"/>
<path d="M1167.74 343.199L1121.07 371.124V426.974L1168 454.899" stroke="#DAE1E7" stroke-opacity="0.07"/>
<path d="M1168.01 454.9V510.75L1214.4 538.675M1214.4 538.675V426.975M1214.4 538.675L1261.34 510.75V454.9L1307.73 426.975V371.125" stroke="#DAE1E7" stroke-opacity="0.07"/>
<path d="M1308 426.975L1354.67 454.9L1401.34 426.975L1448 454.9L1354.67 510.75L1261.34 454.9" stroke="#DAE1E7" stroke-opacity="0.07"/>
<path d="M1308 426.975L1261.34 454.9V510.75L1308.27 538.675" stroke="#DAE1E7" stroke-opacity="0.07"/>
<path d="M1308.27 538.675V594.525L1354.67 622.45M1354.67 622.45V510.75M1354.67 622.45L1401.61 594.525V538.675L1448 510.75V454.9" stroke="#DAE1E7" stroke-opacity="0.07"/>
<path d="M887.738 510.75L934.404 538.675L981.07 510.75L1027.74 538.675L934.404 594.525L841.072 538.675" stroke="#DAE1E7" stroke-opacity="0.07"/>
<path d="M887.738 510.75L841.072 538.675V594.525L888.008 622.45" stroke="#DAE1E7" stroke-opacity="0.07"/>
<path d="M888.008 622.451V678.301L934.404 706.226M934.404 706.226V594.526M934.404 706.226L981.34 678.301V622.451L1027.74 594.526V538.676" stroke="#DAE1E7" stroke-opacity="0.07"/>
<path d="M1028.01 594.525L1074.67 622.45L1121.34 594.525L1168 622.45L1074.67 678.3L981.34 622.45" stroke="#DAE1E7" stroke-opacity="0.07"/>
<path d="M1028.01 594.525L981.34 622.45V678.3L1028.28 706.225" stroke="#DAE1E7" stroke-opacity="0.07"/>
<path d="M1028.28 706.226V762.076L1074.67 790.001M1074.67 790.001V678.301M1074.67 790.001L1121.61 762.076V706.226L1168.01 678.301V622.451" stroke="#DAE1E7" stroke-opacity="0.07"/>
<path d="M1447.73 510.75L1494.4 538.675L1541.07 510.75L1587.73 538.675L1494.4 594.525L1401.07 538.675" stroke="#DAE1E7" stroke-opacity="0.07"/>
<path d="M1447.73 510.75L1401.07 538.675V594.525L1448 622.45" stroke="#DAE1E7" stroke-opacity="0.07"/>
<path d="M1448 622.451V678.301L1494.4 706.226M1494.4 706.226V594.526M1494.4 706.226L1541.34 678.301V622.451L1587.73 594.526V538.676" stroke="#DAE1E7" stroke-opacity="0.07"/>
<path d="M1588 594.525L1634.67 622.45L1681.33 594.525L1728 622.45L1634.67 678.3L1541.33 622.45" stroke="#DAE1E7" stroke-opacity="0.07"/>
<path d="M1588 594.525L1541.33 622.45V678.3L1588.27 706.225" stroke="#DAE1E7" stroke-opacity="0.07"/>
<path d="M1588.27 706.226V762.076L1634.67 790.001M1634.67 790.001V678.301M1634.67 790.001L1681.6 762.076V706.226L1728 678.301V622.451" stroke="#DAE1E7" stroke-opacity="0.07"/>
<path d="M1167.74 510.75L1214.4 538.675L1261.07 510.75L1307.73 538.675L1214.4 594.525L1121.07 538.675" stroke="#DAE1E7" stroke-opacity="0.07"/>
<path d="M1167.74 510.75L1121.07 538.675V594.525L1168 622.45" stroke="#DAE1E7" stroke-opacity="0.07"/>
<path d="M1168.01 622.451V678.301L1214.4 706.226M1214.4 706.226V594.526M1214.4 706.226L1261.34 678.301V622.451L1307.73 594.526V538.676" stroke="#DAE1E7" stroke-opacity="0.07"/>
<path d="M1308 594.525L1354.67 622.45L1401.34 594.525L1448 622.45L1354.67 678.3L1261.34 622.45" stroke="#DAE1E7" stroke-opacity="0.07"/>
<path d="M1308 594.525L1261.34 622.45V678.3L1308.27 706.225" stroke="#DAE1E7" stroke-opacity="0.07"/>
<path d="M1308.27 706.226V762.076L1354.67 790.001M1354.67 790.001V678.301M1354.67 790.001L1401.61 762.076V706.226L1448 678.301V622.451" stroke="#DAE1E7" stroke-opacity="0.07"/>
</g>
<defs>
<linearGradient id="paint0_linear_963_3917" x1="864" y1="-327" x2="864" y2="790" gradientUnits="userSpaceOnUse">
<stop stop-color="white"/>
<stop offset="1" stop-color="#D9D9D9" stop-opacity="0"/>
</linearGradient>
</defs>
</svg>
