<svg width="18" height="20" viewBox="0 0 18 20" fill="none" xmlns="http://www.w3.org/2000/svg">
<path d="M13.191 0C16.28 0 18 1.75562 18 4.76384V14.9523C18 18.0099 16.28 19.726 13.191 19.726H4.81C1.77 19.726 0 18.0099 0 14.9523V4.76384C0 1.75562 1.77 0 4.81 0H13.191ZM5.08 13.5518C4.78 13.5222 4.49 13.6603 4.33 13.9167C4.17 14.1633 4.17 14.4888 4.33 14.7452C4.49 14.9918 4.78 15.1397 5.08 15.1003H12.92C13.319 15.0608 13.62 14.7245 13.62 14.331C13.62 13.9266 13.319 13.5912 12.92 13.5518H5.08ZM12.92 9.05326H5.08C4.649 9.05326 4.3 9.39945 4.3 9.82356C4.3 10.2477 4.649 10.5929 5.08 10.5929H12.92C13.35 10.5929 13.7 10.2477 13.7 9.82356C13.7 9.39945 13.35 9.05326 12.92 9.05326ZM8.069 4.5863H5.08V4.59616C4.649 4.59616 4.3 4.94137 4.3 5.36548C4.3 5.78959 4.649 6.13479 5.08 6.13479H8.069C8.5 6.13479 8.85 5.78959 8.85 5.35463C8.85 4.93151 8.5 4.5863 8.069 4.5863Z" fill="#F9FAFB"/>
</svg>
