<svg width="44" height="32" viewBox="0 0 22 16" fill="none" xmlns="http://www.w3.org/2000/svg">
<path d="M10.949 10.5183C14.3802 10.5183 17.31 11.0548 17.31 13.2018C17.31 15.3478 14.399 15.9039 10.949 15.9039C7.51785 15.9039 4.58809 15.3674 4.58809 13.2213C4.58809 11.0743 7.49904 10.5183 10.949 10.5183ZM16.4351 9.2255C17.7468 9.20152 19.1571 9.37917 19.6782 9.50531C20.7823 9.71938 21.5084 10.1564 21.8093 10.7915C22.0636 11.3129 22.0636 11.9178 21.8093 12.4384C21.349 13.4235 19.8654 13.7397 19.2887 13.8214C19.1696 13.8392 19.0738 13.737 19.0864 13.6189C19.3809 10.8892 17.0377 9.59502 16.4315 9.29745C16.4055 9.28413 16.4002 9.2637 16.4028 9.25126C16.4046 9.24238 16.4154 9.22817 16.4351 9.2255ZM5.5656 9.22586C5.5853 9.22852 5.59515 9.24273 5.59694 9.25073C5.59962 9.26405 5.59425 9.28359 5.56918 9.29781C4.9621 9.59538 2.61883 10.8896 2.91342 13.6184C2.92595 13.7374 2.83104 13.8386 2.71195 13.8218C2.13531 13.74 0.651629 13.4238 0.191392 12.4387C-0.0637974 11.9173 -0.0637974 11.3133 0.191392 10.7919C0.492248 10.1568 1.21752 9.71974 2.32156 9.50477C2.84358 9.37953 4.25294 9.20187 5.5656 9.22586ZM10.949 0.123047C13.2851 0.123047 15.1583 1.97953 15.1583 4.29791C15.1583 6.61541 13.2851 8.47367 10.949 8.47367C8.61292 8.47367 6.73974 6.61541 6.73974 4.29791C6.73974 1.97953 8.61292 0.123047 10.949 0.123047ZM16.6634 0.819273C18.9198 0.819273 20.6918 2.92536 20.0883 5.27128C19.6809 6.85062 18.2062 7.89967 16.5631 7.85703C16.3984 7.85259 16.2363 7.83749 16.0796 7.81084C15.9659 7.7913 15.9086 7.66428 15.973 7.57012C16.5998 6.6552 16.9571 5.55464 16.9571 4.37324C16.9571 3.14032 16.5667 1.9909 15.8889 1.04845C15.8674 1.01913 15.8513 0.973832 15.8728 0.940077C15.8907 0.912541 15.9238 0.898329 15.9551 0.891223C16.1835 0.845033 16.4181 0.819273 16.6634 0.819273ZM5.33593 0.819184C5.58127 0.819184 5.81586 0.844944 6.04509 0.891134C6.07553 0.89824 6.10956 0.91334 6.12746 0.939989C6.14806 0.973743 6.13284 1.01904 6.11135 1.04836C5.43353 1.99081 5.04313 3.14023 5.04313 4.37315C5.04313 5.55455 5.4004 6.65512 6.02718 7.57003C6.09165 7.66419 6.03434 7.79121 5.92063 7.81075C5.76304 7.83829 5.60186 7.8525 5.43711 7.85694C3.79404 7.89958 2.31932 6.85054 1.91191 5.27119C1.30751 2.92527 3.07951 0.819184 5.33593 0.819184Z" fill="#F9FAFB"/>
</svg>
