<svg width="23" height="17" viewBox="0 0 23 17" fill="none" xmlns="http://www.w3.org/2000/svg">
<path d="M0 2.83333C0 2.08189 0.302901 1.36122 0.842068 0.829864C1.38124 0.298511 2.1125 0 2.875 0H20.125C20.8875 0 21.6188 0.298511 22.1579 0.829864C22.6971 1.36122 23 2.08189 23 2.83333V4.25H0V2.83333ZM0 7.08333V14.1667C0 14.9181 0.302901 15.6388 0.842068 16.1701C1.38124 16.7015 2.1125 17 2.875 17H20.125C20.8875 17 21.6188 16.7015 22.1579 16.1701C22.6971 15.6388 23 14.9181 23 14.1667V7.08333H0ZM4.3125 9.91667H5.75C6.13125 9.91667 6.49688 10.0659 6.76647 10.3316C7.03605 10.5973 7.1875 10.9576 7.1875 11.3333V12.75C7.1875 13.1257 7.03605 13.4861 6.76647 13.7517C6.49688 14.0174 6.13125 14.1667 5.75 14.1667H4.3125C3.93125 14.1667 3.56562 14.0174 3.29603 13.7517C3.02645 13.4861 2.875 13.1257 2.875 12.75V11.3333C2.875 10.9576 3.02645 10.5973 3.29603 10.3316C3.56562 10.0659 3.93125 9.91667 4.3125 9.91667Z" fill="#F9FAFB"/>
</svg>
