<svg width="16" height="16" viewBox="0 0 16 16" fill="none" xmlns="http://www.w3.org/2000/svg">
<path fill-rule="evenodd" clip-rule="evenodd" d="M10.0777 0.936476C10.0777 1.45341 10.4973 1.87295 11.0142 1.87295H14.127V4.9858C14.127 5.23417 14.2257 5.47236 14.4013 5.64799C14.577 5.82361 14.8152 5.92227 15.0635 5.92227C15.3119 5.92227 15.5501 5.82361 15.7257 5.64799C15.9013 5.47236 16 5.23417 16 4.9858V0.936476C16 0.688107 15.9013 0.449911 15.7257 0.274287C15.5501 0.098664 15.3119 0 15.0635 0H11.0142C10.7658 0 10.5276 0.098664 10.352 0.274287C10.1764 0.449911 10.0777 0.688107 10.0777 0.936476ZM15.0635 10.0777C14.8152 10.0777 14.577 10.1764 14.4013 10.352C14.2257 10.5276 14.127 10.7658 14.127 11.0142V14.127H11.0142C10.7658 14.127 10.5276 14.2257 10.352 14.4013C10.1764 14.577 10.0777 14.8152 10.0777 15.0635C10.0777 15.3119 10.1764 15.5501 10.352 15.7257C10.5276 15.9013 10.7658 16 11.0142 16H15.0635C15.3119 16 15.5501 15.9013 15.7257 15.7257C15.9013 15.5501 16 15.3119 16 15.0635V11.0142C16 10.7658 15.9013 10.5276 15.7257 10.352C15.5501 10.1764 15.3119 10.0777 15.0635 10.0777ZM0.936476 10.0777C1.18484 10.0777 1.42304 10.1764 1.59866 10.352C1.77429 10.5276 1.87295 10.7658 1.87295 11.0142V14.127H4.9858C5.23417 14.127 5.47236 14.2257 5.64799 14.4013C5.82361 14.577 5.92227 14.8152 5.92227 15.0635C5.92227 15.3119 5.82361 15.5501 5.64799 15.7257C5.47236 15.9013 5.23417 16 4.9858 16H0.936476C0.688107 16 0.449911 15.9013 0.274287 15.7257C0.098664 15.5501 0 15.3119 0 15.0635V11.0142C0 10.7658 0.098664 10.5276 0.274287 10.352C0.449911 10.1764 0.688107 10.0777 0.936476 10.0777ZM5.92227 0.936476C5.92227 1.18484 5.82361 1.42304 5.64799 1.59866C5.47236 1.77429 5.23417 1.87295 4.9858 1.87295H1.87295V4.9858C1.87295 5.23417 1.77429 5.47236 1.59866 5.64799C1.42304 5.82361 1.18484 5.92227 0.936476 5.92227C0.688107 5.92227 0.449911 5.82361 0.274287 5.64799C0.098664 5.47236 0 5.23417 0 4.9858V0.936476C0 0.688107 0.098664 0.449911 0.274287 0.274287C0.449911 0.098664 0.688107 0 0.936476 0H4.9858C5.23417 0 5.47236 0.098664 5.64799 0.274287C5.82361 0.449911 5.92227 0.688107 5.92227 0.936476Z" fill="#D1D6E6"/>
</svg>
