<svg width="16" height="16" viewBox="0 0 16 16" fill="none" xmlns="http://www.w3.org/2000/svg">
<path d="M7.8584 0C3.51663 0 0 3.51663 0 7.8584C0 12.2002 3.51663 15.7168 7.8584 15.7168C12.2002 15.7168 15.7168 12.2002 15.7168 7.8584C15.7168 3.51663 12.2002 0 7.8584 0ZM7.8584 1.9646C8.50672 1.9646 9.11574 2.14141 9.70512 2.33787C9.29256 2.73079 8.82105 3.08442 8.89964 3.43805C8.97822 3.79168 10.2552 3.69345 10.2552 4.42035C10.2552 4.95079 9.43008 5.10796 9.99981 5.71699C10.6874 6.40459 8.74247 7.64229 8.70318 8.54601C8.64424 10.1766 10.3534 10.4517 11.709 10.4517C12.5341 10.4517 12.7503 10.8446 12.6913 11.3161C11.6304 12.8288 9.823 13.7718 7.83875 13.7718C7.0922 13.7718 6.40459 13.595 5.75628 13.3396C6.18849 12.4752 5.20619 10.766 4.28283 10.2159C3.83097 9.76406 2.86832 9.94087 2.31823 9.72477C2.14141 9.19433 1.9646 8.66388 1.94495 8.0745C2.00389 7.97627 2.10212 7.89769 2.25929 7.89769C2.63256 7.89769 3.14336 8.64424 3.4184 8.56565C3.77203 8.48707 1.9646 5.99203 2.80938 5.50088C3.2023 5.26513 3.98814 6.26707 3.73274 5.18654C3.49699 4.1846 4.43999 4.63646 5.02937 4.38106C5.54017 4.16495 5.91344 3.57557 5.28477 3.22194C5.1669 3.16301 5.02938 3.02548 4.85256 2.84867C5.73663 2.31823 6.75822 1.98425 7.8584 1.98425V1.9646ZM12.3966 4.10601C12.7503 4.53822 13.0253 5.00973 13.261 5.52052V5.57946C13.1825 5.71698 13.0449 5.79557 12.8288 6.01167C12.2787 6.56176 12.2002 5.59911 11.9644 5.40265C11.709 5.1669 10.7857 5.44194 10.6678 5.14725C10.5303 4.79362 11.6501 4.32212 12.3966 4.10601Z" fill="#D9D9D9"/>
</svg>
