<svg width="40" height="42" viewBox="0 0 20 21" fill="none" xmlns="http://www.w3.org/2000/svg">
<path d="M19.8099 10.9561C19.8819 10.9961 19.8963 11.0808 19.8992 11.1131L19.9 11.1259L19.8199 16.2197C19.8199 18.2516 18.2237 19.9086 16.2138 20.0102L16.018 20.0151H3.97199C1.93659 20.0151 0.276779 18.4216 0.175028 16.4151L0.170085 16.2197L0.10005 11.1259C0.10005 11.1259 0.10005 11.0061 0.190095 10.9561C0.270135 10.9062 0.370185 10.9661 0.38019 10.9761C2.4012 12.3145 4.83242 13.2034 7.38369 13.573C7.74387 13.6229 8.10405 13.3932 8.2041 13.0336C8.41046 12.2658 9.04769 11.7438 9.82726 11.6815L9.98499 11.6753H10.015C10.8654 11.6753 11.5758 12.2146 11.7959 13.0336C11.8959 13.3932 12.2561 13.6229 12.6163 13.573C15.1676 13.2034 17.5988 12.3145 19.6198 10.9761C19.6198 10.9761 19.6398 10.9661 19.6598 10.9561C19.6999 10.9362 19.7599 10.9262 19.8099 10.9561ZM9.995 13.1035C9.61898 13.1035 9.3018 13.3889 9.25155 13.7518L9.24462 13.8526V15.141C9.24462 15.5605 9.58479 15.8901 9.995 15.8901C10.3802 15.8901 10.6897 15.6132 10.7386 15.2439L10.7454 15.141V13.8526C10.7454 13.4431 10.4152 13.1035 9.995 13.1035ZM11.2856 0.289062C12.7864 0.289062 14.017 1.41769 14.2071 2.86592H16.1881C18.2891 2.86592 20 4.57383 20 6.67127C20 6.67127 19.94 7.55919 19.92 8.79568C19.918 8.89356 19.8699 8.98944 19.7909 9.04737C19.3097 9.39795 18.8694 9.68759 18.8294 9.70757C17.1686 10.8062 15.2386 11.5793 13.1826 11.9638C13.0485 11.9898 12.9165 11.9209 12.8484 11.803C12.2721 10.8182 11.1956 10.177 9.995 10.177C8.8024 10.177 7.71586 10.8112 7.12256 11.797C7.05353 11.9129 6.92346 11.9798 6.7904 11.9548C4.75138 11.5693 2.82141 10.7972 1.17059 9.71756L0.210105 9.05836C0.130065 9.00842 0.08004 8.91853 0.08004 8.81865C0.050025 8.30927 0 6.67127 0 6.67127C0 4.57383 1.71086 2.86592 3.81191 2.86592H5.78289C5.97299 1.41769 7.2036 0.289062 8.70435 0.289062H11.2856ZM11.2856 1.78723H8.70435C8.03402 1.78723 7.46373 2.24667 7.30365 2.86592H12.6863C12.5263 2.24667 11.956 1.78723 11.2856 1.78723Z" fill="#F9FAFB"/>
</svg>
