<svg width="32" height="32" viewBox="0 0 32 32" fill="none" xmlns="http://www.w3.org/2000/svg">
<path d="M3.55556 32C2.57778 32 1.74104 31.6521 1.04533 30.9564C0.34963 30.2607 0.00118519 29.4234 0 28.4444V3.55556C0 2.57778 0.348445 1.74104 1.04533 1.04533C1.74222 0.34963 2.57896 0.00118519 3.55556 0H14.2222V3.55556H3.55556V28.4444H28.4444V17.7778H32V28.4444C32 29.4222 31.6521 30.2596 30.9564 30.9564C30.2607 31.6533 29.4234 32.0012 28.4444 32H3.55556ZM23.1111 14.2222V8.88889H17.7778V5.33333H23.1111V0H26.6667V5.33333H32V8.88889H26.6667V14.2222H23.1111Z" fill="#242931"/>
</svg>
