<svg width="18" height="18" viewBox="0 0 18 18" fill="none" xmlns="http://www.w3.org/2000/svg">
<path d="M7.31264 18C7.13487 18.0009 6.96106 17.9475 6.81443 17.847C6.6678 17.7465 6.55534 17.6036 6.49207 17.4375L5.09141 13.7953C5.06304 13.7219 5.01964 13.6552 4.964 13.5996C4.90836 13.544 4.84171 13.5006 4.76831 13.4722L1.12497 12.0705C0.959004 12.0068 0.816257 11.8943 0.715565 11.7478C0.614874 11.6013 0.560971 11.4277 0.560971 11.25C0.560971 11.0722 0.614874 10.8986 0.715565 10.7521C0.816257 10.6056 0.959004 10.4931 1.12497 10.4294L4.76726 9.02877C4.84065 9.00041 4.90731 8.95701 4.96295 8.90137C5.01859 8.84573 5.06199 8.77908 5.09035 8.70569L6.49207 5.06243C6.55577 4.89647 6.66829 4.75373 6.81479 4.65304C6.96129 4.55235 7.13488 4.49844 7.31264 4.49844C7.49041 4.49844 7.664 4.55235 7.8105 4.65304C7.957 4.75373 8.06952 4.89647 8.13321 5.06243L9.53388 8.70463C9.56225 8.77803 9.60564 8.84468 9.66128 8.90032C9.71692 8.95596 9.78358 8.99935 9.85698 9.02772L13.4782 10.421C13.6509 10.485 13.7997 10.6007 13.9043 10.7523C14.0089 10.9039 14.0643 11.084 14.0628 11.2682C14.0602 11.4429 14.0051 11.6127 13.9048 11.7558C13.8045 11.8988 13.6636 12.0085 13.5003 12.0705L9.85803 13.4711C9.78463 13.4995 9.71798 13.5429 9.66234 13.5985C9.6067 13.6542 9.5633 13.7208 9.53493 13.7942L8.13321 17.4375C8.06995 17.6036 7.95749 17.7465 7.81086 17.847C7.66423 17.9475 7.49042 18.0009 7.31264 18ZM3.09377 6.18743C2.98955 6.18743 2.88778 6.15585 2.80186 6.09685C2.71594 6.03786 2.64991 5.95422 2.61247 5.85696L2.01972 4.3157C2.00687 4.282 1.98704 4.25139 1.96154 4.22588C1.93603 4.20037 1.90542 4.18054 1.87171 4.1677L0.330412 3.57496C0.23316 3.53751 0.149534 3.47148 0.0905522 3.38556C0.0315705 3.29965 0 3.19788 0 3.09367C0 2.98946 0.0315705 2.88769 0.0905522 2.80177C0.149534 2.71586 0.23316 2.64983 0.330412 2.61238L1.87171 2.01964C1.90538 2.00673 1.93596 1.98689 1.96146 1.96139C1.98696 1.93589 2.00681 1.9053 2.01972 1.87163L2.6072 0.344084C2.64033 0.254155 2.69734 0.174954 2.77211 0.114994C2.84687 0.055034 2.93656 0.0165817 3.03154 0.00376998C3.14558 -0.0100921 3.26097 0.0145098 3.35943 0.0736747C3.4579 0.13284 3.53379 0.223181 3.57508 0.330373L4.16783 1.87163C4.18073 1.9053 4.20058 1.93589 4.22608 1.96139C4.25158 1.98689 4.28216 2.00673 4.31584 2.01964L5.85713 2.61238C5.95439 2.64983 6.03801 2.71586 6.09699 2.80177C6.15598 2.88769 6.18755 2.98946 6.18755 3.09367C6.18755 3.19788 6.15598 3.29965 6.09699 3.38556C6.03801 3.47148 5.95439 3.53751 5.85713 3.57496L4.31584 4.1677C4.28213 4.18054 4.25152 4.20037 4.22601 4.22588C4.2005 4.25139 4.18067 4.282 4.16783 4.3157L3.57508 5.85696C3.53764 5.95422 3.47161 6.03786 3.38569 6.09685C3.29977 6.15585 3.19799 6.18743 3.09377 6.18743ZM14.0628 8.99995C13.9491 8.99991 13.8381 8.96542 13.7444 8.90103C13.6507 8.83664 13.5787 8.74537 13.5379 8.63924L12.7349 6.552C12.7208 6.51522 12.6991 6.48182 12.6713 6.45396C12.6434 6.42611 12.61 6.40441 12.5732 6.39029L10.4859 5.58731C10.3799 5.54645 10.2887 5.47443 10.2244 5.38074C10.1601 5.28704 10.1257 5.17607 10.1257 5.06243C10.1257 4.94879 10.1601 4.83781 10.2244 4.74412C10.2887 4.65042 10.3799 4.5784 10.4859 4.53754L12.5732 3.73457C12.61 3.72044 12.6434 3.69875 12.6713 3.67089C12.6991 3.64303 12.7208 3.60963 12.7349 3.57285L13.532 1.50038C13.5683 1.40237 13.6306 1.31606 13.7122 1.25063C13.7937 1.1852 13.8914 1.14308 13.995 1.12878C14.1194 1.11371 14.2453 1.14064 14.3527 1.20529C14.4601 1.26994 14.5428 1.3686 14.5877 1.48561L15.3907 3.57285C15.4049 3.60963 15.4266 3.64303 15.4544 3.67089C15.4823 3.69875 15.5157 3.72044 15.5525 3.73457L17.6397 4.53754C17.7458 4.5784 17.837 4.65042 17.9013 4.74412C17.9656 4.83781 18 4.94879 18 5.06243C18 5.17607 17.9656 5.28704 17.9013 5.38074C17.837 5.47443 17.7458 5.54645 17.6397 5.58731L15.5525 6.39029C15.5157 6.40441 15.4823 6.42611 15.4544 6.45396C15.4266 6.48182 15.4049 6.51522 15.3907 6.552L14.5877 8.63924C14.5469 8.74537 14.475 8.83664 14.3813 8.90103C14.2876 8.96542 14.1765 8.99991 14.0628 8.99995Z" fill="#128EE3"/>
</svg>
