<svg width="295" height="288" xmlns="http://www.w3.org/2000/svg" xmlns:xlink="http://www.w3.org/1999/xlink" xml:space="preserve" overflow="hidden"><g transform="translate(-468 -206)"><path d="M613.441 216.17C641.985 216.17 669.797 225.2 692.889 241.98L653.165 296.66C641.619 288.27 627.713 283.75 613.441 283.75Z" stroke="#FFFFFF" stroke-width="2" stroke-linejoin="round" stroke-miterlimit="10" fill="#36A2EB" fill-rule="evenodd"/><path d="M692.889 241.98C737.744 274.57 758.148 331.25 744.36 384.95L678.9 368.14C685.795 341.29 675.592 312.95 653.165 296.66Z" stroke="#FFFFFF" stroke-width="2" stroke-linejoin="round" stroke-miterlimit="10" fill="#FF6384" fill-rule="evenodd"/><path d="M744.36 384.95C741.54 395.93 737.35 406.51 731.887 416.45L672.664 383.89C675.396 378.92 677.491 373.63 678.901 368.14Z" stroke="#FFFFFF" stroke-width="2" stroke-linejoin="round" stroke-miterlimit="10" fill="#FF9F40" fill-rule="evenodd"/><path d="M731.887 416.45C695.924 481.87 613.74 505.74 548.324 469.78 515.619 451.8 491.803 421.1 482.521 384.95L547.981 368.14C557.264 404.29 594.096 426.08 630.248 416.79 648.323 412.15 663.674 400.24 672.664 383.89Z" stroke="#FFFFFF" stroke-width="2" stroke-linejoin="round" stroke-miterlimit="10" fill="#FFCD56" fill-rule="evenodd"/><path d="M482.522 384.95C463.957 312.64 507.522 238.98 579.827 220.41 590.809 217.59 602.102 216.17 613.441 216.17L613.441 283.75C576.116 283.75 545.858 314.01 545.858 351.33 545.858 357 546.571 362.65 547.981 368.14Z" stroke="#FFFFFF" stroke-width="2" stroke-linejoin="round" stroke-miterlimit="10" fill="#9966FF" fill-rule="evenodd"/><text fill="#FFFFFF" font-family="Inter,Inter_MSFontService,sans-serif" font-weight="700" font-size="16" transform="translate(628.59 260)">10</text><text fill="#FFFFFF" font-family="Inter,Inter_MSFontService,sans-serif" font-weight="700" font-size="16" transform="translate(647.59 260)">% </text><text fill="#FFFFFF" font-family="Inter,Inter_MSFontService,sans-serif" font-weight="700" font-size="16" transform="translate(692.872 322)">19</text><text fill="#FFFFFF" font-family="Inter,Inter_MSFontService,sans-serif" font-weight="700" font-size="16" transform="translate(711.872 322)">% </text><text fill="#FFFFFF" font-family="Inter,Inter_MSFontService,sans-serif" font-weight="700" font-size="16" transform="translate(695.396 394)">4</text><text fill="#FFFFFF" font-family="Inter,Inter_MSFontService,sans-serif" font-weight="700" font-size="16" transform="translate(706.396 394)">% </text><text fill="#404040" font-family="Inter,Inter_MSFontService,sans-serif" font-weight="700" font-size="16" transform="translate(583.295 457)">38</text><text fill="#404040" font-family="Inter,Inter_MSFontService,sans-serif" font-weight="700" font-size="16" transform="translate(605.295 457)">% </text><text fill="#FFFFFF" font-family="Inter,Inter_MSFontService,sans-serif" font-weight="700" font-size="16" transform="translate(516.143 295)">29</text><text fill="#FFFFFF" font-family="Inter,Inter_MSFontService,sans-serif" font-weight="700" font-size="16" transform="translate(537.143 295)">% </text></g></svg>