<svg width="1055" height="279" xmlns="http://www.w3.org/2000/svg" xmlns:xlink="http://www.w3.org/1999/xlink" xml:space="preserve" overflow="hidden"><g transform="translate(-68 -52)"><path d="M91 291 125 291 125 298 91 298ZM142 281 176 281 176 298 142 298ZM193 275 228 275 228 298 193 298ZM245 255 279 255 279 298 245 298ZM296 282 330 282 330 298 296 298ZM347 297 381 297 381 298 347 298ZM399 285 433 285 433 298 399 298ZM450 269 484 269 484 298 450 298ZM501 257 535 257 535 298 501 298ZM552 259 587 259 587 298 552 298ZM604 258 638 258 638 298 604 298ZM655 223 689 223 689 298 655 298ZM706 273 740 273 740 298 706 298ZM758 279 792 279 792 298 758 298ZM809 273 843 273 843 298 809 298ZM860 265 894 265 894 298 860 298ZM911 279 946 279 946 298 911 298ZM963 295 997 295 997 298 963 298ZM1014 293 1048 293 1048 298 1014 298ZM1065 277 1100 277 1100 298 1065 298Z" fill="#36A2EB"/><path d="M91 290 125 290 125 291 91 291ZM142 280 176 280 176 281 142 281ZM193 274 228 274 228 275 193 275ZM245 251 279 251 279 255 245 255ZM296 275 330 275 330 282 296 282ZM347 295 381 295 381 297 347 297ZM399 276 433 276 433 285 399 285ZM450 258 484 258 484 269 450 269ZM501 253 535 253 535 257 501 257ZM552 242 587 242 587 259 552 259ZM604 213 638 213 638 258 604 258ZM655 178 689 178 689 223 655 223ZM706 84 740 84 740 273 706 273ZM758 230 792 230 792 279 758 279ZM809 224 843 224 843 273 809 273ZM860 186 894 186 894 265 860 265ZM911 201 946 201 946 279 911 279ZM963 248 997 248 997 295 963 295ZM1014 281 1048 281 1048 293 1014 293ZM1065 204 1100 204 1100 277 1065 277Z" fill="#FF6384"/><path d="M91 289 125 289 125 290 91 290ZM142 279 176 279 176 280 142 280ZM193 273 228 273 228 274 193 274ZM245 250 279 250 279 251 245 251ZM296 274 330 274 330 275 296 275ZM450 256 484 256 484 258 450 258ZM501 235 535 235 535 253 501 253ZM604 212 638 212 638 213 604 213ZM655 171 689 171 689 178 655 178ZM706 69 740 69 740 84 706 84ZM758 218 792 218 792 230 758 230ZM809 212 843 212 843 224 809 224ZM860 166 894 166 894 186 860 186ZM911 186 946 186 946 201 911 201ZM963 245 997 245 997 248 963 248ZM1014 278 1048 278 1048 281 1014 281ZM1065 200 1100 200 1100 204 1065 204Z" fill="#FF9F40"/><path d="M82.5001 297.5 1108.5 297.5" stroke="#A6A6A6" stroke-linejoin="round" stroke-miterlimit="10" fill="none" fill-rule="evenodd"/><text fill="#585F70" font-family="Inter,Inter_MSFontService,sans-serif" font-weight="400" font-size="13" transform="translate(92.8203 319)">1</text><text fill="#585F70" font-family="Inter,Inter_MSFontService,sans-serif" font-weight="400" font-size="13" transform="translate(98.8203 319)">Q</text><text fill="#585F70" font-family="Inter,Inter_MSFontService,sans-serif" font-weight="400" font-size="13" transform="translate(108.82 319)">19</text><text fill="#585F70" font-family="Inter,Inter_MSFontService,sans-serif" font-weight="400" font-size="13" transform="translate(143.022 319)">2</text><text fill="#585F70" font-family="Inter,Inter_MSFontService,sans-serif" font-weight="400" font-size="13" transform="translate(151.022 319)">Q</text><text fill="#585F70" font-family="Inter,Inter_MSFontService,sans-serif" font-weight="400" font-size="13" transform="translate(161.022 319)">19</text><text fill="#585F70" font-family="Inter,Inter_MSFontService,sans-serif" font-weight="400" font-size="13" transform="translate(194.099 319)">3</text><text fill="#585F70" font-family="Inter,Inter_MSFontService,sans-serif" font-weight="400" font-size="13" transform="translate(202.099 319)">Q</text><text fill="#585F70" font-family="Inter,Inter_MSFontService,sans-serif" font-weight="400" font-size="13" transform="translate(212.099 319)">19</text><text fill="#585F70" font-family="Inter,Inter_MSFontService,sans-serif" font-weight="400" font-size="13" transform="translate(245.351 319)">4</text><text fill="#585F70" font-family="Inter,Inter_MSFontService,sans-serif" font-weight="400" font-size="13" transform="translate(253.351 319)">Q</text><text fill="#585F70" font-family="Inter,Inter_MSFontService,sans-serif" font-weight="400" font-size="13" transform="translate(263.351 319)">19</text><text fill="#585F70" font-family="Inter,Inter_MSFontService,sans-serif" font-weight="400" font-size="13" transform="translate(296.875 319)">1</text><text fill="#585F70" font-family="Inter,Inter_MSFontService,sans-serif" font-weight="400" font-size="13" transform="translate(302.875 319)">Q</text><text fill="#585F70" font-family="Inter,Inter_MSFontService,sans-serif" font-weight="400" font-size="13" transform="translate(312.875 319)">20</text><text fill="#585F70" font-family="Inter,Inter_MSFontService,sans-serif" font-weight="400" font-size="13" transform="translate(347.076 319)">2</text><text fill="#585F70" font-family="Inter,Inter_MSFontService,sans-serif" font-weight="400" font-size="13" transform="translate(355.076 319)">Q</text><text fill="#585F70" font-family="Inter,Inter_MSFontService,sans-serif" font-weight="400" font-size="13" transform="translate(365.076 319)">20</text><text fill="#585F70" font-family="Inter,Inter_MSFontService,sans-serif" font-weight="400" font-size="13" transform="translate(398.154 319)">3</text><text fill="#585F70" font-family="Inter,Inter_MSFontService,sans-serif" font-weight="400" font-size="13" transform="translate(406.154 319)">Q</text><text fill="#585F70" font-family="Inter,Inter_MSFontService,sans-serif" font-weight="400" font-size="13" transform="translate(416.154 319)">20</text><text fill="#585F70" font-family="Inter,Inter_MSFontService,sans-serif" font-weight="400" font-size="13" transform="translate(449.405 319)">4</text><text fill="#585F70" font-family="Inter,Inter_MSFontService,sans-serif" font-weight="400" font-size="13" transform="translate(457.405 319)">Q</text><text fill="#585F70" font-family="Inter,Inter_MSFontService,sans-serif" font-weight="400" font-size="13" transform="translate(467.405 319)">20</text><text fill="#585F70" font-family="Inter,Inter_MSFontService,sans-serif" font-weight="400" font-size="13" transform="translate(503.247 319)">1</text><text fill="#585F70" font-family="Inter,Inter_MSFontService,sans-serif" font-weight="400" font-size="13" transform="translate(509.247 319)">Q</text><text fill="#585F70" font-family="Inter,Inter_MSFontService,sans-serif" font-weight="400" font-size="13" transform="translate(519.247 319)">21</text><text fill="#585F70" font-family="Inter,Inter_MSFontService,sans-serif" font-weight="400" font-size="13" transform="translate(553.448 319)">2</text><text fill="#585F70" font-family="Inter,Inter_MSFontService,sans-serif" font-weight="400" font-size="13" transform="translate(561.448 319)">Q</text><text fill="#585F70" font-family="Inter,Inter_MSFontService,sans-serif" font-weight="400" font-size="13" transform="translate(571.448 319)">21</text><text fill="#585F70" font-family="Inter,Inter_MSFontService,sans-serif" font-weight="400" font-size="13" transform="translate(604.526 319)">3</text><text fill="#585F70" font-family="Inter,Inter_MSFontService,sans-serif" font-weight="400" font-size="13" transform="translate(612.526 319)">Q</text><text fill="#585F70" font-family="Inter,Inter_MSFontService,sans-serif" font-weight="400" font-size="13" transform="translate(622.526 319)">21</text><text fill="#585F70" font-family="Inter,Inter_MSFontService,sans-serif" font-weight="400" font-size="13" transform="translate(655.777 319)">4</text><text fill="#585F70" font-family="Inter,Inter_MSFontService,sans-serif" font-weight="400" font-size="13" transform="translate(663.777 319)">Q</text><text fill="#585F70" font-family="Inter,Inter_MSFontService,sans-serif" font-weight="400" font-size="13" transform="translate(673.777 319)">21</text><text fill="#585F70" font-family="Inter,Inter_MSFontService,sans-serif" font-weight="400" font-size="13" transform="translate(707.312 319)">1</text><text fill="#585F70" font-family="Inter,Inter_MSFontService,sans-serif" font-weight="400" font-size="13" transform="translate(713.312 319)">Q</text><text fill="#585F70" font-family="Inter,Inter_MSFontService,sans-serif" font-weight="400" font-size="13" transform="translate(723.312 319)">22</text><text fill="#585F70" font-family="Inter,Inter_MSFontService,sans-serif" font-weight="400" font-size="13" transform="translate(757.513 319)">2</text><text fill="#585F70" font-family="Inter,Inter_MSFontService,sans-serif" font-weight="400" font-size="13" transform="translate(765.513 319)">Q</text><text fill="#585F70" font-family="Inter,Inter_MSFontService,sans-serif" font-weight="400" font-size="13" transform="translate(775.513 319)">22</text><text fill="#585F70" font-family="Inter,Inter_MSFontService,sans-serif" font-weight="400" font-size="13" transform="translate(808.591 319)">3</text><text fill="#585F70" font-family="Inter,Inter_MSFontService,sans-serif" font-weight="400" font-size="13" transform="translate(816.591 319)">Q</text><text fill="#585F70" font-family="Inter,Inter_MSFontService,sans-serif" font-weight="400" font-size="13" transform="translate(826.591 319)">22</text><text fill="#585F70" font-family="Inter,Inter_MSFontService,sans-serif" font-weight="400" font-size="13" transform="translate(859.842 319)">4</text><text fill="#585F70" font-family="Inter,Inter_MSFontService,sans-serif" font-weight="400" font-size="13" transform="translate(867.842 319)">Q</text><text fill="#585F70" font-family="Inter,Inter_MSFontService,sans-serif" font-weight="400" font-size="13" transform="translate(877.842 319)">22</text><text fill="#585F70" font-family="Inter,Inter_MSFontService,sans-serif" font-weight="400" font-size="13" transform="translate(912.253 319)">1</text><text fill="#585F70" font-family="Inter,Inter_MSFontService,sans-serif" font-weight="400" font-size="13" transform="translate(918.253 319)">Q</text><text fill="#585F70" font-family="Inter,Inter_MSFontService,sans-serif" font-weight="400" font-size="13" transform="translate(928.253 319)">23</text><text fill="#585F70" font-family="Inter,Inter_MSFontService,sans-serif" font-weight="400" font-size="13" transform="translate(962.454 319)">2</text><text fill="#585F70" font-family="Inter,Inter_MSFontService,sans-serif" font-weight="400" font-size="13" transform="translate(970.454 319)">Q</text><text fill="#585F70" font-family="Inter,Inter_MSFontService,sans-serif" font-weight="400" font-size="13" transform="translate(980.454 319)">23</text><text fill="#585F70" font-family="Inter,Inter_MSFontService,sans-serif" font-weight="400" font-size="13" transform="translate(1013.53 319)">3</text><text fill="#585F70" font-family="Inter,Inter_MSFontService,sans-serif" font-weight="400" font-size="13" transform="translate(1021.53 319)">Q</text><text fill="#585F70" font-family="Inter,Inter_MSFontService,sans-serif" font-weight="400" font-size="13" transform="translate(1031.53 319)">23</text><text fill="#585F70" font-family="Inter,Inter_MSFontService,sans-serif" font-weight="400" font-size="13" transform="translate(1064.78 319)">4</text><text fill="#585F70" font-family="Inter,Inter_MSFontService,sans-serif" font-weight="400" font-size="13" transform="translate(1072.78 319)">Q</text><text fill="#585F70" font-family="Inter,Inter_MSFontService,sans-serif" font-weight="400" font-size="13" transform="translate(1082.78 319)">23</text></g></svg>