<svg width="826" height="88" xmlns="http://www.w3.org/2000/svg" xmlns:xlink="http://www.w3.org/1999/xlink" xml:space="preserve" overflow="hidden"><g transform="translate(-2367 -1782)"><path d="M2367 1819.5C2367 1807.07 2377.07 1797 2389.5 1797 2401.93 1797 2412 1807.07 2412 1819.5 2412 1831.93 2401.93 1842 2389.5 1842 2377.07 1842 2367 1831.93 2367 1819.5Z" fill="#36A2EB" fill-rule="evenodd"/><text fill="#404040" font-family="Inter Light BETA,Inter Light BETA_MSFontService,sans-serif" font-weight="300" font-size="41" transform="matrix(1 0 0 1 2435.3 1835)">StockX</text><path d="M2645 1819.5C2645 1807.07 2655.07 1797 2667.5 1797 2679.93 1797 2690 1807.07 2690 1819.5 2690 1831.93 2679.93 1842 2667.5 1842 2655.07 1842 2645 1831.93 2645 1819.5Z" fill="#FF6384" fill-rule="evenodd"/><text fill="#404040" font-family="Inter Light BETA,Inter Light BETA_MSFontService,sans-serif" font-weight="300" font-size="41" transform="matrix(1 0 0 1 2713.14 1835)">GOAT</text><path d="M2903 1819.5C2903 1807.07 2913.3 1797 2926 1797 2938.7 1797 2949 1807.07 2949 1819.5 2949 1831.93 2938.7 1842 2926 1842 2913.3 1842 2903 1831.93 2903 1819.5Z" fill="#FF9F40" fill-rule="evenodd"/><text fill="#404040" font-family="Inter Light BETA,Inter Light BETA_MSFontService,sans-serif" font-weight="300" font-size="41" transform="matrix(1 0 0 1 2971.65 1835)">FlightClub</text></g></svg>