<svg width="295" height="288" xmlns="http://www.w3.org/2000/svg" xmlns:xlink="http://www.w3.org/1999/xlink" xml:space="preserve" overflow="hidden"><g transform="translate(-132 -206)"><path d="M277.326 215.87C315.119 215.87 351.194 231.66 376.836 259.42L327.081 305.38C314.26 291.5 296.222 283.6 277.326 283.6Z" stroke="#FFFFFF" stroke-width="2" stroke-linejoin="round" stroke-miterlimit="10" fill="#36A2EB" fill-rule="evenodd"/><path d="M376.836 259.42C427.599 314.38 424.197 400.08 369.239 450.84 366.607 453.27 363.88 455.6 361.064 457.81L319.195 404.57C348.599 381.45 353.69 338.87 330.567 309.46 329.459 308.06 328.297 306.69 327.081 305.38Z" stroke="#FFFFFF" stroke-width="2" stroke-linejoin="round" stroke-miterlimit="10" fill="#FF6384" fill-rule="evenodd"/><path d="M361.064 457.81C342.945 472.06 321.49 481.45 298.729 485.1L288.028 418.21C299.408 416.39 310.135 411.7 319.195 404.57Z" stroke="#FFFFFF" stroke-width="2" stroke-linejoin="round" stroke-miterlimit="10" fill="#FF9F40" fill-rule="evenodd"/><path d="M298.729 485.1C281.699 487.82 264.305 487.27 247.482 483.47L262.404 417.4C270.815 419.3 279.512 419.58 288.028 418.21Z" stroke="#FFFFFF" stroke-width="2" stroke-linejoin="round" stroke-miterlimit="10" fill="#9966FF" fill-rule="evenodd"/><path d="M247.482 483.47C224.998 478.39 204.181 467.66 187.003 452.29L232.164 401.81C240.754 409.5 251.162 414.86 262.404 417.4Z" stroke="#FFFFFF" stroke-width="2" stroke-linejoin="round" stroke-miterlimit="10" fill="#10649E" fill-rule="evenodd"/><path d="M187.003 452.29C169.824 436.92 156.852 417.42 149.312 395.64L213.319 373.49C217.089 384.38 223.575 394.13 232.164 401.81Z" stroke="#FFFFFF" stroke-width="2" stroke-linejoin="round" stroke-miterlimit="10" fill="#D4002D" fill-rule="evenodd"/><path d="M149.313 395.64C124.843 324.94 162.32 247.79 233.02 223.32 244.547 219.33 256.561 216.92 268.734 216.14L273.03 283.74C235.698 286.11 207.358 318.3 209.73 355.63 210.117 361.72 211.324 367.72 213.319 373.49Z" stroke="#FFFFFF" stroke-width="2" stroke-linejoin="round" stroke-miterlimit="10" fill="#CD9000" fill-rule="evenodd"/><path d="M268.734 216.14C271.595 215.96 274.46 215.87 277.326 215.87L277.326 283.6C275.893 283.6 274.46 283.65 273.03 283.74Z" stroke="#FFFFFF" stroke-width="2" stroke-linejoin="round" stroke-miterlimit="10" fill="#2A7777" fill-rule="evenodd"/><text fill="#FFFFFF" font-family="Inter,Inter_MSFontService,sans-serif" font-weight="700" font-size="16" transform="translate(302.113 264)">13</text><text fill="#FFFFFF" font-family="Inter,Inter_MSFontService,sans-serif" font-weight="700" font-size="16" transform="translate(321.113 264)">% </text><text fill="#FFFFFF" font-family="Inter,Inter_MSFontService,sans-serif" font-weight="700" font-size="16" transform="translate(361.407 365)">26</text><text fill="#FFFFFF" font-family="Inter,Inter_MSFontService,sans-serif" font-weight="700" font-size="16" transform="translate(382.407 365)">% </text><text fill="#FFFFFF" font-family="Inter,Inter_MSFontService,sans-serif" font-weight="700" font-size="16" transform="translate(305.896 450)">8</text><text fill="#FFFFFF" font-family="Inter,Inter_MSFontService,sans-serif" font-weight="700" font-size="16" transform="translate(316.896 450)">% </text><text fill="#FFFFFF" font-family="Inter,Inter_MSFontService,sans-serif" font-weight="700" font-size="16" transform="translate(261.946 458)">6</text><text fill="#FFFFFF" font-family="Inter,Inter_MSFontService,sans-serif" font-weight="700" font-size="16" transform="translate(272.946 458)">% </text><text fill="#FFFFFF" font-family="Inter,Inter_MSFontService,sans-serif" font-weight="700" font-size="16" transform="translate(218.608 447)">8</text><text fill="#FFFFFF" font-family="Inter,Inter_MSFontService,sans-serif" font-weight="700" font-size="16" transform="translate(229.608 447)">% </text><text fill="#FFFFFF" font-family="Inter,Inter_MSFontService,sans-serif" font-weight="700" font-size="16" transform="translate(180.575 413)">8</text><text fill="#FFFFFF" font-family="Inter,Inter_MSFontService,sans-serif" font-weight="700" font-size="16" transform="translate(191.575 413)">% </text><text fill="#FFFFFF" font-family="Inter,Inter_MSFontService,sans-serif" font-weight="700" font-size="16" transform="translate(175.542 300)">29</text><text fill="#FFFFFF" font-family="Inter,Inter_MSFontService,sans-serif" font-weight="700" font-size="16" transform="translate(196.542 300)">% </text></g></svg>