<svg width="1250" height="288" xmlns="http://www.w3.org/2000/svg" xmlns:xlink="http://www.w3.org/1999/xlink" xml:space="preserve" overflow="hidden"><g transform="translate(-15 -216)"><path d="M160.326 225.87C198.119 225.87 234.194 241.66 259.836 269.42L210.081 315.38C197.26 301.5 179.222 293.6 160.326 293.6Z" stroke="#FFFFFF" stroke-width="2" stroke-linejoin="round" stroke-miterlimit="10" fill="#36A2EB" fill-rule="evenodd"/><path d="M259.836 269.42C310.599 324.38 307.197 410.08 252.239 460.84 249.607 463.27 246.88 465.6 244.064 467.81L202.195 414.57C231.599 391.45 236.69 348.87 213.567 319.46 212.459 318.06 211.297 316.69 210.081 315.38Z" stroke="#FFFFFF" stroke-width="2" stroke-linejoin="round" stroke-miterlimit="10" fill="#FF6384" fill-rule="evenodd"/><path d="M244.064 467.81C225.945 482.06 204.49 491.45 181.729 495.1L171.028 428.21C182.408 426.39 193.135 421.7 202.195 414.57Z" stroke="#FFFFFF" stroke-width="2" stroke-linejoin="round" stroke-miterlimit="10" fill="#FF9F40" fill-rule="evenodd"/><path d="M181.729 495.1C164.699 497.82 147.305 497.27 130.482 493.47L145.404 427.4C153.815 429.3 162.512 429.58 171.028 428.21Z" stroke="#FFFFFF" stroke-width="2" stroke-linejoin="round" stroke-miterlimit="10" fill="#9966FF" fill-rule="evenodd"/><path d="M130.482 493.47C107.998 488.39 87.181 477.66 70.003 462.29L115.164 411.81C123.754 419.5 134.162 424.86 145.404 427.4Z" stroke="#FFFFFF" stroke-width="2" stroke-linejoin="round" stroke-miterlimit="10" fill="#10649E" fill-rule="evenodd"/><path d="M70.003 462.29C52.824 446.92 39.852 427.42 32.312 405.64L96.319 383.49C100.089 394.38 106.575 404.13 115.164 411.81Z" stroke="#FFFFFF" stroke-width="2" stroke-linejoin="round" stroke-miterlimit="10" fill="#D4002D" fill-rule="evenodd"/><path d="M32.313 405.64C7.843 334.94 45.32 257.79 116.02 233.32 127.547 229.33 139.561 226.92 151.734 226.14L156.03 293.74C118.698 296.11 90.358 328.3 92.73 365.63 93.117 371.72 94.324 377.72 96.319 383.49Z" stroke="#FFFFFF" stroke-width="2" stroke-linejoin="round" stroke-miterlimit="10" fill="#CD9000" fill-rule="evenodd"/><path d="M151.734 226.14C154.595 225.96 157.46 225.87 160.326 225.87L160.326 293.6C158.893 293.6 157.46 293.65 156.03 293.74Z" stroke="#FFFFFF" stroke-width="2" stroke-linejoin="round" stroke-miterlimit="10" fill="#2A7777" fill-rule="evenodd"/><text fill="#FFFFFF" font-family="Inter,Inter_MSFontService,sans-serif" font-weight="700" font-size="16" transform="translate(185.113 274)">13</text><text fill="#FFFFFF" font-family="Inter,Inter_MSFontService,sans-serif" font-weight="700" font-size="16" transform="translate(204.113 274)">% </text><text fill="#FFFFFF" font-family="Inter,Inter_MSFontService,sans-serif" font-weight="700" font-size="16" transform="translate(244.407 375)">26</text><text fill="#FFFFFF" font-family="Inter,Inter_MSFontService,sans-serif" font-weight="700" font-size="16" transform="translate(265.407 375)">% </text><text fill="#FFFFFF" font-family="Inter,Inter_MSFontService,sans-serif" font-weight="700" font-size="16" transform="translate(188.896 460)">8</text><text fill="#FFFFFF" font-family="Inter,Inter_MSFontService,sans-serif" font-weight="700" font-size="16" transform="translate(199.896 460)">% </text><text fill="#FFFFFF" font-family="Inter,Inter_MSFontService,sans-serif" font-weight="700" font-size="16" transform="translate(144.946 468)">6</text><text fill="#FFFFFF" font-family="Inter,Inter_MSFontService,sans-serif" font-weight="700" font-size="16" transform="translate(155.946 468)">% </text><text fill="#FFFFFF" font-family="Inter,Inter_MSFontService,sans-serif" font-weight="700" font-size="16" transform="translate(101.608 457)">8</text><text fill="#FFFFFF" font-family="Inter,Inter_MSFontService,sans-serif" font-weight="700" font-size="16" transform="translate(112.608 457)">% </text><text fill="#FFFFFF" font-family="Inter,Inter_MSFontService,sans-serif" font-weight="700" font-size="16" transform="translate(63.575 423)">8</text><text fill="#FFFFFF" font-family="Inter,Inter_MSFontService,sans-serif" font-weight="700" font-size="16" transform="translate(74.575 423)">% </text><text fill="#FFFFFF" font-family="Inter,Inter_MSFontService,sans-serif" font-weight="700" font-size="16" transform="translate(58.542 310)">29</text><text fill="#FFFFFF" font-family="Inter,Inter_MSFontService,sans-serif" font-weight="700" font-size="16" transform="translate(79.542 310)">% </text><path d="M637.441 226.17C665.985 226.17 693.797 235.2 716.889 251.98L677.165 306.66C665.619 298.27 651.713 293.75 637.441 293.75Z" stroke="#FFFFFF" stroke-width="2" stroke-linejoin="round" stroke-miterlimit="10" fill="#36A2EB" fill-rule="evenodd"/><path d="M716.889 251.98C761.744 284.57 782.148 341.25 768.36 394.95L702.9 378.14C709.795 351.29 699.592 322.95 677.165 306.66Z" stroke="#FFFFFF" stroke-width="2" stroke-linejoin="round" stroke-miterlimit="10" fill="#FF6384" fill-rule="evenodd"/><path d="M768.36 394.95C765.54 405.93 761.35 416.51 755.887 426.45L696.664 393.89C699.396 388.92 701.491 383.63 702.901 378.14Z" stroke="#FFFFFF" stroke-width="2" stroke-linejoin="round" stroke-miterlimit="10" fill="#FF9F40" fill-rule="evenodd"/><path d="M755.887 426.45C719.924 491.87 637.74 515.74 572.324 479.78 539.619 461.8 515.803 431.1 506.521 394.95L571.981 378.14C581.264 414.29 618.096 436.08 654.248 426.79 672.323 422.15 687.674 410.24 696.664 393.89Z" stroke="#FFFFFF" stroke-width="2" stroke-linejoin="round" stroke-miterlimit="10" fill="#FFCD56" fill-rule="evenodd"/><path d="M506.522 394.95C487.957 322.64 531.522 248.98 603.827 230.41 614.809 227.59 626.102 226.17 637.441 226.17L637.441 293.75C600.116 293.75 569.858 324.01 569.858 361.33 569.858 367 570.571 372.65 571.981 378.14Z" stroke="#FFFFFF" stroke-width="2" stroke-linejoin="round" stroke-miterlimit="10" fill="#9966FF" fill-rule="evenodd"/><text fill="#FFFFFF" font-family="Inter,Inter_MSFontService,sans-serif" font-weight="700" font-size="16" transform="translate(652.59 270)">10</text><text fill="#FFFFFF" font-family="Inter,Inter_MSFontService,sans-serif" font-weight="700" font-size="16" transform="translate(671.59 270)">% </text><text fill="#FFFFFF" font-family="Inter,Inter_MSFontService,sans-serif" font-weight="700" font-size="16" transform="translate(716.872 332)">19</text><text fill="#FFFFFF" font-family="Inter,Inter_MSFontService,sans-serif" font-weight="700" font-size="16" transform="translate(735.872 332)">% </text><text fill="#FFFFFF" font-family="Inter,Inter_MSFontService,sans-serif" font-weight="700" font-size="16" transform="translate(719.396 404)">4</text><text fill="#FFFFFF" font-family="Inter,Inter_MSFontService,sans-serif" font-weight="700" font-size="16" transform="translate(730.396 404)">% </text><text fill="#404040" font-family="Inter,Inter_MSFontService,sans-serif" font-weight="700" font-size="16" transform="translate(607.295 467)">38</text><text fill="#404040" font-family="Inter,Inter_MSFontService,sans-serif" font-weight="700" font-size="16" transform="translate(629.295 467)">% </text><text fill="#FFFFFF" font-family="Inter,Inter_MSFontService,sans-serif" font-weight="700" font-size="16" transform="translate(540.143 305)">29</text><text fill="#FFFFFF" font-family="Inter,Inter_MSFontService,sans-serif" font-weight="700" font-size="16" transform="translate(561.143 305)">% </text><path d="M1115.06 225.39C1190.14 225.39 1251 286.26 1251 361.33 1251 429.82 1200.05 487.62 1132.1 496.2L1123.58 428.77C1160.82 424.06 1187.2 390.06 1182.49 352.81 1178.2 318.84 1149.3 293.36 1115.06 293.36Z" stroke="#FFFFFF" stroke-width="2" stroke-linejoin="round" stroke-miterlimit="10" fill="#36A2EB" fill-rule="evenodd"/><path d="M1132.1 496.2C1088.92 501.66 1045.75 486.11 1015.96 454.39L1065.51 407.86C1080.41 423.72 1101.99 431.49 1123.58 428.77Z" stroke="#FFFFFF" stroke-width="2" stroke-linejoin="round" stroke-miterlimit="10" fill="#FF6384" fill-rule="evenodd"/><path d="M1015.96 454.39C964.57 399.66 967.27 313.63 1022 262.24 1047.21 238.57 1080.48 225.39 1115.06 225.39L1115.06 293.36C1077.52 293.36 1047.09 323.79 1047.09 361.33 1047.09 378.62 1053.68 395.26 1065.51 407.86Z" stroke="#FFFFFF" stroke-width="2" stroke-linejoin="round" stroke-miterlimit="10" fill="#FFCD56" fill-rule="evenodd"/><text fill="#FFFFFF" font-family="Inter,Inter_MSFontService,sans-serif" font-weight="700" font-size="16" transform="translate(1199.23 360)">48</text><text fill="#FFFFFF" font-family="Inter,Inter_MSFontService,sans-serif" font-weight="700" font-size="16" transform="translate(1221.23 360)">% </text><text fill="#FFFFFF" font-family="Inter,Inter_MSFontService,sans-serif" font-weight="700" font-size="16" transform="translate(1064.7 463)">15</text><text fill="#FFFFFF" font-family="Inter,Inter_MSFontService,sans-serif" font-weight="700" font-size="16" transform="translate(1082.7 463)">% </text><text fill="#404040" font-family="Inter,Inter_MSFontService,sans-serif" font-weight="700" font-size="16" transform="translate(1004.58 326)">37</text><text fill="#404040" font-family="Inter,Inter_MSFontService,sans-serif" font-weight="700" font-size="16" transform="translate(1025.58 326)">% </text></g></svg>