<svg width="3543" height="89" xmlns="http://www.w3.org/2000/svg" xmlns:xlink="http://www.w3.org/1999/xlink" xml:space="preserve" overflow="hidden"><defs><clipPath id="clip0"><rect x="417" y="2361" width="3543" height="89"/></clipPath></defs><g clip-path="url(#clip0)" transform="translate(-417 -2361)"><path d="M417 2398.5C417 2386.07 427.297 2376 440 2376 452.703 2376 463 2386.07 463 2398.5 463 2410.93 452.703 2421 440 2421 427.297 2421 417 2410.93 417 2398.5Z" fill="#36A2EB" fill-rule="evenodd"/><text fill="#404040" font-family="Inter,Inter_MSFontService,sans-serif" font-weight="400" font-size="41" transform="matrix(1 0 0 1 485.74 2414)">Facebook</text><path d="M733 2398.5C733 2386.07 743.297 2376 756 2376 768.702 2376 779 2386.07 779 2398.5 779 2410.93 768.702 2421 756 2421 743.297 2421 733 2410.93 733 2398.5Z" fill="#FF6384" fill-rule="evenodd"/><text fill="#404040" font-family="Inter,Inter_MSFontService,sans-serif" font-weight="400" font-size="41" transform="matrix(1 0 0 1 801.758 2414)">Instagram</text><path d="M1045 2398.5C1045 2386.07 1055.07 2376 1067.5 2376 1079.93 2376 1090 2386.07 1090 2398.5 1090 2410.93 1079.93 2421 1067.5 2421 1055.07 2421 1045 2410.93 1045 2398.5Z" fill="#FF9F40" fill-rule="evenodd"/><text fill="#404040" font-family="Inter,Inter_MSFontService,sans-serif" font-weight="400" font-size="41" transform="matrix(1 0 0 1 1113.23 2414)">Tiktok</text><path d="M1279 2398.5C1279 2386.07 1289.07 2376 1301.5 2376 1313.93 2376 1324 2386.07 1324 2398.5 1324 2410.93 1313.93 2421 1301.5 2421 1289.07 2421 1279 2410.93 1279 2398.5Z" fill="#FFCD56" fill-rule="evenodd"/><text fill="#404040" font-family="Inter,Inter_MSFontService,sans-serif" font-weight="400" font-size="41" transform="matrix(1 0 0 1 1347.53 2414)">Snapchat</text><path d="M1579 2398.5C1579 2386.07 1589.3 2376 1602 2376 1614.7 2376 1625 2386.07 1625 2398.5 1625 2410.93 1614.7 2421 1602 2421 1589.3 2421 1579 2410.93 1579 2398.5Z" fill="#4BC0C0" fill-rule="evenodd"/><text fill="#404040" font-family="Inter,Inter_MSFontService,sans-serif" font-weight="400" font-size="41" transform="matrix(1 0 0 1 1647.83 2414)">Twitter</text><path d="M1839.5 2399C1839.5 2386.57 1849.57 2376.5 1862 2376.5 1874.43 2376.5 1884.5 2386.57 1884.5 2399 1884.5 2411.43 1874.43 2421.5 1862 2421.5 1849.57 2421.5 1839.5 2411.43 1839.5 2399Z" stroke="#9966FF" stroke-width="4.58333" stroke-miterlimit="8" fill="#9966FF" fill-rule="evenodd"/><text fill="#404040" font-family="Inter,Inter_MSFontService,sans-serif" font-weight="400" font-size="41" transform="matrix(1 0 0 1 1907.28 2414)">YouTube</text><path d="M2177 2398.5C2177 2386.07 2187.07 2376 2199.5 2376 2211.93 2376 2222 2386.07 2222 2398.5 2222 2410.93 2211.93 2421 2199.5 2421 2187.07 2421 2177 2410.93 2177 2398.5Z" fill="#006363" fill-rule="evenodd"/><text fill="#404040" font-family="Inter,Inter_MSFontService,sans-serif" font-weight="400" font-size="41" transform="matrix(1 0 0 1 2245.3 2414)">OTT</text><path d="M2394 2398.5C2394 2386.07 2404.07 2376 2416.5 2376 2428.93 2376 2439 2386.07 2439 2398.5 2439 2410.93 2428.93 2421 2416.5 2421 2404.07 2421 2394 2410.93 2394 2398.5Z" fill="#00CC66" fill-rule="evenodd"/><text fill="#404040" font-family="Inter,Inter_MSFontService,sans-serif" font-weight="400" font-size="41" transform="matrix(1 0 0 1 2462.6 2414)">Desktop Video</text><path d="M2780 2398.5C2780 2386.07 2790.3 2376 2803 2376 2815.7 2376 2826 2386.07 2826 2398.5 2826 2410.93 2815.7 2421 2803 2421 2790.3 2421 2780 2410.93 2780 2398.5Z" fill="#99FF66" fill-rule="evenodd"/><text fill="#404040" font-family="Inter,Inter_MSFontService,sans-serif" font-weight="400" font-size="41" transform="matrix(1 0 0 1 2849.03 2414)">Mobile Video</text><path d="M3148 2398.5C3148 2386.07 3158.3 2376 3171 2376 3183.7 2376 3194 2386.07 3194 2398.5 3194 2410.93 3183.7 2421 3171 2421 3158.3 2421 3148 2410.93 3148 2398.5Z" fill="#800080" fill-rule="evenodd"/><text fill="#404040" font-family="Inter,Inter_MSFontService,sans-serif" font-weight="400" font-size="41" transform="matrix(1 0 0 1 3216.94 2414)">Desktop Display</text><path d="M3580 2398.5C3580 2386.07 3590.07 2376 3602.5 2376 3614.93 2376 3625 2386.07 3625 2398.5 3625 2410.93 3614.93 2421 3602.5 2421 3590.07 2421 3580 2410.93 3580 2398.5Z" fill="#CC3399" fill-rule="evenodd"/><text fill="#404040" font-family="Inter,Inter_MSFontService,sans-serif" font-weight="400" font-size="41" transform="matrix(1 0 0 1 3648.15 2414)">Mobile Display</text></g></svg>