<svg width="296" height="288" xmlns="http://www.w3.org/2000/svg" xmlns:xlink="http://www.w3.org/1999/xlink" xml:space="preserve" overflow="hidden"><g transform="translate(-804 -206)"><path d="M950.06 215.39C1025.14 215.39 1086 276.26 1086 351.33 1086 419.82 1035.05 477.62 967.1 486.2L958.58 418.77C995.82 414.06 1022.2 380.06 1017.49 342.81 1013.2 308.84 984.3 283.36 950.06 283.36Z" stroke="#FFFFFF" stroke-width="2" stroke-linejoin="round" stroke-miterlimit="10" fill="#36A2EB" fill-rule="evenodd"/><path d="M967.1 486.2C923.92 491.66 880.75 476.11 850.96 444.39L900.51 397.86C915.41 413.72 936.99 421.49 958.58 418.77Z" stroke="#FFFFFF" stroke-width="2" stroke-linejoin="round" stroke-miterlimit="10" fill="#FF6384" fill-rule="evenodd"/><path d="M850.96 444.39C799.57 389.66 802.27 303.63 857 252.24 882.21 228.57 915.48 215.39 950.06 215.39L950.06 283.36C912.52 283.36 882.09 313.79 882.09 351.33 882.09 368.62 888.68 385.26 900.51 397.86Z" stroke="#FFFFFF" stroke-width="2" stroke-linejoin="round" stroke-miterlimit="10" fill="#FFCD56" fill-rule="evenodd"/><text fill="#FFFFFF" font-family="Inter,Inter_MSFontService,sans-serif" font-weight="700" font-size="16" transform="translate(1034.23 350)">48</text><text fill="#FFFFFF" font-family="Inter,Inter_MSFontService,sans-serif" font-weight="700" font-size="16" transform="translate(1056.23 350)">% </text><text fill="#FFFFFF" font-family="Inter,Inter_MSFontService,sans-serif" font-weight="700" font-size="16" transform="translate(899.7 453)">15</text><text fill="#FFFFFF" font-family="Inter,Inter_MSFontService,sans-serif" font-weight="700" font-size="16" transform="translate(917.7 453)">% </text><text fill="#404040" font-family="Inter,Inter_MSFontService,sans-serif" font-weight="700" font-size="16" transform="translate(839.58 316)">37</text><text fill="#404040" font-family="Inter,Inter_MSFontService,sans-serif" font-weight="700" font-size="16" transform="translate(860.58 316)">% </text></g></svg>