<svg width="1837" height="186" xmlns="http://www.w3.org/2000/svg" xmlns:xlink="http://www.w3.org/1999/xlink" xml:space="preserve" overflow="hidden"><defs><clipPath id="clip0"><rect x="835" y="205" width="1837" height="186"/></clipPath></defs><g clip-path="url(#clip0)" transform="translate(-835 -205)"><path d="M835 242.5C835 230.074 845.074 220 857.5 220 869.926 220 880 230.074 880 242.5 880 254.926 869.926 265 857.5 265 845.074 265 835 254.926 835 242.5Z" fill="#36A2EB" fill-rule="evenodd"/><text fill="#404040" font-family="Inter Light BETA,Inter Light BETA_MSFontService,sans-serif" font-weight="300" font-size="41" transform="matrix(1 0 0 1 903.224 258)">Facebook</text><path d="M1155 242.5C1155 230.074 1165.07 220 1177.5 220 1189.93 220 1200 230.074 1200 242.5 1200 254.926 1189.93 265 1177.5 265 1165.07 265 1155 254.926 1155 242.5Z" fill="#FF6384" fill-rule="evenodd"/><text fill="#404040" font-family="Inter Light BETA,Inter Light BETA_MSFontService,sans-serif" font-weight="300" font-size="41" transform="matrix(1 0 0 1 1223.07 258)">Instagram</text><path d="M1459 242.5C1459 230.074 1469.3 220 1482 220 1494.7 220 1505 230.074 1505 242.5 1505 254.926 1494.7 265 1482 265 1469.3 265 1459 254.926 1459 242.5Z" fill="#FF9F40" fill-rule="evenodd"/><text fill="#404040" font-family="Inter Light BETA,Inter Light BETA_MSFontService,sans-serif" font-weight="300" font-size="41" transform="matrix(1 0 0 1 1527.89 258)">TikTok</text><path d="M1704 242.5C1704 230.074 1714.3 220 1727 220 1739.7 220 1750 230.074 1750 242.5 1750 254.926 1739.7 265 1727 265 1714.3 265 1704 254.926 1704 242.5Z" fill="#FFCD56" fill-rule="evenodd"/><text fill="#404040" font-family="Inter,Inter_MSFontService,sans-serif" font-weight="400" font-size="41" transform="matrix(1 0 0 1 1773.01 258)">Snapchat</text><path d="M2009 242.5C2009 230.074 2019.07 220 2031.5 220 2043.93 220 2054 230.074 2054 242.5 2054 254.926 2043.93 265 2031.5 265 2019.07 265 2009 254.926 2009 242.5Z" fill="#4BC0C0" fill-rule="evenodd"/><text fill="#404040" font-family="Inter Light BETA,Inter Light BETA_MSFontService,sans-serif" font-weight="300" font-size="41" transform="matrix(1 0 0 1 2077.15 258)">Twitter</text><path d="M2290 242.5C2290 230.074 2300.07 220 2312.5 220 2324.93 220 2335 230.074 2335 242.5 2335 254.926 2324.93 265 2312.5 265 2300.07 265 2290 254.926 2290 242.5Z" fill="#9966FF" fill-rule="evenodd"/><text fill="#404040" font-family="Inter Light BETA,Inter Light BETA_MSFontService,sans-serif" font-weight="300" font-size="41" transform="matrix(1 0 0 1 2358.57 258)">YouTube</text><path d="M835 340C835 327.297 845.074 317 857.5 317 869.926 317 880 327.297 880 340 880 352.703 869.926 363 857.5 363 845.074 363 835 352.703 835 340Z" fill="#006363" fill-rule="evenodd"/><text fill="#404040" font-family="Inter Light BETA,Inter Light BETA_MSFontService,sans-serif" font-weight="300" font-size="41" transform="matrix(1 0 0 1 903.224 355)">OTT</text><path d="M1052 340C1052 327.297 1062.07 317 1074.5 317 1086.93 317 1097 327.297 1097 340 1097 352.703 1086.93 363 1074.5 363 1062.07 363 1052 352.703 1052 340Z" fill="#00CC66" fill-rule="evenodd"/><text fill="#404040" font-family="Inter Light BETA,Inter Light BETA_MSFontService,sans-serif" font-weight="300" font-size="41" transform="matrix(1 0 0 1 1120.48 355)">Desktop Video</text><path d="M1479 340C1479 327.297 1489.3 317 1502 317 1514.7 317 1525 327.297 1525 340 1525 352.703 1514.7 363 1502 363 1489.3 363 1479 352.703 1479 340Z" fill="#99FF66" fill-rule="evenodd"/><text fill="#404040" font-family="Inter Light BETA,Inter Light BETA_MSFontService,sans-serif" font-weight="300" font-size="41" transform="matrix(1 0 0 1 1547.79 355)">Mobile Video</text><path d="M1861 340C1861 327.297 1871.3 317 1884 317 1896.7 317 1907 327.297 1907 340 1907 352.703 1896.7 363 1884 363 1871.3 363 1861 352.703 1861 340Z" fill="#800080" fill-rule="evenodd"/><text fill="#404040" font-family="Inter Light BETA,Inter Light BETA_MSFontService,sans-serif" font-weight="300" font-size="41" transform="matrix(1 0 0 1 1929.69 355)">Desktop Display</text><path d="M2296 340C2296 327.297 2306.07 317 2318.5 317 2330.93 317 2341 327.297 2341 340 2341 352.703 2330.93 363 2318.5 363 2306.07 363 2296 352.703 2296 340Z" fill="#CC3399" fill-rule="evenodd"/><text fill="#404040" font-family="Inter Light BETA,Inter Light BETA_MSFontService,sans-serif" font-weight="300" font-size="41" transform="matrix(1 0 0 1 2364.17 355)">Mobile</text><text fill="#404040" font-family="Inter Light BETA,Inter Light BETA_MSFontService,sans-serif" font-weight="300" font-size="41" transform="matrix(1 0 0 1 2506.25 355)">Displa</text><text fill="#404040" font-family="Inter Light BETA,Inter Light BETA_MSFontService,sans-serif" font-weight="300" font-size="41" transform="matrix(1 0 0 1 2624.28 355)">y</text></g></svg>