<svg width="337" height="279" xmlns="http://www.w3.org/2000/svg" xmlns:xlink="http://www.w3.org/1999/xlink" xml:space="preserve" overflow="hidden"><g transform="translate(-471 -220)"><path d="M496 444 537 444 537 466 496 466ZM557 444 598 444 598 466 557 466ZM619 405 660 405 660 466 619 466ZM681 416 722 416 722 466 681 466ZM742 449 783 449 783 466 742 466Z" fill="#36A2EB"/><path d="M496 443 537 443 537 444 496 444ZM557 436 598 436 598 444 557 444ZM619 361 660 361 660 405 619 405ZM681 261 722 261 722 416 681 416ZM742 369 783 369 783 449 742 449Z" fill="#FF6384"/><path d="M496 442 537 442 537 443 496 443ZM557 435 598 435 598 436 557 436ZM619 353 660 353 660 361 619 361ZM681 242 722 242 722 261 681 261ZM742 357 783 357 783 369 742 369Z" fill="#FF9F40"/><path d="M485.5 465.5 793.5 465.5" stroke="#A6A6A6" stroke-linejoin="round" stroke-miterlimit="10" fill="none" fill-rule="evenodd"/><text fill="#585F70" font-family="Inter,Inter_MSFontService,sans-serif" font-weight="400" font-size="13" transform="translate(501.01 487)">2019</text><text fill="#585F70" font-family="Inter,Inter_MSFontService,sans-serif" font-weight="400" font-size="13" transform="translate(561.49 487)">2020</text><text fill="#585F70" font-family="Inter,Inter_MSFontService,sans-serif" font-weight="400" font-size="13" transform="translate(624.29 487)">2021</text><text fill="#585F70" font-family="Inter,Inter_MSFontService,sans-serif" font-weight="400" font-size="13" transform="translate(684.78 487)">2022</text><text fill="#585F70" font-family="Inter,Inter_MSFontService,sans-serif" font-weight="400" font-size="13" transform="translate(746.14 487)">2023</text></g></svg>