<svg width="234" height="247" xmlns="http://www.w3.org/2000/svg" xmlns:xlink="http://www.w3.org/1999/xlink" xml:space="preserve" overflow="hidden"><g transform="translate(-1532 -1929)"><path d="M1532 1966.5C1532 1954.07 1542.3 1944 1555 1944 1567.7 1944 1578 1954.07 1578 1966.5 1578 1978.93 1567.7 1989 1555 1989 1542.3 1989 1532 1978.93 1532 1966.5Z" fill="#36A2EB" fill-rule="evenodd"/><text fill="#404040" font-family="Inter,Inter_MSFontService,sans-serif" font-weight="400" font-size="41" transform="matrix(1 0 0 1 1600.9 1982)">StockX</text><path d="M1532 2046C1532 2033.3 1542.3 2023 1555 2023 1567.7 2023 1578 2033.3 1578 2046 1578 2058.7 1567.7 2069 1555 2069 1542.3 2069 1532 2058.7 1532 2046Z" fill="#FF6384" fill-rule="evenodd"/><text fill="#404040" font-family="Inter,Inter_MSFontService,sans-serif" font-weight="400" font-size="41" transform="matrix(1 0 0 1 1600.9 2061)">GOAT</text><path d="M1532 2125.5C1532 2113.07 1542.3 2103 1555 2103 1567.7 2103 1578 2113.07 1578 2125.5 1578 2137.93 1567.7 2148 1555 2148 1542.3 2148 1532 2137.93 1532 2125.5Z" fill="#FF9F40" fill-rule="evenodd"/><text fill="#404040" font-family="Inter,Inter_MSFontService,sans-serif" font-weight="400" font-size="41" transform="matrix(1 0 0 1 1600.9 2141)">Grailed</text></g></svg>