<svg width="1050" height="293" xmlns="http://www.w3.org/2000/svg" xmlns:xlink="http://www.w3.org/1999/xlink" xml:space="preserve" overflow="hidden"><g transform="translate(-115 -213)"><path d="M179.5 473.5 1150.5 473.5M179.5 432.5 1150.5 432.5M179.5 350.5 1150.5 350.5M179.5 309.5 1150.5 309.5M179.5 268.5 1150.5 268.5M179.5 227.5 1150.5 227.5" stroke="#D9D9D9" stroke-linecap="square" stroke-linejoin="round" stroke-miterlimit="10" stroke-dasharray="3 1" fill="none"/><path d="M0 0 0.000104987 246" stroke="#A6A6A6" stroke-linejoin="round" stroke-miterlimit="10" fill="none" fill-rule="evenodd" transform="matrix(1 0 0 -1 179.5 473.5)"/><path d="M179.5 391.5 1150.5 391.5" stroke="#A6A6A6" stroke-linejoin="round" stroke-miterlimit="10" fill="none" fill-rule="evenodd"/><path d="M204.5 238.5C220.675 274.18 236.851 325.09 253.026 345.55 268.818 365.53 285.76 358.81 301.553 361.27 317.728 363.8 333.904 366.12 350.079 360.7 366.254 355.29 382.43 332.91 398.605 328.77 414.781 324.62 430.956 334.34 447.132 335.86 463.307 337.37 479.482 335.4 495.658 337.86 511.833 340.31 528.009 343.01 544.184 350.58 560.36 358.15 576.535 377.17 592.711 383.28 608.886 389.39 625.061 388.81 641.237 387.25 657.412 385.7 673.588 377.27 689.763 373.96 705.939 370.66 722.114 367.21 738.29 367.43 754.465 367.65 770.64 373.55 786.816 375.28 802.991 377.01 819.167 374.75 835.342 377.81 851.518 380.87 867.693 391.37 883.868 393.64 900.044 395.91 916.219 388.94 932.395 391.43 948.57 393.92 964.746 407.63 980.921 408.59 997.096 409.54 1013.27 397.83 1029.45 397.15 1045.62 396.47 1061.8 401.96 1077.97 404.52 1094.15 407.07 1110.32 409.84 1126.5 412.5" stroke="#36A2EB" stroke-width="3" stroke-linecap="round" stroke-linejoin="round" stroke-miterlimit="10" fill="none"/><path d="M204.5 239.5C220.675 268.3 236.851 306.33 253.026 325.89 269.202 345.46 285.377 346.9 301.553 356.9 317.728 366.91 333.904 381.99 350.079 385.89 366.254 389.8 382.43 383.34 398.605 380.33 414.781 377.32 430.956 369.57 447.132 367.83 463.307 366.09 479.482 370.61 495.658 369.9 511.833 369.18 528.009 361.63 544.184 363.54 560.36 365.44 576.535 375.98 592.711 381.33 608.886 386.68 625.061 398.19 641.237 395.65 657.412 393.11 673.588 373.13 689.763 366.1 705.939 359.07 722.114 355.48 738.29 353.46 754.465 351.44 770.64 355.91 786.816 353.99 802.991 352.06 819.167 339.79 835.342 341.93 851.518 344.06 867.693 359.29 883.868 366.81 900.044 374.33 916.219 383.76 932.395 387.04 948.57 390.31 964.746 386.17 980.921 386.44 997.096 386.72 1013.27 386.88 1029.45 388.66 1045.62 390.45 1061.8 394.36 1077.97 397.17 1094.15 399.97 1110.32 402.72 1126.5 405.5" stroke="#FF6384" stroke-width="3" stroke-linecap="round" stroke-linejoin="round" stroke-miterlimit="10" fill="none"/><path d="M204.5 381.79C220.675 387.91 236.851 395.63 253.026 400.15 269.202 404.68 285.377 408.22 301.553 408.94 317.728 409.67 333.904 416 350.079 404.51 366.254 393.02 382.43 356.13 398.605 340.01 414.781 323.89 430.956 312.09 447.132 307.79 463.307 303.5 479.482 308.53 495.658 314.25 511.833 319.97 528.009 329.38 544.184 342.11 560.36 354.83 576.535 379.68 592.711 390.59 608.886 401.5 625.061 404.3 641.237 407.57 657.412 410.84 673.588 407.77 689.763 410.22 705.939 412.66 722.114 418.43 738.29 422.25 754.465 426.06 770.64 433.5 786.816 433.13 802.991 432.75 819.167 424.93 835.342 420.01 851.518 415.1 867.693 408.13 883.868 403.64 900.044 399.14 916.219 394.76 932.395 393.04 948.57 391.32 964.746 390.92 980.921 393.32 997.096 395.71 1013.27 406.77 1029.45 407.4 1045.62 408.03 1061.8 400.41 1077.97 397.1 1094.15 393.78 1110.32 390.71 1126.5 387.51" stroke="#FF9F40" stroke-width="3" stroke-linecap="round" stroke-linejoin="round" stroke-miterlimit="10" fill="none"/><text fill="#585F70" font-family="Inter Medium,Inter Medium_MSFontService,sans-serif" font-weight="500" font-size="13" transform="translate(123.196 478)">(</text><text fill="#585F70" font-family="Inter Medium,Inter Medium_MSFontService,sans-serif" font-weight="500" font-size="13" transform="translate(128.196 478)">100</text><text fill="#585F70" font-family="Inter Medium,Inter Medium_MSFontService,sans-serif" font-weight="500" font-size="13" transform="translate(150.196 478)">%)</text><text fill="#585F70" font-family="Inter Medium,Inter Medium_MSFontService,sans-serif" font-weight="500" font-size="13" transform="translate(129.576 437)">(</text><text fill="#585F70" font-family="Inter Medium,Inter Medium_MSFontService,sans-serif" font-weight="500" font-size="13" transform="translate(134.576 437)">50</text><text fill="#585F70" font-family="Inter Medium,Inter Medium_MSFontService,sans-serif" font-weight="500" font-size="13" transform="translate(150.576 437)">%)</text><text fill="#585F70" font-family="Inter Medium,Inter Medium_MSFontService,sans-serif" font-weight="500" font-size="13" transform="translate(155.229 396)">--</text><text fill="#585F70" font-family="Inter Medium,Inter Medium_MSFontService,sans-serif" font-weight="500" font-size="13" transform="translate(139.656 355)">50</text><text fill="#585F70" font-family="Inter Medium,Inter Medium_MSFontService,sans-serif" font-weight="500" font-size="13" transform="translate(155.656 355)">%</text><text fill="#585F70" font-family="Inter Medium,Inter Medium_MSFontService,sans-serif" font-weight="500" font-size="13" transform="translate(133.276 314)">100</text><text fill="#585F70" font-family="Inter Medium,Inter Medium_MSFontService,sans-serif" font-weight="500" font-size="13" transform="translate(155.276 314)">%</text><text fill="#585F70" font-family="Inter Medium,Inter Medium_MSFontService,sans-serif" font-weight="500" font-size="13" transform="translate(133.623 273)">150</text><text fill="#585F70" font-family="Inter Medium,Inter Medium_MSFontService,sans-serif" font-weight="500" font-size="13" transform="translate(155.623 273)">%</text><text fill="#585F70" font-family="Inter Medium,Inter Medium_MSFontService,sans-serif" font-weight="500" font-size="13" transform="translate(131.129 232)">200</text><text fill="#585F70" font-family="Inter Medium,Inter Medium_MSFontService,sans-serif" font-weight="500" font-size="13" transform="translate(155.129 232)">%</text><text fill="#585F70" font-family="Inter Medium,Inter Medium_MSFontService,sans-serif" font-weight="500" font-size="13" transform="translate(188.698 495)">1</text><text fill="#585F70" font-family="Inter Medium,Inter Medium_MSFontService,sans-serif" font-weight="500" font-size="13" transform="translate(194.698 495)">Q</text><text fill="#585F70" font-family="Inter Medium,Inter Medium_MSFontService,sans-serif" font-weight="500" font-size="13" transform="translate(204.698 495)">19</text><text fill="#585F70" font-family="Inter Medium,Inter Medium_MSFontService,sans-serif" font-weight="500" font-size="13" transform="translate(236.162 495)">2</text><text fill="#585F70" font-family="Inter Medium,Inter Medium_MSFontService,sans-serif" font-weight="500" font-size="13" transform="translate(244.162 495)">Q</text><text fill="#585F70" font-family="Inter Medium,Inter Medium_MSFontService,sans-serif" font-weight="500" font-size="13" transform="translate(254.162 495)">19</text><text fill="#585F70" font-family="Inter Medium,Inter Medium_MSFontService,sans-serif" font-weight="500" font-size="13" transform="translate(284.496 495)">3</text><text fill="#585F70" font-family="Inter Medium,Inter Medium_MSFontService,sans-serif" font-weight="500" font-size="13" transform="translate(292.496 495)">Q</text><text fill="#585F70" font-family="Inter Medium,Inter Medium_MSFontService,sans-serif" font-weight="500" font-size="13" transform="translate(302.496 495)">19</text><text fill="#585F70" font-family="Inter Medium,Inter Medium_MSFontService,sans-serif" font-weight="500" font-size="13" transform="translate(332.967 495)">4</text><text fill="#585F70" font-family="Inter Medium,Inter Medium_MSFontService,sans-serif" font-weight="500" font-size="13" transform="translate(341.967 495)">Q</text><text fill="#585F70" font-family="Inter Medium,Inter Medium_MSFontService,sans-serif" font-weight="500" font-size="13" transform="translate(351.967 495)">19</text><text fill="#585F70" font-family="Inter Medium,Inter Medium_MSFontService,sans-serif" font-weight="500" font-size="13" transform="translate(381.704 495)">1</text><text fill="#585F70" font-family="Inter Medium,Inter Medium_MSFontService,sans-serif" font-weight="500" font-size="13" transform="translate(387.704 495)">Q</text><text fill="#585F70" font-family="Inter Medium,Inter Medium_MSFontService,sans-serif" font-weight="500" font-size="13" transform="translate(397.704 495)">20</text><text fill="#585F70" font-family="Inter Medium,Inter Medium_MSFontService,sans-serif" font-weight="500" font-size="13" transform="translate(429.168 495)">2</text><text fill="#585F70" font-family="Inter Medium,Inter Medium_MSFontService,sans-serif" font-weight="500" font-size="13" transform="translate(437.168 495)">Q</text><text fill="#585F70" font-family="Inter Medium,Inter Medium_MSFontService,sans-serif" font-weight="500" font-size="13" transform="translate(447.168 495)">20</text><text fill="#585F70" font-family="Inter Medium,Inter Medium_MSFontService,sans-serif" font-weight="500" font-size="13" transform="translate(477.502 495)">3</text><text fill="#585F70" font-family="Inter Medium,Inter Medium_MSFontService,sans-serif" font-weight="500" font-size="13" transform="translate(485.502 495)">Q</text><text fill="#585F70" font-family="Inter Medium,Inter Medium_MSFontService,sans-serif" font-weight="500" font-size="13" transform="translate(495.502 495)">20</text><text fill="#585F70" font-family="Inter Medium,Inter Medium_MSFontService,sans-serif" font-weight="500" font-size="13" transform="translate(525.973 495)">4</text><text fill="#585F70" font-family="Inter Medium,Inter Medium_MSFontService,sans-serif" font-weight="500" font-size="13" transform="translate(534.973 495)">Q</text><text fill="#585F70" font-family="Inter Medium,Inter Medium_MSFontService,sans-serif" font-weight="500" font-size="13" transform="translate(544.973 495)">20</text><text fill="#585F70" font-family="Inter Medium,Inter Medium_MSFontService,sans-serif" font-weight="500" font-size="13" transform="translate(577.143 495)">1</text><text fill="#585F70" font-family="Inter Medium,Inter Medium_MSFontService,sans-serif" font-weight="500" font-size="13" transform="translate(583.143 495)">Q</text><text fill="#585F70" font-family="Inter Medium,Inter Medium_MSFontService,sans-serif" font-weight="500" font-size="13" transform="translate(593.143 495)">21</text><text fill="#585F70" font-family="Inter Medium,Inter Medium_MSFontService,sans-serif" font-weight="500" font-size="13" transform="translate(624.607 495)">2</text><text fill="#585F70" font-family="Inter Medium,Inter Medium_MSFontService,sans-serif" font-weight="500" font-size="13" transform="translate(632.607 495)">Q</text><text fill="#585F70" font-family="Inter Medium,Inter Medium_MSFontService,sans-serif" font-weight="500" font-size="13" transform="translate(642.607 495)">21</text><text fill="#585F70" font-family="Inter Medium,Inter Medium_MSFontService,sans-serif" font-weight="500" font-size="13" transform="translate(672.941 495)">3</text><text fill="#585F70" font-family="Inter Medium,Inter Medium_MSFontService,sans-serif" font-weight="500" font-size="13" transform="translate(680.941 495)">Q</text><text fill="#585F70" font-family="Inter Medium,Inter Medium_MSFontService,sans-serif" font-weight="500" font-size="13" transform="translate(690.941 495)">21</text><text fill="#585F70" font-family="Inter Medium,Inter Medium_MSFontService,sans-serif" font-weight="500" font-size="13" transform="translate(721.412 495)">4</text><text fill="#585F70" font-family="Inter Medium,Inter Medium_MSFontService,sans-serif" font-weight="500" font-size="13" transform="translate(730.412 495)">Q</text><text fill="#585F70" font-family="Inter Medium,Inter Medium_MSFontService,sans-serif" font-weight="500" font-size="13" transform="translate(740.412 495)">21</text><text fill="#585F70" font-family="Inter Medium,Inter Medium_MSFontService,sans-serif" font-weight="500" font-size="13" transform="translate(770.219 495)">1</text><text fill="#585F70" font-family="Inter Medium,Inter Medium_MSFontService,sans-serif" font-weight="500" font-size="13" transform="translate(776.219 495)">Q</text><text fill="#585F70" font-family="Inter Medium,Inter Medium_MSFontService,sans-serif" font-weight="500" font-size="13" transform="translate(786.219 495)">22</text><text fill="#585F70" font-family="Inter Medium,Inter Medium_MSFontService,sans-serif" font-weight="500" font-size="13" transform="translate(817.683 495)">2</text><text fill="#585F70" font-family="Inter Medium,Inter Medium_MSFontService,sans-serif" font-weight="500" font-size="13" transform="translate(825.683 495)">Q</text><text fill="#585F70" font-family="Inter Medium,Inter Medium_MSFontService,sans-serif" font-weight="500" font-size="13" transform="translate(835.683 495)">22</text><text fill="#585F70" font-family="Inter Medium,Inter Medium_MSFontService,sans-serif" font-weight="500" font-size="13" transform="translate(866.017 495)">3</text><text fill="#585F70" font-family="Inter Medium,Inter Medium_MSFontService,sans-serif" font-weight="500" font-size="13" transform="translate(874.017 495)">Q</text><text fill="#585F70" font-family="Inter Medium,Inter Medium_MSFontService,sans-serif" font-weight="500" font-size="13" transform="translate(884.017 495)">22</text><text fill="#585F70" font-family="Inter Medium,Inter Medium_MSFontService,sans-serif" font-weight="500" font-size="13" transform="translate(914.487 495)">4</text><text fill="#585F70" font-family="Inter Medium,Inter Medium_MSFontService,sans-serif" font-weight="500" font-size="13" transform="translate(923.487 495)">Q</text><text fill="#585F70" font-family="Inter Medium,Inter Medium_MSFontService,sans-serif" font-weight="500" font-size="13" transform="translate(933.487 495)">22</text><text fill="#585F70" font-family="Inter Medium,Inter Medium_MSFontService,sans-serif" font-weight="500" font-size="13" transform="translate(964.165 495)">1</text><text fill="#585F70" font-family="Inter Medium,Inter Medium_MSFontService,sans-serif" font-weight="500" font-size="13" transform="translate(970.165 495)">Q</text><text fill="#585F70" font-family="Inter Medium,Inter Medium_MSFontService,sans-serif" font-weight="500" font-size="13" transform="translate(980.165 495)">23</text><text fill="#585F70" font-family="Inter Medium,Inter Medium_MSFontService,sans-serif" font-weight="500" font-size="13" transform="translate(1011.63 495)">2</text><text fill="#585F70" font-family="Inter Medium,Inter Medium_MSFontService,sans-serif" font-weight="500" font-size="13" transform="translate(1019.63 495)">Q</text><text fill="#585F70" font-family="Inter Medium,Inter Medium_MSFontService,sans-serif" font-weight="500" font-size="13" transform="translate(1029.63 495)">23</text><text fill="#585F70" font-family="Inter Medium,Inter Medium_MSFontService,sans-serif" font-weight="500" font-size="13" transform="translate(1059.96 495)">3</text><text fill="#585F70" font-family="Inter Medium,Inter Medium_MSFontService,sans-serif" font-weight="500" font-size="13" transform="translate(1067.96 495)">Q</text><text fill="#585F70" font-family="Inter Medium,Inter Medium_MSFontService,sans-serif" font-weight="500" font-size="13" transform="translate(1077.96 495)">23</text><text fill="#585F70" font-family="Inter Medium,Inter Medium_MSFontService,sans-serif" font-weight="500" font-size="13" transform="translate(1108.43 495)">4</text><text fill="#585F70" font-family="Inter Medium,Inter Medium_MSFontService,sans-serif" font-weight="500" font-size="13" transform="translate(1117.43 495)">Q</text><text fill="#585F70" font-family="Inter Medium,Inter Medium_MSFontService,sans-serif" font-weight="500" font-size="13" transform="translate(1127.43 495)">23</text></g></svg>