<svg width="336" height="293" xmlns="http://www.w3.org/2000/svg" xmlns:xlink="http://www.w3.org/1999/xlink" xml:space="preserve" overflow="hidden"><g transform="translate(-472 -213)"><path d="M531.5 473.5 793.5 473.5M531.5 442.5 793.5 442.5M531.5 411.5 793.5 411.5M531.5 350.5 793.5 350.5M531.5 319.5 793.5 319.5M531.5 288.5 793.5 288.5M531.5 258.5 793.5 258.5M531.5 227.5 793.5 227.5" stroke="#D9D9D9" stroke-linecap="square" stroke-linejoin="round" stroke-miterlimit="10" stroke-dasharray="3 1" fill="none"/><path d="M0 0 0.000104987 246" stroke="#A6A6A6" stroke-linejoin="round" stroke-miterlimit="10" fill="none" fill-rule="evenodd" transform="matrix(1 0 0 -1 531.5 473.5)"/><path d="M531.5 381.5 793.5 381.5" stroke="#A6A6A6" stroke-linejoin="round" stroke-miterlimit="10" fill="none" fill-rule="evenodd"/><path d="M557.5 271.91C575 268.92 592.5 248.5 610 262.92 627.5 277.34 645 341.04 662.5 358.43 680 375.82 697.5 359.73 715 367.24 732.5 374.75 750 391.41 767.5 403.5" stroke="#36A2EB" stroke-width="3" stroke-linecap="round" stroke-linejoin="round" stroke-miterlimit="10" fill="none"/><path d="M557.5 262.5C575 287.61 592.5 323.16 610 337.84 627.5 352.53 645 352.5 662.5 350.61 680 348.72 697.5 322.04 715 326.52 732.5 331 750 360.51 767.5 377.5" stroke="#FF6384" stroke-width="3" stroke-linecap="round" stroke-linejoin="round" stroke-miterlimit="10" fill="none"/><path d="M557.5 389.11C575 350.7 592.5 273.5 610 273.88 627.5 274.26 645 364.04 662.5 391.39 680 418.75 697.5 437.49 715 438 732.5 438.5 750 408.95 767.5 394.42" stroke="#FF9F40" stroke-width="3" stroke-linecap="round" stroke-linejoin="round" stroke-miterlimit="10" fill="none"/><text fill="#585F70" font-family="Inter Medium,Inter Medium_MSFontService,sans-serif" font-weight="500" font-size="13" transform="translate(480.74 478)">(</text><text fill="#585F70" font-family="Inter Medium,Inter Medium_MSFontService,sans-serif" font-weight="500" font-size="13" transform="translate(485.74 478)">60</text><text fill="#585F70" font-family="Inter Medium,Inter Medium_MSFontService,sans-serif" font-weight="500" font-size="13" transform="translate(501.74 478)">%)</text><text fill="#585F70" font-family="Inter Medium,Inter Medium_MSFontService,sans-serif" font-weight="500" font-size="13" transform="translate(480.49 447)">(</text><text fill="#585F70" font-family="Inter Medium,Inter Medium_MSFontService,sans-serif" font-weight="500" font-size="13" transform="translate(485.49 447)">40</text><text fill="#585F70" font-family="Inter Medium,Inter Medium_MSFontService,sans-serif" font-weight="500" font-size="13" transform="translate(502.49 447)">%)</text><text fill="#585F70" font-family="Inter Medium,Inter Medium_MSFontService,sans-serif" font-weight="500" font-size="13" transform="translate(481.03 416)">(</text><text fill="#585F70" font-family="Inter Medium,Inter Medium_MSFontService,sans-serif" font-weight="500" font-size="13" transform="translate(486.03 416)">20</text><text fill="#585F70" font-family="Inter Medium,Inter Medium_MSFontService,sans-serif" font-weight="500" font-size="13" transform="translate(502.03 416)">%)</text><text fill="#585F70" font-family="Inter Medium,Inter Medium_MSFontService,sans-serif" font-weight="500" font-size="13" transform="translate(506.6 385)">--</text><text fill="#585F70" font-family="Inter Medium,Inter Medium_MSFontService,sans-serif" font-weight="500" font-size="13" transform="translate(491.11 355)">20</text><text fill="#585F70" font-family="Inter Medium,Inter Medium_MSFontService,sans-serif" font-weight="500" font-size="13" transform="translate(507.11 355)">%</text><text fill="#585F70" font-family="Inter Medium,Inter Medium_MSFontService,sans-serif" font-weight="500" font-size="13" transform="translate(490.57 324)">40</text><text fill="#585F70" font-family="Inter Medium,Inter Medium_MSFontService,sans-serif" font-weight="500" font-size="13" transform="translate(507.57 324)">%</text><text fill="#585F70" font-family="Inter Medium,Inter Medium_MSFontService,sans-serif" font-weight="500" font-size="13" transform="translate(490.82 293)">60</text><text fill="#585F70" font-family="Inter Medium,Inter Medium_MSFontService,sans-serif" font-weight="500" font-size="13" transform="translate(506.82 293)">%</text><text fill="#585F70" font-family="Inter Medium,Inter Medium_MSFontService,sans-serif" font-weight="500" font-size="13" transform="translate(490.87 262)">80</text><text fill="#585F70" font-family="Inter Medium,Inter Medium_MSFontService,sans-serif" font-weight="500" font-size="13" transform="translate(506.87 262)">%</text><text fill="#585F70" font-family="Inter Medium,Inter Medium_MSFontService,sans-serif" font-weight="500" font-size="13" transform="translate(484.64 232)">100</text><text fill="#585F70" font-family="Inter Medium,Inter Medium_MSFontService,sans-serif" font-weight="500" font-size="13" transform="translate(506.64 232)">%</text><text fill="#585F70" font-family="Inter Medium,Inter Medium_MSFontService,sans-serif" font-weight="500" font-size="13" transform="translate(541.78 495)">2019</text><text fill="#585F70" font-family="Inter Medium,Inter Medium_MSFontService,sans-serif" font-weight="500" font-size="13" transform="translate(593.11 495)">2020</text><text fill="#585F70" font-family="Inter Medium,Inter Medium_MSFontService,sans-serif" font-weight="500" font-size="13" transform="translate(646.88 495)">2021</text><text fill="#585F70" font-family="Inter Medium,Inter Medium_MSFontService,sans-serif" font-weight="500" font-size="13" transform="translate(698.29 495)">2022</text><text fill="#585F70" font-family="Inter Medium,Inter Medium_MSFontService,sans-serif" font-weight="500" font-size="13" transform="translate(750.56 495)">2023</text></g></svg>