<svg width="384" height="384" xmlns="http://www.w3.org/2000/svg" xmlns:xlink="http://www.w3.org/1999/xlink" xml:space="preserve" overflow="hidden"><defs><clipPath id="clip0"><rect x="10" y="24" width="384" height="384"/></clipPath></defs><g clip-path="url(#clip0)" transform="translate(-10 -24)"><path d="M10 24 394 24 394 408 10 408Z" fill="#FFFFFF"/><path d="M165 99 240 99 240 360 165 360Z" fill="#FF6384"/><path d="M293 122 368 122 368 360 293 360Z" fill="#FF9F40"/><path d="M37 71 112 71 112 360 37 360Z" fill="#36A2EB"/><path d="M10.5001 360.5 394.5 360.5" stroke="#D9D9D9" stroke-linejoin="round" stroke-miterlimit="10" fill="none" fill-rule="evenodd"/><text fill="#404040" font-family="Inter,Inter_MSFontService,sans-serif" font-weight="400" font-size="20" transform="translate(55.602 60)">18</text><text fill="#404040" font-family="Inter,Inter_MSFontService,sans-serif" font-weight="400" font-size="20" transform="translate(76.602 60)">% </text><text fill="#404040" font-family="Inter,Inter_MSFontService,sans-serif" font-weight="400" font-size="20" transform="translate(183.529 88)">16</text><text fill="#404040" font-family="Inter,Inter_MSFontService,sans-serif" font-weight="400" font-size="20" transform="translate(204.529 88)">% </text><text fill="#404040" font-family="Inter,Inter_MSFontService,sans-serif" font-weight="400" font-size="20" transform="translate(311.685 111)">15</text><text fill="#404040" font-family="Inter,Inter_MSFontService,sans-serif" font-weight="400" font-size="20" transform="translate(332.685 111)">% </text><text fill="#595959" font-family="Inter Medium,Inter Medium_MSFontService,sans-serif" font-weight="500" font-size="21" transform="translate(32.3019 395)">StockX</text><text fill="#595959" font-family="Inter Medium,Inter Medium_MSFontService,sans-serif" font-weight="500" font-size="21" transform="translate(172.202 395)">Goat</text><text fill="#595959" font-family="Inter Medium,Inter Medium_MSFontService,sans-serif" font-weight="500" font-size="21" transform="translate(288.089 395)">Grailed</text></g></svg>