<svg width="528" height="384" xmlns="http://www.w3.org/2000/svg" xmlns:xlink="http://www.w3.org/1999/xlink" xml:space="preserve" overflow="hidden"><g transform="translate(-376 -168)"><path d="M376 168 904 168 904 552 376 552Z" fill="#FFFFFF"/><path d="M589 231 690 231 690 504 589 504Z" fill="#FF6384"/><path d="M760 348 861 348 861 504 760 504Z" fill="#FF9F40"/><path d="M417 206 518 206 518 504 417 504Z" fill="#36A2EB"/><path d="M381.5 503.5 896.5 503.5" stroke="#D9D9D9" stroke-linejoin="round" stroke-miterlimit="10" fill="none" fill-rule="evenodd"/><text fill="#404040" font-family="Inter,Inter_MSFontService,sans-serif" font-weight="400" font-size="20" transform="translate(435.19 195)">$</text><text fill="#404040" font-family="Inter,Inter_MSFontService,sans-serif" font-weight="400" font-size="20" transform="translate(448.19 195)">1</text><text fill="#404040" font-family="Inter,Inter_MSFontService,sans-serif" font-weight="400" font-size="20" transform="translate(457.19 195)">,</text><text fill="#404040" font-family="Inter,Inter_MSFontService,sans-serif" font-weight="400" font-size="20" transform="translate(463.19 195)">299</text><text fill="#404040" font-family="Inter,Inter_MSFontService,sans-serif" font-weight="400" font-size="20" transform="translate(609.94 220)">$</text><text fill="#404040" font-family="Inter,Inter_MSFontService,sans-serif" font-weight="400" font-size="20" transform="translate(622.94 220)">1</text><text fill="#404040" font-family="Inter,Inter_MSFontService,sans-serif" font-weight="400" font-size="20" transform="translate(631.94 220)">,</text><text fill="#404040" font-family="Inter,Inter_MSFontService,sans-serif" font-weight="400" font-size="20" transform="translate(637.94 220)">187</text><text fill="#404040" font-family="Inter,Inter_MSFontService,sans-serif" font-weight="400" font-size="20" transform="translate(785.72 337)">$</text><text fill="#404040" font-family="Inter,Inter_MSFontService,sans-serif" font-weight="400" font-size="20" transform="translate(798.72 337)">680</text><text fill="#595959" font-family="Inter Medium,Inter Medium_MSFontService,sans-serif" font-weight="500" font-size="21" transform="translate(425.3 539)">StockX</text><text fill="#595959" font-family="Inter Medium,Inter Medium_MSFontService,sans-serif" font-weight="500" font-size="21" transform="translate(608.92 539)">Goat</text><text fill="#595959" font-family="Inter Medium,Inter Medium_MSFontService,sans-serif" font-weight="500" font-size="21" transform="translate(768.53 539)">Grailed</text></g></svg>