<svg width="2630" height="990" xmlns="http://www.w3.org/2000/svg" xmlns:xlink="http://www.w3.org/1999/xlink" xml:space="preserve" overflow="hidden"><defs><clipPath id="clip0"><rect x="521" y="1544" width="2630" height="990"/></clipPath></defs><g clip-path="url(#clip0)" transform="translate(-521 -1544)"><rect x="521" y="1544" width="2630" height="990" fill="#FFFFFF"/><g><path d="M688.5 2213.57 3100.5 2213.57M688.5 2007.57 3100.5 2007.57M688.5 1800.56 3100.5 1800.56M688.5 1594.5 3100.5 1594.5" stroke="#D9D9D9" stroke-width="3.4375" stroke-linecap="square" stroke-linejoin="round" stroke-miterlimit="10" stroke-dasharray="10.3125 3.4375" fill="none"/></g><g><path d="M0 0 0.000360892 826" stroke="#A6A6A6" stroke-width="3.4375" stroke-linejoin="round" stroke-miterlimit="10" fill="none" fill-rule="evenodd" transform="matrix(1 0 0 -1 688.5 2420.5)"/></g><g><path d="M688.5 2420.5 3100.5 2420.5" stroke="#A6A6A6" stroke-width="3.4375" stroke-linejoin="round" stroke-miterlimit="10" fill="none" fill-rule="evenodd"/></g><g><path d="M799 1832 1018.03 1961.06 1237.04 2015.07 1456.05 2021.07 1675.05 2093.07 1895.06 2113.07 2114.07 2144.07 2333.08 2153.07 2552.08 2168 2772.09 2152.07 2991 2119.07" stroke="#0D5483" stroke-width="10.3125" stroke-linecap="round" stroke-linejoin="round" stroke-miterlimit="10" fill="none"/></g><g><path d="M799 1615 1018.03 1801.06 1237.04 1896.06 1456.05 1927.06 1675.05 2037.07 1895.06 2092.07 2114.07 2127.07 2333.08 2153.07 2552.08 2168 2772.09 2152.07 2991 2119.07" stroke="#147EC5" stroke-width="10.3125" stroke-linecap="round" stroke-linejoin="round" stroke-miterlimit="10" fill="none"/></g><g><path d="M799 1920 1018.03 2064.07 1237.04 2125.07 1456.05 2115.07 1675.05 2168.07 1895.06 2156.07 2114 2214" stroke="#36A2EB" stroke-width="10.3125" stroke-linecap="round" stroke-linejoin="round" stroke-miterlimit="10" fill="none"/></g><g><path d="M799 2024 1018.03 2108.07 1237.04 2119 1456 2102.07" stroke="#86C7F3" stroke-width="10.3125" stroke-linecap="round" stroke-linejoin="round" stroke-miterlimit="10" fill="none"/></g><g><text fill="#595959" font-family="Inter Medium,Inter Medium_MSFontService,sans-serif" font-weight="500" font-size="46" transform="matrix(1 0 0 1 579.246 2434)">0%</text></g><g><text fill="#595959" font-family="Inter Medium,Inter Medium_MSFontService,sans-serif" font-weight="500" font-size="46" transform="matrix(1 0 0 1 580.438 2228)">5%</text></g><g><text fill="#595959" font-family="Inter Medium,Inter Medium_MSFontService,sans-serif" font-weight="500" font-size="46" transform="matrix(1 0 0 1 558.507 2022)">10%</text></g><g><text fill="#595959" font-family="Inter Medium,Inter Medium_MSFontService,sans-serif" font-weight="500" font-size="46" transform="matrix(1 0 0 1 559.698 1815)">15%</text></g><g><text fill="#595959" font-family="Inter Medium,Inter Medium_MSFontService,sans-serif" font-weight="500" font-size="46" transform="matrix(1 0 0 1 551.127 1609)">20%</text></g><g><text fill="#595959" font-family="Inter Medium,Inter Medium_MSFontService,sans-serif" font-weight="500" font-size="46" transform="matrix(1 0 0 1 770.545 2493)">1Q</text></g><g><text fill="#595959" font-family="Inter Medium,Inter Medium_MSFontService,sans-serif" font-weight="500" font-size="46" transform="matrix(1 0 0 1 986.103 2493)">2Q</text></g><g><text fill="#595959" font-family="Inter Medium,Inter Medium_MSFontService,sans-serif" font-weight="500" font-size="46" transform="matrix(1 0 0 1 1204.65 2493)">3Q</text></g><g><text fill="#595959" font-family="Inter Medium,Inter Medium_MSFontService,sans-serif" font-weight="500" font-size="46" transform="matrix(1 0 0 1 1423.67 2493)">4Q</text></g><g><text fill="#595959" font-family="Inter Medium,Inter Medium_MSFontService,sans-serif" font-weight="500" font-size="46" transform="matrix(1 0 0 1 1643.7 2493)">5Q</text></g><g><text fill="#595959" font-family="Inter Medium,Inter Medium_MSFontService,sans-serif" font-weight="500" font-size="46" transform="matrix(1 0 0 1 1862.59 2493)">6Q</text></g><g><text fill="#595959" font-family="Inter Medium,Inter Medium_MSFontService,sans-serif" font-weight="500" font-size="46" transform="matrix(1 0 0 1 2083.13 2493)">7Q</text></g><g><text fill="#595959" font-family="Inter Medium,Inter Medium_MSFontService,sans-serif" font-weight="500" font-size="46" transform="matrix(1 0 0 1 2301.18 2493)">8Q</text></g><g><text fill="#595959" font-family="Inter Medium,Inter Medium_MSFontService,sans-serif" font-weight="500" font-size="46" transform="matrix(1 0 0 1 2520.33 2493)">9Q</text></g><g><text fill="#595959" font-family="Inter Medium,Inter Medium_MSFontService,sans-serif" font-weight="500" font-size="46" transform="matrix(1 0 0 1 2728.97 2493)">10Q</text></g><g><text fill="#595959" font-family="Inter Medium,Inter Medium_MSFontService,sans-serif" font-weight="500" font-size="46" transform="matrix(1 0 0 1 2952.65 2493)">11Q</text></g></g></svg>