<svg width="1052" height="302" xmlns="http://www.w3.org/2000/svg" xmlns:xlink="http://www.w3.org/1999/xlink" xml:space="preserve" overflow="hidden"><g transform="translate(-36 -25)"><path d="M103.5 293.5 1073.5 293.5M103.5 208.5 1073.5 208.5M103.5 166.5 1073.5 166.5M103.5 124.5 1073.5 124.5M103.5 81.5 1073.5 81.5M103.5 39.5 1073.5 39.5" stroke="#D9D9D9" stroke-linecap="square" stroke-linejoin="round" stroke-miterlimit="10" stroke-dasharray="3 1" fill="none"/><path d="M0 0 0.000104987 254" stroke="#A6A6A6" stroke-linejoin="round" stroke-miterlimit="10" fill="none" fill-rule="evenodd" transform="matrix(1 0 0 -1 103.5 293.5)"/><path d="M103.5 251.5 1073.5 251.5" stroke="#A6A6A6" stroke-linejoin="round" stroke-miterlimit="10" fill="none" fill-rule="evenodd"/><path d="M127.5 240.61C143.675 239.99 159.851 238.86 176.026 238.76 192.202 238.67 208.377 239.92 224.553 240.05 240.728 240.18 256.903 238.3 273.079 239.53 289.254 240.75 305.43 246.49 321.605 247.41 337.781 248.33 353.956 246.24 370.132 245.05 386.307 243.86 402.482 241.09 418.658 240.27 434.833 239.46 451.009 242.25 467.184 240.15 483.36 238.06 499.535 227.9 515.711 227.7 531.886 227.5 548.061 237.15 564.237 238.96 580.412 240.77 596.588 238.33 612.763 238.58 628.939 238.83 645.114 239.13 661.29 240.44 677.465 241.76 693.64 244.8 709.816 246.49 725.991 248.19 742.167 248.87 758.342 250.61 774.518 252.36 790.693 255.68 806.868 256.94 823.044 258.21 839.219 257.62 855.395 258.21 871.57 258.8 887.746 260.45 903.921 260.47 920.096 260.5 936.272 259.08 952.447 258.37 968.623 257.65 984.8 257.11 1000.97 256.18 1017.15 255.25 1033.32 253.92 1049.5 252.79" stroke="#36A2EB" stroke-width="3" stroke-linecap="round" stroke-linejoin="round" stroke-miterlimit="10" fill="none"/><path d="M127.5 241.19C143.675 241.62 159.851 243.73 176.026 242.48 192.202 241.23 208.377 234.3 224.553 233.69 240.728 233.07 256.903 236.8 273.079 238.79 289.254 240.79 305.43 246.51 321.605 245.67 337.781 244.83 353.956 234.48 370.132 233.74 386.307 233 402.482 238.95 418.658 241.25 434.833 243.55 451.009 248.73 467.184 247.55 483.36 246.38 499.535 234.74 515.711 234.21 531.886 233.68 548.061 243.9 564.237 244.4 580.412 244.9 596.588 239.2 612.763 237.2 628.939 235.2 645.114 231.5 661.29 232.39 677.465 233.29 693.64 240.8 709.816 242.56 725.991 244.32 742.167 241.97 758.342 242.96 774.518 243.96 790.693 247.83 806.868 248.51 823.044 249.19 839.219 246.24 855.395 247.02 871.57 247.79 887.746 251.72 903.921 253.16 920.096 254.59 936.272 255.1 952.447 255.65 968.623 256.19 984.8 256.5 1000.97 256.41 1017.15 256.33 1033.32 255.56 1049.5 255.14" stroke="#FF6384" stroke-width="3" stroke-linecap="round" stroke-linejoin="round" stroke-miterlimit="10" fill="none"/><path d="M127.5 255.54C143.675 255.72 159.851 255.47 176.026 256.09 192.202 256.7 208.377 258.36 224.553 259.23 240.728 260.11 256.903 261.96 273.079 261.32 289.254 260.68 305.43 255.93 321.605 255.38 337.781 254.83 353.956 257.45 370.132 258.04 386.307 258.63 402.482 271.5 418.658 258.94 434.833 246.38 451.009 195.94 467.184 182.67 483.36 169.41 499.535 183.62 515.711 179.35 531.419 175.21 548.528 178.61 564.237 157.09 580.412 134.93 596.588 34.5 612.763 46.4099 628.939 58.3201 645.114 196.07 661.29 228.56 672.438 250.96 698.667 239.51 709.816 241.39 725.991 244.1 742.167 242.82 758.342 244.86 774.518 246.91 790.693 251.63 806.868 253.68 823.044 255.72 839.219 257.02 855.395 257.14 871.57 257.25 887.746 254.09 903.921 254.37 920.096 254.65 936.272 258.15 952.447 258.81 968.623 259.47 984.8 258.11 1000.97 258.32 1017.15 258.53 1033.32 259.47 1049.5 260.05" stroke="#FF9F40" stroke-width="3" stroke-linecap="round" stroke-linejoin="round" stroke-miterlimit="10" fill="none"/><text fill="#585F70" font-family="Inter Medium,Inter Medium_MSFontService,sans-serif" font-weight="500" font-size="13" transform="translate(44.9523 298)">(</text><text fill="#585F70" font-family="Inter Medium,Inter Medium_MSFontService,sans-serif" font-weight="500" font-size="13" transform="translate(49.9523 298)">200</text><text fill="#585F70" font-family="Inter Medium,Inter Medium_MSFontService,sans-serif" font-weight="500" font-size="13" transform="translate(73.9523 298)">%)</text><text fill="#585F70" font-family="Inter Medium,Inter Medium_MSFontService,sans-serif" font-weight="500" font-size="13" transform="translate(79.132 256)">--</text><text fill="#585F70" font-family="Inter Medium,Inter Medium_MSFontService,sans-serif" font-weight="500" font-size="13" transform="translate(55.0323 213)">200</text><text fill="#585F70" font-family="Inter Medium,Inter Medium_MSFontService,sans-serif" font-weight="500" font-size="13" transform="translate(79.0323 213)">%</text><text fill="#585F70" font-family="Inter Medium,Inter Medium_MSFontService,sans-serif" font-weight="500" font-size="13" transform="translate(54.4924 171)">400</text><text fill="#585F70" font-family="Inter Medium,Inter Medium_MSFontService,sans-serif" font-weight="500" font-size="13" transform="translate(79.4924 171)">%</text><text fill="#585F70" font-family="Inter Medium,Inter Medium_MSFontService,sans-serif" font-weight="500" font-size="13" transform="translate(54.739 128)">600</text><text fill="#585F70" font-family="Inter Medium,Inter Medium_MSFontService,sans-serif" font-weight="500" font-size="13" transform="translate(78.739 128)">%</text><text fill="#585F70" font-family="Inter Medium,Inter Medium_MSFontService,sans-serif" font-weight="500" font-size="13" transform="translate(54.7923 86)">800</text><text fill="#585F70" font-family="Inter Medium,Inter Medium_MSFontService,sans-serif" font-weight="500" font-size="13" transform="translate(78.7923 86)">%</text><text fill="#585F70" font-family="Inter Medium,Inter Medium_MSFontService,sans-serif" font-weight="500" font-size="13" transform="translate(48.5657 44)">1000</text><text fill="#585F70" font-family="Inter Medium,Inter Medium_MSFontService,sans-serif" font-weight="500" font-size="13" transform="translate(78.5657 44)">%</text><text fill="#585F70" font-family="Inter Medium,Inter Medium_MSFontService,sans-serif" font-weight="500" font-size="13" transform="translate(112.572 315)">1</text><text fill="#585F70" font-family="Inter Medium,Inter Medium_MSFontService,sans-serif" font-weight="500" font-size="13" transform="translate(118.572 315)">Q</text><text fill="#585F70" font-family="Inter Medium,Inter Medium_MSFontService,sans-serif" font-weight="500" font-size="13" transform="translate(128.572 315)">19</text><text fill="#585F70" font-family="Inter Medium,Inter Medium_MSFontService,sans-serif" font-weight="500" font-size="13" transform="translate(159.979 315)">2</text><text fill="#585F70" font-family="Inter Medium,Inter Medium_MSFontService,sans-serif" font-weight="500" font-size="13" transform="translate(167.979 315)">Q</text><text fill="#585F70" font-family="Inter Medium,Inter Medium_MSFontService,sans-serif" font-weight="500" font-size="13" transform="translate(177.979 315)">19</text><text fill="#585F70" font-family="Inter Medium,Inter Medium_MSFontService,sans-serif" font-weight="500" font-size="13" transform="translate(208.257 315)">3</text><text fill="#585F70" font-family="Inter Medium,Inter Medium_MSFontService,sans-serif" font-weight="500" font-size="13" transform="translate(216.257 315)">Q</text><text fill="#585F70" font-family="Inter Medium,Inter Medium_MSFontService,sans-serif" font-weight="500" font-size="13" transform="translate(226.257 315)">19</text><text fill="#585F70" font-family="Inter Medium,Inter Medium_MSFontService,sans-serif" font-weight="500" font-size="13" transform="translate(256.67 315)">4</text><text fill="#585F70" font-family="Inter Medium,Inter Medium_MSFontService,sans-serif" font-weight="500" font-size="13" transform="translate(265.67 315)">Q</text><text fill="#585F70" font-family="Inter Medium,Inter Medium_MSFontService,sans-serif" font-weight="500" font-size="13" transform="translate(275.67 315)">19</text><text fill="#585F70" font-family="Inter Medium,Inter Medium_MSFontService,sans-serif" font-weight="500" font-size="13" transform="translate(305.351 315)">1</text><text fill="#585F70" font-family="Inter Medium,Inter Medium_MSFontService,sans-serif" font-weight="500" font-size="13" transform="translate(311.351 315)">Q</text><text fill="#585F70" font-family="Inter Medium,Inter Medium_MSFontService,sans-serif" font-weight="500" font-size="13" transform="translate(321.351 315)">20</text><text fill="#585F70" font-family="Inter Medium,Inter Medium_MSFontService,sans-serif" font-weight="500" font-size="13" transform="translate(352.758 315)">2</text><text fill="#585F70" font-family="Inter Medium,Inter Medium_MSFontService,sans-serif" font-weight="500" font-size="13" transform="translate(360.758 315)">Q</text><text fill="#585F70" font-family="Inter Medium,Inter Medium_MSFontService,sans-serif" font-weight="500" font-size="13" transform="translate(370.758 315)">20</text><text fill="#585F70" font-family="Inter Medium,Inter Medium_MSFontService,sans-serif" font-weight="500" font-size="13" transform="translate(401.035 315)">3</text><text fill="#585F70" font-family="Inter Medium,Inter Medium_MSFontService,sans-serif" font-weight="500" font-size="13" transform="translate(409.035 315)">Q</text><text fill="#585F70" font-family="Inter Medium,Inter Medium_MSFontService,sans-serif" font-weight="500" font-size="13" transform="translate(419.035 315)">20</text><text fill="#585F70" font-family="Inter Medium,Inter Medium_MSFontService,sans-serif" font-weight="500" font-size="13" transform="translate(449.449 315)">4</text><text fill="#585F70" font-family="Inter Medium,Inter Medium_MSFontService,sans-serif" font-weight="500" font-size="13" transform="translate(458.449 315)">Q</text><text fill="#585F70" font-family="Inter Medium,Inter Medium_MSFontService,sans-serif" font-weight="500" font-size="13" transform="translate(468.449 315)">20</text><text fill="#585F70" font-family="Inter Medium,Inter Medium_MSFontService,sans-serif" font-weight="500" font-size="13" transform="translate(500.562 315)">1</text><text fill="#585F70" font-family="Inter Medium,Inter Medium_MSFontService,sans-serif" font-weight="500" font-size="13" transform="translate(506.562 315)">Q</text><text fill="#585F70" font-family="Inter Medium,Inter Medium_MSFontService,sans-serif" font-weight="500" font-size="13" transform="translate(516.562 315)">21</text><text fill="#585F70" font-family="Inter Medium,Inter Medium_MSFontService,sans-serif" font-weight="500" font-size="13" transform="translate(547.969 315)">2</text><text fill="#585F70" font-family="Inter Medium,Inter Medium_MSFontService,sans-serif" font-weight="500" font-size="13" transform="translate(555.969 315)">Q</text><text fill="#585F70" font-family="Inter Medium,Inter Medium_MSFontService,sans-serif" font-weight="500" font-size="13" transform="translate(565.969 315)">21</text><text fill="#585F70" font-family="Inter Medium,Inter Medium_MSFontService,sans-serif" font-weight="500" font-size="13" transform="translate(596.246 315)">3</text><text fill="#585F70" font-family="Inter Medium,Inter Medium_MSFontService,sans-serif" font-weight="500" font-size="13" transform="translate(604.246 315)">Q</text><text fill="#585F70" font-family="Inter Medium,Inter Medium_MSFontService,sans-serif" font-weight="500" font-size="13" transform="translate(614.246 315)">21</text><text fill="#585F70" font-family="Inter Medium,Inter Medium_MSFontService,sans-serif" font-weight="500" font-size="13" transform="translate(644.66 315)">4</text><text fill="#585F70" font-family="Inter Medium,Inter Medium_MSFontService,sans-serif" font-weight="500" font-size="13" transform="translate(653.66 315)">Q</text><text fill="#585F70" font-family="Inter Medium,Inter Medium_MSFontService,sans-serif" font-weight="500" font-size="13" transform="translate(663.66 315)">21</text><text fill="#585F70" font-family="Inter Medium,Inter Medium_MSFontService,sans-serif" font-weight="500" font-size="13" transform="translate(693.41 315)">1</text><text fill="#585F70" font-family="Inter Medium,Inter Medium_MSFontService,sans-serif" font-weight="500" font-size="13" transform="translate(699.41 315)">Q</text><text fill="#585F70" font-family="Inter Medium,Inter Medium_MSFontService,sans-serif" font-weight="500" font-size="13" transform="translate(709.41 315)">22</text><text fill="#585F70" font-family="Inter Medium,Inter Medium_MSFontService,sans-serif" font-weight="500" font-size="13" transform="translate(740.817 315)">2</text><text fill="#585F70" font-family="Inter Medium,Inter Medium_MSFontService,sans-serif" font-weight="500" font-size="13" transform="translate(748.817 315)">Q</text><text fill="#585F70" font-family="Inter Medium,Inter Medium_MSFontService,sans-serif" font-weight="500" font-size="13" transform="translate(758.817 315)">22</text><text fill="#585F70" font-family="Inter Medium,Inter Medium_MSFontService,sans-serif" font-weight="500" font-size="13" transform="translate(789.094 315)">3</text><text fill="#585F70" font-family="Inter Medium,Inter Medium_MSFontService,sans-serif" font-weight="500" font-size="13" transform="translate(797.094 315)">Q</text><text fill="#585F70" font-family="Inter Medium,Inter Medium_MSFontService,sans-serif" font-weight="500" font-size="13" transform="translate(807.094 315)">22</text><text fill="#585F70" font-family="Inter Medium,Inter Medium_MSFontService,sans-serif" font-weight="500" font-size="13" transform="translate(837.508 315)">4</text><text fill="#585F70" font-family="Inter Medium,Inter Medium_MSFontService,sans-serif" font-weight="500" font-size="13" transform="translate(846.508 315)">Q</text><text fill="#585F70" font-family="Inter Medium,Inter Medium_MSFontService,sans-serif" font-weight="500" font-size="13" transform="translate(856.508 315)">22</text><text fill="#585F70" font-family="Inter Medium,Inter Medium_MSFontService,sans-serif" font-weight="500" font-size="13" transform="translate(887.129 315)">1</text><text fill="#585F70" font-family="Inter Medium,Inter Medium_MSFontService,sans-serif" font-weight="500" font-size="13" transform="translate(893.129 315)">Q</text><text fill="#585F70" font-family="Inter Medium,Inter Medium_MSFontService,sans-serif" font-weight="500" font-size="13" transform="translate(903.129 315)">23</text><text fill="#585F70" font-family="Inter Medium,Inter Medium_MSFontService,sans-serif" font-weight="500" font-size="13" transform="translate(934.536 315)">2</text><text fill="#585F70" font-family="Inter Medium,Inter Medium_MSFontService,sans-serif" font-weight="500" font-size="13" transform="translate(942.536 315)">Q</text><text fill="#585F70" font-family="Inter Medium,Inter Medium_MSFontService,sans-serif" font-weight="500" font-size="13" transform="translate(952.536 315)">23</text><text fill="#585F70" font-family="Inter Medium,Inter Medium_MSFontService,sans-serif" font-weight="500" font-size="13" transform="translate(982.81 315)">3</text><text fill="#585F70" font-family="Inter Medium,Inter Medium_MSFontService,sans-serif" font-weight="500" font-size="13" transform="translate(990.81 315)">Q</text><text fill="#585F70" font-family="Inter Medium,Inter Medium_MSFontService,sans-serif" font-weight="500" font-size="13" transform="translate(1000.81 315)">23</text><text fill="#585F70" font-family="Inter Medium,Inter Medium_MSFontService,sans-serif" font-weight="500" font-size="13" transform="translate(1031.23 315)">4</text><text fill="#585F70" font-family="Inter Medium,Inter Medium_MSFontService,sans-serif" font-weight="500" font-size="13" transform="translate(1040.23 315)">Q</text><text fill="#585F70" font-family="Inter Medium,Inter Medium_MSFontService,sans-serif" font-weight="500" font-size="13" transform="translate(1050.23 315)">23</text></g></svg>