<svg width="721" height="89" xmlns="http://www.w3.org/2000/svg" xmlns:xlink="http://www.w3.org/1999/xlink" xml:space="preserve" overflow="hidden"><defs><clipPath id="clip0"><rect x="845" y="993" width="721" height="89"/></clipPath></defs><g clip-path="url(#clip0)" transform="translate(-845 -993)"><path d="M845 1031C845 1018.3 855.297 1008 868 1008 880.703 1008 891 1018.3 891 1031 891 1043.7 880.703 1054 868 1054 855.297 1054 845 1043.7 845 1031Z" fill="#36A2EB" fill-rule="evenodd"/><text fill="#404040" font-family="Inter Light BETA,Inter Light BETA_MSFontService,sans-serif" font-weight="300" font-size="41" transform="matrix(1 0 0 1 913.657 1046)">StockX</text><path d="M1114 1031C1114 1018.3 1124.3 1008 1137 1008 1149.7 1008 1160 1018.3 1160 1031 1160 1043.7 1149.7 1054 1137 1054 1124.3 1054 1114 1043.7 1114 1031Z" fill="#FF6384" fill-rule="evenodd"/><text fill="#404040" font-family="Inter Light BETA,Inter Light BETA_MSFontService,sans-serif" font-weight="300" font-size="41" transform="matrix(1 0 0 1 1182.93 1046)">Goat</text><path d="M1335 1031C1335 1018.3 1345.07 1008 1357.5 1008 1369.93 1008 1380 1018.3 1380 1031 1380 1043.7 1369.93 1054 1357.5 1054 1345.07 1054 1335 1043.7 1335 1031Z" fill="#FF9F40" fill-rule="evenodd"/><text fill="#404040" font-family="Inter Light BETA,Inter Light BETA_MSFontService,sans-serif" font-weight="300" font-size="41" transform="matrix(1 0 0 1 1403.14 1046)">Grailed</text></g></svg>