<svg width="528" height="384" xmlns="http://www.w3.org/2000/svg" xmlns:xlink="http://www.w3.org/1999/xlink" xml:space="preserve" overflow="hidden"><defs><clipPath id="clip0"><rect x="23" y="190" width="528" height="384"/></clipPath><clipPath id="clip1"><rect x="23" y="189" width="528" height="384"/></clipPath></defs><g clip-path="url(#clip0)" transform="translate(-23 -190)"><path d="M23 190 551 190 551 574 23 574Z" fill="#FFFFFF"/><path d="M236 258 339 258 339 526 236 526Z" fill="#FF6384"/><path d="M412 247 515 247 515 526 412 526Z" fill="#FF9F40"/><path d="M60 241 163 241 163 526 60 526Z" fill="#36A2EB"/><g clip-path="url(#clip1)"><path d="M23.5001 525.5 551.5 525.5" stroke="#D9D9D9" stroke-linejoin="round" stroke-miterlimit="10" fill="none" fill-rule="evenodd"/></g><text fill="#404040" font-family="Inter,Inter_MSFontService,sans-serif" font-weight="400" font-size="20" transform="translate(91.2085 230)">6</text><text fill="#404040" font-family="Inter,Inter_MSFontService,sans-serif" font-weight="400" font-size="20" transform="translate(103.209 230)">.</text><text fill="#404040" font-family="Inter,Inter_MSFontService,sans-serif" font-weight="400" font-size="20" transform="translate(109.209 230)">2</text><text fill="#404040" font-family="Inter,Inter_MSFontService,sans-serif" font-weight="400" font-size="20" transform="translate(121.209 230)">x  </text><text fill="#404040" font-family="Inter,Inter_MSFontService,sans-serif" font-weight="400" font-size="20" transform="translate(267.592 247)">5</text><text fill="#404040" font-family="Inter,Inter_MSFontService,sans-serif" font-weight="400" font-size="20" transform="translate(279.592 247)">.</text><text fill="#404040" font-family="Inter,Inter_MSFontService,sans-serif" font-weight="400" font-size="20" transform="translate(285.592 247)">8</text><text fill="#404040" font-family="Inter,Inter_MSFontService,sans-serif" font-weight="400" font-size="20" transform="translate(297.592 247)">x  </text><text fill="#404040" font-family="Inter,Inter_MSFontService,sans-serif" font-weight="400" font-size="20" transform="translate(445.639 236)">6</text><text fill="#404040" font-family="Inter,Inter_MSFontService,sans-serif" font-weight="400" font-size="20" transform="translate(457.639 236)">.</text><text fill="#404040" font-family="Inter,Inter_MSFontService,sans-serif" font-weight="400" font-size="20" transform="translate(463.639 236)">1</text><text fill="#404040" font-family="Inter,Inter_MSFontService,sans-serif" font-weight="400" font-size="20" transform="translate(472.639 236)">x  </text><text fill="#595959" font-family="Inter Medium,Inter Medium_MSFontService,sans-serif" font-weight="500" font-size="21" transform="translate(69.3018 561)">StockX</text><text fill="#595959" font-family="Inter Medium,Inter Medium_MSFontService,sans-serif" font-weight="500" font-size="21" transform="translate(257.202 561)">Goat</text><text fill="#595959" font-family="Inter Medium,Inter Medium_MSFontService,sans-serif" font-weight="500" font-size="21" transform="translate(421.089 561)">Grailed</text></g></svg>