<svg width="1049" height="288" xmlns="http://www.w3.org/2000/svg" xmlns:xlink="http://www.w3.org/1999/xlink" xml:space="preserve" overflow="hidden"><g transform="translate(-48 -40)"><path d="M102.5 270.5 1082.5 270.5M102.5 246.5 1082.5 246.5M102.5 222.5 1082.5 222.5M102.5 198.5 1082.5 198.5M102.5 174.5 1082.5 174.5M102.5 150.5 1082.5 150.5M102.5 126.5 1082.5 126.5M102.5 102.5 1082.5 102.5M102.5 78.5 1082.5 78.5M102.5 54.5 1082.5 54.5" stroke="#D9D9D9" stroke-linecap="square" stroke-linejoin="round" stroke-miterlimit="10" stroke-dasharray="3 1" fill="none"/><path d="M110 88 143 88 143 295 110 295ZM159 67 192 67 192 295 159 295ZM208 61 241 61 241 295 208 295ZM257 77 290 77 290 295 257 295ZM306 122 339 122 339 295 306 295ZM355 257 388 257 388 295 355 295ZM404 157 437 157 437 295 404 295ZM453 131 486 131 486 295 453 295ZM502 138 535 138 535 295 502 295ZM551 130 584 130 584 295 551 295ZM600 181 633 181 633 295 600 295ZM649 152 682 152 682 295 649 295ZM698 269 731 269 731 295 698 295ZM747 240 780 240 780 295 747 295ZM796 224 829 224 829 295 796 295ZM845 234 878 234 878 295 845 295ZM894 255 927 255 927 295 894 295ZM943 281 976 281 976 295 943 295ZM992 239 1025 239 1025 295 992 295ZM1041 98 1074 98 1074 295 1041 295Z" fill="#36A2EB"/><path d="M110 62 143 62 143 88 110 88ZM159 60 192 60 192 67 159 67ZM208 55 241 55 241 61 208 61ZM257 55 290 55 290 77 257 77ZM306 55 339 55 339 122 306 122ZM355 55 388 55 388 257 355 257ZM404 55 437 55 437 157 404 157ZM453 69 486 69 486 131 453 131ZM502 125 535 125 535 138 502 138ZM551 55 584 55 584 130 551 130ZM600 55 633 55 633 181 600 181ZM649 68 682 68 682 152 649 152ZM698 71 731 71 731 269 698 269ZM747 90 780 90 780 240 747 240ZM796 89 829 89 829 224 796 224ZM845 92 878 92 878 234 845 234ZM894 87 927 87 927 255 894 255ZM943 69 976 69 976 281 943 281ZM992 87 1025 87 1025 239 992 239Z" fill="#FF6384"/><path d="M110 55 143 55 143 62 110 62ZM159 55 192 55 192 60 159 60ZM208 54 241 54 241 55 208 55ZM257 54 290 54 290 55 257 55ZM306 54 339 54 339 55 306 55ZM453 55 486 55 486 69 453 69ZM502 55 535 55 535 125 502 125ZM600 54 633 54 633 55 600 55ZM649 55 682 55 682 68 649 68ZM698 55 731 55 731 71 698 71ZM747 55 780 55 780 90 747 90ZM796 55 829 55 829 89 796 89ZM845 55 878 55 878 92 845 92ZM894 55 927 55 927 87 894 87ZM943 55 976 55 976 69 943 69ZM992 55 1025 55 1025 87 992 87ZM1041 55 1074 55 1074 98 1041 98Z" fill="#FF9F40"/><path d="M0 0 0.000104987 240" stroke="#A6A6A6" stroke-linejoin="round" stroke-miterlimit="10" fill="none" fill-rule="evenodd" transform="matrix(1 0 0 -1 102.5 294.5)"/><path d="M102.5 294.5 1082.5 294.5" stroke="#A6A6A6" stroke-linejoin="round" stroke-miterlimit="10" fill="none" fill-rule="evenodd"/><text fill="#FFFFFF" font-family="Inter,Inter_MSFontService,sans-serif" font-weight="700" font-size="12" transform="translate(113.724 196)">86</text><text fill="#FFFFFF" font-family="Inter,Inter_MSFontService,sans-serif" font-weight="700" font-size="12" transform="translate(129.724 196)">%</text><text fill="#FFFFFF" font-family="Inter,Inter_MSFontService,sans-serif" font-weight="700" font-size="12" transform="translate(162.825 186)">95</text><text fill="#FFFFFF" font-family="Inter,Inter_MSFontService,sans-serif" font-weight="700" font-size="12" transform="translate(178.825 186)">%</text><text fill="#FFFFFF" font-family="Inter,Inter_MSFontService,sans-serif" font-weight="700" font-size="12" transform="translate(212.123 183)">97</text><text fill="#FFFFFF" font-family="Inter,Inter_MSFontService,sans-serif" font-weight="700" font-size="12" transform="translate(227.123 183)">%</text><text fill="#FFFFFF" font-family="Inter,Inter_MSFontService,sans-serif" font-weight="700" font-size="12" transform="translate(261.851 191)">91</text><text fill="#FFFFFF" font-family="Inter,Inter_MSFontService,sans-serif" font-weight="700" font-size="12" transform="translate(275.851 191)">%</text><text fill="#FFFFFF" font-family="Inter,Inter_MSFontService,sans-serif" font-weight="700" font-size="12" transform="translate(310.306 213)">72</text><text fill="#FFFFFF" font-family="Inter,Inter_MSFontService,sans-serif" font-weight="700" font-size="12" transform="translate(325.306 213)">%</text><text fill="#FFFFFF" font-family="Inter,Inter_MSFontService,sans-serif" font-weight="700" font-size="12" transform="translate(359.854 281)">16</text><text fill="#FFFFFF" font-family="Inter,Inter_MSFontService,sans-serif" font-weight="700" font-size="12" transform="translate(373.854 281)">%</text><text fill="#FFFFFF" font-family="Inter,Inter_MSFontService,sans-serif" font-weight="700" font-size="12" transform="translate(408.222 231)">57</text><text fill="#FFFFFF" font-family="Inter,Inter_MSFontService,sans-serif" font-weight="700" font-size="12" transform="translate(423.222 231)">%</text><text fill="#FFFFFF" font-family="Inter,Inter_MSFontService,sans-serif" font-weight="700" font-size="12" transform="translate(456.733 218)">68</text><text fill="#FFFFFF" font-family="Inter,Inter_MSFontService,sans-serif" font-weight="700" font-size="12" transform="translate(472.733 218)">%</text><text fill="#FFFFFF" font-family="Inter,Inter_MSFontService,sans-serif" font-weight="700" font-size="12" transform="translate(505.835 221)">65</text><text fill="#FFFFFF" font-family="Inter,Inter_MSFontService,sans-serif" font-weight="700" font-size="12" transform="translate(521.835 221)">%</text><text fill="#FFFFFF" font-family="Inter,Inter_MSFontService,sans-serif" font-weight="700" font-size="12" transform="translate(554.743 217)">69</text><text fill="#FFFFFF" font-family="Inter,Inter_MSFontService,sans-serif" font-weight="700" font-size="12" transform="translate(570.743 217)">%</text><text fill="#FFFFFF" font-family="Inter,Inter_MSFontService,sans-serif" font-weight="700" font-size="12" transform="translate(603.631 243)">48</text><text fill="#FFFFFF" font-family="Inter,Inter_MSFontService,sans-serif" font-weight="700" font-size="12" transform="translate(619.631 243)">%</text><text fill="#FFFFFF" font-family="Inter,Inter_MSFontService,sans-serif" font-weight="700" font-size="12" transform="translate(652.839 228)">59</text><text fill="#FFFFFF" font-family="Inter,Inter_MSFontService,sans-serif" font-weight="700" font-size="12" transform="translate(668.839 228)">%</text><text fill="#FFFFFF" font-family="Inter,Inter_MSFontService,sans-serif" font-weight="700" font-size="12" transform="translate(703.98 287)">11</text><text fill="#FFFFFF" font-family="Inter,Inter_MSFontService,sans-serif" font-weight="700" font-size="12" transform="translate(715.98 287)">%</text><text fill="#FFFFFF" font-family="Inter,Inter_MSFontService,sans-serif" font-weight="700" font-size="12" transform="translate(750.931 272)">23</text><text fill="#FFFFFF" font-family="Inter,Inter_MSFontService,sans-serif" font-weight="700" font-size="12" transform="translate(766.931 272)">%</text><text fill="#FFFFFF" font-family="Inter,Inter_MSFontService,sans-serif" font-weight="700" font-size="12" transform="translate(799.929 264)">29</text><text fill="#FFFFFF" font-family="Inter,Inter_MSFontService,sans-serif" font-weight="700" font-size="12" transform="translate(815.929 264)">%</text><text fill="#FFFFFF" font-family="Inter,Inter_MSFontService,sans-serif" font-weight="700" font-size="12" transform="translate(849.024 269)">25</text><text fill="#FFFFFF" font-family="Inter,Inter_MSFontService,sans-serif" font-weight="700" font-size="12" transform="translate(865.024 269)">%</text><text fill="#FFFFFF" font-family="Inter,Inter_MSFontService,sans-serif" font-weight="700" font-size="12" transform="translate(899.259 280)">17</text><text fill="#FFFFFF" font-family="Inter,Inter_MSFontService,sans-serif" font-weight="700" font-size="12" transform="translate(912.259 280)">%</text><text fill="#FFFFFF" font-family="Inter,Inter_MSFontService,sans-serif" font-weight="700" font-size="12" transform="translate(950.713 293)">6</text><text fill="#FFFFFF" font-family="Inter,Inter_MSFontService,sans-serif" font-weight="700" font-size="12" transform="translate(958.713 293)">%</text><text fill="#FFFFFF" font-family="Inter,Inter_MSFontService,sans-serif" font-weight="700" font-size="12" transform="translate(995.94 272)">23</text><text fill="#FFFFFF" font-family="Inter,Inter_MSFontService,sans-serif" font-weight="700" font-size="12" transform="translate(1011.94 272)">%</text><text fill="#FFFFFF" font-family="Inter,Inter_MSFontService,sans-serif" font-weight="700" font-size="12" transform="translate(1046.05 201)">21</text><text fill="#FFFFFF" font-family="Inter,Inter_MSFontService,sans-serif" font-weight="700" font-size="12" transform="translate(1060.05 201)">%</text><text fill="#FFFFFF" font-family="Inter,Inter_MSFontService,sans-serif" font-weight="700" font-size="12" transform="translate(115.964 80)">11</text><text fill="#FFFFFF" font-family="Inter,Inter_MSFontService,sans-serif" font-weight="700" font-size="12" transform="translate(127.964 80)">%</text><text fill="#FFFFFF" font-family="Inter,Inter_MSFontService,sans-serif" font-weight="700" font-size="12" transform="translate(264.695 71)">9</text><text fill="#FFFFFF" font-family="Inter,Inter_MSFontService,sans-serif" font-weight="700" font-size="12" transform="translate(272.695 71)">%</text><text fill="#FFFFFF" font-family="Inter,Inter_MSFontService,sans-serif" font-weight="700" font-size="12" transform="translate(309.909 94)">28</text><text fill="#FFFFFF" font-family="Inter,Inter_MSFontService,sans-serif" font-weight="700" font-size="12" transform="translate(325.909 94)">%</text><text fill="#FFFFFF" font-family="Inter,Inter_MSFontService,sans-serif" font-weight="700" font-size="12" transform="translate(358.624 161)">84</text><text fill="#FFFFFF" font-family="Inter,Inter_MSFontService,sans-serif" font-weight="700" font-size="12" transform="translate(374.624 161)">%</text><text fill="#FFFFFF" font-family="Inter,Inter_MSFontService,sans-serif" font-weight="700" font-size="12" transform="translate(407.635 111)">43</text><text fill="#FFFFFF" font-family="Inter,Inter_MSFontService,sans-serif" font-weight="700" font-size="12" transform="translate(423.635 111)">%</text><text fill="#FFFFFF" font-family="Inter,Inter_MSFontService,sans-serif" font-weight="700" font-size="12" transform="translate(456.92 105)">26</text><text fill="#FFFFFF" font-family="Inter,Inter_MSFontService,sans-serif" font-weight="700" font-size="12" transform="translate(472.92 105)">%</text><text fill="#FFFFFF" font-family="Inter,Inter_MSFontService,sans-serif" font-weight="700" font-size="12" transform="translate(509.795 136)">5</text><text fill="#FFFFFF" font-family="Inter,Inter_MSFontService,sans-serif" font-weight="700" font-size="12" transform="translate(517.795 136)">%</text><text fill="#FFFFFF" font-family="Inter,Inter_MSFontService,sans-serif" font-weight="700" font-size="12" transform="translate(555.863 97)">31</text><text fill="#FFFFFF" font-family="Inter,Inter_MSFontService,sans-serif" font-weight="700" font-size="12" transform="translate(569.863 97)">%</text><text fill="#FFFFFF" font-family="Inter,Inter_MSFontService,sans-serif" font-weight="700" font-size="12" transform="translate(604.017 123)">52</text><text fill="#FFFFFF" font-family="Inter,Inter_MSFontService,sans-serif" font-weight="700" font-size="12" transform="translate(620.017 123)">%</text><text fill="#FFFFFF" font-family="Inter,Inter_MSFontService,sans-serif" font-weight="700" font-size="12" transform="translate(652.842 115)">35</text><text fill="#FFFFFF" font-family="Inter,Inter_MSFontService,sans-serif" font-weight="700" font-size="12" transform="translate(668.842 115)">%</text><text fill="#FFFFFF" font-family="Inter,Inter_MSFontService,sans-serif" font-weight="700" font-size="12" transform="translate(701.92 175)">82</text><text fill="#FFFFFF" font-family="Inter,Inter_MSFontService,sans-serif" font-weight="700" font-size="12" transform="translate(717.92 175)">%</text><text fill="#FFFFFF" font-family="Inter,Inter_MSFontService,sans-serif" font-weight="700" font-size="12" transform="translate(750.928 169)">62</text><text fill="#FFFFFF" font-family="Inter,Inter_MSFontService,sans-serif" font-weight="700" font-size="12" transform="translate(766.928 169)">%</text><text fill="#FFFFFF" font-family="Inter,Inter_MSFontService,sans-serif" font-weight="700" font-size="12" transform="translate(799.843 161)">56</text><text fill="#FFFFFF" font-family="Inter,Inter_MSFontService,sans-serif" font-weight="700" font-size="12" transform="translate(815.843 161)">%</text><text fill="#FFFFFF" font-family="Inter,Inter_MSFontService,sans-serif" font-weight="700" font-size="12" transform="translate(848.844 168)">59</text><text fill="#FFFFFF" font-family="Inter,Inter_MSFontService,sans-serif" font-weight="700" font-size="12" transform="translate(864.844 168)">%</text><text fill="#FFFFFF" font-family="Inter,Inter_MSFontService,sans-serif" font-weight="700" font-size="12" transform="translate(897.972 176)">70</text><text fill="#FFFFFF" font-family="Inter,Inter_MSFontService,sans-serif" font-weight="700" font-size="12" transform="translate(912.972 176)">%</text><text fill="#FFFFFF" font-family="Inter,Inter_MSFontService,sans-serif" font-weight="700" font-size="12" transform="translate(946.74 180)">88</text><text fill="#FFFFFF" font-family="Inter,Inter_MSFontService,sans-serif" font-weight="700" font-size="12" transform="translate(962.74 180)">%</text><text fill="#FFFFFF" font-family="Inter,Inter_MSFontService,sans-serif" font-weight="700" font-size="12" transform="translate(995.76 167)">63</text><text fill="#FFFFFF" font-family="Inter,Inter_MSFontService,sans-serif" font-weight="700" font-size="12" transform="translate(1011.76 167)">%</text><text fill="#404040" font-family="Inter,Inter_MSFontService,sans-serif" font-weight="700" font-size="11" transform="translate(461.713 66)">6</text><text fill="#404040" font-family="Inter,Inter_MSFontService,sans-serif" font-weight="700" font-size="11" transform="translate(468.713 66)">%</text><text fill="#404040" font-family="Inter,Inter_MSFontService,sans-serif" font-weight="700" font-size="11" transform="translate(507.355 93)">29</text><text fill="#404040" font-family="Inter,Inter_MSFontService,sans-serif" font-weight="700" font-size="11" transform="translate(521.355 93)">%</text><text fill="#404040" font-family="Inter,Inter_MSFontService,sans-serif" font-weight="700" font-size="11" transform="translate(753.275 76)">15</text><text fill="#404040" font-family="Inter,Inter_MSFontService,sans-serif" font-weight="700" font-size="11" transform="translate(765.275 76)">%</text><text fill="#404040" font-family="Inter,Inter_MSFontService,sans-serif" font-weight="700" font-size="11" transform="translate(802.096 75)">14</text><text fill="#404040" font-family="Inter,Inter_MSFontService,sans-serif" font-weight="700" font-size="11" transform="translate(814.096 75)">%</text><text fill="#404040" font-family="Inter,Inter_MSFontService,sans-serif" font-weight="700" font-size="11" transform="translate(851.277 77)">15</text><text fill="#404040" font-family="Inter,Inter_MSFontService,sans-serif" font-weight="700" font-size="11" transform="translate(863.277 77)">%</text><text fill="#404040" font-family="Inter,Inter_MSFontService,sans-serif" font-weight="700" font-size="11" transform="translate(900.199 74)">13</text><text fill="#404040" font-family="Inter,Inter_MSFontService,sans-serif" font-weight="700" font-size="11" transform="translate(912.199 74)">%</text><text fill="#404040" font-family="Inter,Inter_MSFontService,sans-serif" font-weight="700" font-size="11" transform="translate(998.2 74)">13</text><text fill="#404040" font-family="Inter,Inter_MSFontService,sans-serif" font-weight="700" font-size="11" transform="translate(1010.2 74)">%</text><text fill="#404040" font-family="Inter,Inter_MSFontService,sans-serif" font-weight="700" font-size="11" transform="translate(1049.81 80)">5</text><text fill="#404040" font-family="Inter,Inter_MSFontService,sans-serif" font-weight="700" font-size="11" transform="translate(1056.81 80)">%</text><text fill="#585F70" font-family="Inter,Inter_MSFontService,sans-serif" font-weight="400" font-size="13" transform="translate(70.8933 299)">0</text><text fill="#585F70" font-family="Inter,Inter_MSFontService,sans-serif" font-weight="400" font-size="13" transform="translate(78.8933 299)">%</text><text fill="#585F70" font-family="Inter,Inter_MSFontService,sans-serif" font-weight="400" font-size="13" transform="translate(65 275)">10</text><text fill="#585F70" font-family="Inter,Inter_MSFontService,sans-serif" font-weight="400" font-size="13" transform="translate(79 275)">%</text><text fill="#585F70" font-family="Inter,Inter_MSFontService,sans-serif" font-weight="400" font-size="13" transform="translate(62.8267 251)">20</text><text fill="#585F70" font-family="Inter,Inter_MSFontService,sans-serif" font-weight="400" font-size="13" transform="translate(78.8267 251)">%</text><text fill="#585F70" font-family="Inter,Inter_MSFontService,sans-serif" font-weight="400" font-size="13" transform="translate(62.4066 227)">30</text><text fill="#585F70" font-family="Inter,Inter_MSFontService,sans-serif" font-weight="400" font-size="13" transform="translate(78.4066 227)">%</text><text fill="#585F70" font-family="Inter,Inter_MSFontService,sans-serif" font-weight="400" font-size="13" transform="translate(62.3333 203)">40</text><text fill="#585F70" font-family="Inter,Inter_MSFontService,sans-serif" font-weight="400" font-size="13" transform="translate(78.3333 203)">%</text><text fill="#585F70" font-family="Inter,Inter_MSFontService,sans-serif" font-weight="400" font-size="13" transform="translate(62.7867 179)">50</text><text fill="#585F70" font-family="Inter,Inter_MSFontService,sans-serif" font-weight="400" font-size="13" transform="translate(78.7867 179)">%</text><text fill="#585F70" font-family="Inter,Inter_MSFontService,sans-serif" font-weight="400" font-size="13" transform="translate(62.5799 155)">60</text><text fill="#585F70" font-family="Inter,Inter_MSFontService,sans-serif" font-weight="400" font-size="13" transform="translate(78.5799 155)">%</text><text fill="#585F70" font-family="Inter,Inter_MSFontService,sans-serif" font-weight="400" font-size="13" transform="translate(63.28 131)">70</text><text fill="#585F70" font-family="Inter,Inter_MSFontService,sans-serif" font-weight="400" font-size="13" transform="translate(78.28 131)">%</text><text fill="#585F70" font-family="Inter,Inter_MSFontService,sans-serif" font-weight="400" font-size="13" transform="translate(62.6733 107)">80</text><text fill="#585F70" font-family="Inter,Inter_MSFontService,sans-serif" font-weight="400" font-size="13" transform="translate(78.6733 107)">%</text><text fill="#585F70" font-family="Inter,Inter_MSFontService,sans-serif" font-weight="400" font-size="13" transform="translate(62.5799 83)">90</text><text fill="#585F70" font-family="Inter,Inter_MSFontService,sans-serif" font-weight="400" font-size="13" transform="translate(78.5799 83)">%</text><text fill="#585F70" font-family="Inter,Inter_MSFontService,sans-serif" font-weight="400" font-size="13" transform="translate(56.6667 59)">100</text><text fill="#585F70" font-family="Inter,Inter_MSFontService,sans-serif" font-weight="400" font-size="13" transform="translate(78.6667 59)">%</text><text fill="#585F70" font-family="Inter,Inter_MSFontService,sans-serif" font-weight="400" font-size="13" transform="translate(111.681 316)">1</text><text fill="#585F70" font-family="Inter,Inter_MSFontService,sans-serif" font-weight="400" font-size="13" transform="translate(117.681 316)">Q</text><text fill="#585F70" font-family="Inter,Inter_MSFontService,sans-serif" font-weight="400" font-size="13" transform="translate(127.681 316)">19</text><text fill="#585F70" font-family="Inter,Inter_MSFontService,sans-serif" font-weight="400" font-size="13" transform="translate(159.595 316)">2</text><text fill="#585F70" font-family="Inter,Inter_MSFontService,sans-serif" font-weight="400" font-size="13" transform="translate(167.595 316)">Q</text><text fill="#585F70" font-family="Inter,Inter_MSFontService,sans-serif" font-weight="400" font-size="13" transform="translate(177.595 316)">19</text><text fill="#585F70" font-family="Inter,Inter_MSFontService,sans-serif" font-weight="400" font-size="13" transform="translate(208.387 316)">3</text><text fill="#585F70" font-family="Inter,Inter_MSFontService,sans-serif" font-weight="400" font-size="13" transform="translate(216.387 316)">Q</text><text fill="#585F70" font-family="Inter,Inter_MSFontService,sans-serif" font-weight="400" font-size="13" transform="translate(226.387 316)">19</text><text fill="#585F70" font-family="Inter,Inter_MSFontService,sans-serif" font-weight="400" font-size="13" transform="translate(257.351 316)">4</text><text fill="#585F70" font-family="Inter,Inter_MSFontService,sans-serif" font-weight="400" font-size="13" transform="translate(265.351 316)">Q</text><text fill="#585F70" font-family="Inter,Inter_MSFontService,sans-serif" font-weight="400" font-size="13" transform="translate(275.351 316)">19</text><text fill="#585F70" font-family="Inter,Inter_MSFontService,sans-serif" font-weight="400" font-size="13" transform="translate(306.589 316)">1</text><text fill="#585F70" font-family="Inter,Inter_MSFontService,sans-serif" font-weight="400" font-size="13" transform="translate(312.589 316)">Q</text><text fill="#585F70" font-family="Inter,Inter_MSFontService,sans-serif" font-weight="400" font-size="13" transform="translate(322.589 316)">20</text><text fill="#585F70" font-family="Inter,Inter_MSFontService,sans-serif" font-weight="400" font-size="13" transform="translate(354.504 316)">2</text><text fill="#585F70" font-family="Inter,Inter_MSFontService,sans-serif" font-weight="400" font-size="13" transform="translate(362.504 316)">Q</text><text fill="#585F70" font-family="Inter,Inter_MSFontService,sans-serif" font-weight="400" font-size="13" transform="translate(372.504 316)">20</text><text fill="#585F70" font-family="Inter,Inter_MSFontService,sans-serif" font-weight="400" font-size="13" transform="translate(403.295 316)">3</text><text fill="#585F70" font-family="Inter,Inter_MSFontService,sans-serif" font-weight="400" font-size="13" transform="translate(411.295 316)">Q</text><text fill="#585F70" font-family="Inter,Inter_MSFontService,sans-serif" font-weight="400" font-size="13" transform="translate(421.295 316)">20</text><text fill="#585F70" font-family="Inter,Inter_MSFontService,sans-serif" font-weight="400" font-size="13" transform="translate(452.26 316)">4</text><text fill="#585F70" font-family="Inter,Inter_MSFontService,sans-serif" font-weight="400" font-size="13" transform="translate(460.26 316)">Q</text><text fill="#585F70" font-family="Inter,Inter_MSFontService,sans-serif" font-weight="400" font-size="13" transform="translate(470.26 316)">20</text><text fill="#585F70" font-family="Inter,Inter_MSFontService,sans-serif" font-weight="400" font-size="13" transform="translate(503.815 316)">1</text><text fill="#585F70" font-family="Inter,Inter_MSFontService,sans-serif" font-weight="400" font-size="13" transform="translate(509.815 316)">Q</text><text fill="#585F70" font-family="Inter,Inter_MSFontService,sans-serif" font-weight="400" font-size="13" transform="translate(519.815 316)">21</text><text fill="#585F70" font-family="Inter,Inter_MSFontService,sans-serif" font-weight="400" font-size="13" transform="translate(551.729 316)">2</text><text fill="#585F70" font-family="Inter,Inter_MSFontService,sans-serif" font-weight="400" font-size="13" transform="translate(559.729 316)">Q</text><text fill="#585F70" font-family="Inter,Inter_MSFontService,sans-serif" font-weight="400" font-size="13" transform="translate(569.729 316)">21</text><text fill="#585F70" font-family="Inter,Inter_MSFontService,sans-serif" font-weight="400" font-size="13" transform="translate(600.521 316)">3</text><text fill="#585F70" font-family="Inter,Inter_MSFontService,sans-serif" font-weight="400" font-size="13" transform="translate(608.521 316)">Q</text><text fill="#585F70" font-family="Inter,Inter_MSFontService,sans-serif" font-weight="400" font-size="13" transform="translate(618.521 316)">21</text><text fill="#585F70" font-family="Inter,Inter_MSFontService,sans-serif" font-weight="400" font-size="13" transform="translate(649.485 316)">4</text><text fill="#585F70" font-family="Inter,Inter_MSFontService,sans-serif" font-weight="400" font-size="13" transform="translate(657.485 316)">Q</text><text fill="#585F70" font-family="Inter,Inter_MSFontService,sans-serif" font-weight="400" font-size="13" transform="translate(667.485 316)">21</text><text fill="#585F70" font-family="Inter,Inter_MSFontService,sans-serif" font-weight="400" font-size="13" transform="translate(698.733 316)">1</text><text fill="#585F70" font-family="Inter,Inter_MSFontService,sans-serif" font-weight="400" font-size="13" transform="translate(704.733 316)">Q</text><text fill="#585F70" font-family="Inter,Inter_MSFontService,sans-serif" font-weight="400" font-size="13" transform="translate(714.733 316)">22</text><text fill="#585F70" font-family="Inter,Inter_MSFontService,sans-serif" font-weight="400" font-size="13" transform="translate(746.648 316)">2</text><text fill="#585F70" font-family="Inter,Inter_MSFontService,sans-serif" font-weight="400" font-size="13" transform="translate(754.648 316)">Q</text><text fill="#585F70" font-family="Inter,Inter_MSFontService,sans-serif" font-weight="400" font-size="13" transform="translate(764.648 316)">22</text><text fill="#585F70" font-family="Inter,Inter_MSFontService,sans-serif" font-weight="400" font-size="13" transform="translate(795.439 316)">3</text><text fill="#585F70" font-family="Inter,Inter_MSFontService,sans-serif" font-weight="400" font-size="13" transform="translate(803.439 316)">Q</text><text fill="#585F70" font-family="Inter,Inter_MSFontService,sans-serif" font-weight="400" font-size="13" transform="translate(813.439 316)">22</text><text fill="#585F70" font-family="Inter,Inter_MSFontService,sans-serif" font-weight="400" font-size="13" transform="translate(844.404 316)">4</text><text fill="#585F70" font-family="Inter,Inter_MSFontService,sans-serif" font-weight="400" font-size="13" transform="translate(852.404 316)">Q</text><text fill="#585F70" font-family="Inter,Inter_MSFontService,sans-serif" font-weight="400" font-size="13" transform="translate(862.404 316)">22</text><text fill="#585F70" font-family="Inter,Inter_MSFontService,sans-serif" font-weight="400" font-size="13" transform="translate(894.529 316)">1</text><text fill="#585F70" font-family="Inter,Inter_MSFontService,sans-serif" font-weight="400" font-size="13" transform="translate(900.529 316)">Q</text><text fill="#585F70" font-family="Inter,Inter_MSFontService,sans-serif" font-weight="400" font-size="13" transform="translate(910.529 316)">23</text><text fill="#585F70" font-family="Inter,Inter_MSFontService,sans-serif" font-weight="400" font-size="13" transform="translate(942.443 316)">2</text><text fill="#585F70" font-family="Inter,Inter_MSFontService,sans-serif" font-weight="400" font-size="13" transform="translate(950.443 316)">Q</text><text fill="#585F70" font-family="Inter,Inter_MSFontService,sans-serif" font-weight="400" font-size="13" transform="translate(960.443 316)">23</text><text fill="#585F70" font-family="Inter,Inter_MSFontService,sans-serif" font-weight="400" font-size="13" transform="translate(991.23 316)">3</text><text fill="#585F70" font-family="Inter,Inter_MSFontService,sans-serif" font-weight="400" font-size="13" transform="translate(999.23 316)">Q</text><text fill="#585F70" font-family="Inter,Inter_MSFontService,sans-serif" font-weight="400" font-size="13" transform="translate(1009.23 316)">23</text><text fill="#585F70" font-family="Inter,Inter_MSFontService,sans-serif" font-weight="400" font-size="13" transform="translate(1040.2 316)">4</text><text fill="#585F70" font-family="Inter,Inter_MSFontService,sans-serif" font-weight="400" font-size="13" transform="translate(1048.2 316)">Q</text><text fill="#585F70" font-family="Inter,Inter_MSFontService,sans-serif" font-weight="400" font-size="13" transform="translate(1058.2 316)">23</text></g></svg>