<svg width="1204" height="88" xmlns="http://www.w3.org/2000/svg" xmlns:xlink="http://www.w3.org/1999/xlink" xml:space="preserve" overflow="hidden"><g transform="translate(-914 -736)"><path d="M914 773.5C914 761.074 924.074 751 936.5 751 948.927 751 959 761.074 959 773.5 959 785.927 948.927 796 936.5 796 924.074 796 914 785.927 914 773.5Z" fill="#36A2EB" fill-rule="evenodd"/><text fill="#404040" font-family="Inter Light BETA,Inter Light BETA_MSFontService,sans-serif" font-weight="300" font-size="41" transform="matrix(1 0 0 1 982.152 789)">StockX</text><path d="M1183 773.5C1183 761.074 1193.07 751 1205.5 751 1217.93 751 1228 761.074 1228 773.5 1228 785.927 1217.93 796 1205.5 796 1193.07 796 1183 785.927 1183 773.5Z" fill="#FF6384" fill-rule="evenodd"/><text fill="#404040" font-family="Inter Light BETA,Inter Light BETA_MSFontService,sans-serif" font-weight="300" font-size="41" transform="matrix(1 0 0 1 1251.42 789)">Goat</text><path d="M1403 773.5C1403 761.074 1413.3 751 1426 751 1438.7 751 1449 761.074 1449 773.5 1449 785.927 1438.7 796 1426 796 1413.3 796 1403 785.927 1403 773.5Z" fill="#FF9F40" fill-rule="evenodd"/><text fill="#404040" font-family="Inter Light BETA,Inter Light BETA_MSFontService,sans-serif" font-weight="300" font-size="41" transform="matrix(1 0 0 1 1471.64 789)">Stadium Goods</text><path d="M1828 773.5C1828 761.074 1838.3 751 1851 751 1863.7 751 1874 761.074 1874 773.5 1874 785.927 1863.7 796 1851 796 1838.3 796 1828 785.927 1828 773.5Z" fill="#FFCD56" fill-rule="evenodd"/><text fill="#404040" font-family="Inter Light BETA,Inter Light BETA_MSFontService,sans-serif" font-weight="300" font-size="41" transform="matrix(1 0 0 1 1896.87 789)">FlightClub</text></g></svg>