<svg width="576" height="288" xmlns="http://www.w3.org/2000/svg" xmlns:xlink="http://www.w3.org/1999/xlink" xml:space="preserve" overflow="hidden"><g transform="translate(-64 -44)"><path d="M64 44 640 44 640 332 64 332Z" fill="#FFFFFF"/><path d="M113.5 238.5 625.5 238.5M113.5 178.5 625.5 178.5M113.5 118.5 625.5 118.5M113.5 58.5 625.5 58.5" stroke="#D9D9D9" stroke-linecap="square" stroke-linejoin="round" stroke-miterlimit="10" stroke-dasharray="3 1" fill="none"/><path d="M0 0 0.000104987 241" stroke="#A6A6A6" stroke-linejoin="round" stroke-miterlimit="10" fill="none" fill-rule="evenodd" transform="matrix(1 0 0 -1 113.5 299.5)"/><path d="M113.5 299.5 625.5 299.5" stroke="#A6A6A6" stroke-linejoin="round" stroke-miterlimit="10" fill="none" fill-rule="evenodd"/><path d="M136.5 127.5 183.5 165.5 229.5 181.5 276.5 182.5 322.5 203.5 369.5 209.5 416.5 218.5 462.5 221.5 509.5 225.5 555.5 220.5 602.5 211.5" stroke="#0D5483" stroke-width="3" stroke-linecap="round" stroke-linejoin="round" stroke-miterlimit="10" fill="none"/><path d="M136.5 64.5 183.5 118.5 229.5 146.5 276.5 155.5 322.5 187.5 369.5 203.5 416.5 213.5 462.5 221.5 509.5 225.5 555.5 220.5 602.5 211.5" stroke="#147EC5" stroke-width="3" stroke-linecap="round" stroke-linejoin="round" stroke-miterlimit="10" fill="none"/><path d="M136.5 153.5 183.5 195.5 229.5 213.5 276.5 210.5 322.5 225.5 369.5 222.5 416.5 238.5" stroke="#36A2EB" stroke-width="3" stroke-linecap="round" stroke-linejoin="round" stroke-miterlimit="10" fill="none"/><path d="M136.5 183.5 183.5 208.5 229.5 211.5 276.5 206.5" stroke="#86C7F3" stroke-width="3" stroke-linecap="round" stroke-linejoin="round" stroke-miterlimit="10" fill="none"/><text fill="#595959" font-family="Inter Medium,Inter Medium_MSFontService,sans-serif" font-weight="500" font-size="13" transform="translate(81.264 303)">0</text><text fill="#595959" font-family="Inter Medium,Inter Medium_MSFontService,sans-serif" font-weight="500" font-size="13" transform="translate(89.264 303)">%</text><text fill="#595959" font-family="Inter Medium,Inter Medium_MSFontService,sans-serif" font-weight="500" font-size="13" transform="translate(81.611 243)">5</text><text fill="#595959" font-family="Inter Medium,Inter Medium_MSFontService,sans-serif" font-weight="500" font-size="13" transform="translate(89.611 243)">%</text><text fill="#595959" font-family="Inter Medium,Inter Medium_MSFontService,sans-serif" font-weight="500" font-size="13" transform="translate(75.231 183)">10</text><text fill="#595959" font-family="Inter Medium,Inter Medium_MSFontService,sans-serif" font-weight="500" font-size="13" transform="translate(89.231 183)">%</text><text fill="#595959" font-family="Inter Medium,Inter Medium_MSFontService,sans-serif" font-weight="500" font-size="13" transform="translate(75.578 123)">15</text><text fill="#595959" font-family="Inter Medium,Inter Medium_MSFontService,sans-serif" font-weight="500" font-size="13" transform="translate(89.578 123)">%</text><text fill="#595959" font-family="Inter Medium,Inter Medium_MSFontService,sans-serif" font-weight="500" font-size="13" transform="translate(73.084 63)">20</text><text fill="#595959" font-family="Inter Medium,Inter Medium_MSFontService,sans-serif" font-weight="500" font-size="13" transform="translate(89.084 63)">%</text><text fill="#595959" font-family="Inter Medium,Inter Medium_MSFontService,sans-serif" font-weight="500" font-size="13" transform="translate(128.324 321)">1</text><text fill="#595959" font-family="Inter Medium,Inter Medium_MSFontService,sans-serif" font-weight="500" font-size="13" transform="translate(134.324 321)">Q</text><text fill="#595959" font-family="Inter Medium,Inter Medium_MSFontService,sans-serif" font-weight="500" font-size="13" transform="translate(173.849 321)">2</text><text fill="#595959" font-family="Inter Medium,Inter Medium_MSFontService,sans-serif" font-weight="500" font-size="13" transform="translate(181.849 321)">Q</text><text fill="#595959" font-family="Inter Medium,Inter Medium_MSFontService,sans-serif" font-weight="500" font-size="13" transform="translate(220.245 321)">3</text><text fill="#595959" font-family="Inter Medium,Inter Medium_MSFontService,sans-serif" font-weight="500" font-size="13" transform="translate(228.245 321)">Q</text><text fill="#595959" font-family="Inter Medium,Inter Medium_MSFontService,sans-serif" font-weight="500" font-size="13" transform="translate(266.777 321)">4</text><text fill="#595959" font-family="Inter Medium,Inter Medium_MSFontService,sans-serif" font-weight="500" font-size="13" transform="translate(275.777 321)">Q</text><text fill="#595959" font-family="Inter Medium,Inter Medium_MSFontService,sans-serif" font-weight="500" font-size="13" transform="translate(313.602 321)">5</text><text fill="#595959" font-family="Inter Medium,Inter Medium_MSFontService,sans-serif" font-weight="500" font-size="13" transform="translate(321.602 321)">Q</text><text fill="#595959" font-family="Inter Medium,Inter Medium_MSFontService,sans-serif" font-weight="500" font-size="13" transform="translate(360.098 321)">6</text><text fill="#595959" font-family="Inter Medium,Inter Medium_MSFontService,sans-serif" font-weight="500" font-size="13" transform="translate(368.098 321)">Q</text><text fill="#595959" font-family="Inter Medium,Inter Medium_MSFontService,sans-serif" font-weight="500" font-size="13" transform="translate(407.073 321)">7</text><text fill="#595959" font-family="Inter Medium,Inter Medium_MSFontService,sans-serif" font-weight="500" font-size="13" transform="translate(415.073 321)">Q</text><text fill="#595959" font-family="Inter Medium,Inter Medium_MSFontService,sans-serif" font-weight="500" font-size="13" transform="translate(453.322 321)">8</text><text fill="#595959" font-family="Inter Medium,Inter Medium_MSFontService,sans-serif" font-weight="500" font-size="13" transform="translate(461.322 321)">Q</text><text fill="#595959" font-family="Inter Medium,Inter Medium_MSFontService,sans-serif" font-weight="500" font-size="13" transform="translate(499.894 321)">9</text><text fill="#595959" font-family="Inter Medium,Inter Medium_MSFontService,sans-serif" font-weight="500" font-size="13" transform="translate(507.894 321)">Q</text><text fill="#595959" font-family="Inter Medium,Inter Medium_MSFontService,sans-serif" font-weight="500" font-size="13" transform="translate(543.406 321)">10</text><text fill="#595959" font-family="Inter Medium,Inter Medium_MSFontService,sans-serif" font-weight="500" font-size="13" transform="translate(557.406 321)">Q</text><text fill="#595959" font-family="Inter Medium,Inter Medium_MSFontService,sans-serif" font-weight="500" font-size="13" transform="translate(591.295 321)">11</text><text fill="#595959" font-family="Inter Medium,Inter Medium_MSFontService,sans-serif" font-weight="500" font-size="13" transform="translate(603.295 321)">Q</text></g></svg>