<svg width="1543" height="88" xmlns="http://www.w3.org/2000/svg" xmlns:xlink="http://www.w3.org/1999/xlink" xml:space="preserve" overflow="hidden"><defs><clipPath id="clip0"><rect x="941" y="488" width="1543" height="88"/></clipPath></defs><g clip-path="url(#clip0)" transform="translate(-941 -488)"><path d="M941 525.5C941 513.073 951.297 503 964 503 976.702 503 987 513.073 987 525.5 987 537.926 976.702 548 964 548 951.297 548 941 537.926 941 525.5Z" fill="#0D5483" fill-rule="evenodd"/><text fill="#404040" font-family="Inter Light BETA,Inter Light BETA_MSFontService,sans-serif" font-weight="300" font-size="41" transform="matrix(1 0 0 1 1009.65 541)">Average Cohort</text><path d="M1378 525.5C1378 513.073 1388.07 503 1400.5 503 1412.93 503 1423 513.073 1423 525.5 1423 537.926 1412.93 548 1400.5 548 1388.07 548 1378 537.926 1378 525.5Z" fill="#147EC5" fill-rule="evenodd"/><text fill="#404040" font-family="Inter Light BETA,Inter Light BETA_MSFontService,sans-serif" font-weight="300" font-size="41" transform="matrix(1 0 0 1 1446.21 541)">2021 Cohort</text><path d="M1760 525.5C1760 513.073 1770.07 503 1782.5 503 1794.93 503 1805 513.073 1805 525.5 1805 537.926 1794.93 548 1782.5 548 1770.07 548 1760 537.926 1760 525.5Z" fill="#36A2EB" fill-rule="evenodd"/><text fill="#404040" font-family="Inter Light BETA,Inter Light BETA_MSFontService,sans-serif" font-weight="300" font-size="41" transform="matrix(1 0 0 1 1828.38 541)">2022 Cohort</text><path d="M2143 525.5C2143 513.073 2153.3 503 2166 503 2178.7 503 2189 513.073 2189 525.5 2189 537.926 2178.7 548 2166 548 2153.3 548 2143 537.926 2143 525.5Z" fill="#86C7F3" fill-rule="evenodd"/><text fill="#404040" font-family="Inter Light BETA,Inter Light BETA_MSFontService,sans-serif" font-weight="300" font-size="41" transform="matrix(1 0 0 1 2212.02 541)">2023 Cohort</text></g></svg>