<svg width="794" height="89" xmlns="http://www.w3.org/2000/svg" xmlns:xlink="http://www.w3.org/1999/xlink" xml:space="preserve" overflow="hidden"><g transform="translate(-2334 -1313)"><path d="M2334 1351C2334 1338.3 2344.3 1328 2357 1328 2369.7 1328 2380 1338.3 2380 1351 2380 1363.7 2369.7 1374 2357 1374 2344.3 1374 2334 1363.7 2334 1351Z" fill="#36A2EB" fill-rule="evenodd"/><text fill="#404040" font-family="Inter Light BETA,Inter Light BETA_MSFontService,sans-serif" font-weight="300" font-size="41" transform="matrix(1 0 0 1 2402.91 1366)">StockX</text><path d="M2603 1351C2603 1338.3 2613.07 1328 2625.5 1328 2637.93 1328 2648 1338.3 2648 1351 2648 1363.7 2637.93 1374 2625.5 1374 2613.07 1374 2603 1363.7 2603 1351Z" fill="#FF6384" fill-rule="evenodd"/><text fill="#404040" font-family="Inter Light BETA,Inter Light BETA_MSFontService,sans-serif" font-weight="300" font-size="41" transform="matrix(1 0 0 1 2671.6 1366)">GOAT</text><path d="M2838 1351C2838 1338.3 2848.07 1328 2860.5 1328 2872.93 1328 2883 1338.3 2883 1351 2883 1363.7 2872.93 1374 2860.5 1374 2848.07 1374 2838 1363.7 2838 1351Z" fill="#FF9F40" fill-rule="evenodd"/><text fill="#404040" font-family="Inter Light BETA,Inter Light BETA_MSFontService,sans-serif" font-weight="300" font-size="41" transform="matrix(1 0 0 1 2906.61 1366)">FlightClub</text></g></svg>