<svg width="2630" height="990" xmlns="http://www.w3.org/2000/svg" xmlns:xlink="http://www.w3.org/1999/xlink" xml:space="preserve" overflow="hidden"><defs><clipPath id="clip0"><rect x="521" y="4145" width="2630" height="990"/></clipPath></defs><g clip-path="url(#clip0)" transform="translate(-521 -4145)"><rect x="521" y="4145" width="2630" height="990" fill="#FFFFFF"/><g><path d="M688.5 4814.66 3100.5 4814.66M688.5 4607.65 3100.5 4607.65M688.5 4401.64 3100.5 4401.64M688.5 4195.5 3100.5 4195.5" stroke="#D9D9D9" stroke-width="3.4375" stroke-linecap="square" stroke-linejoin="round" stroke-miterlimit="10" stroke-dasharray="10.3125 3.4375" fill="none"/></g><g><path d="M0 0 0.000360892 825" stroke="#A6A6A6" stroke-width="3.4375" stroke-linejoin="round" stroke-miterlimit="10" fill="none" fill-rule="evenodd" transform="matrix(1 0 0 -1 688.5 5020.5)"/></g><g><path d="M688.5 5020.5 3100.5 5020.5" stroke="#A6A6A6" stroke-width="3.4375" stroke-linejoin="round" stroke-miterlimit="10" fill="none" fill-rule="evenodd"/></g><g><path d="M799 4433 1018.03 4561.15 1237.04 4616.15 1456.05 4621.15 1675.05 4694.15 1895.06 4714.15 2114.07 4745.16 2333.08 4753.16 2552.08 4769 2772.09 4752.16 2991 4719.15" stroke="#36A2EB" stroke-width="10.3125" stroke-linecap="round" stroke-linejoin="round" stroke-miterlimit="10" fill="none"/></g><g><path d="M799 4267 1018.03 4459.15 1237.04 4546.15 1456.05 4631.15 1675.05 4555.15 1895.06 4635.15 2114.07 4598.15 2333.08 4681 2552.08 4617.15 2772.09 4595.15 2991 4534.15" stroke="#FF6384" stroke-width="10.3125" stroke-linecap="round" stroke-linejoin="round" stroke-miterlimit="10" fill="none"/></g><g><path d="M799 4847.16 1018.03 4906.16 1237.04 4916.16 1456.05 4894.16 1675.05 4891.16 1895.06 4938 2114.07 4933.16 2333.08 4885.16 2552.08 4849.16 2772.09 4849.16 2991 4591" stroke="#FF9F40" stroke-width="10.3125" stroke-linecap="round" stroke-linejoin="round" stroke-miterlimit="10" fill="none"/></g><g><path d="M799 4810 1018.03 4872.16 1237.04 4881.16 1456.05 4885 1675.05 4870.16 1895.06 4858.16 2114.07 4856.16 2333.08 4866.16 2552.08 4854.16 2772.09 4835.16 2991 4860.16" stroke="#FFCD56" stroke-width="10.3125" stroke-linecap="round" stroke-linejoin="round" stroke-miterlimit="10" fill="none"/></g><g><text fill="#595959" font-family="Inter Medium,Inter Medium_MSFontService,sans-serif" font-weight="500" font-size="46" transform="matrix(1 0 0 1 579.246 5035)">0%</text></g><g><text fill="#595959" font-family="Inter Medium,Inter Medium_MSFontService,sans-serif" font-weight="500" font-size="46" transform="matrix(1 0 0 1 580.438 4829)">5%</text></g><g><text fill="#595959" font-family="Inter Medium,Inter Medium_MSFontService,sans-serif" font-weight="500" font-size="46" transform="matrix(1 0 0 1 558.507 4622)">10%</text></g><g><text fill="#595959" font-family="Inter Medium,Inter Medium_MSFontService,sans-serif" font-weight="500" font-size="46" transform="matrix(1 0 0 1 559.698 4416)">15%</text></g><g><text fill="#595959" font-family="Inter Medium,Inter Medium_MSFontService,sans-serif" font-weight="500" font-size="46" transform="matrix(1 0 0 1 551.127 4210)">20%</text></g><g><text fill="#595959" font-family="Inter Medium,Inter Medium_MSFontService,sans-serif" font-weight="500" font-size="46" transform="matrix(1 0 0 1 770.545 5094)">1Q</text></g><g><text fill="#595959" font-family="Inter Medium,Inter Medium_MSFontService,sans-serif" font-weight="500" font-size="46" transform="matrix(1 0 0 1 986.103 5094)">2Q</text></g><g><text fill="#595959" font-family="Inter Medium,Inter Medium_MSFontService,sans-serif" font-weight="500" font-size="46" transform="matrix(1 0 0 1 1204.65 5094)">3Q</text></g><g><text fill="#595959" font-family="Inter Medium,Inter Medium_MSFontService,sans-serif" font-weight="500" font-size="46" transform="matrix(1 0 0 1 1423.67 5094)">4Q</text></g><g><text fill="#595959" font-family="Inter Medium,Inter Medium_MSFontService,sans-serif" font-weight="500" font-size="46" transform="matrix(1 0 0 1 1643.7 5094)">5Q</text></g><g><text fill="#595959" font-family="Inter Medium,Inter Medium_MSFontService,sans-serif" font-weight="500" font-size="46" transform="matrix(1 0 0 1 1862.59 5094)">6Q</text></g><g><text fill="#595959" font-family="Inter Medium,Inter Medium_MSFontService,sans-serif" font-weight="500" font-size="46" transform="matrix(1 0 0 1 2083.13 5094)">7Q</text></g><g><text fill="#595959" font-family="Inter Medium,Inter Medium_MSFontService,sans-serif" font-weight="500" font-size="46" transform="matrix(1 0 0 1 2301.18 5094)">8Q</text></g><g><text fill="#595959" font-family="Inter Medium,Inter Medium_MSFontService,sans-serif" font-weight="500" font-size="46" transform="matrix(1 0 0 1 2520.33 5094)">9Q</text></g><g><text fill="#595959" font-family="Inter Medium,Inter Medium_MSFontService,sans-serif" font-weight="500" font-size="46" transform="matrix(1 0 0 1 2728.97 5094)">10Q</text></g><g><text fill="#595959" font-family="Inter Medium,Inter Medium_MSFontService,sans-serif" font-weight="500" font-size="46" transform="matrix(1 0 0 1 2952.65 5094)">11Q</text></g></g></svg>