<svg width="456" height="180" xmlns="http://www.w3.org/2000/svg" xmlns:xlink="http://www.w3.org/1999/xlink" xml:space="preserve" overflow="hidden"><g transform="translate(-3491 -1336)"><path d="M3491 1373.5C3491 1361.07 3501.07 1351 3513.5 1351 3525.93 1351 3536 1361.07 3536 1373.5 3536 1385.93 3525.93 1396 3513.5 1396 3501.07 1396 3491 1385.93 3491 1373.5Z" fill="#36A2EB" fill-rule="evenodd"/><text fill="#404040" font-family="Inter Light BETA,Inter Light BETA_MSFontService,sans-serif" font-weight="300" font-size="41" transform="matrix(1 0 0 1 3559.48 1389)">Customer $ Spend</text><path d="M3491 1464.5C3491 1452.07 3501.07 1442 3513.5 1442 3525.93 1442 3536 1452.07 3536 1464.5 3536 1476.93 3525.93 1487 3513.5 1487 3501.07 1487 3491 1476.93 3491 1464.5Z" fill="#FF9F40" fill-rule="evenodd"/><text fill="#404040" font-family="Inter Light BETA,Inter Light BETA_MSFontService,sans-serif" font-weight="300" font-size="41" transform="matrix(1 0 0 1 3559.48 1480)">Growth</text></g></svg>