<svg width="711" height="88" xmlns="http://www.w3.org/2000/svg" xmlns:xlink="http://www.w3.org/1999/xlink" xml:space="preserve" overflow="hidden"><g transform="translate(-2255 -1290)"><path d="M2255 1327.5C2255 1315.07 2265.07 1305 2277.5 1305 2289.93 1305 2300 1315.07 2300 1327.5 2300 1339.93 2289.93 1350 2277.5 1350 2265.07 1350 2255 1339.93 2255 1327.5Z" fill="#36A2EB" fill-rule="evenodd"/><text fill="#404040" font-family="Inter Light BETA,Inter Light BETA_MSFontService,sans-serif" font-weight="300" font-size="41" transform="matrix(1 0 0 1 2323.54 1343)">Consumer $ Spend</text><path d="M2730 1327.5C2730 1315.07 2740.07 1305 2752.5 1305 2764.93 1305 2775 1315.07 2775 1327.5 2775 1339.93 2764.93 1350 2752.5 1350 2740.07 1350 2730 1339.93 2730 1327.5Z" fill="#FF9F40" fill-rule="evenodd"/><text fill="#404040" font-family="Inter Light BETA,Inter Light BETA_MSFontService,sans-serif" font-weight="300" font-size="41" transform="matrix(1 0 0 1 2798.25 1343)">Growth</text></g></svg>