<svg width="1320" height="594" xmlns="http://www.w3.org/2000/svg" xmlns:xlink="http://www.w3.org/1999/xlink" xml:space="preserve" overflow="hidden"><defs><clipPath id="clip0"><rect x="4112" y="5260" width="1320" height="594"/></clipPath></defs><g clip-path="url(#clip0)" transform="translate(-4112 -5260)"><rect x="4112" y="5260" width="1320" height="594" fill="#FFFFFF"/><g><rect x="5188" y="5625" width="144" height="107" fill="#36A2EB"/></g><g><path d="M4213.14 5595.18 4356.14 5595.18 4356.14 5732 4213.14 5732ZM4457.15 5595.18 4600.15 5595.18 4600.15 5732 4457.15 5732ZM4701.15 5343.18 4844.16 5343.18 4844.16 5732 4701.15 5732ZM4944.16 5414.18 5088.17 5414.18 5088.17 5732 4944.16 5732Z" fill="#36A2EB"/></g><g><path d="M4162.5 5731.5 5382.5 5731.5" stroke="#D9D9D9" stroke-width="3.4375" stroke-linejoin="round" stroke-miterlimit="10" fill="none" fill-rule="evenodd"/></g><g><path d="M4529 5592.18 4772.16 5332 5016.16 5617.18 5260 5685" stroke="#FF9F40" stroke-width="10.3125" stroke-linecap="round" stroke-linejoin="round" stroke-miterlimit="10" fill="none"/></g><g><rect x="4467" y="5493" width="123" height="74" fill="#FFF5DD"/></g><g><g><text fill="#EF7700" font-family="Inter,Inter_MSFontService,sans-serif" font-weight="400" font-size="50" transform="matrix(1 0 0 1 4474.16 5548)">(0%)</text></g></g><g><rect x="4703" y="5260" width="139" height="75" fill="#FFF5DD"/></g><g><g><text fill="#EF7700" font-family="Inter,Inter_MSFontService,sans-serif" font-weight="400" font-size="50" transform="matrix(1 0 0 1 4710.01 5315)">185%</text></g></g><g><rect x="4944" y="5518" width="145" height="74.0005" fill="#FFF5DD"/></g><g><g><text fill="#EF7700" font-family="Inter,Inter_MSFontService,sans-serif" font-weight="400" font-size="50" transform="matrix(1 0 0 1 4950.91 5573)">(18%)</text></g></g><g><rect x="5183" y="5585" width="155" height="75" fill="#FFF5DD"/></g><g><g><text fill="#EF7700" font-family="Inter,Inter_MSFontService,sans-serif" font-weight="400" font-size="50" transform="matrix(1 0 0 1 5189.97 5640)">(66%)</text></g></g><g><text fill="#595959" font-family="Inter,Inter_MSFontService,sans-serif" font-weight="400" font-size="50" transform="matrix(1 0 0 1 4226.97 5812)">2019</text></g><g><text fill="#595959" font-family="Inter,Inter_MSFontService,sans-serif" font-weight="400" font-size="50" transform="matrix(1 0 0 1 4466.65 5812)">2020</text></g><g><text fill="#595959" font-family="Inter,Inter_MSFontService,sans-serif" font-weight="400" font-size="50" transform="matrix(1 0 0 1 4715.1 5812)">2021</text></g><g><text fill="#595959" font-family="Inter,Inter_MSFontService,sans-serif" font-weight="400" font-size="50" transform="matrix(1 0 0 1 4954.82 5812)">2022</text></g><g><text fill="#595959" font-family="Inter,Inter_MSFontService,sans-serif" font-weight="400" font-size="50" transform="matrix(1 0 0 1 5197.87 5812)">2023</text></g></g></svg>