<svg width="1320" height="595" xmlns="http://www.w3.org/2000/svg" xmlns:xlink="http://www.w3.org/1999/xlink" xml:space="preserve" overflow="hidden"><defs><clipPath id="clip0"><rect x="4106" y="1893" width="1320" height="595"/></clipPath></defs><g clip-path="url(#clip0)" transform="translate(-4106 -1893)"><rect x="4106" y="1894" width="1320" height="594" fill="#FFFFFF"/><g><path d="M5182 2263 5326 2263 5326 2365 5182 2365Z" fill="#36A2EB"/></g><g><path d="M4207.14 2258.07 4350.14 2258.07 4350.14 2365 4207.14 2365ZM4451.15 2239.07 4594.15 2239.07 4594.15 2365 4451.15 2365ZM4694.15 2248.07 4838.16 2248.07 4838.16 2365 4694.15 2365ZM4938.16 2242.07 5082.17 2242.07 5082.17 2365 4938.16 2365Z" fill="#36A2EB"/></g><g><path d="M4207.14 2195.07 4350.14 2195.07 4350.14 2258.07 4207.14 2258.07ZM4451.15 2146.07 4594.15 2146.07 4594.15 2239.07 4451.15 2239.07ZM4694.15 2121.07 4838.16 2121.07 4838.16 2248.07 4694.15 2248.07ZM4938.16 2091.07 5082.17 2091.07 5082.17 2242.07 4938.16 2242.07ZM5182.17 2138.07 5325.17 2138.07 5325.17 2263.07 5182.17 2263.07Z" fill="#FF6384"/></g><g><path d="M4207.14 2148.07 4350.14 2148.07 4350.14 2195.07 4207.14 2195.07ZM4451.15 2063.07 4594.15 2063.07 4594.15 2146.07 4451.15 2146.07ZM4694.15 2027.07 4838.16 2027.07 4838.16 2121.07 4694.15 2121.07ZM4938.16 1988.07 5082.17 1988.07 5082.17 2091.07 4938.16 2091.07ZM5182.17 2050.07 5325.17 2050.07 5325.17 2138.07 5182.17 2138.07Z" fill="#FFCD56"/></g><g><path d="M4156.5 2365.5 5375.5 2365.5" stroke="#D9D9D9" stroke-width="3.4375" stroke-linejoin="round" stroke-miterlimit="10" fill="none" fill-rule="evenodd"/></g><g><text fill="#404040" font-family="Inter,Inter_MSFontService,sans-serif" font-weight="400" font-size="50" transform="matrix(1 0 0 1 4249.8 2115)">77</text></g><g><text fill="#404040" font-family="Inter,Inter_MSFontService,sans-serif" font-weight="400" font-size="50" transform="matrix(1 0 0 1 4479.99 2030)">108</text></g><g><text fill="#404040" font-family="Inter,Inter_MSFontService,sans-serif" font-weight="400" font-size="50" transform="matrix(1 0 0 1 4728.72 1994)">121</text></g><g><text fill="#404040" font-family="Inter,Inter_MSFontService,sans-serif" font-weight="400" font-size="50" transform="matrix(1 0 0 1 4966.71 1955)">134</text></g><g><text fill="#404040" font-family="Inter,Inter_MSFontService,sans-serif" font-weight="400" font-size="50" transform="matrix(1 0 0 1 5216.39 2017)">112</text></g><g><text fill="#595959" font-family="Inter,Inter_MSFontService,sans-serif" font-weight="400" font-size="50" transform="matrix(1 0 0 1 4220.72 2446)">2019</text></g><g><text fill="#595959" font-family="Inter,Inter_MSFontService,sans-serif" font-weight="400" font-size="50" transform="matrix(1 0 0 1 4460.4 2446)">2020</text></g><g><text fill="#595959" font-family="Inter,Inter_MSFontService,sans-serif" font-weight="400" font-size="50" transform="matrix(1 0 0 1 4708.85 2446)">2021</text></g><g><text fill="#595959" font-family="Inter,Inter_MSFontService,sans-serif" font-weight="400" font-size="50" transform="matrix(1 0 0 1 4948.57 2446)">2022</text></g><g><text fill="#595959" font-family="Inter,Inter_MSFontService,sans-serif" font-weight="400" font-size="50" transform="matrix(1 0 0 1 5191.62 2446)">2023</text></g></g></svg>