<svg width="570" height="89" xmlns="http://www.w3.org/2000/svg" xmlns:xlink="http://www.w3.org/1999/xlink" xml:space="preserve" overflow="hidden"><g transform="translate(-2256 -1472)"><path d="M2256 1510C2256 1497.3 2266.07 1487 2278.5 1487 2290.93 1487 2301 1497.3 2301 1510 2301 1522.7 2290.93 1533 2278.5 1533 2266.07 1533 2256 1522.7 2256 1510Z" fill="#36A2EB" fill-rule="evenodd"/><text fill="#404040" font-family="Inter Light BETA,Inter Light BETA_MSFontService,sans-serif" font-weight="300" font-size="41" transform="matrix(1 0 0 1 2324.32 1525)">Ad $ Spend</text><path d="M2590 1510C2590 1497.3 2600.07 1487 2612.5 1487 2624.93 1487 2635 1497.3 2635 1510 2635 1522.7 2624.93 1533 2612.5 1533 2600.07 1533 2590 1522.7 2590 1510Z" fill="#FF9F40" fill-rule="evenodd"/><text fill="#404040" font-family="Inter Light BETA,Inter Light BETA_MSFontService,sans-serif" font-weight="300" font-size="41" transform="matrix(1 0 0 1 2658.1 1525)">Growth</text></g></svg>