<svg width="815" height="89" xmlns="http://www.w3.org/2000/svg" xmlns:xlink="http://www.w3.org/1999/xlink" xml:space="preserve" overflow="hidden"><g transform="translate(-1225 -1292)"><path d="M1225 1330C1225 1317.3 1235.07 1307 1247.5 1307 1259.93 1307 1270 1317.3 1270 1330 1270 1342.7 1259.93 1353 1247.5 1353 1235.07 1353 1225 1342.7 1225 1330Z" fill="#36A2EB" fill-rule="evenodd"/><text fill="#404040" font-family="Inter Light BETA,Inter Light BETA_MSFontService,sans-serif" font-weight="300" font-size="41" transform="matrix(1 0 0 1 1293.41 1345)">Desktop</text><path d="M1511 1330C1511 1317.3 1521.07 1307 1533.5 1307 1545.93 1307 1556 1317.3 1556 1330 1556 1342.7 1545.93 1353 1533.5 1353 1521.07 1353 1511 1342.7 1511 1330Z" fill="#FF6384" fill-rule="evenodd"/><text fill="#404040" font-family="Inter Light BETA,Inter Light BETA_MSFontService,sans-serif" font-weight="300" font-size="41" transform="matrix(1 0 0 1 1579.06 1345)">Mobile Web</text><path d="M1869 1330C1869 1317.3 1879.3 1307 1892 1307 1904.7 1307 1915 1317.3 1915 1330 1915 1342.7 1904.7 1353 1892 1353 1879.3 1353 1869 1342.7 1869 1330Z" fill="#FFCD56" fill-rule="evenodd"/><text fill="#404040" font-family="Inter Light BETA,Inter Light BETA_MSFontService,sans-serif" font-weight="300" font-size="41" transform="matrix(1 0 0 1 1937.92 1345)">App</text></g></svg>