<svg width="342" height="197" xmlns="http://www.w3.org/2000/svg" xmlns:xlink="http://www.w3.org/1999/xlink" xml:space="preserve" overflow="hidden"><g transform="translate(21 -167)"><path d="M-21 167 321 167 321 364-21 364Z" fill="#FFFFFF"/><path d="M257 198 293 198 293 331 257 331Z" fill="#36A2EB"/><path d="M7 265 44 265 44 331 7 331ZM69 242 106 242 106 331 69 331ZM132 191 169 191 169 331 132 331ZM194 191 231 191 231 331 194 331Z" fill="#36A2EB"/><path d="M-5.5 330.5 306.5 330.5" stroke="#D9D9D9" stroke-linejoin="round" stroke-miterlimit="10" fill="none" fill-rule="evenodd"/><text fill="#404040" font-family="Inter,Inter_MSFontService,sans-serif" font-weight="400" font-size="13" transform="translate(14.38 256)">710  </text><text fill="#404040" font-family="Inter,Inter_MSFontService,sans-serif" font-weight="400" font-size="13" transform="translate(75.71 233)">957  </text><text fill="#404040" font-family="Inter,Inter_MSFontService,sans-serif" font-weight="400" font-size="13" transform="translate(133.06 182)">1</text><text fill="#404040" font-family="Inter,Inter_MSFontService,sans-serif" font-weight="400" font-size="13" transform="translate(139.06 182)">,</text><text fill="#404040" font-family="Inter,Inter_MSFontService,sans-serif" font-weight="400" font-size="13" transform="translate(143.06 182)">505  </text><text fill="#404040" font-family="Inter,Inter_MSFontService,sans-serif" font-weight="400" font-size="13" transform="translate(195.5 182)">1</text><text fill="#404040" font-family="Inter,Inter_MSFontService,sans-serif" font-weight="400" font-size="13" transform="translate(201.5 182)">,</text><text fill="#404040" font-family="Inter,Inter_MSFontService,sans-serif" font-weight="400" font-size="13" transform="translate(205.5 182)">502  </text><text fill="#404040" font-family="Inter,Inter_MSFontService,sans-serif" font-weight="400" font-size="13" transform="translate(257.8 189)">1</text><text fill="#404040" font-family="Inter,Inter_MSFontService,sans-serif" font-weight="400" font-size="13" transform="translate(263.8 189)">,</text><text fill="#404040" font-family="Inter,Inter_MSFontService,sans-serif" font-weight="400" font-size="13" transform="translate(267.8 189)">425  </text><text fill="#595959" font-family="Inter Medium,Inter Medium_MSFontService,sans-serif" font-weight="500" font-size="13" transform="translate(9.65 353)">2019</text><text fill="#595959" font-family="Inter Medium,Inter Medium_MSFontService,sans-serif" font-weight="500" font-size="13" transform="translate(70.93 353)">2020</text><text fill="#595959" font-family="Inter Medium,Inter Medium_MSFontService,sans-serif" font-weight="500" font-size="13" transform="translate(134.64 353)">2021</text><text fill="#595959" font-family="Inter Medium,Inter Medium_MSFontService,sans-serif" font-weight="500" font-size="13" transform="translate(195.99 353)">2022</text><text fill="#595959" font-family="Inter Medium,Inter Medium_MSFontService,sans-serif" font-weight="500" font-size="13" transform="translate(258.2 353)">2023</text></g></svg>