<svg width="337" height="198" xmlns="http://www.w3.org/2000/svg" xmlns:xlink="http://www.w3.org/1999/xlink" xml:space="preserve" overflow="hidden"><g transform="translate(-303 -460)"><path d="M303 461 640 461 640 658 303 658Z" fill="#FFFFFF"/><path d="M577 587 613 587 613 625 577 625Z" fill="#36A2EB"/><path d="M330 576 367 576 367 625 330 625ZM392 576 428 576 428 625 392 625ZM453 487 490 487 490 625 453 625ZM515 512 551 512 551 625 515 625Z" fill="#36A2EB"/><path d="M317.5 624.5 625.5 624.5" stroke="#D9D9D9" stroke-linejoin="round" stroke-miterlimit="10" fill="none" fill-rule="evenodd"/><path d="M410.5 575.5 471.5 482.5 533.5 583.5 594.5 607.5" stroke="#FF9F40" stroke-width="3" stroke-linecap="round" stroke-linejoin="round" stroke-miterlimit="10" fill="none"/><path d="M395 549 425 549 425 568 395 568Z" fill="#FFF5DD"/><text fill="#EF7700" font-family="Inter,Inter_MSFontService,sans-serif" font-weight="400" font-size="12" transform="translate(397.04 563)">(</text><text fill="#EF7700" font-family="Inter,Inter_MSFontService,sans-serif" font-weight="400" font-size="12" transform="translate(401.04 563)">0</text><text fill="#EF7700" font-family="Inter,Inter_MSFontService,sans-serif" font-weight="400" font-size="12" transform="translate(409.04 563)">%)</text><path d="M455 461 489 461 489 479 455 479Z" fill="#FFF5DD"/><text fill="#EF7700" font-family="Inter,Inter_MSFontService,sans-serif" font-weight="400" font-size="12" transform="translate(456.7 475)">185</text><text fill="#EF7700" font-family="Inter,Inter_MSFontService,sans-serif" font-weight="400" font-size="12" transform="translate(475.7 475)">%</text><path d="M515 558 551 558 551 577 515 577Z" fill="#FFF5DD"/><text fill="#EF7700" font-family="Inter,Inter_MSFontService,sans-serif" font-weight="400" font-size="12" transform="translate(517.56 572)">(</text><text fill="#EF7700" font-family="Inter,Inter_MSFontService,sans-serif" font-weight="400" font-size="12" transform="translate(521.56 572)">18</text><text fill="#EF7700" font-family="Inter,Inter_MSFontService,sans-serif" font-weight="400" font-size="12" transform="translate(533.56 572)">%)</text><path d="M576 582 614 582 614 601 576 601Z" fill="#FFF5DD"/><text fill="#EF7700" font-family="Inter,Inter_MSFontService,sans-serif" font-weight="400" font-size="12" transform="translate(577.99 596)">(</text><text fill="#EF7700" font-family="Inter,Inter_MSFontService,sans-serif" font-weight="400" font-size="12" transform="translate(581.99 596)">66</text><text fill="#EF7700" font-family="Inter,Inter_MSFontService,sans-serif" font-weight="400" font-size="12" transform="translate(595.99 596)">%)</text><text fill="#595959" font-family="Inter Medium,Inter Medium_MSFontService,sans-serif" font-weight="500" font-size="13" transform="translate(332.8 646)">2019</text><text fill="#595959" font-family="Inter Medium,Inter Medium_MSFontService,sans-serif" font-weight="500" font-size="13" transform="translate(393.22 646)">2020</text><text fill="#595959" font-family="Inter Medium,Inter Medium_MSFontService,sans-serif" font-weight="500" font-size="13" transform="translate(456.07 646)">2021</text><text fill="#595959" font-family="Inter Medium,Inter Medium_MSFontService,sans-serif" font-weight="500" font-size="13" transform="translate(516.56 646)">2022</text><text fill="#595959" font-family="Inter Medium,Inter Medium_MSFontService,sans-serif" font-weight="500" font-size="13" transform="translate(577.92 646)">2023</text></g></svg>