<svg width="324" height="276" xmlns="http://www.w3.org/2000/svg" xmlns:xlink="http://www.w3.org/1999/xlink" xml:space="preserve" overflow="hidden"><g transform="translate(-2986 -1359)"><path d="M2986 1396.5C2986 1384.07 2996.3 1374 3009 1374 3021.7 1374 3032 1384.07 3032 1396.5 3032 1408.93 3021.7 1419 3009 1419 2996.3 1419 2986 1408.93 2986 1396.5Z" fill="#36A2EB" fill-rule="evenodd"/><text fill="#404040" font-family="Inter Light BETA,Inter Light BETA_MSFontService,sans-serif" font-weight="300" font-size="41" transform="matrix(1 0 0 1 3055.01 1412)">Desktop</text><path d="M2986 1487.5C2986 1475.07 2996.3 1465 3009 1465 3021.7 1465 3032 1475.07 3032 1487.5 3032 1499.93 3021.7 1510 3009 1510 2996.3 1510 2986 1499.93 2986 1487.5Z" fill="#FF6384" fill-rule="evenodd"/><text fill="#404040" font-family="Inter Light BETA,Inter Light BETA_MSFontService,sans-serif" font-weight="300" font-size="41" transform="matrix(1 0 0 1 3055.01 1503)">Mobile Web</text><path d="M2986 1584.5C2986 1572.07 2996.3 1562 3009 1562 3021.7 1562 3032 1572.07 3032 1584.5 3032 1596.93 3021.7 1607 3009 1607 2996.3 1607 2986 1596.93 2986 1584.5Z" fill="#FFCD56" fill-rule="evenodd"/><text fill="#404040" font-family="Inter Light BETA,Inter Light BETA_MSFontService,sans-serif" font-weight="300" font-size="41" transform="matrix(1 0 0 1 3055 1600)">App</text></g></svg>