<svg width="1320" height="594" xmlns="http://www.w3.org/2000/svg" xmlns:xlink="http://www.w3.org/1999/xlink" xml:space="preserve" overflow="hidden"><defs><clipPath id="clip0"><rect x="4106" y="3686" width="1320" height="594"/></clipPath></defs><g clip-path="url(#clip0)" transform="translate(-4106 -3686)"><rect x="4106" y="3686" width="1320" height="594" fill="#FFFFFF"/><g><rect x="5182" y="3926" width="144" height="232" fill="#36A2EB"/></g><g><path d="M4207.14 4015.13 4350.14 4015.13 4350.14 4158 4207.14 4158ZM4451.15 3939.13 4594.15 3939.13 4594.15 4158 4451.15 4158ZM4694.15 3817.13 4838.16 3817.13 4838.16 4158 4694.15 4158ZM4938.16 3806.12 5082.17 3806.12 5082.17 4158 4938.16 4158Z" fill="#36A2EB"/></g><g><path d="M4156.5 4157.5 5375.5 4157.5" stroke="#D9D9D9" stroke-width="3.4375" stroke-linejoin="round" stroke-miterlimit="10" fill="none" fill-rule="evenodd"/></g><g><path d="M4279 3807 4522.15 3876.13 4766.16 3869.13 5010.16 4028.13 5254 4140" stroke="#FF9F40" stroke-width="10.3125" stroke-linecap="round" stroke-linejoin="round" stroke-miterlimit="10" fill="none"/></g><g><rect x="4222" y="3707" width="113" height="74" fill="#FFF5DD"/></g><g><g><text fill="#EF7700" font-family="Inter,Inter_MSFontService,sans-serif" font-weight="400" font-size="50" transform="matrix(1 0 0 1 4229.31 3762)">77%</text></g></g><g><rect x="4463" y="3777" width="119" height="74" fill="#FFF5DD"/></g><g><g><text fill="#EF7700" font-family="Inter,Inter_MSFontService,sans-serif" font-weight="400" font-size="50" transform="matrix(1 0 0 1 4470.41 3832)">54%</text></g></g><g><rect x="4708" y="3770" width="117" height="74.0002" fill="#FFF5DD"/></g><g><g><text fill="#EF7700" font-family="Inter,Inter_MSFontService,sans-serif" font-weight="400" font-size="50" transform="matrix(1 0 0 1 4714.71 3825)">56%</text></g></g><g><rect x="4967" y="3928" width="87.0005" height="74" fill="#FFF5DD"/></g><g><g><text fill="#EF7700" font-family="Inter,Inter_MSFontService,sans-serif" font-weight="400" font-size="50" transform="matrix(1 0 0 1 4973.55 3983)">3%</text></g></g><g><rect x="5176" y="4041" width="156" height="73.9998" fill="#FFF5DD"/></g><g><g><text fill="#EF7700" font-family="Inter,Inter_MSFontService,sans-serif" font-weight="400" font-size="50" transform="matrix(1 0 0 1 5182.93 4096)">(34%)</text></g></g><g><text fill="#595959" font-family="Inter,Inter_MSFontService,sans-serif" font-weight="400" font-size="50" transform="matrix(1 0 0 1 4220.72 4238)">2019</text></g><g><text fill="#595959" font-family="Inter,Inter_MSFontService,sans-serif" font-weight="400" font-size="50" transform="matrix(1 0 0 1 4460.4 4238)">2020</text></g><g><text fill="#595959" font-family="Inter,Inter_MSFontService,sans-serif" font-weight="400" font-size="50" transform="matrix(1 0 0 1 4708.85 4238)">2021</text></g><g><text fill="#595959" font-family="Inter,Inter_MSFontService,sans-serif" font-weight="400" font-size="50" transform="matrix(1 0 0 1 4948.57 4238)">2022</text></g><g><text fill="#595959" font-family="Inter,Inter_MSFontService,sans-serif" font-weight="400" font-size="50" transform="matrix(1 0 0 1 5191.62 4238)">2023</text></g></g></svg>