<svg width="337" height="197" xmlns="http://www.w3.org/2000/svg" xmlns:xlink="http://www.w3.org/1999/xlink" xml:space="preserve" overflow="hidden"><g transform="translate(-319 -163)"><path d="M319 163 656 163 656 360 319 360Z" fill="#FFFFFF"/><path d="M592 290 629 290 629 327 592 327Z" fill="#36A2EB"/><path d="M346 289 382 289 382 327 346 327ZM408 282 444 282 444 327 408 327ZM469 285 505 285 505 327 469 327ZM531 283 567 283 567 327 531 327Z" fill="#36A2EB"/><path d="M346 266 382 266 382 289 346 289ZM408 249 444 249 444 282 408 282ZM469 240 505 240 505 285 469 285ZM531 230 567 230 567 283 531 283ZM592 246 629 246 629 290 592 290Z" fill="#FF6384"/><path d="M346 250 382 250 382 266 346 266ZM408 220 444 220 444 249 408 249ZM469 207 505 207 505 240 469 240ZM531 193 567 193 567 230 531 230ZM592 215 629 215 629 246 592 246Z" fill="#FFCD56"/><path d="M333.5 326.5 641.5 326.5" stroke="#D9D9D9" stroke-linejoin="round" stroke-miterlimit="10" fill="none" fill-rule="evenodd"/><text fill="#404040" font-family="Inter,Inter_MSFontService,sans-serif" font-weight="400" font-size="13" transform="translate(356.65 241)">77</text><text fill="#404040" font-family="Inter,Inter_MSFontService,sans-serif" font-weight="400" font-size="13" transform="translate(414.6 211)">108</text><text fill="#404040" font-family="Inter,Inter_MSFontService,sans-serif" font-weight="400" font-size="13" transform="translate(477.46 198)">121</text><text fill="#404040" font-family="Inter,Inter_MSFontService,sans-serif" font-weight="400" font-size="13" transform="translate(537.48 184)">134</text><text fill="#404040" font-family="Inter,Inter_MSFontService,sans-serif" font-weight="400" font-size="13" transform="translate(600.59 206)">112</text><text fill="#595959" font-family="Inter Medium,Inter Medium_MSFontService,sans-serif" font-weight="500" font-size="13" transform="translate(348.62 348)">2019</text><text fill="#595959" font-family="Inter Medium,Inter Medium_MSFontService,sans-serif" font-weight="500" font-size="13" transform="translate(409.03 348)">2020</text><text fill="#595959" font-family="Inter Medium,Inter Medium_MSFontService,sans-serif" font-weight="500" font-size="13" transform="translate(471.89 348)">2021</text><text fill="#595959" font-family="Inter Medium,Inter Medium_MSFontService,sans-serif" font-weight="500" font-size="13" transform="translate(532.37 348)">2022</text><text fill="#595959" font-family="Inter Medium,Inter Medium_MSFontService,sans-serif" font-weight="500" font-size="13" transform="translate(593.73 348)">2023</text></g></svg>