<svg width="337" height="197" xmlns="http://www.w3.org/2000/svg" xmlns:xlink="http://www.w3.org/1999/xlink" xml:space="preserve" overflow="hidden"><g transform="translate(-659 -167)"><path d="M659 167 996 167 996 364 659 364Z" fill="#FFFFFF"/><path d="M933 249 969 249 969 331 933 331Z" fill="#36A2EB"/><path d="M686 280 723 280 723 331 686 331ZM748 253 784 253 784 331 748 331ZM809 210 846 210 846 331 809 331ZM871 206 907 206 907 331 871 331Z" fill="#36A2EB"/><path d="M673.5 330.5 981.5 330.5" stroke="#D9D9D9" stroke-linejoin="round" stroke-miterlimit="10" fill="none" fill-rule="evenodd"/><path d="M704.5 206.5 766.5 230.5 827.5 228.5 889.5 284.5 950.5 324.5" stroke="#FF9F40" stroke-width="3" stroke-linecap="round" stroke-linejoin="round" stroke-miterlimit="10" fill="none"/><path d="M691 181 718 181 718 199 691 199Z" fill="#FFF5DD"/><text fill="#EF7700" font-family="Inter,Inter_MSFontService,sans-serif" font-weight="400" font-size="12" transform="translate(692.72 195)">77</text><text fill="#EF7700" font-family="Inter,Inter_MSFontService,sans-serif" font-weight="400" font-size="12" transform="translate(706.72 195)">%</text><path d="M752 205 780 205 780 224 752 224Z" fill="#FFF5DD"/><text fill="#EF7700" font-family="Inter,Inter_MSFontService,sans-serif" font-weight="400" font-size="12" transform="translate(753.63 219)">54</text><text fill="#EF7700" font-family="Inter,Inter_MSFontService,sans-serif" font-weight="400" font-size="12" transform="translate(768.63 219)">%</text><path d="M813 203 842 203 842 221 813 221Z" fill="#FFF5DD"/><text fill="#EF7700" font-family="Inter,Inter_MSFontService,sans-serif" font-weight="400" font-size="12" transform="translate(815.31 217)">56</text><text fill="#EF7700" font-family="Inter,Inter_MSFontService,sans-serif" font-weight="400" font-size="12" transform="translate(829.31 217)">%</text><path d="M878 259 900 259 900 277 878 277Z" fill="#FFF5DD"/><text fill="#EF7700" font-family="Inter,Inter_MSFontService,sans-serif" font-weight="400" font-size="12" transform="translate(880.44 273)">3</text><text fill="#EF7700" font-family="Inter,Inter_MSFontService,sans-serif" font-weight="400" font-size="12" transform="translate(888.44 273)">%</text><path d="M932 299 970 299 970 317 932 317Z" fill="#FFF5DD"/><text fill="#EF7700" font-family="Inter,Inter_MSFontService,sans-serif" font-weight="400" font-size="12" transform="translate(933.8 313)">(</text><text fill="#EF7700" font-family="Inter,Inter_MSFontService,sans-serif" font-weight="400" font-size="12" transform="translate(937.8 313)">34</text><text fill="#EF7700" font-family="Inter,Inter_MSFontService,sans-serif" font-weight="400" font-size="12" transform="translate(953.8 313)">%)</text><text fill="#595959" font-family="Inter Medium,Inter Medium_MSFontService,sans-serif" font-weight="500" font-size="13" transform="translate(688.8 352)">2019</text><text fill="#595959" font-family="Inter Medium,Inter Medium_MSFontService,sans-serif" font-weight="500" font-size="13" transform="translate(749.22 352)">2020</text><text fill="#595959" font-family="Inter Medium,Inter Medium_MSFontService,sans-serif" font-weight="500" font-size="13" transform="translate(812.07 352)">2021</text><text fill="#595959" font-family="Inter Medium,Inter Medium_MSFontService,sans-serif" font-weight="500" font-size="13" transform="translate(872.56 352)">2022</text><text fill="#595959" font-family="Inter Medium,Inter Medium_MSFontService,sans-serif" font-weight="500" font-size="13" transform="translate(933.92 352)">2023</text></g></svg>