<svg width="319" height="180" xmlns="http://www.w3.org/2000/svg" xmlns:xlink="http://www.w3.org/1999/xlink" xml:space="preserve" overflow="hidden"><g transform="translate(-3491 -1547)"><path d="M3491 1584.5C3491 1572.07 3501.07 1562 3513.5 1562 3525.93 1562 3536 1572.07 3536 1584.5 3536 1596.93 3525.93 1607 3513.5 1607 3501.07 1607 3491 1596.93 3491 1584.5Z" fill="#36A2EB" fill-rule="evenodd"/><text fill="#404040" font-family="Inter Light BETA,Inter Light BETA_MSFontService,sans-serif" font-weight="300" font-size="41" transform="matrix(1 0 0 1 3559.48 1600)">Ad $ Spend</text><path d="M3491 1676C3491 1663.3 3501.07 1653 3513.5 1653 3525.93 1653 3536 1663.3 3536 1676 3536 1688.7 3525.93 1699 3513.5 1699 3501.07 1699 3491 1688.7 3491 1676Z" fill="#FF9F40" fill-rule="evenodd"/><text fill="#404040" font-family="Inter Light BETA,Inter Light BETA_MSFontService,sans-serif" font-weight="300" font-size="41" transform="matrix(1 0 0 1 3559.48 1691)">Growth</text></g></svg>