<svg width="336" height="294" xmlns="http://www.w3.org/2000/svg" xmlns:xlink="http://www.w3.org/1999/xlink" xml:space="preserve" overflow="hidden"><g transform="translate(-241 -584)"><path d="M295.5 820.5 562.5 820.5M295.5 795.5 562.5 795.5M295.5 771.5 562.5 771.5M295.5 746.5 562.5 746.5M295.5 721.5 562.5 721.5M295.5 697.5 562.5 697.5M295.5 672.5 562.5 672.5M295.5 648.5 562.5 648.5M295.5 623.5 562.5 623.5M295.5 598.5 562.5 598.5" stroke="#D9D9D9" stroke-linecap="square" stroke-linejoin="round" stroke-miterlimit="10" stroke-dasharray="3 1" fill="none"/><path d="M304 690 340 690 340 845 304 845ZM358 678 393 678 393 845 358 845ZM411 681 447 681 447 845 411 845ZM464 698 500 698 500 845 464 845ZM518 707 553 707 553 845 518 845Z" fill="#36A2EB"/><path d="M304 655 340 655 340 690 304 690ZM358 648 393 648 393 678 358 678ZM411 642 447 642 447 681 411 681ZM464 656 500 656 500 698 464 698ZM518 655 553 655 553 707 518 707Z" fill="#FF6384"/><path d="M304 599 340 599 340 655 304 655ZM358 599 393 599 393 648 358 648ZM411 599 447 599 447 642 411 642ZM464 599 500 599 500 656 464 656ZM518 599 553 599 553 655 518 655Z" fill="#FF9F40"/><path d="M0 0 0.000104987 246" stroke="#A6A6A6" stroke-linejoin="round" stroke-miterlimit="10" fill="none" fill-rule="evenodd" transform="matrix(1 0 0 -1 295.5 844.5)"/><path d="M295.5 844.5 562.5 844.5" stroke="#A6A6A6" stroke-linejoin="round" stroke-miterlimit="10" fill="none" fill-rule="evenodd"/><text fill="#FFFFFF" font-family="Inter,Inter_MSFontService,sans-serif" font-weight="700" font-size="12" transform="translate(309.05 772)">63</text><text fill="#FFFFFF" font-family="Inter,Inter_MSFontService,sans-serif" font-weight="700" font-size="12" transform="translate(325.05 772)">%</text><text fill="#FFFFFF" font-family="Inter,Inter_MSFontService,sans-serif" font-weight="700" font-size="12" transform="translate(362.37 766)">68</text><text fill="#FFFFFF" font-family="Inter,Inter_MSFontService,sans-serif" font-weight="700" font-size="12" transform="translate(378.37 766)">%</text><text fill="#FFFFFF" font-family="Inter,Inter_MSFontService,sans-serif" font-weight="700" font-size="12" transform="translate(415.7 768)">66</text><text fill="#FFFFFF" font-family="Inter,Inter_MSFontService,sans-serif" font-weight="700" font-size="12" transform="translate(431.7 768)">%</text><text fill="#FFFFFF" font-family="Inter,Inter_MSFontService,sans-serif" font-weight="700" font-size="12" transform="translate(468.86 776)">60</text><text fill="#FFFFFF" font-family="Inter,Inter_MSFontService,sans-serif" font-weight="700" font-size="12" transform="translate(484.86 776)">%</text><text fill="#FFFFFF" font-family="Inter,Inter_MSFontService,sans-serif" font-weight="700" font-size="12" transform="translate(522.45 781)">56</text><text fill="#FFFFFF" font-family="Inter,Inter_MSFontService,sans-serif" font-weight="700" font-size="12" transform="translate(538.45 781)">%</text><text fill="#FFFFFF" font-family="Inter,Inter_MSFontService,sans-serif" font-weight="700" font-size="12" transform="translate(310.06 677)">14</text><text fill="#FFFFFF" font-family="Inter,Inter_MSFontService,sans-serif" font-weight="700" font-size="12" transform="translate(324.06 677)">%</text><text fill="#FFFFFF" font-family="Inter,Inter_MSFontService,sans-serif" font-weight="700" font-size="12" transform="translate(363.67 668)">12</text><text fill="#FFFFFF" font-family="Inter,Inter_MSFontService,sans-serif" font-weight="700" font-size="12" transform="translate(377.67 668)">%</text><text fill="#FFFFFF" font-family="Inter,Inter_MSFontService,sans-serif" font-weight="700" font-size="12" transform="translate(416.82 667)">16</text><text fill="#FFFFFF" font-family="Inter,Inter_MSFontService,sans-serif" font-weight="700" font-size="12" transform="translate(430.82 667)">%</text><text fill="#FFFFFF" font-family="Inter,Inter_MSFontService,sans-serif" font-weight="700" font-size="12" transform="translate(470.54 682)">17</text><text fill="#FFFFFF" font-family="Inter,Inter_MSFontService,sans-serif" font-weight="700" font-size="12" transform="translate(483.54 682)">%</text><text fill="#FFFFFF" font-family="Inter,Inter_MSFontService,sans-serif" font-weight="700" font-size="12" transform="translate(523.66 686)">21</text><text fill="#FFFFFF" font-family="Inter,Inter_MSFontService,sans-serif" font-weight="700" font-size="12" transform="translate(537.66 686)">%</text><text fill="#404040" font-family="Inter,Inter_MSFontService,sans-serif" font-weight="700" font-size="12" transform="translate(309.23 632)">23</text><text fill="#404040" font-family="Inter,Inter_MSFontService,sans-serif" font-weight="700" font-size="12" transform="translate(325.23 632)">%</text><text fill="#404040" font-family="Inter,Inter_MSFontService,sans-serif" font-weight="700" font-size="12" transform="translate(362.38 628)">20</text><text fill="#404040" font-family="Inter,Inter_MSFontService,sans-serif" font-weight="700" font-size="12" transform="translate(378.38 628)">%</text><text fill="#404040" font-family="Inter,Inter_MSFontService,sans-serif" font-weight="700" font-size="12" transform="translate(416.81 625)">18</text><text fill="#404040" font-family="Inter,Inter_MSFontService,sans-serif" font-weight="700" font-size="12" transform="translate(430.81 625)">%</text><text fill="#404040" font-family="Inter,Inter_MSFontService,sans-serif" font-weight="700" font-size="12" transform="translate(469.21 632)">23</text><text fill="#404040" font-family="Inter,Inter_MSFontService,sans-serif" font-weight="700" font-size="12" transform="translate(485.21 632)">%</text><text fill="#404040" font-family="Inter,Inter_MSFontService,sans-serif" font-weight="700" font-size="12" transform="translate(522.54 632)">23</text><text fill="#404040" font-family="Inter,Inter_MSFontService,sans-serif" font-weight="700" font-size="12" transform="translate(538.54 632)">%</text><text fill="#585F70" font-family="Inter,Inter_MSFontService,sans-serif" font-weight="400" font-size="13" transform="translate(264.04 849)">0</text><text fill="#585F70" font-family="Inter,Inter_MSFontService,sans-serif" font-weight="400" font-size="13" transform="translate(272.04 849)">%</text><text fill="#585F70" font-family="Inter,Inter_MSFontService,sans-serif" font-weight="400" font-size="13" transform="translate(258.15 825)">10</text><text fill="#585F70" font-family="Inter,Inter_MSFontService,sans-serif" font-weight="400" font-size="13" transform="translate(272.15 825)">%</text><text fill="#585F70" font-family="Inter,Inter_MSFontService,sans-serif" font-weight="400" font-size="13" transform="translate(255.98 800)">20</text><text fill="#585F70" font-family="Inter,Inter_MSFontService,sans-serif" font-weight="400" font-size="13" transform="translate(271.98 800)">%</text><text fill="#585F70" font-family="Inter,Inter_MSFontService,sans-serif" font-weight="400" font-size="13" transform="translate(255.56 775)">30</text><text fill="#585F70" font-family="Inter,Inter_MSFontService,sans-serif" font-weight="400" font-size="13" transform="translate(271.56 775)">%</text><text fill="#585F70" font-family="Inter,Inter_MSFontService,sans-serif" font-weight="400" font-size="13" transform="translate(255.48 751)">40</text><text fill="#585F70" font-family="Inter,Inter_MSFontService,sans-serif" font-weight="400" font-size="13" transform="translate(271.48 751)">%</text><text fill="#585F70" font-family="Inter,Inter_MSFontService,sans-serif" font-weight="400" font-size="13" transform="translate(255.94 726)">50</text><text fill="#585F70" font-family="Inter,Inter_MSFontService,sans-serif" font-weight="400" font-size="13" transform="translate(271.94 726)">%</text><text fill="#585F70" font-family="Inter,Inter_MSFontService,sans-serif" font-weight="400" font-size="13" transform="translate(255.73 702)">60</text><text fill="#585F70" font-family="Inter,Inter_MSFontService,sans-serif" font-weight="400" font-size="13" transform="translate(271.73 702)">%</text><text fill="#585F70" font-family="Inter,Inter_MSFontService,sans-serif" font-weight="400" font-size="13" transform="translate(256.43 677)">70</text><text fill="#585F70" font-family="Inter,Inter_MSFontService,sans-serif" font-weight="400" font-size="13" transform="translate(271.43 677)">%</text><text fill="#585F70" font-family="Inter,Inter_MSFontService,sans-serif" font-weight="400" font-size="13" transform="translate(255.82 652)">80</text><text fill="#585F70" font-family="Inter,Inter_MSFontService,sans-serif" font-weight="400" font-size="13" transform="translate(271.82 652)">%</text><text fill="#585F70" font-family="Inter,Inter_MSFontService,sans-serif" font-weight="400" font-size="13" transform="translate(255.73 628)">90</text><text fill="#585F70" font-family="Inter,Inter_MSFontService,sans-serif" font-weight="400" font-size="13" transform="translate(271.73 628)">%</text><text fill="#585F70" font-family="Inter,Inter_MSFontService,sans-serif" font-weight="400" font-size="13" transform="translate(249.82 603)">100</text><text fill="#585F70" font-family="Inter,Inter_MSFontService,sans-serif" font-weight="400" font-size="13" transform="translate(271.82 603)">%</text><text fill="#585F70" font-family="Inter,Inter_MSFontService,sans-serif" font-weight="400" font-size="13" transform="translate(306.82 866)">2019</text><text fill="#585F70" font-family="Inter,Inter_MSFontService,sans-serif" font-weight="400" font-size="13" transform="translate(359.05 866)">2020</text><text fill="#585F70" font-family="Inter,Inter_MSFontService,sans-serif" font-weight="400" font-size="13" transform="translate(413.6 866)">2021</text><text fill="#585F70" font-family="Inter,Inter_MSFontService,sans-serif" font-weight="400" font-size="13" transform="translate(465.84 866)">2022</text><text fill="#585F70" font-family="Inter,Inter_MSFontService,sans-serif" font-weight="400" font-size="13" transform="translate(518.96 866)">2023</text></g></svg>