<svg width="2713" height="91" xmlns="http://www.w3.org/2000/svg" xmlns:xlink="http://www.w3.org/1999/xlink" xml:space="preserve" overflow="hidden"><g transform="translate(-912 -64)"><g><path d="M915 104C915 91.2975 925.074 81.0001 937.5 81.0001 949.927 81.0001 960 91.2975 960 104 960 116.702 949.927 127 937.5 127 925.074 127 915 116.702 915 104Z" fill="#36A2EB" fill-rule="evenodd" fill-opacity="1"/><text fill="#404040" fill-opacity="1" font-family="Calibri,Calibri_MSFontService,sans-serif" font-style="normal" font-variant="normal" font-weight="400" font-stretch="normal" font-size="41" text-anchor="start" direction="ltr" writing-mode="lr-tb" unicode-bidi="normal" text-decoration="none" transform="matrix(1 0 0 1 974.447 118)">Direct</text><path d="M1163 104C1163 91.2975 1173.3 81.0001 1186 81.0001 1198.7 81.0001 1209 91.2975 1209 104 1209 116.702 1198.7 127 1186 127 1173.3 127 1163 116.702 1163 104Z" fill="#FF9F40" fill-rule="evenodd" fill-opacity="1"/><text fill="#404040" fill-opacity="1" font-family="Calibri,Calibri_MSFontService,sans-serif" font-style="normal" font-variant="normal" font-weight="400" font-stretch="normal" font-size="41" text-anchor="start" direction="ltr" writing-mode="lr-tb" unicode-bidi="normal" text-decoration="none" transform="matrix(1 0 0 1 1222.7 118)">Mail</text><path d="M1363 104C1363 91.2975 1373.3 81.0001 1386 81.0001 1398.7 81.0001 1409 91.2975 1409 104 1409 116.702 1398.7 127 1386 127 1373.3 127 1363 116.702 1363 104Z" fill="#FFCD56" fill-rule="evenodd" fill-opacity="1"/><text fill="#404040" fill-opacity="1" font-family="Calibri,Calibri_MSFontService,sans-serif" font-style="normal" font-variant="normal" font-weight="400" font-stretch="normal" font-size="41" text-anchor="start" direction="ltr" writing-mode="lr-tb" unicode-bidi="normal" text-decoration="none" transform="matrix(1 0 0 1 1422.67 118)">Referral</text><path d="M1639 104C1639 91.2975 1649.3 81.0001 1662 81.0001 1674.7 81.0001 1685 91.2975 1685 104 1685 116.702 1674.7 127 1662 127 1649.3 127 1639 116.702 1639 104Z" fill="#00B050" fill-rule="evenodd" fill-opacity="1"/><text fill="#404040" fill-opacity="1" font-family="Calibri,Calibri_MSFontService,sans-serif" font-style="normal" font-variant="normal" font-weight="400" font-stretch="normal" font-size="41" text-anchor="start" direction="ltr" writing-mode="lr-tb" unicode-bidi="normal" text-decoration="none" transform="matrix(1 0 0 1 1698.47 118)">Organic Search </text><path d="M2042 104C2042 91.2975 2052.07 81.0001 2064.5 81.0001 2076.93 81.0001 2087 91.2975 2087 104 2087 116.702 2076.93 127 2064.5 127 2052.07 127 2042 116.702 2042 104Z" fill="#92D050" fill-rule="evenodd" fill-opacity="1"/><text fill="#404040" fill-opacity="1" font-family="Calibri,Calibri_MSFontService,sans-serif" font-style="normal" font-variant="normal" font-weight="400" font-stretch="normal" font-size="41" text-anchor="start" direction="ltr" writing-mode="lr-tb" unicode-bidi="normal" text-decoration="none" transform="matrix(1 0 0 1 2101.28 118)">Organic Social</text><path d="M2445 104C2445 91.2975 2455.07 81.0001 2467.5 81.0001 2479.93 81.0001 2490 91.2975 2490 104 2490 116.702 2479.93 127 2467.5 127 2455.07 127 2445 116.702 2445 104Z" fill="#C00000" fill-rule="evenodd" fill-opacity="1"/><text fill="#404040" fill-opacity="1" font-family="Calibri,Calibri_MSFontService,sans-serif" font-style="normal" font-variant="normal" font-weight="400" font-stretch="normal" font-size="41" text-anchor="start" direction="ltr" writing-mode="lr-tb" unicode-bidi="normal" text-decoration="none" transform="matrix(1 0 0 1 2504.09 118)">Paid Search</text><path d="M2792 104C2792 91.2975 2802.3 81.0001 2815 81.0001 2827.7 81.0001 2838 91.2975 2838 104 2838 116.702 2827.7 127 2815 127 2802.3 127 2792 116.702 2792 104Z" fill="#FF6384" fill-rule="evenodd" fill-opacity="1"/><text fill="#404040" fill-opacity="1" font-family="Calibri,Calibri_MSFontService,sans-serif" font-style="normal" font-variant="normal" font-weight="400" font-stretch="normal" font-size="41" text-anchor="start" direction="ltr" writing-mode="lr-tb" unicode-bidi="normal" text-decoration="none" transform="matrix(1 0 0 1 2851.81 118)">Paid Social</text><path d="M3123 104C3123 91.2975 3133.07 81.0001 3145.5 81.0001 3157.93 81.0001 3168 91.2975 3168 104 3168 116.702 3157.93 127 3145.5 127 3133.07 127 3123 116.702 3123 104Z" fill="#4BC0C0" fill-rule="evenodd" fill-opacity="1"/><text fill="#404040" fill-opacity="1" font-family="Calibri,Calibri_MSFontService,sans-serif" font-style="normal" font-variant="normal" font-weight="400" font-stretch="normal" font-size="41" text-anchor="start" direction="ltr" writing-mode="lr-tb" unicode-bidi="normal" text-decoration="none" transform="matrix(1 0 0 1 3182.17 118)">Display Ad</text><path d="M3440 104C3440 91.2975 3450.07 81.0001 3462.5 81.0001 3474.93 81.0001 3485 91.2975 3485 104 3485 116.702 3474.93 127 3462.5 127 3450.07 127 3440 116.702 3440 104Z" fill="#B38CFE" fill-rule="evenodd" fill-opacity="1"/><text fill="#404040" fill-opacity="1" font-family="Calibri,Calibri_MSFontService,sans-serif" font-style="normal" font-variant="normal" font-weight="400" font-stretch="normal" font-size="41" text-anchor="start" direction="ltr" writing-mode="lr-tb" unicode-bidi="normal" text-decoration="none" transform="matrix(1 0 0 1 3498.89 118)">Other</text></g></g></svg>