<svg width="1050" height="294" xmlns="http://www.w3.org/2000/svg" xmlns:xlink="http://www.w3.org/1999/xlink" xml:space="preserve" overflow="hidden"><defs><clipPath id="clip0"><rect x="44" y="79" width="982" height="247"/></clipPath><clipPath id="clip1"><rect x="44" y="79" width="982" height="247"/></clipPath></defs><g transform="translate(10 -64)"><path d="M44.5 300.5 1025.5 300.5M44.5 275.5 1025.5 275.5M44.5 251.5 1025.5 251.5M44.5 226.5 1025.5 226.5M44.5 202.5 1025.5 202.5M44.5 177.5 1025.5 177.5M44.5 152.5 1025.5 152.5M44.5 128.5 1025.5 128.5M44.5 103.5 1025.5 103.5M44.5 79.5 1025.5 79.5" stroke="#D9D9D9" stroke-linecap="square" stroke-linejoin="round" stroke-miterlimit="10" stroke-dasharray="3 1" fill="none"/><path d="M53 137 86 137 86 325 53 325ZM102 176 135 176 135 325 102 325ZM151 213 184 213 184 325 151 325ZM200 174 233 174 233 325 200 325ZM249 173 282 173 282 325 249 325ZM298 156 331 156 331 325 298 325ZM347 162 380 162 380 325 347 325ZM396 194 429 194 429 325 396 325ZM445 191 478 191 478 325 445 325ZM494 172 527 172 527 325 494 325ZM543 204 576 204 576 325 543 325ZM592 208 625 208 625 325 592 325ZM641 200 674 200 674 325 641 325ZM690 201 723 201 723 325 690 325ZM739 191 772 191 772 325 739 325ZM789 169 821 169 821 325 789 325ZM838 202 870 202 870 325 838 325ZM887 216 919 216 919 325 887 325ZM936 205 968 205 968 325 936 325ZM985 170 1017 170 1017 325 985 325Z" fill="#36A2EB"/><path d="M53 135 86 135 86 137 53 137ZM102 175 135 175 135 176 102 176ZM151 210 184 210 184 213 151 213ZM200 173 233 173 233 174 200 174ZM249 172 282 172 282 173 249 173ZM298 152 331 152 331 156 298 156ZM347 156 380 156 380 162 347 162ZM396 189 429 189 429 194 396 194ZM445 183 478 183 478 191 445 191ZM494 164 527 164 527 172 494 172ZM543 194 576 194 576 204 543 204ZM592 200 625 200 625 208 592 208ZM641 194 674 194 674 200 641 200ZM690 195 723 195 723 201 690 201ZM739 185 772 185 772 191 739 191ZM789 162 821 162 821 169 789 169ZM838 197 870 197 870 202 838 202ZM887 209 919 209 919 216 887 216ZM936 199 968 199 968 205 936 205Z" fill="#FF9F40"/><path d="M53 133 86 133 86 135 53 135ZM102 158 135 158 135 175 102 175ZM151 184 184 184 184 210 151 210ZM200 151 233 151 233 173 200 173ZM249 154 282 154 282 172 249 172ZM298 131 331 131 331 152 298 152ZM347 129 380 129 380 156 347 156ZM396 155 429 155 429 189 396 189ZM445 144 478 144 478 183 445 183ZM494 148 527 148 527 164 494 164ZM543 166 576 166 576 194 543 194ZM592 159 625 159 625 200 592 200ZM641 179 674 179 674 194 641 194ZM690 183 723 183 723 195 690 195ZM739 171 772 171 772 185 739 185ZM789 151 821 151 821 162 789 162ZM838 186 870 186 870 197 838 197ZM887 196 919 196 919 209 887 209ZM936 183 968 183 968 199 936 199ZM985 156 1017 156 1017 170 985 170Z" fill="#FFCD56"/><path d="M53 87 86 87 86 133 53 133ZM102 98 135 98 135 158 102 158ZM151 116 184 116 184 184 151 184ZM200 97 233 97 233 151 200 151ZM249 89 282 89 282 154 249 154ZM298 91 331 91 331 131 298 131ZM347 92 380 92 380 129 347 129ZM396 99 429 99 429 155 396 155ZM445 100 478 100 478 144 445 144ZM494 99 527 99 527 148 494 148ZM543 105 576 105 576 166 543 166ZM592 99 625 99 625 159 592 159ZM641 85 674 85 674 179 641 179ZM690 85 723 85 723 183 690 183ZM739 87 772 87 772 171 739 171ZM789 86 821 86 821 151 789 151ZM838 87 870 87 870 186 838 186ZM887 90 919 90 919 196 887 196ZM936 87 968 87 968 183 936 183ZM985 89 1017 89 1017 156 985 156Z" fill="#00B050"/><path d="M53 83 86 83 86 87 53 87ZM102 96 135 96 135 98 102 98ZM151 115 184 115 184 116 151 116ZM200 95 233 95 233 97 200 97ZM249 88 282 88 282 89 249 89ZM298 88 331 88 331 91 298 91ZM347 90 380 90 380 92 347 92ZM396 97 429 97 429 99 396 99ZM445 98 478 98 478 100 445 100ZM494 98 527 98 527 99 494 99ZM543 104 576 104 576 105 543 105ZM592 96 625 96 625 99 592 99ZM641 83 674 83 674 85 641 85ZM690 83 723 83 723 85 690 85ZM739 86 772 86 772 87 739 87ZM789 85 821 85 821 86 789 86ZM838 84 870 84 870 87 838 87ZM887 87 919 87 919 90 887 90ZM936 85 968 85 968 87 936 87ZM985 88 1017 88 1017 89 985 89Z" fill="#92D050"/><path d="M53 81 86 81 86 83 53 83ZM102 86 135 86 135 96 102 96ZM151 99 184 99 184 115 151 115ZM200 87 233 87 233 95 200 95ZM249 86 282 86 282 88 249 88ZM298 86 331 86 331 88 298 88ZM347 88 380 88 380 90 347 90ZM396 91 429 91 429 97 396 97ZM445 93 478 93 478 98 445 98ZM494 90 527 90 527 98 494 98ZM543 88 576 88 576 104 543 104ZM592 86 625 86 625 96 592 96ZM641 79 674 79 674 83 641 83ZM690 80 723 80 723 83 690 83ZM739 80 772 80 772 86 739 86ZM789 82 821 82 821 85 789 85ZM838 79 870 79 870 84 838 84ZM887 80 919 80 919 87 887 87ZM936 80 968 80 968 85 936 85ZM985 80 1017 80 1017 88 985 88Z" fill="#C00000"/><g clip-path="url(#clip0)"><path d="M53 80 86 80 86 81 53 81ZM102 85 135 85 135 86 102 86ZM151 98 184 98 184 99 151 99ZM200 86 233 86 233 87 200 87ZM249 85 282 85 282 86 249 86ZM298 85 331 85 331 86 298 86ZM347 87 380 87 380 88 347 88ZM396 90 429 90 429 91 396 91ZM445 92 478 92 478 93 445 93ZM494 88 527 88 527 90 494 90ZM543 87 576 87 576 88 543 88ZM592 84 625 84 625 86 592 86ZM641 78 674 78 674 79 641 79ZM690 79 723 79 723 80 690 80ZM739 79 772 79 772 80 739 80ZM789 79 821 79 821 82 789 82ZM838 78 870 78 870 79 838 79ZM887 79 919 79 919 80 887 80ZM936 79 968 79 968 80 936 80ZM985 79 1017 79 1017 80 985 80Z" fill="#FF0000"/></g><g clip-path="url(#clip1)"><path d="M53 79 86 79 86 80 53 80ZM102 79 135 79 135 86 102 86ZM151 79 184 79 184 99 151 99ZM200 79 233 79 233 86 200 86ZM249 79 282 79 282 86 249 86ZM298 79 331 79 331 86 298 86ZM347 79 380 79 380 87 347 87ZM396 79 429 79 429 90 396 90ZM445 79 478 79 478 92 445 92ZM494 79 527 79 527 88 494 88ZM543 79 576 79 576 87 543 87ZM592 79 625 79 625 84 592 84ZM641 78 674 78 674 79 641 79ZM690 78 723 78 723 79 690 79ZM838 78 870 78 870 79 838 79ZM887 79 919 79 919 80 887 80ZM936 78 968 78 968 79 936 79ZM985 78 1017 78 1017 79 985 79Z" fill="#4BC0C0"/></g><path d="M0 0 0.000104987 246" stroke="#A6A6A6" stroke-linejoin="round" stroke-miterlimit="10" fill="none" fill-rule="evenodd" transform="matrix(1 0 0 -1 44.5 325.5)"/><path d="M44.5 325.5 1025.5 325.5" stroke="#A6A6A6" stroke-linejoin="round" stroke-miterlimit="10" fill="none" fill-rule="evenodd"/><text fill="#FFFFFF" font-family="Inter,Inter_MSFontService,sans-serif" font-weight="700" font-size="12" transform="translate(56.577 236)">76</text><text fill="#FFFFFF" font-family="Inter,Inter_MSFontService,sans-serif" font-weight="700" font-size="12" transform="translate(71.577 236)">%</text><text fill="#FFFFFF" font-family="Inter,Inter_MSFontService,sans-serif" font-weight="700" font-size="12" transform="translate(105.058 256)">60</text><text fill="#FFFFFF" font-family="Inter,Inter_MSFontService,sans-serif" font-weight="700" font-size="12" transform="translate(121.058 256)">%</text><text fill="#FFFFFF" font-family="Inter,Inter_MSFontService,sans-serif" font-weight="700" font-size="12" transform="translate(154.256 274)">45</text><text fill="#FFFFFF" font-family="Inter,Inter_MSFontService,sans-serif" font-weight="700" font-size="12" transform="translate(170.256 274)">%</text><text fill="#FFFFFF" font-family="Inter,Inter_MSFontService,sans-serif" font-weight="700" font-size="12" transform="translate(204.427 255)">61</text><text fill="#FFFFFF" font-family="Inter,Inter_MSFontService,sans-serif" font-weight="700" font-size="12" transform="translate(218.427 255)">%</text><text fill="#FFFFFF" font-family="Inter,Inter_MSFontService,sans-serif" font-weight="700" font-size="12" transform="translate(252.532 254)">62</text><text fill="#FFFFFF" font-family="Inter,Inter_MSFontService,sans-serif" font-weight="700" font-size="12" transform="translate(268.532 254)">%</text><text fill="#FFFFFF" font-family="Inter,Inter_MSFontService,sans-serif" font-weight="700" font-size="12" transform="translate(301.393 245)">69</text><text fill="#FFFFFF" font-family="Inter,Inter_MSFontService,sans-serif" font-weight="700" font-size="12" transform="translate(317.393 245)">%</text><text fill="#FFFFFF" font-family="Inter,Inter_MSFontService,sans-serif" font-weight="700" font-size="12" transform="translate(350.434 248)">66</text><text fill="#FFFFFF" font-family="Inter,Inter_MSFontService,sans-serif" font-weight="700" font-size="12" transform="translate(366.434 248)">%</text><text fill="#FFFFFF" font-family="Inter,Inter_MSFontService,sans-serif" font-weight="700" font-size="12" transform="translate(399.572 264)">53</text><text fill="#FFFFFF" font-family="Inter,Inter_MSFontService,sans-serif" font-weight="700" font-size="12" transform="translate(415.572 264)">%</text><text fill="#FFFFFF" font-family="Inter,Inter_MSFontService,sans-serif" font-weight="700" font-size="12" transform="translate(448.704 263)">55</text><text fill="#FFFFFF" font-family="Inter,Inter_MSFontService,sans-serif" font-weight="700" font-size="12" transform="translate(464.704 263)">%</text><text fill="#FFFFFF" font-family="Inter,Inter_MSFontService,sans-serif" font-weight="700" font-size="12" transform="translate(497.738 253)">62</text><text fill="#FFFFFF" font-family="Inter,Inter_MSFontService,sans-serif" font-weight="700" font-size="12" transform="translate(513.738 253)">%</text><text fill="#FFFFFF" font-family="Inter,Inter_MSFontService,sans-serif" font-weight="700" font-size="12" transform="translate(546.493 269)">49</text><text fill="#FFFFFF" font-family="Inter,Inter_MSFontService,sans-serif" font-weight="700" font-size="12" transform="translate(562.493 269)">%</text><text fill="#FFFFFF" font-family="Inter,Inter_MSFontService,sans-serif" font-weight="700" font-size="12" transform="translate(595.924 272)">47</text><text fill="#FFFFFF" font-family="Inter,Inter_MSFontService,sans-serif" font-weight="700" font-size="12" transform="translate(610.924 272)">%</text><text fill="#FFFFFF" font-family="Inter,Inter_MSFontService,sans-serif" font-weight="700" font-size="12" transform="translate(645.892 267)">51</text><text fill="#FFFFFF" font-family="Inter,Inter_MSFontService,sans-serif" font-weight="700" font-size="12" transform="translate(659.892 267)">%</text><text fill="#FFFFFF" font-family="Inter,Inter_MSFontService,sans-serif" font-weight="700" font-size="12" transform="translate(694.934 268)">51</text><text fill="#FFFFFF" font-family="Inter,Inter_MSFontService,sans-serif" font-weight="700" font-size="12" transform="translate(708.934 268)">%</text><text fill="#FFFFFF" font-family="Inter,Inter_MSFontService,sans-serif" font-weight="700" font-size="12" transform="translate(742.951 263)">55</text><text fill="#FFFFFF" font-family="Inter,Inter_MSFontService,sans-serif" font-weight="700" font-size="12" transform="translate(758.951 263)">%</text><text fill="#FFFFFF" font-family="Inter,Inter_MSFontService,sans-serif" font-weight="700" font-size="12" transform="translate(791.809 252)">63</text><text fill="#FFFFFF" font-family="Inter,Inter_MSFontService,sans-serif" font-weight="700" font-size="12" transform="translate(807.809 252)">%</text><text fill="#FFFFFF" font-family="Inter,Inter_MSFontService,sans-serif" font-weight="700" font-size="12" transform="translate(840.771 269)">50</text><text fill="#FFFFFF" font-family="Inter,Inter_MSFontService,sans-serif" font-weight="700" font-size="12" transform="translate(856.771 269)">%</text><text fill="#FFFFFF" font-family="Inter,Inter_MSFontService,sans-serif" font-weight="700" font-size="12" transform="translate(889.675 275)">44</text><text fill="#FFFFFF" font-family="Inter,Inter_MSFontService,sans-serif" font-weight="700" font-size="12" transform="translate(905.675 275)">%</text><text fill="#FFFFFF" font-family="Inter,Inter_MSFontService,sans-serif" font-weight="700" font-size="12" transform="translate(938.82 270)">49</text><text fill="#FFFFFF" font-family="Inter,Inter_MSFontService,sans-serif" font-weight="700" font-size="12" transform="translate(954.82 270)">%</text><text fill="#FFFFFF" font-family="Inter,Inter_MSFontService,sans-serif" font-weight="700" font-size="12" transform="translate(989.09 252)">61</text><text fill="#FFFFFF" font-family="Inter,Inter_MSFontService,sans-serif" font-weight="700" font-size="12" transform="translate(1003.09 252)">%</text><text fill="#404040" font-family="Inter,Inter_MSFontService,sans-serif" font-weight="700" font-size="11" transform="translate(110.548 170)">7</text><text fill="#404040" font-family="Inter,Inter_MSFontService,sans-serif" font-weight="700" font-size="11" transform="translate(117.548 170)">%</text><text fill="#404040" font-family="Inter,Inter_MSFontService,sans-serif" font-weight="700" font-size="11" transform="translate(157.703 201)">11</text><text fill="#404040" font-family="Inter,Inter_MSFontService,sans-serif" font-weight="700" font-size="11" transform="translate(167.703 201)">%</text><text fill="#404040" font-family="Inter,Inter_MSFontService,sans-serif" font-weight="700" font-size="11" transform="translate(208.284 166)">9</text><text fill="#404040" font-family="Inter,Inter_MSFontService,sans-serif" font-weight="700" font-size="11" transform="translate(215.284 166)">%</text><text fill="#404040" font-family="Inter,Inter_MSFontService,sans-serif" font-weight="700" font-size="11" transform="translate(257.672 167)">7</text><text fill="#404040" font-family="Inter,Inter_MSFontService,sans-serif" font-weight="700" font-size="11" transform="translate(264.672 167)">%</text><text fill="#404040" font-family="Inter,Inter_MSFontService,sans-serif" font-weight="700" font-size="11" transform="translate(306.363 145)">8</text><text fill="#404040" font-family="Inter,Inter_MSFontService,sans-serif" font-weight="700" font-size="11" transform="translate(313.363 145)">%</text><text fill="#404040" font-family="Inter,Inter_MSFontService,sans-serif" font-weight="700" font-size="11" transform="translate(353.868 146)">11</text><text fill="#404040" font-family="Inter,Inter_MSFontService,sans-serif" font-weight="700" font-size="11" transform="translate(363.868 146)">%</text><text fill="#404040" font-family="Inter,Inter_MSFontService,sans-serif" font-weight="700" font-size="11" transform="translate(401.822 175)">14</text><text fill="#404040" font-family="Inter,Inter_MSFontService,sans-serif" font-weight="700" font-size="11" transform="translate(413.822 175)">%</text><text fill="#404040" font-family="Inter,Inter_MSFontService,sans-serif" font-weight="700" font-size="11" transform="translate(450.96 168)">16</text><text fill="#404040" font-family="Inter,Inter_MSFontService,sans-serif" font-weight="700" font-size="11" transform="translate(462.96 168)">%</text><text fill="#404040" font-family="Inter,Inter_MSFontService,sans-serif" font-weight="700" font-size="11" transform="translate(502.532 160)">6</text><text fill="#404040" font-family="Inter,Inter_MSFontService,sans-serif" font-weight="700" font-size="11" transform="translate(509.532 160)">%</text><text fill="#404040" font-family="Inter,Inter_MSFontService,sans-serif" font-weight="700" font-size="11" transform="translate(549.203 184)">12</text><text fill="#404040" font-family="Inter,Inter_MSFontService,sans-serif" font-weight="700" font-size="11" transform="translate(561.203 184)">%</text><text fill="#404040" font-family="Inter,Inter_MSFontService,sans-serif" font-weight="700" font-size="11" transform="translate(598.084 183)">16</text><text fill="#404040" font-family="Inter,Inter_MSFontService,sans-serif" font-weight="700" font-size="11" transform="translate(610.084 183)">%</text><text fill="#404040" font-family="Inter,Inter_MSFontService,sans-serif" font-weight="700" font-size="11" transform="translate(649.656 190)">6</text><text fill="#404040" font-family="Inter,Inter_MSFontService,sans-serif" font-weight="700" font-size="11" transform="translate(656.656 190)">%</text><text fill="#404040" font-family="Inter,Inter_MSFontService,sans-serif" font-weight="700" font-size="11" transform="translate(698.78 192)">5</text><text fill="#404040" font-family="Inter,Inter_MSFontService,sans-serif" font-weight="700" font-size="11" transform="translate(705.78 192)">%</text><text fill="#404040" font-family="Inter,Inter_MSFontService,sans-serif" font-weight="700" font-size="11" transform="translate(747.738 181)">6</text><text fill="#404040" font-family="Inter,Inter_MSFontService,sans-serif" font-weight="700" font-size="11" transform="translate(754.738 181)">%</text><text fill="#404040" font-family="Inter,Inter_MSFontService,sans-serif" font-weight="700" font-size="11" transform="translate(796.863 160)">5</text><text fill="#404040" font-family="Inter,Inter_MSFontService,sans-serif" font-weight="700" font-size="11" transform="translate(803.863 160)">%</text><text fill="#404040" font-family="Inter,Inter_MSFontService,sans-serif" font-weight="700" font-size="11" transform="translate(845.904 195)">5</text><text fill="#404040" font-family="Inter,Inter_MSFontService,sans-serif" font-weight="700" font-size="11" transform="translate(852.904 195)">%</text><text fill="#404040" font-family="Inter,Inter_MSFontService,sans-serif" font-weight="700" font-size="11" transform="translate(894.945 206)">5</text><text fill="#404040" font-family="Inter,Inter_MSFontService,sans-serif" font-weight="700" font-size="11" transform="translate(901.945 206)">%</text><text fill="#404040" font-family="Inter,Inter_MSFontService,sans-serif" font-weight="700" font-size="11" transform="translate(943.9 194)">6</text><text fill="#404040" font-family="Inter,Inter_MSFontService,sans-serif" font-weight="700" font-size="11" transform="translate(950.9 194)">%</text><text fill="#404040" font-family="Inter,Inter_MSFontService,sans-serif" font-weight="700" font-size="11" transform="translate(993.03 167)">5</text><text fill="#404040" font-family="Inter,Inter_MSFontService,sans-serif" font-weight="700" font-size="11" transform="translate(1000.03 167)">%</text><text fill="#FFFFFF" font-family="Inter,Inter_MSFontService,sans-serif" font-weight="700" font-size="11" transform="translate(58.63 113)">19</text><text fill="#FFFFFF" font-family="Inter,Inter_MSFontService,sans-serif" font-weight="700" font-size="11" transform="translate(70.63 113)">%</text><text fill="#FFFFFF" font-family="Inter,Inter_MSFontService,sans-serif" font-weight="700" font-size="11" transform="translate(106.745 132)">24</text><text fill="#FFFFFF" font-family="Inter,Inter_MSFontService,sans-serif" font-weight="700" font-size="11" transform="translate(120.745 132)">%</text><text fill="#FFFFFF" font-family="Inter,Inter_MSFontService,sans-serif" font-weight="700" font-size="11" transform="translate(156.229 154)">27</text><text fill="#FFFFFF" font-family="Inter,Inter_MSFontService,sans-serif" font-weight="700" font-size="11" transform="translate(170.229 154)">%</text><text fill="#FFFFFF" font-family="Inter,Inter_MSFontService,sans-serif" font-weight="700" font-size="11" transform="translate(205.084 128)">22</text><text fill="#FFFFFF" font-family="Inter,Inter_MSFontService,sans-serif" font-weight="700" font-size="11" transform="translate(219.084 128)">%</text><text fill="#FFFFFF" font-family="Inter,Inter_MSFontService,sans-serif" font-weight="700" font-size="11" transform="translate(253.965 125)">26</text><text fill="#FFFFFF" font-family="Inter,Inter_MSFontService,sans-serif" font-weight="700" font-size="11" transform="translate(267.965 125)">%</text><text fill="#FFFFFF" font-family="Inter,Inter_MSFontService,sans-serif" font-weight="700" font-size="11" transform="translate(303.837 115)">16</text><text fill="#FFFFFF" font-family="Inter,Inter_MSFontService,sans-serif" font-weight="700" font-size="11" transform="translate(315.837 115)">%</text><text fill="#FFFFFF" font-family="Inter,Inter_MSFontService,sans-serif" font-weight="700" font-size="11" transform="translate(352.961 114)">15</text><text fill="#FFFFFF" font-family="Inter,Inter_MSFontService,sans-serif" font-weight="700" font-size="11" transform="translate(364.961 114)">%</text><text fill="#FFFFFF" font-family="Inter,Inter_MSFontService,sans-serif" font-weight="700" font-size="11" transform="translate(401.249 131)">22</text><text fill="#FFFFFF" font-family="Inter,Inter_MSFontService,sans-serif" font-weight="700" font-size="11" transform="translate(415.249 131)">%</text><text fill="#FFFFFF" font-family="Inter,Inter_MSFontService,sans-serif" font-weight="700" font-size="11" transform="translate(450.957 126)">18</text><text fill="#FFFFFF" font-family="Inter,Inter_MSFontService,sans-serif" font-weight="700" font-size="11" transform="translate(462.957 126)">%</text><text fill="#FFFFFF" font-family="Inter,Inter_MSFontService,sans-serif" font-weight="700" font-size="11" transform="translate(499.022 127)">20</text><text fill="#FFFFFF" font-family="Inter,Inter_MSFontService,sans-serif" font-weight="700" font-size="11" transform="translate(514.022 127)">%</text><text fill="#FFFFFF" font-family="Inter,Inter_MSFontService,sans-serif" font-weight="700" font-size="11" transform="translate(548.296 139)">25</text><text fill="#FFFFFF" font-family="Inter,Inter_MSFontService,sans-serif" font-weight="700" font-size="11" transform="translate(562.296 139)">%</text><text fill="#FFFFFF" font-family="Inter,Inter_MSFontService,sans-serif" font-weight="700" font-size="11" transform="translate(597.338 133)">25</text><text fill="#FFFFFF" font-family="Inter,Inter_MSFontService,sans-serif" font-weight="700" font-size="11" transform="translate(611.338 133)">%</text><text fill="#FFFFFF" font-family="Inter,Inter_MSFontService,sans-serif" font-weight="700" font-size="11" transform="translate(646.139 136)">39</text><text fill="#FFFFFF" font-family="Inter,Inter_MSFontService,sans-serif" font-weight="700" font-size="11" transform="translate(660.139 136)">%</text><text fill="#FFFFFF" font-family="Inter,Inter_MSFontService,sans-serif" font-weight="700" font-size="11" transform="translate(695.18 138)">39</text><text fill="#FFFFFF" font-family="Inter,Inter_MSFontService,sans-serif" font-weight="700" font-size="11" transform="translate(709.18 138)">%</text><text fill="#FFFFFF" font-family="Inter,Inter_MSFontService,sans-serif" font-weight="700" font-size="11" transform="translate(744.125 133)">34</text><text fill="#FFFFFF" font-family="Inter,Inter_MSFontService,sans-serif" font-weight="700" font-size="11" transform="translate(758.125 133)">%</text><text fill="#FFFFFF" font-family="Inter,Inter_MSFontService,sans-serif" font-weight="700" font-size="11" transform="translate(793.419 122)">26</text><text fill="#FFFFFF" font-family="Inter,Inter_MSFontService,sans-serif" font-weight="700" font-size="11" transform="translate(807.419 122)">%</text><text fill="#FFFFFF" font-family="Inter,Inter_MSFontService,sans-serif" font-weight="700" font-size="11" transform="translate(842.054 140)">40</text><text fill="#FFFFFF" font-family="Inter,Inter_MSFontService,sans-serif" font-weight="700" font-size="11" transform="translate(857.054 140)">%</text><text fill="#FFFFFF" font-family="Inter,Inter_MSFontService,sans-serif" font-weight="700" font-size="11" transform="translate(891.249 147)">43</text><text fill="#FFFFFF" font-family="Inter,Inter_MSFontService,sans-serif" font-weight="700" font-size="11" transform="translate(905.249 147)">%</text><text fill="#FFFFFF" font-family="Inter,Inter_MSFontService,sans-serif" font-weight="700" font-size="11" transform="translate(940.39 138)">39</text><text fill="#FFFFFF" font-family="Inter,Inter_MSFontService,sans-serif" font-weight="700" font-size="11" transform="translate(954.39 138)">%</text><text fill="#FFFFFF" font-family="Inter,Inter_MSFontService,sans-serif" font-weight="700" font-size="11" transform="translate(989.93 126)">27</text><text fill="#FFFFFF" font-family="Inter,Inter_MSFontService,sans-serif" font-weight="700" font-size="11" transform="translate(1003.93 126)">%</text><text fill="#FFFFFF" font-family="Inter,Inter_MSFontService,sans-serif" font-weight="700" font-size="11" transform="translate(159.243 110)">6</text><text fill="#FFFFFF" font-family="Inter,Inter_MSFontService,sans-serif" font-weight="700" font-size="11" transform="translate(166.243 110)">%</text><text fill="#FFFFFF" font-family="Inter,Inter_MSFontService,sans-serif" font-weight="700" font-size="11" transform="translate(551.573 100)">6</text><text fill="#FFFFFF" font-family="Inter,Inter_MSFontService,sans-serif" font-weight="700" font-size="11" transform="translate(558.573 100)">%</text><text fill="#404040" font-family="Inter,Inter_MSFontService,sans-serif" font-weight="700" font-size="11" transform="translate(159.239 92)">8</text><text fill="#404040" font-family="Inter,Inter_MSFontService,sans-serif" font-weight="700" font-size="11" transform="translate(166.239 92)">%</text><text fill="#404040" font-family="Inter,Inter_MSFontService,sans-serif" font-weight="700" font-size="11" transform="translate(453.574 89)">5</text><text fill="#404040" font-family="Inter,Inter_MSFontService,sans-serif" font-weight="700" font-size="11" transform="translate(460.574 89)">%</text><text fill="#585F70" font-family="Inter Medium,Inter Medium_MSFontService,sans-serif" font-weight="500" font-size="13" transform="translate(12.8428 330)">0</text><text fill="#585F70" font-family="Inter Medium,Inter Medium_MSFontService,sans-serif" font-weight="500" font-size="13" transform="translate(20.8428 330)">%</text><text fill="#585F70" font-family="Inter Medium,Inter Medium_MSFontService,sans-serif" font-weight="500" font-size="13" transform="translate(6.8094 305)">10</text><text fill="#585F70" font-family="Inter Medium,Inter Medium_MSFontService,sans-serif" font-weight="500" font-size="13" transform="translate(20.8094 305)">%</text><text fill="#585F70" font-family="Inter Medium,Inter Medium_MSFontService,sans-serif" font-weight="500" font-size="13" transform="translate(4.6628 280)">20</text><text fill="#585F70" font-family="Inter Medium,Inter Medium_MSFontService,sans-serif" font-weight="500" font-size="13" transform="translate(20.6628 280)">%</text><text fill="#585F70" font-family="Inter Medium,Inter Medium_MSFontService,sans-serif" font-weight="500" font-size="13" transform="translate(4.2562 256)">30</text><text fill="#585F70" font-family="Inter Medium,Inter Medium_MSFontService,sans-serif" font-weight="500" font-size="13" transform="translate(20.2562 256)">%</text><text fill="#585F70" font-family="Inter Medium,Inter Medium_MSFontService,sans-serif" font-weight="500" font-size="13" transform="translate(4.1228 231)">40</text><text fill="#585F70" font-family="Inter Medium,Inter Medium_MSFontService,sans-serif" font-weight="500" font-size="13" transform="translate(21.1228 231)">%</text><text fill="#585F70" font-family="Inter Medium,Inter Medium_MSFontService,sans-serif" font-weight="500" font-size="13" transform="translate(4.5762 206)">50</text><text fill="#585F70" font-family="Inter Medium,Inter Medium_MSFontService,sans-serif" font-weight="500" font-size="13" transform="translate(20.5762 206)">%</text><text fill="#585F70" font-family="Inter Medium,Inter Medium_MSFontService,sans-serif" font-weight="500" font-size="13" transform="translate(4.3694 182)">60</text><text fill="#585F70" font-family="Inter Medium,Inter Medium_MSFontService,sans-serif" font-weight="500" font-size="13" transform="translate(20.3694 182)">%</text><text fill="#585F70" font-family="Inter Medium,Inter Medium_MSFontService,sans-serif" font-weight="500" font-size="13" transform="translate(5.1228 157)">70</text><text fill="#585F70" font-family="Inter Medium,Inter Medium_MSFontService,sans-serif" font-weight="500" font-size="13" transform="translate(21.1228 157)">%</text><text fill="#585F70" font-family="Inter Medium,Inter Medium_MSFontService,sans-serif" font-weight="500" font-size="13" transform="translate(4.4228 133)">80</text><text fill="#585F70" font-family="Inter Medium,Inter Medium_MSFontService,sans-serif" font-weight="500" font-size="13" transform="translate(20.4228 133)">%</text><text fill="#585F70" font-family="Inter Medium,Inter Medium_MSFontService,sans-serif" font-weight="500" font-size="13" transform="translate(4.3694 108)">90</text><text fill="#585F70" font-family="Inter Medium,Inter Medium_MSFontService,sans-serif" font-weight="500" font-size="13" transform="translate(20.3694 108)">%</text><text fill="#585F70" font-family="Inter Medium,Inter Medium_MSFontService,sans-serif" font-weight="500" font-size="13" transform="translate(-1.8039 83)">100</text><text fill="#585F70" font-family="Inter Medium,Inter Medium_MSFontService,sans-serif" font-weight="500" font-size="13" transform="translate(20.1961 83)">%</text><text fill="#585F70" font-family="Inter Medium,Inter Medium_MSFontService,sans-serif" font-weight="500" font-size="13" transform="translate(53.87 347)">1</text><text fill="#585F70" font-family="Inter Medium,Inter Medium_MSFontService,sans-serif" font-weight="500" font-size="13" transform="translate(59.87 347)">Q</text><text fill="#585F70" font-family="Inter Medium,Inter Medium_MSFontService,sans-serif" font-weight="500" font-size="13" transform="translate(69.87 347)">19</text><text fill="#585F70" font-family="Inter Medium,Inter Medium_MSFontService,sans-serif" font-weight="500" font-size="13" transform="translate(101.838 347)">2</text><text fill="#585F70" font-family="Inter Medium,Inter Medium_MSFontService,sans-serif" font-weight="500" font-size="13" transform="translate(109.838 347)">Q</text><text fill="#585F70" font-family="Inter Medium,Inter Medium_MSFontService,sans-serif" font-weight="500" font-size="13" transform="translate(119.838 347)">19</text><text fill="#585F70" font-family="Inter Medium,Inter Medium_MSFontService,sans-serif" font-weight="500" font-size="13" transform="translate(150.676 347)">3</text><text fill="#585F70" font-family="Inter Medium,Inter Medium_MSFontService,sans-serif" font-weight="500" font-size="13" transform="translate(158.676 347)">Q</text><text fill="#585F70" font-family="Inter Medium,Inter Medium_MSFontService,sans-serif" font-weight="500" font-size="13" transform="translate(168.676 347)">19</text><text fill="#585F70" font-family="Inter Medium,Inter Medium_MSFontService,sans-serif" font-weight="500" font-size="13" transform="translate(199.651 347)">4</text><text fill="#585F70" font-family="Inter Medium,Inter Medium_MSFontService,sans-serif" font-weight="500" font-size="13" transform="translate(208.651 347)">Q</text><text fill="#585F70" font-family="Inter Medium,Inter Medium_MSFontService,sans-serif" font-weight="500" font-size="13" transform="translate(218.651 347)">19</text><text fill="#585F70" font-family="Inter Medium,Inter Medium_MSFontService,sans-serif" font-weight="500" font-size="13" transform="translate(248.892 347)">1</text><text fill="#585F70" font-family="Inter Medium,Inter Medium_MSFontService,sans-serif" font-weight="500" font-size="13" transform="translate(254.892 347)">Q</text><text fill="#585F70" font-family="Inter Medium,Inter Medium_MSFontService,sans-serif" font-weight="500" font-size="13" transform="translate(264.892 347)">20</text><text fill="#585F70" font-family="Inter Medium,Inter Medium_MSFontService,sans-serif" font-weight="500" font-size="13" transform="translate(296.86 347)">2</text><text fill="#585F70" font-family="Inter Medium,Inter Medium_MSFontService,sans-serif" font-weight="500" font-size="13" transform="translate(304.86 347)">Q</text><text fill="#585F70" font-family="Inter Medium,Inter Medium_MSFontService,sans-serif" font-weight="500" font-size="13" transform="translate(314.86 347)">20</text><text fill="#585F70" font-family="Inter Medium,Inter Medium_MSFontService,sans-serif" font-weight="500" font-size="13" transform="translate(345.698 347)">3</text><text fill="#585F70" font-family="Inter Medium,Inter Medium_MSFontService,sans-serif" font-weight="500" font-size="13" transform="translate(353.698 347)">Q</text><text fill="#585F70" font-family="Inter Medium,Inter Medium_MSFontService,sans-serif" font-weight="500" font-size="13" transform="translate(363.698 347)">20</text><text fill="#585F70" font-family="Inter Medium,Inter Medium_MSFontService,sans-serif" font-weight="500" font-size="13" transform="translate(394.672 347)">4</text><text fill="#585F70" font-family="Inter Medium,Inter Medium_MSFontService,sans-serif" font-weight="500" font-size="13" transform="translate(403.672 347)">Q</text><text fill="#585F70" font-family="Inter Medium,Inter Medium_MSFontService,sans-serif" font-weight="500" font-size="13" transform="translate(413.672 347)">20</text><text fill="#585F70" font-family="Inter Medium,Inter Medium_MSFontService,sans-serif" font-weight="500" font-size="13" transform="translate(446.347 347)">1</text><text fill="#585F70" font-family="Inter Medium,Inter Medium_MSFontService,sans-serif" font-weight="500" font-size="13" transform="translate(452.347 347)">Q</text><text fill="#585F70" font-family="Inter Medium,Inter Medium_MSFontService,sans-serif" font-weight="500" font-size="13" transform="translate(462.347 347)">21</text><text fill="#585F70" font-family="Inter Medium,Inter Medium_MSFontService,sans-serif" font-weight="500" font-size="13" transform="translate(494.315 347)">2</text><text fill="#585F70" font-family="Inter Medium,Inter Medium_MSFontService,sans-serif" font-weight="500" font-size="13" transform="translate(502.315 347)">Q</text><text fill="#585F70" font-family="Inter Medium,Inter Medium_MSFontService,sans-serif" font-weight="500" font-size="13" transform="translate(512.315 347)">21</text><text fill="#585F70" font-family="Inter Medium,Inter Medium_MSFontService,sans-serif" font-weight="500" font-size="13" transform="translate(543.153 347)">3</text><text fill="#585F70" font-family="Inter Medium,Inter Medium_MSFontService,sans-serif" font-weight="500" font-size="13" transform="translate(551.153 347)">Q</text><text fill="#585F70" font-family="Inter Medium,Inter Medium_MSFontService,sans-serif" font-weight="500" font-size="13" transform="translate(561.153 347)">21</text><text fill="#585F70" font-family="Inter Medium,Inter Medium_MSFontService,sans-serif" font-weight="500" font-size="13" transform="translate(592.128 347)">4</text><text fill="#585F70" font-family="Inter Medium,Inter Medium_MSFontService,sans-serif" font-weight="500" font-size="13" transform="translate(601.128 347)">Q</text><text fill="#585F70" font-family="Inter Medium,Inter Medium_MSFontService,sans-serif" font-weight="500" font-size="13" transform="translate(611.128 347)">21</text><text fill="#585F70" font-family="Inter Medium,Inter Medium_MSFontService,sans-serif" font-weight="500" font-size="13" transform="translate(641.439 347)">1</text><text fill="#585F70" font-family="Inter Medium,Inter Medium_MSFontService,sans-serif" font-weight="500" font-size="13" transform="translate(647.439 347)">Q</text><text fill="#585F70" font-family="Inter Medium,Inter Medium_MSFontService,sans-serif" font-weight="500" font-size="13" transform="translate(657.439 347)">22</text><text fill="#585F70" font-family="Inter Medium,Inter Medium_MSFontService,sans-serif" font-weight="500" font-size="13" transform="translate(689.407 347)">2</text><text fill="#585F70" font-family="Inter Medium,Inter Medium_MSFontService,sans-serif" font-weight="500" font-size="13" transform="translate(697.407 347)">Q</text><text fill="#585F70" font-family="Inter Medium,Inter Medium_MSFontService,sans-serif" font-weight="500" font-size="13" transform="translate(707.407 347)">22</text><text fill="#585F70" font-family="Inter Medium,Inter Medium_MSFontService,sans-serif" font-weight="500" font-size="13" transform="translate(738.245 347)">3</text><text fill="#585F70" font-family="Inter Medium,Inter Medium_MSFontService,sans-serif" font-weight="500" font-size="13" transform="translate(746.245 347)">Q</text><text fill="#585F70" font-family="Inter Medium,Inter Medium_MSFontService,sans-serif" font-weight="500" font-size="13" transform="translate(756.245 347)">22</text><text fill="#585F70" font-family="Inter Medium,Inter Medium_MSFontService,sans-serif" font-weight="500" font-size="13" transform="translate(787.219 347)">4</text><text fill="#585F70" font-family="Inter Medium,Inter Medium_MSFontService,sans-serif" font-weight="500" font-size="13" transform="translate(796.219 347)">Q</text><text fill="#585F70" font-family="Inter Medium,Inter Medium_MSFontService,sans-serif" font-weight="500" font-size="13" transform="translate(806.219 347)">22</text><text fill="#585F70" font-family="Inter Medium,Inter Medium_MSFontService,sans-serif" font-weight="500" font-size="13" transform="translate(837.401 347)">1</text><text fill="#585F70" font-family="Inter Medium,Inter Medium_MSFontService,sans-serif" font-weight="500" font-size="13" transform="translate(843.401 347)">Q</text><text fill="#585F70" font-family="Inter Medium,Inter Medium_MSFontService,sans-serif" font-weight="500" font-size="13" transform="translate(853.401 347)">23</text><text fill="#585F70" font-family="Inter Medium,Inter Medium_MSFontService,sans-serif" font-weight="500" font-size="13" transform="translate(885.369 347)">2</text><text fill="#585F70" font-family="Inter Medium,Inter Medium_MSFontService,sans-serif" font-weight="500" font-size="13" transform="translate(893.369 347)">Q</text><text fill="#585F70" font-family="Inter Medium,Inter Medium_MSFontService,sans-serif" font-weight="500" font-size="13" transform="translate(903.369 347)">23</text><text fill="#585F70" font-family="Inter Medium,Inter Medium_MSFontService,sans-serif" font-weight="500" font-size="13" transform="translate(934.21 347)">3</text><text fill="#585F70" font-family="Inter Medium,Inter Medium_MSFontService,sans-serif" font-weight="500" font-size="13" transform="translate(942.21 347)">Q</text><text fill="#585F70" font-family="Inter Medium,Inter Medium_MSFontService,sans-serif" font-weight="500" font-size="13" transform="translate(952.21 347)">23</text><text fill="#585F70" font-family="Inter Medium,Inter Medium_MSFontService,sans-serif" font-weight="500" font-size="13" transform="translate(983.18 347)">4</text><text fill="#585F70" font-family="Inter Medium,Inter Medium_MSFontService,sans-serif" font-weight="500" font-size="13" transform="translate(992.18 347)">Q</text><text fill="#585F70" font-family="Inter Medium,Inter Medium_MSFontService,sans-serif" font-weight="500" font-size="13" transform="translate(1002.18 347)">23</text></g></svg>