<svg width="268" height="235" xmlns="http://www.w3.org/2000/svg" xmlns:xlink="http://www.w3.org/1999/xlink" xml:space="preserve" overflow="hidden"><g transform="translate(-963 -93)"><path d="M963.125 1434.52 1175.29 1434.52M963.125 1414.58 1175.29 1414.58M963.125 1395.43 1175.29 1395.43M963.125 1375.49 1175.29 1375.49M963.125 1356.35 1175.29 1356.35M963.125 1336.41 1175.29 1336.41M963.125 1316.47 1175.29 1316.47M963.125 1297.33 1175.29 1297.33M963.125 1277.39 1175.29 1277.39M963.125 1258.24 1175.29 1258.24" stroke="#D9D9D9" stroke-width="0.797619" stroke-linecap="square" stroke-linejoin="round" stroke-miterlimit="10" stroke-dasharray="2.39286 0.797619" fill="none" transform="matrix(1 0 0 1.00213 44.1429 -1155.54)"/><path d="M969.905 1324.85 998.619 1324.85 998.619 1454.06 969.905 1454.06ZM1012.18 1328.83 1040.89 1328.83 1040.89 1454.06 1012.18 1454.06ZM1055.25 1343.99 1083.17 1343.99 1083.17 1454.06 1055.25 1454.06ZM1097.52 1351.96 1125.44 1351.96 1125.44 1454.06 1097.52 1454.06ZM1139.8 1353.56 1168.51 1353.56 1168.51 1454.06 1139.8 1454.06Z" fill="#36A2EB" transform="matrix(1 0 0 1.00213 44.1429 -1155.54)"/><path d="M969.905 1324.05 998.619 1324.05 998.619 1324.85 969.905 1324.85ZM1012.18 1326.44 1040.89 1326.44 1040.89 1328.83 1012.18 1328.83ZM1055.25 1337.61 1083.17 1337.61 1083.17 1343.99 1055.25 1343.99ZM1097.52 1346.38 1125.44 1346.38 1125.44 1351.96 1097.52 1351.96ZM1139.8 1348.77 1168.51 1348.77 1168.51 1353.56 1139.8 1353.56Z" fill="#FF9F40" transform="matrix(1 0 0 1.00213 44.1429 -1155.54)"/><path d="M969.905 1313.68 998.619 1313.68 998.619 1324.05 969.905 1324.05ZM1012.18 1308.89 1040.89 1308.89 1040.89 1326.44 1012.18 1326.44ZM1055.25 1316.07 1083.17 1316.07 1083.17 1337.61 1055.25 1337.61ZM1097.52 1333.62 1125.44 1333.62 1125.44 1346.38 1097.52 1346.38ZM1139.8 1338.4 1168.51 1338.4 1168.51 1348.77 1139.8 1348.77Z" fill="#FFCD56" transform="matrix(1 0 0 1.00213 44.1429 -1155.54)"/><path d="M969.905 1269.81 998.619 1269.81 998.619 1313.68 969.905 1313.68ZM1012.18 1269.01 1040.89 1269.01 1040.89 1308.89 1012.18 1308.89ZM1055.25 1276.19 1083.17 1276.19 1083.17 1316.07 1055.25 1316.07ZM1097.52 1265.02 1125.44 1265.02 1125.44 1333.62 1097.52 1333.62ZM1139.8 1265.02 1168.51 1265.02 1168.51 1338.4 1139.8 1338.4Z" fill="#00B050" transform="matrix(1 0 0 1.00213 44.1429 -1155.54)"/><path d="M969.905 1267.42 998.619 1267.42 998.619 1269.81 969.905 1269.81ZM1012.18 1267.42 1040.89 1267.42 1040.89 1269.01 1012.18 1269.01ZM1055.25 1274.6 1083.17 1274.6 1083.17 1276.19 1055.25 1276.19ZM1097.52 1263.43 1125.44 1263.43 1125.44 1265.02 1097.52 1265.02ZM1139.8 1263.43 1168.51 1263.43 1168.51 1265.02 1139.8 1265.02Z" fill="#92D050" transform="matrix(1 0 0 1.00213 44.1429 -1155.54)"/><path d="M969.905 1261.83 998.619 1261.83 998.619 1267.42 969.905 1267.42ZM1012.18 1264.23 1040.89 1264.23 1040.89 1267.42 1012.18 1267.42ZM1055.25 1267.42 1083.17 1267.42 1083.17 1274.6 1055.25 1274.6ZM1097.52 1258.64 1125.44 1258.64 1125.44 1263.43 1097.52 1263.43ZM1139.8 1258.64 1168.51 1258.64 1168.51 1263.43 1139.8 1263.43Z" fill="#C00000" transform="matrix(1 0 0 1.00213 44.1429 -1155.54)"/><path d="M969.905 1261.04 998.619 1261.04 998.619 1261.83 969.905 1261.83ZM1012.18 1263.43 1040.89 1263.43 1040.89 1264.23 1012.18 1264.23ZM1055.25 1265.82 1083.17 1265.82 1083.17 1267.42 1055.25 1267.42ZM1097.52 1257.85 1125.44 1257.85 1125.44 1258.64 1097.52 1258.64ZM1139.8 1257.85 1168.51 1257.85 1168.51 1258.64 1139.8 1258.64Z" fill="#FF0000" transform="matrix(1 0 0 1.00213 44.1429 -1155.54)"/><g><path d="M969.905 1257.85 998.619 1257.85 998.619 1261.83 969.905 1261.83ZM1012.18 1257.85 1040.89 1257.85 1040.89 1263.43 1012.18 1263.43ZM1055.25 1257.85 1083.17 1257.85 1083.17 1265.82 1055.25 1265.82ZM1097.52 1257.85 1125.44 1257.85 1125.44 1258.64 1097.52 1258.64ZM1139.8 1257.05 1168.51 1257.05 1168.51 1257.85 1139.8 1257.85Z" fill="#4BC0C0" transform="matrix(1 0 0 1.00213 44.1429 -1155.54)"/></g><path d="M0 0 8.37396e-05 196.214" stroke="#A6A6A6" stroke-width="0.797619" stroke-linejoin="round" stroke-miterlimit="10" fill="none" fill-rule="evenodd" transform="matrix(1 0 0 -1.00213 1007.27 302.022)"/><path d="M963.125 1454.46 1175.29 1454.46" stroke="#A6A6A6" stroke-width="0.797619" stroke-linejoin="round" stroke-miterlimit="10" fill="none" fill-rule="evenodd" transform="matrix(1 0 0 1.00213 44.1429 -1155.54)"/><text fill="#FFFFFF" font-family="Inter,Inter_MSFontService,sans-serif" font-weight="700" font-size="13" transform="matrix(0.797619 0 0 0.79932 1016.82 241)">66</text><text fill="#FFFFFF" font-family="Inter,Inter_MSFontService,sans-serif" font-weight="700" font-size="13" transform="matrix(0.797619 0 0 0.79932 1031.17 241)">%</text><text fill="#FFFFFF" font-family="Inter,Inter_MSFontService,sans-serif" font-weight="700" font-size="13" transform="matrix(0.797619 0 0 0.79932 1059.15 243)">64</text><text fill="#FFFFFF" font-family="Inter,Inter_MSFontService,sans-serif" font-weight="700" font-size="13" transform="matrix(0.797619 0 0 0.79932 1073.5 243)">%</text><text fill="#FFFFFF" font-family="Inter,Inter_MSFontService,sans-serif" font-weight="700" font-size="13" transform="matrix(0.797619 0 0 0.79932 1101.75 250)">56</text><text fill="#FFFFFF" font-family="Inter,Inter_MSFontService,sans-serif" font-weight="700" font-size="13" transform="matrix(0.797619 0 0 0.79932 1115.31 250)">%</text><text fill="#FFFFFF" font-family="Inter,Inter_MSFontService,sans-serif" font-weight="700" font-size="13" transform="matrix(0.797619 0 0 0.79932 1144.35 254)">52</text><text fill="#FFFFFF" font-family="Inter,Inter_MSFontService,sans-serif" font-weight="700" font-size="13" transform="matrix(0.797619 0 0 0.79932 1157.11 254)">%</text><text fill="#FFFFFF" font-family="Inter,Inter_MSFontService,sans-serif" font-weight="700" font-size="13" transform="matrix(0.797619 0 0 0.79932 1187.6 255)">51</text><text fill="#FFFFFF" font-family="Inter,Inter_MSFontService,sans-serif" font-weight="700" font-size="13" transform="matrix(0.797619 0 0 0.79932 1198.77 255)">%</text><text fill="#404040" font-family="Inter,Inter_MSFontService,sans-serif" font-weight="700" font-size="12" transform="matrix(0.797619 0 0 0.79932 1021.2 170)">5</text><text fill="#404040" font-family="Inter,Inter_MSFontService,sans-serif" font-weight="700" font-size="12" transform="matrix(0.797619 0 0 0.79932 1027.58 170)">%</text><text fill="#404040" font-family="Inter,Inter_MSFontService,sans-serif" font-weight="700" font-size="12" transform="matrix(0.797619 0 0 0.79932 1063.56 169)">9</text><text fill="#404040" font-family="Inter,Inter_MSFontService,sans-serif" font-weight="700" font-size="12" transform="matrix(0.797619 0 0 0.79932 1069.94 169)">%</text><text fill="#404040" font-family="Inter,Inter_MSFontService,sans-serif" font-weight="700" font-size="12" transform="matrix(0.797619 0 0 0.79932 1104.62 179)">11</text><text fill="#404040" font-family="Inter,Inter_MSFontService,sans-serif" font-weight="700" font-size="12" transform="matrix(0.797619 0 0 0.79932 1114.19 179)">%</text><text fill="#404040" font-family="Inter,Inter_MSFontService,sans-serif" font-weight="700" font-size="12" transform="matrix(0.797619 0 0 0.79932 1148.73 191)">7</text><text fill="#404040" font-family="Inter,Inter_MSFontService,sans-serif" font-weight="700" font-size="12" transform="matrix(0.797619 0 0 0.79932 1154.32 191)">%</text><text fill="#404040" font-family="Inter,Inter_MSFontService,sans-serif" font-weight="700" font-size="12" transform="matrix(0.797619 0 0 0.79932 1190.93 195)">5</text><text fill="#404040" font-family="Inter,Inter_MSFontService,sans-serif" font-weight="700" font-size="12" transform="matrix(0.797619 0 0 0.79932 1197.31 195)">%</text><text fill="#FFFFFF" font-family="Inter,Inter_MSFontService,sans-serif" font-weight="700" font-size="12" transform="matrix(0.797619 0 0 0.79932 1018.12 143)">23</text><text fill="#FFFFFF" font-family="Inter,Inter_MSFontService,sans-serif" font-weight="700" font-size="12" transform="matrix(0.797619 0 0 0.79932 1030.88 143)">%</text><text fill="#FFFFFF" font-family="Inter,Inter_MSFontService,sans-serif" font-weight="700" font-size="12" transform="matrix(0.797619 0 0 0.79932 1061.43 140)">21</text><text fill="#FFFFFF" font-family="Inter,Inter_MSFontService,sans-serif" font-weight="700" font-size="12" transform="matrix(0.797619 0 0 0.79932 1072.6 140)">%</text><text fill="#FFFFFF" font-family="Inter,Inter_MSFontService,sans-serif" font-weight="700" font-size="12" transform="matrix(0.797619 0 0 0.79932 1102.84 147)">20</text><text fill="#FFFFFF" font-family="Inter,Inter_MSFontService,sans-serif" font-weight="700" font-size="12" transform="matrix(0.797619 0 0 0.79932 1115.6 147)">%</text><text fill="#FFFFFF" font-family="Inter,Inter_MSFontService,sans-serif" font-weight="700" font-size="12" transform="matrix(0.797619 0 0 0.79932 1145.34 150)">35</text><text fill="#FFFFFF" font-family="Inter,Inter_MSFontService,sans-serif" font-weight="700" font-size="12" transform="matrix(0.797619 0 0 0.79932 1158.11 150)">%</text><text fill="#FFFFFF" font-family="Inter,Inter_MSFontService,sans-serif" font-weight="700" font-size="12" transform="matrix(0.797619 0 0 0.79932 1187.69 153)">38</text><text fill="#FFFFFF" font-family="Inter,Inter_MSFontService,sans-serif" font-weight="700" font-size="12" transform="matrix(0.797619 0 0 0.79932 1200.45 153)">%</text><text fill="#585F70" font-family="Inter Medium,Inter Medium_MSFontService,sans-serif" font-weight="500" font-size="13" transform="matrix(0.797619 0 0 0.79932 981.744 306)">0</text><text fill="#585F70" font-family="Inter Medium,Inter Medium_MSFontService,sans-serif" font-weight="500" font-size="13" transform="matrix(0.797619 0 0 0.79932 988.125 306)">%</text><text fill="#585F70" font-family="Inter Medium,Inter Medium_MSFontService,sans-serif" font-weight="500" font-size="13" transform="matrix(0.797619 0 0 0.79932 976.926 286)">10</text><text fill="#585F70" font-family="Inter Medium,Inter Medium_MSFontService,sans-serif" font-weight="500" font-size="13" transform="matrix(0.797619 0 0 0.79932 988.093 286)">%</text><text fill="#585F70" font-family="Inter Medium,Inter Medium_MSFontService,sans-serif" font-weight="500" font-size="13" transform="matrix(0.797619 0 0 0.79932 975.22 266)">20</text><text fill="#585F70" font-family="Inter Medium,Inter Medium_MSFontService,sans-serif" font-weight="500" font-size="13" transform="matrix(0.797619 0 0 0.79932 987.981 266)">%</text><text fill="#585F70" font-family="Inter Medium,Inter Medium_MSFontService,sans-serif" font-weight="500" font-size="13" transform="matrix(0.797619 0 0 0.79932 974.893 246)">30</text><text fill="#585F70" font-family="Inter Medium,Inter Medium_MSFontService,sans-serif" font-weight="500" font-size="13" transform="matrix(0.797619 0 0 0.79932 987.654 246)">%</text><text fill="#585F70" font-family="Inter Medium,Inter Medium_MSFontService,sans-serif" font-weight="500" font-size="13" transform="matrix(0.797619 0 0 0.79932 974.789 226)">40</text><text fill="#585F70" font-family="Inter Medium,Inter Medium_MSFontService,sans-serif" font-weight="500" font-size="13" transform="matrix(0.797619 0 0 0.79932 988.348 226)">%</text><text fill="#585F70" font-family="Inter Medium,Inter Medium_MSFontService,sans-serif" font-weight="500" font-size="13" transform="matrix(0.797619 0 0 0.79932 975.148 207)">50</text><text fill="#585F70" font-family="Inter Medium,Inter Medium_MSFontService,sans-serif" font-weight="500" font-size="13" transform="matrix(0.797619 0 0 0.79932 987.91 207)">%</text><text fill="#585F70" font-family="Inter Medium,Inter Medium_MSFontService,sans-serif" font-weight="500" font-size="13" transform="matrix(0.797619 0 0 0.79932 974.988 187)">60</text><text fill="#585F70" font-family="Inter Medium,Inter Medium_MSFontService,sans-serif" font-weight="500" font-size="13" transform="matrix(0.797619 0 0 0.79932 987.75 187)">%</text><text fill="#585F70" font-family="Inter Medium,Inter Medium_MSFontService,sans-serif" font-weight="500" font-size="13" transform="matrix(0.797619 0 0 0.79932 975.586 167)">70</text><text fill="#585F70" font-family="Inter Medium,Inter Medium_MSFontService,sans-serif" font-weight="500" font-size="13" transform="matrix(0.797619 0 0 0.79932 988.348 167)">%</text><text fill="#585F70" font-family="Inter Medium,Inter Medium_MSFontService,sans-serif" font-weight="500" font-size="13" transform="matrix(0.797619 0 0 0.79932 975.028 148)">80</text><text fill="#585F70" font-family="Inter Medium,Inter Medium_MSFontService,sans-serif" font-weight="500" font-size="13" transform="matrix(0.797619 0 0 0.79932 987.79 148)">%</text><text fill="#585F70" font-family="Inter Medium,Inter Medium_MSFontService,sans-serif" font-weight="500" font-size="13" transform="matrix(0.797619 0 0 0.79932 974.988 128)">90</text><text fill="#585F70" font-family="Inter Medium,Inter Medium_MSFontService,sans-serif" font-weight="500" font-size="13" transform="matrix(0.797619 0 0 0.79932 987.75 128)">%</text><text fill="#585F70" font-family="Inter Medium,Inter Medium_MSFontService,sans-serif" font-weight="500" font-size="13" transform="matrix(0.797619 0 0 0.79932 970.059 108)">100</text><text fill="#585F70" font-family="Inter Medium,Inter Medium_MSFontService,sans-serif" font-weight="500" font-size="13" transform="matrix(0.797619 0 0 0.79932 987.607 108)">%</text><text fill="#585F70" font-family="Inter Medium,Inter Medium_MSFontService,sans-serif" font-weight="500" font-size="13" transform="matrix(0.797619 0 0 0.79932 1015.92 319)">2019</text><text fill="#585F70" font-family="Inter Medium,Inter Medium_MSFontService,sans-serif" font-weight="500" font-size="13" transform="matrix(0.797619 0 0 0.79932 1057.44 319)">2020</text><text fill="#585F70" font-family="Inter Medium,Inter Medium_MSFontService,sans-serif" font-weight="500" font-size="13" transform="matrix(0.797619 0 0 0.79932 1100.9 319)">2021</text><text fill="#585F70" font-family="Inter Medium,Inter Medium_MSFontService,sans-serif" font-weight="500" font-size="13" transform="matrix(0.797619 0 0 0.79932 1142.47 319)">2022</text><text fill="#585F70" font-family="Inter Medium,Inter Medium_MSFontService,sans-serif" font-weight="500" font-size="13" transform="matrix(0.797619 0 0 0.79932 1184.74 319)">2023</text></g></svg>