<svg width="1050" height="293" xmlns="http://www.w3.org/2000/svg" xmlns:xlink="http://www.w3.org/1999/xlink" xml:space="preserve" overflow="hidden"><g transform="translate(-115 -213)"><path d="M168.5 448.5 1150.5 448.5M168.5 424.5 1150.5 424.5M168.5 399.5 1150.5 399.5M168.5 374.5 1150.5 374.5M168.5 350.5 1150.5 350.5M168.5 325.5 1150.5 325.5M168.5 301.5 1150.5 301.5M168.5 276.5 1150.5 276.5M168.5 251.5 1150.5 251.5M168.5 227.5 1150.5 227.5" stroke="#D9D9D9" stroke-linecap="square" stroke-linejoin="round" stroke-miterlimit="10" stroke-dasharray="3 1" fill="none"/><path d="M177 324 210 324 210 473 177 473ZM226 316 259 316 259 473 226 473ZM275 328 308 328 308 473 275 473ZM324 326 357 326 357 473 324 473ZM373 320 406 320 406 473 373 473ZM422 297 455 297 455 473 422 473ZM472 291 504 291 504 473 472 473ZM521 305 553 305 553 473 521 473ZM570 312 602 312 602 473 570 473ZM619 300 652 300 652 473 619 473ZM668 323 701 323 701 473 668 473ZM717 310 750 310 750 473 717 473ZM766 311 799 311 799 473 766 473ZM815 317 848 317 848 473 815 473ZM864 335 897 335 897 473 864 473ZM913 327 946 327 946 473 913 473ZM962 328 995 328 995 473 962 473ZM1011 335 1044 335 1044 473 1011 473ZM1061 353 1093 353 1093 473 1061 473ZM1110 320 1142 320 1142 473 1110 473Z" fill="#36A2EB"/><path d="M177 288 210 288 210 324 177 324ZM226 283 259 283 259 316 226 316ZM275 285 308 285 308 328 275 328ZM324 275 357 275 357 326 324 326ZM373 292 406 292 406 320 373 320ZM422 272 455 272 455 297 422 297ZM472 265 504 265 504 291 472 291ZM521 272 553 272 553 305 521 305ZM570 263 602 263 602 312 570 312ZM619 272 652 272 652 300 619 300ZM668 282 701 282 701 323 668 323ZM717 274 750 274 750 310 717 310ZM766 277 799 277 799 311 766 311ZM815 272 848 272 848 317 815 317ZM864 294 897 294 897 335 864 335ZM913 272 946 272 946 327 913 327ZM962 277 995 277 995 328 962 328ZM1011 287 1044 287 1044 335 1011 335ZM1061 292 1093 292 1093 353 1061 353ZM1110 268 1142 268 1142 320 1110 320Z" fill="#FF6384"/><path d="M177 227 210 227 210 288 177 288ZM226 227 259 227 259 283 226 283ZM275 227 308 227 308 285 275 285ZM324 227 357 227 357 275 324 275ZM373 227 406 227 406 292 373 292ZM422 227 455 227 455 272 422 272ZM472 227 504 227 504 265 472 265ZM521 227 553 227 553 272 521 272ZM570 227 602 227 602 263 570 263ZM619 227 652 227 652 272 619 272ZM668 227 701 227 701 282 668 282ZM717 227 750 227 750 274 717 274ZM766 227 799 227 799 277 766 277ZM815 227 848 227 848 272 815 272ZM864 227 897 227 897 294 864 294ZM913 227 946 227 946 272 913 272ZM962 227 995 227 995 277 962 277ZM1011 227 1044 227 1044 287 1011 287ZM1061 227 1093 227 1093 292 1061 292ZM1110 227 1142 227 1142 268 1110 268Z" fill="#FF9F40"/><path d="M0 0 0.000104987 246" stroke="#A6A6A6" stroke-linejoin="round" stroke-miterlimit="10" fill="none" fill-rule="evenodd" transform="matrix(1 0 0 -1 168.5 473.5)"/><path d="M168.5 473.5 1150.5 473.5" stroke="#A6A6A6" stroke-linejoin="round" stroke-miterlimit="10" fill="none" fill-rule="evenodd"/><text fill="#FFFFFF" font-family="Inter,Inter_MSFontService,sans-serif" font-weight="700" font-size="12" transform="translate(181.419 403)">61</text><text fill="#FFFFFF" font-family="Inter,Inter_MSFontService,sans-serif" font-weight="700" font-size="12" transform="translate(195.419 403)">%</text><text fill="#FFFFFF" font-family="Inter,Inter_MSFontService,sans-serif" font-weight="700" font-size="12" transform="translate(229.283 400)">64</text><text fill="#FFFFFF" font-family="Inter,Inter_MSFontService,sans-serif" font-weight="700" font-size="12" transform="translate(245.283 400)">%</text><text fill="#FFFFFF" font-family="Inter,Inter_MSFontService,sans-serif" font-weight="700" font-size="12" transform="translate(278.569 406)">59</text><text fill="#FFFFFF" font-family="Inter,Inter_MSFontService,sans-serif" font-weight="700" font-size="12" transform="translate(294.569 406)">%</text><text fill="#FFFFFF" font-family="Inter,Inter_MSFontService,sans-serif" font-weight="700" font-size="12" transform="translate(327.393 404)">60</text><text fill="#FFFFFF" font-family="Inter,Inter_MSFontService,sans-serif" font-weight="700" font-size="12" transform="translate(343.393 404)">%</text><text fill="#FFFFFF" font-family="Inter,Inter_MSFontService,sans-serif" font-weight="700" font-size="12" transform="translate(376.829 401)">62</text><text fill="#FFFFFF" font-family="Inter,Inter_MSFontService,sans-serif" font-weight="700" font-size="12" transform="translate(392.829 401)">%</text><text fill="#FFFFFF" font-family="Inter,Inter_MSFontService,sans-serif" font-weight="700" font-size="12" transform="translate(426.306 390)">72</text><text fill="#FFFFFF" font-family="Inter,Inter_MSFontService,sans-serif" font-weight="700" font-size="12" transform="translate(441.306 390)">%</text><text fill="#FFFFFF" font-family="Inter,Inter_MSFontService,sans-serif" font-weight="700" font-size="12" transform="translate(475.106 387)">74</text><text fill="#FFFFFF" font-family="Inter,Inter_MSFontService,sans-serif" font-weight="700" font-size="12" transform="translate(489.106 387)">%</text><text fill="#FFFFFF" font-family="Inter,Inter_MSFontService,sans-serif" font-weight="700" font-size="12" transform="translate(523.909 394)">69</text><text fill="#FFFFFF" font-family="Inter,Inter_MSFontService,sans-serif" font-weight="700" font-size="12" transform="translate(539.909 394)">%</text><text fill="#FFFFFF" font-family="Inter,Inter_MSFontService,sans-serif" font-weight="700" font-size="12" transform="translate(573.089 398)">65</text><text fill="#FFFFFF" font-family="Inter,Inter_MSFontService,sans-serif" font-weight="700" font-size="12" transform="translate(589.089 398)">%</text><text fill="#FFFFFF" font-family="Inter,Inter_MSFontService,sans-serif" font-weight="700" font-size="12" transform="translate(622.302 392)">70</text><text fill="#FFFFFF" font-family="Inter,Inter_MSFontService,sans-serif" font-weight="700" font-size="12" transform="translate(637.302 392)">%</text><text fill="#FFFFFF" font-family="Inter,Inter_MSFontService,sans-serif" font-weight="700" font-size="12" transform="translate(672.286 403)">61</text><text fill="#FFFFFF" font-family="Inter,Inter_MSFontService,sans-serif" font-weight="700" font-size="12" transform="translate(686.286 403)">%</text><text fill="#FFFFFF" font-family="Inter,Inter_MSFontService,sans-serif" font-weight="700" font-size="12" transform="translate(720.256 397)">66</text><text fill="#FFFFFF" font-family="Inter,Inter_MSFontService,sans-serif" font-weight="700" font-size="12" transform="translate(736.256 397)">%</text><text fill="#FFFFFF" font-family="Inter,Inter_MSFontService,sans-serif" font-weight="700" font-size="12" transform="translate(769.342 397)">66</text><text fill="#FFFFFF" font-family="Inter,Inter_MSFontService,sans-serif" font-weight="700" font-size="12" transform="translate(785.342 397)">%</text><text fill="#FFFFFF" font-family="Inter,Inter_MSFontService,sans-serif" font-weight="700" font-size="12" transform="translate(818.322 400)">64</text><text fill="#FFFFFF" font-family="Inter,Inter_MSFontService,sans-serif" font-weight="700" font-size="12" transform="translate(834.322 400)">%</text><text fill="#FFFFFF" font-family="Inter,Inter_MSFontService,sans-serif" font-weight="700" font-size="12" transform="translate(867.609 409)">56</text><text fill="#FFFFFF" font-family="Inter,Inter_MSFontService,sans-serif" font-weight="700" font-size="12" transform="translate(883.609 409)">%</text><text fill="#FFFFFF" font-family="Inter,Inter_MSFontService,sans-serif" font-weight="700" font-size="12" transform="translate(916.432 405)">60</text><text fill="#FFFFFF" font-family="Inter,Inter_MSFontService,sans-serif" font-weight="700" font-size="12" transform="translate(932.432 405)">%</text><text fill="#FFFFFF" font-family="Inter,Inter_MSFontService,sans-serif" font-weight="700" font-size="12" transform="translate(965.782 406)">59</text><text fill="#FFFFFF" font-family="Inter,Inter_MSFontService,sans-serif" font-weight="700" font-size="12" transform="translate(981.782 406)">%</text><text fill="#FFFFFF" font-family="Inter,Inter_MSFontService,sans-serif" font-weight="700" font-size="12" transform="translate(1014.87 409)">56</text><text fill="#FFFFFF" font-family="Inter,Inter_MSFontService,sans-serif" font-weight="700" font-size="12" transform="translate(1030.87 409)">%</text><text fill="#FFFFFF" font-family="Inter,Inter_MSFontService,sans-serif" font-weight="700" font-size="12" transform="translate(1063.76 418)">49</text><text fill="#FFFFFF" font-family="Inter,Inter_MSFontService,sans-serif" font-weight="700" font-size="12" transform="translate(1079.76 418)">%</text><text fill="#FFFFFF" font-family="Inter,Inter_MSFontService,sans-serif" font-weight="700" font-size="12" transform="translate(1113.13 402)">62</text><text fill="#FFFFFF" font-family="Inter,Inter_MSFontService,sans-serif" font-weight="700" font-size="12" transform="translate(1129.13 402)">%</text><text fill="#FFFFFF" font-family="Inter,Inter_MSFontService,sans-serif" font-weight="700" font-size="12" transform="translate(181.513 311)">15</text><text fill="#FFFFFF" font-family="Inter,Inter_MSFontService,sans-serif" font-weight="700" font-size="12" transform="translate(195.513 311)">%</text><text fill="#FFFFFF" font-family="Inter,Inter_MSFontService,sans-serif" font-weight="700" font-size="12" transform="translate(230.509 305)">13</text><text fill="#FFFFFF" font-family="Inter,Inter_MSFontService,sans-serif" font-weight="700" font-size="12" transform="translate(244.509 305)">%</text><text fill="#FFFFFF" font-family="Inter,Inter_MSFontService,sans-serif" font-weight="700" font-size="12" transform="translate(279.586 311)">18</text><text fill="#FFFFFF" font-family="Inter,Inter_MSFontService,sans-serif" font-weight="700" font-size="12" transform="translate(293.586 311)">%</text><text fill="#FFFFFF" font-family="Inter,Inter_MSFontService,sans-serif" font-weight="700" font-size="12" transform="translate(328.859 305)">21</text><text fill="#FFFFFF" font-family="Inter,Inter_MSFontService,sans-serif" font-weight="700" font-size="12" transform="translate(342.859 305)">%</text><text fill="#FFFFFF" font-family="Inter,Inter_MSFontService,sans-serif" font-weight="700" font-size="12" transform="translate(378.883 311)">11</text><text fill="#FFFFFF" font-family="Inter,Inter_MSFontService,sans-serif" font-weight="700" font-size="12" transform="translate(390.883 311)">%</text><text fill="#FFFFFF" font-family="Inter,Inter_MSFontService,sans-serif" font-weight="700" font-size="12" transform="translate(426.683 289)">10</text><text fill="#FFFFFF" font-family="Inter,Inter_MSFontService,sans-serif" font-weight="700" font-size="12" transform="translate(440.683 289)">%</text><text fill="#FFFFFF" font-family="Inter,Inter_MSFontService,sans-serif" font-weight="700" font-size="12" transform="translate(477.056 283)">11</text><text fill="#FFFFFF" font-family="Inter,Inter_MSFontService,sans-serif" font-weight="700" font-size="12" transform="translate(489.056 283)">%</text><text fill="#FFFFFF" font-family="Inter,Inter_MSFontService,sans-serif" font-weight="700" font-size="12" transform="translate(525.029 293)">13</text><text fill="#FFFFFF" font-family="Inter,Inter_MSFontService,sans-serif" font-weight="700" font-size="12" transform="translate(539.029 293)">%</text><text fill="#FFFFFF" font-family="Inter,Inter_MSFontService,sans-serif" font-weight="700" font-size="12" transform="translate(573.006 292)">20</text><text fill="#FFFFFF" font-family="Inter,Inter_MSFontService,sans-serif" font-weight="700" font-size="12" transform="translate(589.006 292)">%</text><text fill="#FFFFFF" font-family="Inter,Inter_MSFontService,sans-serif" font-weight="700" font-size="12" transform="translate(624.316 291)">11</text><text fill="#FFFFFF" font-family="Inter,Inter_MSFontService,sans-serif" font-weight="700" font-size="12" transform="translate(636.316 291)">%</text><text fill="#FFFFFF" font-family="Inter,Inter_MSFontService,sans-serif" font-weight="700" font-size="12" transform="translate(672.676 307)">17</text><text fill="#FFFFFF" font-family="Inter,Inter_MSFontService,sans-serif" font-weight="700" font-size="12" transform="translate(685.676 307)">%</text><text fill="#FFFFFF" font-family="Inter,Inter_MSFontService,sans-serif" font-weight="700" font-size="12" transform="translate(721.466 297)">15</text><text fill="#FFFFFF" font-family="Inter,Inter_MSFontService,sans-serif" font-weight="700" font-size="12" transform="translate(735.466 297)">%</text><text fill="#FFFFFF" font-family="Inter,Inter_MSFontService,sans-serif" font-weight="700" font-size="12" transform="translate(770.352 299)">14</text><text fill="#FFFFFF" font-family="Inter,Inter_MSFontService,sans-serif" font-weight="700" font-size="12" transform="translate(784.352 299)">%</text><text fill="#FFFFFF" font-family="Inter,Inter_MSFontService,sans-serif" font-weight="700" font-size="12" transform="translate(819.539 300)">18</text><text fill="#FFFFFF" font-family="Inter,Inter_MSFontService,sans-serif" font-weight="700" font-size="12" transform="translate(833.539 300)">%</text><text fill="#FFFFFF" font-family="Inter,Inter_MSFontService,sans-serif" font-weight="700" font-size="12" transform="translate(869.022 319)">17</text><text fill="#FFFFFF" font-family="Inter,Inter_MSFontService,sans-serif" font-weight="700" font-size="12" transform="translate(882.022 319)">%</text><text fill="#FFFFFF" font-family="Inter,Inter_MSFontService,sans-serif" font-weight="700" font-size="12" transform="translate(916.962 304)">22</text><text fill="#FFFFFF" font-family="Inter,Inter_MSFontService,sans-serif" font-weight="700" font-size="12" transform="translate(932.962 304)">%</text><text fill="#FFFFFF" font-family="Inter,Inter_MSFontService,sans-serif" font-weight="700" font-size="12" transform="translate(966.985 307)">21</text><text fill="#FFFFFF" font-family="Inter,Inter_MSFontService,sans-serif" font-weight="700" font-size="12" transform="translate(980.985 307)">%</text><text fill="#FFFFFF" font-family="Inter,Inter_MSFontService,sans-serif" font-weight="700" font-size="12" transform="translate(1015.89 316)">19</text><text fill="#FFFFFF" font-family="Inter,Inter_MSFontService,sans-serif" font-weight="700" font-size="12" transform="translate(1029.89 316)">%</text><text fill="#FFFFFF" font-family="Inter,Inter_MSFontService,sans-serif" font-weight="700" font-size="12" transform="translate(1064.14 327)">25</text><text fill="#FFFFFF" font-family="Inter,Inter_MSFontService,sans-serif" font-weight="700" font-size="12" transform="translate(1080.14 327)">%</text><text fill="#FFFFFF" font-family="Inter,Inter_MSFontService,sans-serif" font-weight="700" font-size="12" transform="translate(1114.25 299)">21</text><text fill="#FFFFFF" font-family="Inter,Inter_MSFontService,sans-serif" font-weight="700" font-size="12" transform="translate(1128.25 299)">%</text><text fill="#404040" font-family="Inter,Inter_MSFontService,sans-serif" font-weight="700" font-size="12" transform="translate(180.576 262)">25</text><text fill="#404040" font-family="Inter,Inter_MSFontService,sans-serif" font-weight="700" font-size="12" transform="translate(196.576 262)">%</text><text fill="#404040" font-family="Inter,Inter_MSFontService,sans-serif" font-weight="700" font-size="12" transform="translate(229.573 260)">23</text><text fill="#404040" font-family="Inter,Inter_MSFontService,sans-serif" font-weight="700" font-size="12" transform="translate(245.573 260)">%</text><text fill="#404040" font-family="Inter,Inter_MSFontService,sans-serif" font-weight="700" font-size="12" transform="translate(278.659 261)">23</text><text fill="#404040" font-family="Inter,Inter_MSFontService,sans-serif" font-weight="700" font-size="12" transform="translate(294.659 261)">%</text><text fill="#404040" font-family="Inter,Inter_MSFontService,sans-serif" font-weight="700" font-size="12" transform="translate(328.679 256)">19</text><text fill="#404040" font-family="Inter,Inter_MSFontService,sans-serif" font-weight="700" font-size="12" transform="translate(342.679 256)">%</text><text fill="#404040" font-family="Inter,Inter_MSFontService,sans-serif" font-weight="700" font-size="12" transform="translate(376.829 265)">26</text><text fill="#404040" font-family="Inter,Inter_MSFontService,sans-serif" font-weight="700" font-size="12" transform="translate(392.829 265)">%</text><text fill="#404040" font-family="Inter,Inter_MSFontService,sans-serif" font-weight="700" font-size="12" transform="translate(426.846 255)">18</text><text fill="#404040" font-family="Inter,Inter_MSFontService,sans-serif" font-weight="700" font-size="12" transform="translate(440.846 255)">%</text><text fill="#404040" font-family="Inter,Inter_MSFontService,sans-serif" font-weight="700" font-size="12" transform="translate(476.033 251)">15</text><text fill="#404040" font-family="Inter,Inter_MSFontService,sans-serif" font-weight="700" font-size="12" transform="translate(490.033 251)">%</text><text fill="#404040" font-family="Inter,Inter_MSFontService,sans-serif" font-weight="700" font-size="12" transform="translate(525.019 254)">18</text><text fill="#404040" font-family="Inter,Inter_MSFontService,sans-serif" font-weight="700" font-size="12" transform="translate(539.019 254)">%</text><text fill="#404040" font-family="Inter,Inter_MSFontService,sans-serif" font-weight="700" font-size="12" transform="translate(574.006 250)">14</text><text fill="#404040" font-family="Inter,Inter_MSFontService,sans-serif" font-weight="700" font-size="12" transform="translate(588.006 250)">%</text><text fill="#404040" font-family="Inter,Inter_MSFontService,sans-serif" font-weight="700" font-size="12" transform="translate(623.192 254)">18</text><text fill="#404040" font-family="Inter,Inter_MSFontService,sans-serif" font-weight="700" font-size="12" transform="translate(637.192 254)">%</text><text fill="#404040" font-family="Inter,Inter_MSFontService,sans-serif" font-weight="700" font-size="12" transform="translate(671.529 259)">22</text><text fill="#404040" font-family="Inter,Inter_MSFontService,sans-serif" font-weight="700" font-size="12" transform="translate(687.529 259)">%</text><text fill="#404040" font-family="Inter,Inter_MSFontService,sans-serif" font-weight="700" font-size="12" transform="translate(721.372 255)">19</text><text fill="#404040" font-family="Inter,Inter_MSFontService,sans-serif" font-weight="700" font-size="12" transform="translate(735.372 255)">%</text><text fill="#404040" font-family="Inter,Inter_MSFontService,sans-serif" font-weight="700" font-size="12" transform="translate(769.352 257)">20</text><text fill="#404040" font-family="Inter,Inter_MSFontService,sans-serif" font-weight="700" font-size="12" transform="translate(785.352 257)">%</text><text fill="#404040" font-family="Inter,Inter_MSFontService,sans-serif" font-weight="700" font-size="12" transform="translate(819.539 255)">18</text><text fill="#404040" font-family="Inter,Inter_MSFontService,sans-serif" font-weight="700" font-size="12" transform="translate(833.539 255)">%</text><text fill="#404040" font-family="Inter,Inter_MSFontService,sans-serif" font-weight="700" font-size="12" transform="translate(868.085 265)">27</text><text fill="#404040" font-family="Inter,Inter_MSFontService,sans-serif" font-weight="700" font-size="12" transform="translate(883.085 265)">%</text><text fill="#404040" font-family="Inter,Inter_MSFontService,sans-serif" font-weight="700" font-size="12" transform="translate(917.712 254)">18</text><text fill="#404040" font-family="Inter,Inter_MSFontService,sans-serif" font-weight="700" font-size="12" transform="translate(931.712 254)">%</text><text fill="#404040" font-family="Inter,Inter_MSFontService,sans-serif" font-weight="700" font-size="12" transform="translate(965.699 257)">20</text><text fill="#404040" font-family="Inter,Inter_MSFontService,sans-serif" font-weight="700" font-size="12" transform="translate(981.699 257)">%</text><text fill="#404040" font-family="Inter,Inter_MSFontService,sans-serif" font-weight="700" font-size="12" transform="translate(1014.85 262)">24</text><text fill="#404040" font-family="Inter,Inter_MSFontService,sans-serif" font-weight="700" font-size="12" transform="translate(1030.85 262)">%</text><text fill="#404040" font-family="Inter,Inter_MSFontService,sans-serif" font-weight="700" font-size="12" transform="translate(1064.04 265)">26</text><text fill="#404040" font-family="Inter,Inter_MSFontService,sans-serif" font-weight="700" font-size="12" transform="translate(1080.04 265)">%</text><text fill="#404040" font-family="Inter,Inter_MSFontService,sans-serif" font-weight="700" font-size="12" transform="translate(1114.07 252)">16</text><text fill="#404040" font-family="Inter,Inter_MSFontService,sans-serif" font-weight="700" font-size="12" transform="translate(1128.07 252)">%</text><text fill="#585F70" font-family="Inter,Inter_MSFontService,sans-serif" font-weight="400" font-size="13" transform="translate(137.423 478)">0</text><text fill="#585F70" font-family="Inter,Inter_MSFontService,sans-serif" font-weight="400" font-size="13" transform="translate(145.423 478)">%</text><text fill="#585F70" font-family="Inter,Inter_MSFontService,sans-serif" font-weight="400" font-size="13" transform="translate(131.529 453)">10</text><text fill="#585F70" font-family="Inter,Inter_MSFontService,sans-serif" font-weight="400" font-size="13" transform="translate(145.529 453)">%</text><text fill="#585F70" font-family="Inter,Inter_MSFontService,sans-serif" font-weight="400" font-size="13" transform="translate(129.356 428)">20</text><text fill="#585F70" font-family="Inter,Inter_MSFontService,sans-serif" font-weight="400" font-size="13" transform="translate(145.356 428)">%</text><text fill="#585F70" font-family="Inter,Inter_MSFontService,sans-serif" font-weight="400" font-size="13" transform="translate(128.936 404)">30</text><text fill="#585F70" font-family="Inter,Inter_MSFontService,sans-serif" font-weight="400" font-size="13" transform="translate(144.936 404)">%</text><text fill="#585F70" font-family="Inter,Inter_MSFontService,sans-serif" font-weight="400" font-size="13" transform="translate(128.863 379)">40</text><text fill="#585F70" font-family="Inter,Inter_MSFontService,sans-serif" font-weight="400" font-size="13" transform="translate(144.863 379)">%</text><text fill="#585F70" font-family="Inter,Inter_MSFontService,sans-serif" font-weight="400" font-size="13" transform="translate(129.316 355)">50</text><text fill="#585F70" font-family="Inter,Inter_MSFontService,sans-serif" font-weight="400" font-size="13" transform="translate(145.316 355)">%</text><text fill="#585F70" font-family="Inter,Inter_MSFontService,sans-serif" font-weight="400" font-size="13" transform="translate(129.109 330)">60</text><text fill="#585F70" font-family="Inter,Inter_MSFontService,sans-serif" font-weight="400" font-size="13" transform="translate(145.109 330)">%</text><text fill="#585F70" font-family="Inter,Inter_MSFontService,sans-serif" font-weight="400" font-size="13" transform="translate(129.809 305)">70</text><text fill="#585F70" font-family="Inter,Inter_MSFontService,sans-serif" font-weight="400" font-size="13" transform="translate(144.809 305)">%</text><text fill="#585F70" font-family="Inter,Inter_MSFontService,sans-serif" font-weight="400" font-size="13" transform="translate(129.203 281)">80</text><text fill="#585F70" font-family="Inter,Inter_MSFontService,sans-serif" font-weight="400" font-size="13" transform="translate(145.203 281)">%</text><text fill="#585F70" font-family="Inter,Inter_MSFontService,sans-serif" font-weight="400" font-size="13" transform="translate(129.109 256)">90</text><text fill="#585F70" font-family="Inter,Inter_MSFontService,sans-serif" font-weight="400" font-size="13" transform="translate(145.109 256)">%</text><text fill="#585F70" font-family="Inter,Inter_MSFontService,sans-serif" font-weight="400" font-size="13" transform="translate(123.196 232)">100</text><text fill="#585F70" font-family="Inter,Inter_MSFontService,sans-serif" font-weight="400" font-size="13" transform="translate(145.196 232)">%</text><text fill="#585F70" font-family="Inter,Inter_MSFontService,sans-serif" font-weight="400" font-size="13" transform="translate(178.253 495)">1</text><text fill="#585F70" font-family="Inter,Inter_MSFontService,sans-serif" font-weight="400" font-size="13" transform="translate(184.253 495)">Q</text><text fill="#585F70" font-family="Inter,Inter_MSFontService,sans-serif" font-weight="400" font-size="13" transform="translate(194.253 495)">19</text><text fill="#585F70" font-family="Inter,Inter_MSFontService,sans-serif" font-weight="400" font-size="13" transform="translate(226.253 495)">2</text><text fill="#585F70" font-family="Inter,Inter_MSFontService,sans-serif" font-weight="400" font-size="13" transform="translate(234.253 495)">Q</text><text fill="#585F70" font-family="Inter,Inter_MSFontService,sans-serif" font-weight="400" font-size="13" transform="translate(244.253 495)">19</text><text fill="#585F70" font-family="Inter,Inter_MSFontService,sans-serif" font-weight="400" font-size="13" transform="translate(275.129 495)">3</text><text fill="#585F70" font-family="Inter,Inter_MSFontService,sans-serif" font-weight="400" font-size="13" transform="translate(283.129 495)">Q</text><text fill="#585F70" font-family="Inter,Inter_MSFontService,sans-serif" font-weight="400" font-size="13" transform="translate(293.129 495)">19</text><text fill="#585F70" font-family="Inter,Inter_MSFontService,sans-serif" font-weight="400" font-size="13" transform="translate(324.179 495)">4</text><text fill="#585F70" font-family="Inter,Inter_MSFontService,sans-serif" font-weight="400" font-size="13" transform="translate(332.179 495)">Q</text><text fill="#585F70" font-family="Inter,Inter_MSFontService,sans-serif" font-weight="400" font-size="13" transform="translate(342.179 495)">19</text><text fill="#585F70" font-family="Inter,Inter_MSFontService,sans-serif" font-weight="400" font-size="13" transform="translate(373.503 495)">1</text><text fill="#585F70" font-family="Inter,Inter_MSFontService,sans-serif" font-weight="400" font-size="13" transform="translate(379.503 495)">Q</text><text fill="#585F70" font-family="Inter,Inter_MSFontService,sans-serif" font-weight="400" font-size="13" transform="translate(389.503 495)">20</text><text fill="#585F70" font-family="Inter,Inter_MSFontService,sans-serif" font-weight="400" font-size="13" transform="translate(421.503 495)">2</text><text fill="#585F70" font-family="Inter,Inter_MSFontService,sans-serif" font-weight="400" font-size="13" transform="translate(429.503 495)">Q</text><text fill="#585F70" font-family="Inter,Inter_MSFontService,sans-serif" font-weight="400" font-size="13" transform="translate(439.503 495)">20</text><text fill="#585F70" font-family="Inter,Inter_MSFontService,sans-serif" font-weight="400" font-size="13" transform="translate(470.379 495)">3</text><text fill="#585F70" font-family="Inter,Inter_MSFontService,sans-serif" font-weight="400" font-size="13" transform="translate(478.379 495)">Q</text><text fill="#585F70" font-family="Inter,Inter_MSFontService,sans-serif" font-weight="400" font-size="13" transform="translate(488.379 495)">20</text><text fill="#585F70" font-family="Inter,Inter_MSFontService,sans-serif" font-weight="400" font-size="13" transform="translate(519.429 495)">4</text><text fill="#585F70" font-family="Inter,Inter_MSFontService,sans-serif" font-weight="400" font-size="13" transform="translate(527.429 495)">Q</text><text fill="#585F70" font-family="Inter,Inter_MSFontService,sans-serif" font-weight="400" font-size="13" transform="translate(537.429 495)">20</text><text fill="#585F70" font-family="Inter,Inter_MSFontService,sans-serif" font-weight="400" font-size="13" transform="translate(571.069 495)">1</text><text fill="#585F70" font-family="Inter,Inter_MSFontService,sans-serif" font-weight="400" font-size="13" transform="translate(577.069 495)">Q</text><text fill="#585F70" font-family="Inter,Inter_MSFontService,sans-serif" font-weight="400" font-size="13" transform="translate(587.069 495)">21</text><text fill="#585F70" font-family="Inter,Inter_MSFontService,sans-serif" font-weight="400" font-size="13" transform="translate(619.069 495)">2</text><text fill="#585F70" font-family="Inter,Inter_MSFontService,sans-serif" font-weight="400" font-size="13" transform="translate(627.069 495)">Q</text><text fill="#585F70" font-family="Inter,Inter_MSFontService,sans-serif" font-weight="400" font-size="13" transform="translate(637.069 495)">21</text><text fill="#585F70" font-family="Inter,Inter_MSFontService,sans-serif" font-weight="400" font-size="13" transform="translate(667.946 495)">3</text><text fill="#585F70" font-family="Inter,Inter_MSFontService,sans-serif" font-weight="400" font-size="13" transform="translate(675.946 495)">Q</text><text fill="#585F70" font-family="Inter,Inter_MSFontService,sans-serif" font-weight="400" font-size="13" transform="translate(685.946 495)">21</text><text fill="#585F70" font-family="Inter,Inter_MSFontService,sans-serif" font-weight="400" font-size="13" transform="translate(716.996 495)">4</text><text fill="#585F70" font-family="Inter,Inter_MSFontService,sans-serif" font-weight="400" font-size="13" transform="translate(724.996 495)">Q</text><text fill="#585F70" font-family="Inter,Inter_MSFontService,sans-serif" font-weight="400" font-size="13" transform="translate(734.996 495)">21</text><text fill="#585F70" font-family="Inter,Inter_MSFontService,sans-serif" font-weight="400" font-size="13" transform="translate(766.329 495)">1</text><text fill="#585F70" font-family="Inter,Inter_MSFontService,sans-serif" font-weight="400" font-size="13" transform="translate(772.329 495)">Q</text><text fill="#585F70" font-family="Inter,Inter_MSFontService,sans-serif" font-weight="400" font-size="13" transform="translate(782.329 495)">22</text><text fill="#585F70" font-family="Inter,Inter_MSFontService,sans-serif" font-weight="400" font-size="13" transform="translate(814.329 495)">2</text><text fill="#585F70" font-family="Inter,Inter_MSFontService,sans-serif" font-weight="400" font-size="13" transform="translate(822.329 495)">Q</text><text fill="#585F70" font-family="Inter,Inter_MSFontService,sans-serif" font-weight="400" font-size="13" transform="translate(832.329 495)">22</text><text fill="#585F70" font-family="Inter,Inter_MSFontService,sans-serif" font-weight="400" font-size="13" transform="translate(863.205 495)">3</text><text fill="#585F70" font-family="Inter,Inter_MSFontService,sans-serif" font-weight="400" font-size="13" transform="translate(871.205 495)">Q</text><text fill="#585F70" font-family="Inter,Inter_MSFontService,sans-serif" font-weight="400" font-size="13" transform="translate(881.205 495)">22</text><text fill="#585F70" font-family="Inter,Inter_MSFontService,sans-serif" font-weight="400" font-size="13" transform="translate(912.256 495)">4</text><text fill="#585F70" font-family="Inter,Inter_MSFontService,sans-serif" font-weight="400" font-size="13" transform="translate(920.256 495)">Q</text><text fill="#585F70" font-family="Inter,Inter_MSFontService,sans-serif" font-weight="400" font-size="13" transform="translate(930.256 495)">22</text><text fill="#585F70" font-family="Inter,Inter_MSFontService,sans-serif" font-weight="400" font-size="13" transform="translate(962.465 495)">1</text><text fill="#585F70" font-family="Inter,Inter_MSFontService,sans-serif" font-weight="400" font-size="13" transform="translate(968.465 495)">Q</text><text fill="#585F70" font-family="Inter,Inter_MSFontService,sans-serif" font-weight="400" font-size="13" transform="translate(978.465 495)">23</text><text fill="#585F70" font-family="Inter,Inter_MSFontService,sans-serif" font-weight="400" font-size="13" transform="translate(1010.47 495)">2</text><text fill="#585F70" font-family="Inter,Inter_MSFontService,sans-serif" font-weight="400" font-size="13" transform="translate(1018.47 495)">Q</text><text fill="#585F70" font-family="Inter,Inter_MSFontService,sans-serif" font-weight="400" font-size="13" transform="translate(1028.46 495)">23</text><text fill="#585F70" font-family="Inter,Inter_MSFontService,sans-serif" font-weight="400" font-size="13" transform="translate(1059.34 495)">3</text><text fill="#585F70" font-family="Inter,Inter_MSFontService,sans-serif" font-weight="400" font-size="13" transform="translate(1067.34 495)">Q</text><text fill="#585F70" font-family="Inter,Inter_MSFontService,sans-serif" font-weight="400" font-size="13" transform="translate(1077.34 495)">23</text><text fill="#585F70" font-family="Inter,Inter_MSFontService,sans-serif" font-weight="400" font-size="13" transform="translate(1108.39 495)">4</text><text fill="#585F70" font-family="Inter,Inter_MSFontService,sans-serif" font-weight="400" font-size="13" transform="translate(1116.39 495)">Q</text><text fill="#585F70" font-family="Inter,Inter_MSFontService,sans-serif" font-weight="400" font-size="13" transform="translate(1126.39 495)">23</text></g></svg>