<svg width="384" height="384" xmlns="http://www.w3.org/2000/svg" xmlns:xlink="http://www.w3.org/1999/xlink" xml:space="preserve" overflow="hidden"><g transform="translate(-384 -22)"><path d="M412 191 486 191 486 365 412 365ZM538 212 613 212 613 365 538 365ZM665 171 739 171 739 365 665 365Z" fill="#36A2EB"/><path d="M412 25 486 25 486 191 412 191ZM538 25 613 25 613 212 538 212ZM665 25 739 25 739 171 665 171Z" fill="#FF6384"/><path d="M385.5 365.5 764.5 365.5" stroke="#D9D9D9" stroke-linejoin="round" stroke-miterlimit="10" fill="none" fill-rule="evenodd"/><text fill="#FFFFFF" font-family="Inter,Inter_MSFontService,sans-serif" font-weight="700" font-size="20" transform="translate(429.331 285)">51</text><text fill="#FFFFFF" font-family="Inter,Inter_MSFontService,sans-serif" font-weight="700" font-size="20" transform="translate(451.331 285)">% </text><text fill="#FFFFFF" font-family="Inter,Inter_MSFontService,sans-serif" font-weight="700" font-size="20" transform="translate(553.611 296)">45</text><text fill="#FFFFFF" font-family="Inter,Inter_MSFontService,sans-serif" font-weight="700" font-size="20" transform="translate(580.611 296)">% </text><text fill="#FFFFFF" font-family="Inter,Inter_MSFontService,sans-serif" font-weight="700" font-size="20" transform="translate(680.764 275)">57</text><text fill="#FFFFFF" font-family="Inter,Inter_MSFontService,sans-serif" font-weight="700" font-size="20" transform="translate(705.764 275)">% </text><text fill="#FFFFFF" font-family="Inter,Inter_MSFontService,sans-serif" font-weight="700" font-size="20" transform="translate(427.137 115)">49</text><text fill="#FFFFFF" font-family="Inter,Inter_MSFontService,sans-serif" font-weight="700" font-size="20" transform="translate(454.137 115)">% </text><text fill="#FFFFFF" font-family="Inter,Inter_MSFontService,sans-serif" font-weight="700" font-size="20" transform="translate(553.944 125)">55</text><text fill="#FFFFFF" font-family="Inter,Inter_MSFontService,sans-serif" font-weight="700" font-size="20" transform="translate(579.944 125)">% </text><text fill="#FFFFFF" font-family="Inter,Inter_MSFontService,sans-serif" font-weight="700" font-size="20" transform="translate(679.784 105)">43</text><text fill="#FFFFFF" font-family="Inter,Inter_MSFontService,sans-serif" font-weight="700" font-size="20" transform="translate(706.784 105)">% </text><text fill="#404040" font-family="Inter Medium,Inter Medium_MSFontService,sans-serif" font-weight="500" font-size="21" transform="translate(407.104 400)">StockX</text><text fill="#404040" font-family="Inter Medium,Inter Medium_MSFontService,sans-serif" font-weight="500" font-size="21" transform="translate(545.324 400)">Goat</text><text fill="#404040" font-family="Inter Medium,Inter Medium_MSFontService,sans-serif" font-weight="500" font-size="21" transform="translate(659.531 400)">Grailed</text></g></svg>