<svg width="674" height="91" xmlns="http://www.w3.org/2000/svg" xmlns:xlink="http://www.w3.org/1999/xlink" xml:space="preserve" overflow="hidden"><g transform="translate(-962 -87)"><g><path d="M966 127C966 114.298 976.074 104 988.5 104 1000.93 104 1011 114.298 1011 127 1011 139.702 1000.93 150 988.5 150 976.074 150 966 139.702 966 127Z" fill="#36A2EB" fill-rule="evenodd" fill-opacity="1"/><text fill="#585F70" fill-opacity="1" font-family="Calibri,Calibri_MSFontService,sans-serif" font-style="normal" font-variant="normal" font-weight="400" font-stretch="normal" font-size="41" text-anchor="start" direction="ltr" writing-mode="lr-tb" unicode-bidi="normal" text-decoration="none" transform="matrix(1 0 0 1 1025.31 141)">StockX</text><path d="M1219 127C1219 114.298 1229.07 104 1241.5 104 1253.93 104 1264 114.298 1264 127 1264 139.702 1253.93 150 1241.5 150 1229.07 150 1219 139.702 1219 127Z" fill="#FF6384" fill-rule="evenodd" fill-opacity="1"/><text fill="#585F70" fill-opacity="1" font-family="Calibri,Calibri_MSFontService,sans-serif" font-style="normal" font-variant="normal" font-weight="400" font-stretch="normal" font-size="41" text-anchor="start" direction="ltr" writing-mode="lr-tb" unicode-bidi="normal" text-decoration="none" transform="matrix(1 0 0 1 1278.21 141)">Goat</text><path d="M1429 127C1429 114.298 1439.3 104 1452 104 1464.7 104 1475 114.298 1475 127 1475 139.702 1464.7 150 1452 150 1439.3 150 1429 139.702 1429 127Z" fill="#FF9F40" fill-rule="evenodd" fill-opacity="1"/><text fill="#585F70" fill-opacity="1" font-family="Calibri,Calibri_MSFontService,sans-serif" font-style="normal" font-variant="normal" font-weight="400" font-stretch="normal" font-size="41" text-anchor="start" direction="ltr" writing-mode="lr-tb" unicode-bidi="normal" text-decoration="none" transform="matrix(1 0 0 1 1488.67 141)">Grailed</text></g></g></svg>