<svg width="389" height="288" xmlns="http://www.w3.org/2000/svg" xmlns:xlink="http://www.w3.org/1999/xlink" xml:space="preserve" overflow="hidden"><g transform="translate(-770 -50)"><path d="M819 176 885 176 885 293 819 293ZM931 177 997 177 997 293 931 293ZM1043 126 1109 126 1109 293 1043 293Z" fill="#36A2EB"/><path d="M819 170 885 170 885 176 819 176ZM931 174 997 174 997 177 931 177ZM1043 120 1109 120 1109 126 1043 126Z" fill="#FF9F40"/><path d="M819 159 885 159 885 170 819 170ZM931 172 997 172 997 174 931 174ZM1043 117 1109 117 1109 120 1043 120Z" fill="#FFCD56"/><path d="M819 73 885 73 885 159 819 159ZM931 83 997 83 997 172 931 172ZM1043 72 1109 72 1109 117 1043 117Z" fill="#00B050"/><path d="M819 71 885 71 885 73 819 73ZM931 65 997 65 997 83 931 83ZM1043 65 1109 65 1109 72 1043 72Z" fill="#92D050"/><path d="M819 66 885 66 885 71 819 71Z" fill="#C00000"/><path d="M819 65 885 65 885 66 819 66Z" fill="#FF6384"/><path d="M795.5 292.5 1131.5 292.5" stroke="#D9D9D9" stroke-linejoin="round" stroke-miterlimit="10" fill="none" fill-rule="evenodd"/><text fill="#FFFFFF" font-family="Inter,Inter_MSFontService,sans-serif" font-weight="700" font-size="16" transform="translate(835.829 240)">51</text><text fill="#FFFFFF" font-family="Inter,Inter_MSFontService,sans-serif" font-weight="700" font-size="16" transform="translate(853.829 240)">% </text><text fill="#FFFFFF" font-family="Inter,Inter_MSFontService,sans-serif" font-weight="700" font-size="16" transform="translate(947.84 240)">51</text><text fill="#FFFFFF" font-family="Inter,Inter_MSFontService,sans-serif" font-weight="700" font-size="16" transform="translate(965.84 240)">% </text><text fill="#FFFFFF" font-family="Inter,Inter_MSFontService,sans-serif" font-weight="700" font-size="16" transform="translate(1058.89 215)">73</text><text fill="#FFFFFF" font-family="Inter,Inter_MSFontService,sans-serif" font-weight="700" font-size="16" transform="translate(1079.89 215)">% </text><text fill="#404040" font-family="Inter,Inter_MSFontService,sans-serif" font-weight="700" font-size="16" transform="translate(839.62 170)">5</text><text fill="#404040" font-family="Inter,Inter_MSFontService,sans-serif" font-weight="700" font-size="16" transform="translate(849.62 170)">% </text><text fill="#FFFFFF" font-family="Inter,Inter_MSFontService,sans-serif" font-weight="700" font-size="16" transform="translate(834.216 121)">38</text><text fill="#FFFFFF" font-family="Inter,Inter_MSFontService,sans-serif" font-weight="700" font-size="16" transform="translate(856.216 121)">% </text><text fill="#FFFFFF" font-family="Inter,Inter_MSFontService,sans-serif" font-weight="700" font-size="16" transform="translate(946.23 133)">39</text><text fill="#FFFFFF" font-family="Inter,Inter_MSFontService,sans-serif" font-weight="700" font-size="16" transform="translate(968.23 133)">% </text><text fill="#FFFFFF" font-family="Inter,Inter_MSFontService,sans-serif" font-weight="700" font-size="16" transform="translate(1058.25 100)">20</text><text fill="#FFFFFF" font-family="Inter,Inter_MSFontService,sans-serif" font-weight="700" font-size="16" transform="translate(1079.25 100)">% </text><text fill="#404040" font-family="Inter,Inter_MSFontService,sans-serif" font-weight="700" font-size="16" transform="translate(951.5 80)">8</text><text fill="#404040" font-family="Inter,Inter_MSFontService,sans-serif" font-weight="700" font-size="16" transform="translate(962.5 80)">% </text><text fill="#404040" font-family="Inter Medium,Inter Medium_MSFontService,sans-serif" font-weight="500" font-size="19" transform="translate(814.902 323)">StockX</text><text fill="#404040" font-family="Inter Medium,Inter Medium_MSFontService,sans-serif" font-weight="500" font-size="19" transform="translate(937.32 323)">Goat</text><text fill="#404040" font-family="Inter Medium,Inter Medium_MSFontService,sans-serif" font-weight="500" font-size="19" transform="translate(1038.73 323)">Grailed</text></g></svg>