<svg width="339" height="330" xmlns="http://www.w3.org/2000/svg" xmlns:xlink="http://www.w3.org/1999/xlink" xml:space="preserve" overflow="hidden"><g transform="translate(-939 -1599)"><g><path d="M941 1638C941 1625.3 951.297 1615 964 1615 976.702 1615 987 1625.3 987 1638 987 1650.7 976.702 1661 964 1661 951.297 1661 941 1650.7 941 1638Z" fill="#00B050" fill-rule="evenodd" fill-opacity="1"/><text fill="#585F70" fill-opacity="1" font-family="Calibri,Calibri_MSFontService,sans-serif" font-style="normal" font-variant="normal" font-weight="400" font-stretch="normal" font-size="41" text-anchor="start" direction="ltr" writing-mode="lr-tb" unicode-bidi="normal" text-decoration="none" transform="matrix(1 0 0 1 1000.48 1652)">Organic Search</text><path d="M941 1717.5C941 1705.07 951.297 1695 964 1695 976.702 1695 987 1705.07 987 1717.5 987 1729.93 976.702 1740 964 1740 951.297 1740 941 1729.93 941 1717.5Z" fill="#92D050" fill-rule="evenodd" fill-opacity="1"/><text fill="#585F70" fill-opacity="1" font-family="Calibri,Calibri_MSFontService,sans-serif" font-style="normal" font-variant="normal" font-weight="400" font-stretch="normal" font-size="41" text-anchor="start" direction="ltr" writing-mode="lr-tb" unicode-bidi="normal" text-decoration="none" transform="matrix(1 0 0 1 1000.48 1732)">Organic Social</text><path d="M941 1797C941 1784.3 951.297 1774 964 1774 976.702 1774 987 1784.3 987 1797 987 1809.7 976.702 1820 964 1820 951.297 1820 941 1809.7 941 1797Z" fill="#C00000" fill-rule="evenodd" fill-opacity="1"/><text fill="#585F70" fill-opacity="1" font-family="Calibri,Calibri_MSFontService,sans-serif" font-style="normal" font-variant="normal" font-weight="400" font-stretch="normal" font-size="41" text-anchor="start" direction="ltr" writing-mode="lr-tb" unicode-bidi="normal" text-decoration="none" transform="matrix(1 0 0 1 1000.48 1811)">Paid Search</text><path d="M941 1876.5C941 1864.07 951.297 1854 964 1854 976.702 1854 987 1864.07 987 1876.5 987 1888.93 976.702 1899 964 1899 951.297 1899 941 1888.93 941 1876.5Z" fill="#FF6384" fill-rule="evenodd" fill-opacity="1"/><text fill="#585F70" fill-opacity="1" font-family="Calibri,Calibri_MSFontService,sans-serif" font-style="normal" font-variant="normal" font-weight="400" font-stretch="normal" font-size="41" text-anchor="start" direction="ltr" writing-mode="lr-tb" unicode-bidi="normal" text-decoration="none" transform="matrix(1 0 0 1 1000.48 1891)">Paid Social</text></g></g></svg>