<svg width="384" height="384" xmlns="http://www.w3.org/2000/svg" xmlns:xlink="http://www.w3.org/1999/xlink" xml:space="preserve" overflow="hidden"><g transform="matrix(1 0 0 1 0 -15)"><path d="M28 178 102 178 102 360 28 360ZM155 92 229 92 229 360 155 360ZM281 109 356 109 356 360 281 360Z" fill="#36A2EB"/><path d="M28 75 102 75 102 178 28 178ZM155 57 229 57 229 92 155 92ZM281 61 356 61 356 109 281 109Z" fill="#FF6384"/><path d="M28 47 102 47 102 75 28 75ZM155 40 229 40 229 57 155 57ZM281 30 356 30 356 61 281 61Z" fill="#FF9F40"/><path d="M28 40 102 40 102 47 28 47ZM155 30 229 30 229 40 155 40ZM281 20 356 20 356 30 281 30Z" fill="#FFCD56"/><path d="M28 20 102 20 102 40 28 40ZM155 20 229 20 229 30 155 30ZM281 16 356 16 356 20 281 20Z" fill="#4BC0C0"/><path d="M28 16 102 16 102 20 28 20ZM155 16 229 16 229 20 155 20Z" fill="#9966FF"/><path d="M1.5001 359.5 381.5 359.5" stroke="#D9D9D9" stroke-linejoin="round" stroke-miterlimit="10" fill="none" fill-rule="evenodd"/><text fill="#FFFFFF" font-family="Inter,Inter_MSFontService,sans-serif" font-weight="700" font-size="20" transform="translate(43.5719 276)">53</text><text fill="#FFFFFF" font-family="Inter,Inter_MSFontService,sans-serif" font-weight="700" font-size="20" transform="translate(69.5719 276)">% </text><text fill="#FFFFFF" font-family="Inter,Inter_MSFontService,sans-serif" font-weight="700" font-size="20" transform="translate(170.792 233)">78</text><text fill="#FFFFFF" font-family="Inter,Inter_MSFontService,sans-serif" font-weight="700" font-size="20" transform="translate(195.792 233)">% </text><text fill="#FFFFFF" font-family="Inter,Inter_MSFontService,sans-serif" font-weight="700" font-size="20" transform="translate(297.428 241)">73</text><text fill="#FFFFFF" font-family="Inter,Inter_MSFontService,sans-serif" font-weight="700" font-size="20" transform="translate(322.428 241)">% </text><text fill="#FFFFFF" font-family="Inter,Inter_MSFontService,sans-serif" font-weight="700" font-size="20" transform="translate(43.1352 133)">30</text><text fill="#FFFFFF" font-family="Inter,Inter_MSFontService,sans-serif" font-weight="700" font-size="20" transform="translate(70.1352 133)">% </text><text fill="#FFFFFF" font-family="Inter,Inter_MSFontService,sans-serif" font-weight="700" font-size="20" transform="translate(171.582 82)">10</text><text fill="#FFFFFF" font-family="Inter,Inter_MSFontService,sans-serif" font-weight="700" font-size="20" transform="translate(194.582 82)">% </text><text fill="#FFFFFF" font-family="Inter,Inter_MSFontService,sans-serif" font-weight="700" font-size="20" transform="translate(298.278 92)">14</text><text fill="#FFFFFF" font-family="Inter,Inter_MSFontService,sans-serif" font-weight="700" font-size="20" transform="translate(321.278 92)">% </text><text fill="#404040" font-family="Inter,Inter_MSFontService,sans-serif" font-weight="700" font-size="20" transform="translate(50.0019 68)">8</text><text fill="#404040" font-family="Inter,Inter_MSFontService,sans-serif" font-weight="700" font-size="20" transform="translate(63.0019 68)">% </text><text fill="#404040" font-family="Inter,Inter_MSFontService,sans-serif" font-weight="700" font-size="20" transform="translate(176.758 56)">5</text><text fill="#404040" font-family="Inter,Inter_MSFontService,sans-serif" font-weight="700" font-size="20" transform="translate(189.758 56)">% </text><text fill="#404040" font-family="Inter,Inter_MSFontService,sans-serif" font-weight="700" font-size="20" transform="translate(303.198 52)">9</text><text fill="#404040" font-family="Inter,Inter_MSFontService,sans-serif" font-weight="700" font-size="20" transform="translate(316.198 52)">% </text><text fill="#404040" font-family="Inter,Inter_MSFontService,sans-serif" font-weight="700" font-size="20" transform="translate(50.0119 37)">6</text><text fill="#404040" font-family="Inter,Inter_MSFontService,sans-serif" font-weight="700" font-size="20" transform="translate(63.0119 37)">% </text><text fill="#404040" font-family="Inter Medium,Inter Medium_MSFontService,sans-serif" font-weight="500" font-size="21" transform="translate(23.1985 394)">StockX</text><text fill="#404040" font-family="Inter Medium,Inter Medium_MSFontService,sans-serif" font-weight="500" font-size="21" transform="translate(161.692 394)">Goat</text><text fill="#404040" font-family="Inter Medium,Inter Medium_MSFontService,sans-serif" font-weight="500" font-size="21" transform="translate(276.171 394)">Grailed</text></g></svg>