<svg width="384" height="385" xmlns="http://www.w3.org/2000/svg" xmlns:xlink="http://www.w3.org/1999/xlink" xml:space="preserve" overflow="hidden"><defs><clipPath id="clip0"><rect x="448" y="167" width="384" height="384"/></clipPath><clipPath id="clip1"><rect x="448" y="167" width="384" height="384"/></clipPath><clipPath id="clip2"><rect x="448" y="167" width="384" height="384"/></clipPath></defs><g transform="translate(-448 -167)"><path d="M476 330 550 330 550 512 476 512ZM603 244 677 244 677 512 603 512ZM729 261 804 261 804 512 729 512Z" fill="#36A2EB"/><path d="M476 227 550 227 550 330 476 330ZM603 210 677 210 677 244 603 244ZM729 213 804 213 804 261 729 261Z" fill="#FF6384"/><path d="M476 200 550 200 550 227 476 227ZM603 193 677 193 677 210 603 210ZM729 182 804 182 804 213 729 213Z" fill="#FF9F40"/><path d="M476 193 550 193 550 200 476 200ZM603 182 677 182 677 193 603 193ZM729 172 804 172 804 182 729 182Z" fill="#FFCD56"/><path d="M476 172 550 172 550 193 476 193ZM603 172 677 172 677 182 603 182ZM729 169 804 169 804 172 729 172Z" fill="#4BC0C0"/><path d="M476 169 550 169 550 172 476 172ZM603 169 677 169 677 172 603 172Z" fill="#9966FF"/><path d="M449.5 512.5 829.5 512.5" stroke="#D9D9D9" stroke-linejoin="round" stroke-miterlimit="10" fill="none" fill-rule="evenodd"/><text fill="#FFFFFF" font-family="Inter,Inter_MSFontService,sans-serif" font-weight="700" font-size="19" transform="translate(493.015 428)">53</text><text fill="#FFFFFF" font-family="Inter,Inter_MSFontService,sans-serif" font-weight="700" font-size="19" transform="translate(518.015 428)">% </text><text fill="#FFFFFF" font-family="Inter,Inter_MSFontService,sans-serif" font-weight="700" font-size="19" transform="translate(620.195 385)">78</text><text fill="#FFFFFF" font-family="Inter,Inter_MSFontService,sans-serif" font-weight="700" font-size="19" transform="translate(644.195 385)">% </text><text fill="#FFFFFF" font-family="Inter,Inter_MSFontService,sans-serif" font-weight="700" font-size="19" transform="translate(746.828 394)">73</text><text fill="#FFFFFF" font-family="Inter,Inter_MSFontService,sans-serif" font-weight="700" font-size="19" transform="translate(770.828 394)">% </text><text fill="#FFFFFF" font-family="Inter,Inter_MSFontService,sans-serif" font-weight="700" font-size="19" transform="translate(492.609 285)">30</text><text fill="#FFFFFF" font-family="Inter,Inter_MSFontService,sans-serif" font-weight="700" font-size="19" transform="translate(518.609 285)">% </text><text fill="#FFFFFF" font-family="Inter,Inter_MSFontService,sans-serif" font-weight="700" font-size="19" transform="translate(620.932 234)">10</text><text fill="#FFFFFF" font-family="Inter,Inter_MSFontService,sans-serif" font-weight="700" font-size="19" transform="translate(642.932 234)">% </text><text fill="#FFFFFF" font-family="Inter,Inter_MSFontService,sans-serif" font-weight="700" font-size="19" transform="translate(747.621 244)">14</text><text fill="#FFFFFF" font-family="Inter,Inter_MSFontService,sans-serif" font-weight="700" font-size="19" transform="translate(769.621 244)">% </text><text fill="#404040" font-family="Inter,Inter_MSFontService,sans-serif" font-weight="700" font-size="19" transform="translate(499.018 220)">8</text><text fill="#404040" font-family="Inter,Inter_MSFontService,sans-serif" font-weight="700" font-size="19" transform="translate(512.018 220)">% </text><text fill="#404040" font-family="Inter,Inter_MSFontService,sans-serif" font-weight="700" font-size="19" transform="translate(625.762 208)">5</text><text fill="#404040" font-family="Inter,Inter_MSFontService,sans-serif" font-weight="700" font-size="19" transform="translate(637.762 208)">% </text><text fill="#404040" font-family="Inter,Inter_MSFontService,sans-serif" font-weight="700" font-size="19" transform="translate(752.211 205)">9</text><text fill="#404040" font-family="Inter,Inter_MSFontService,sans-serif" font-weight="700" font-size="19" transform="translate(765.211 205)">% </text><text fill="#404040" font-family="Inter,Inter_MSFontService,sans-serif" font-weight="700" font-size="19" transform="translate(499.025 189)">6</text><text fill="#404040" font-family="Inter,Inter_MSFontService,sans-serif" font-weight="700" font-size="19" transform="translate(512.025 189)">% </text><g clip-path="url(#clip0)"><text fill="#404040" font-family="Inter Medium,Inter Medium_MSFontService,sans-serif" font-weight="500" font-size="21" transform="translate(471.198 547)">StockX</text></g><g clip-path="url(#clip1)"><text fill="#404040" font-family="Inter Medium,Inter Medium_MSFontService,sans-serif" font-weight="500" font-size="21" transform="translate(609.692 547)">Goat</text></g><g clip-path="url(#clip2)"><text fill="#404040" font-family="Inter Medium,Inter Medium_MSFontService,sans-serif" font-weight="500" font-size="21" transform="translate(724.171 547)">Grailed</text></g></g></svg>