<svg width="384" height="384" xmlns="http://www.w3.org/2000/svg" xmlns:xlink="http://www.w3.org/1999/xlink" xml:space="preserve" overflow="hidden"><g transform="translate(-753 -9)"><path d="M782 177 856 177 856 352 782 352ZM908 178 982 178 982 352 908 352ZM1034 103 1109 103 1109 352 1034 352Z" fill="#36A2EB"/><path d="M782 168 856 168 856 177 782 177ZM908 174 982 174 982 178 908 178ZM1034 92 1109 92 1109 103 1034 103Z" fill="#FF9F40"/><path d="M782 151 856 151 856 168 782 168ZM908 171 982 171 982 174 908 174ZM1034 89 1109 89 1109 92 1034 92Z" fill="#FFCD56"/><path d="M782 22 856 22 856 151 782 151ZM908 38 982 38 982 171 908 171ZM1034 21 1109 21 1109 89 1034 89Z" fill="#00B050"/><path d="M782 20 856 20 856 22 782 22ZM908 10 982 10 982 38 908 38ZM1034 10 1109 10 1109 21 1034 21Z" fill="#92D050"/><path d="M782 12 856 12 856 20 782 20Z" fill="#C00000"/><path d="M782 11 856 11 856 12 782 12Z" fill="#FF6384"/><path d="M782 10 856 10 856 11 782 11Z" fill="#4BC0C0"/><path d="M755.5 352.5 1134.5 352.5" stroke="#D9D9D9" stroke-linejoin="round" stroke-miterlimit="10" fill="none" fill-rule="evenodd"/><text fill="#FFFFFF" font-family="Inter,Inter_MSFontService,sans-serif" font-weight="700" font-size="20" transform="translate(799.029 272)">51</text><text fill="#FFFFFF" font-family="Inter,Inter_MSFontService,sans-serif" font-weight="700" font-size="20" transform="translate(821.029 272)">% </text><text fill="#FFFFFF" font-family="Inter,Inter_MSFontService,sans-serif" font-weight="700" font-size="20" transform="translate(925.42 272)">51</text><text fill="#FFFFFF" font-family="Inter,Inter_MSFontService,sans-serif" font-weight="700" font-size="20" transform="translate(947.42 272)">% </text><text fill="#FFFFFF" font-family="Inter,Inter_MSFontService,sans-serif" font-weight="700" font-size="20" transform="translate(1050.63 234)">73</text><text fill="#FFFFFF" font-family="Inter,Inter_MSFontService,sans-serif" font-weight="700" font-size="20" transform="translate(1075.63 234)">% </text><text fill="#404040" font-family="Inter,Inter_MSFontService,sans-serif" font-weight="700" font-size="20" transform="translate(803.769 167)">5</text><text fill="#404040" font-family="Inter,Inter_MSFontService,sans-serif" font-weight="700" font-size="20" transform="translate(816.769 167)">% </text><text fill="#FFFFFF" font-family="Inter,Inter_MSFontService,sans-serif" font-weight="700" font-size="20" transform="translate(797.012 93)">38</text><text fill="#FFFFFF" font-family="Inter,Inter_MSFontService,sans-serif" font-weight="700" font-size="20" transform="translate(823.012 93)">% </text><text fill="#FFFFFF" font-family="Inter,Inter_MSFontService,sans-serif" font-weight="700" font-size="20" transform="translate(923.42 111)">39</text><text fill="#FFFFFF" font-family="Inter,Inter_MSFontService,sans-serif" font-weight="700" font-size="20" transform="translate(949.42 111)">% </text><text fill="#FFFFFF" font-family="Inter,Inter_MSFontService,sans-serif" font-weight="700" font-size="20" transform="translate(1049.82 62)">20</text><text fill="#FFFFFF" font-family="Inter,Inter_MSFontService,sans-serif" font-weight="700" font-size="20" transform="translate(1076.82 62)">% </text><text fill="#404040" font-family="Inter,Inter_MSFontService,sans-serif" font-weight="700" font-size="20" transform="translate(930 31)">8</text><text fill="#404040" font-family="Inter,Inter_MSFontService,sans-serif" font-weight="700" font-size="20" transform="translate(943 31)">% </text><text fill="#404040" font-family="Inter Medium,Inter Medium_MSFontService,sans-serif" font-weight="500" font-size="21" transform="translate(776.802 387)">StockX</text><text fill="#404040" font-family="Inter Medium,Inter Medium_MSFontService,sans-serif" font-weight="500" font-size="21" transform="translate(915.1 387)">Goat</text><text fill="#404040" font-family="Inter Medium,Inter Medium_MSFontService,sans-serif" font-weight="500" font-size="21" transform="translate(1029.38 387)">Grailed</text></g></svg>