<svg width="340" height="738" xmlns="http://www.w3.org/2000/svg" xmlns:xlink="http://www.w3.org/1999/xlink" xml:space="preserve" overflow="auto"><g transform="translate(-3872 -389)"><g><path d="M3874 431.5C3874 419.074 3884.07 409 3896.5 409 3908.93 409 3919 419.074 3919 431.5 3919 443.926 3908.93 454 3896.5 454 3884.07 454 3874 443.926 3874 431.5Z" fill="#36A2EB" fill-rule="evenodd" fill-opacity="1"/><text fill="#585F70" fill-opacity="1" font-family="Calibri,Calibri_MSFontService,sans-serif" font-style="normal" font-variant="normal" font-weight="400" font-stretch="normal" font-size="41" text-anchor="start" direction="ltr" writing-mode="lr-tb" unicode-bidi="normal" text-decoration="none" transform="matrix(1 0 0 1 3933.2 446)">Direct</text><path d="M3874 510.5C3874 498.074 3884.07 488 3896.5 488 3908.93 488 3919 498.074 3919 510.5 3919 522.927 3908.93 533 3896.5 533 3884.07 533 3874 522.927 3874 510.5Z" fill="#FF9F40" fill-rule="evenodd" fill-opacity="1"/><text fill="#585F70" fill-opacity="1" font-family="Calibri,Calibri_MSFontService,sans-serif" font-style="normal" font-variant="normal" font-weight="400" font-stretch="normal" font-size="41" text-anchor="start" direction="ltr" writing-mode="lr-tb" unicode-bidi="normal" text-decoration="none" transform="matrix(1 0 0 1 3933.2 525)">Mail</text><path d="M3874 590C3874 577.297 3884.07 567 3896.5 567 3908.93 567 3919 577.297 3919 590 3919 602.702 3908.93 613 3896.5 613 3884.07 613 3874 602.702 3874 590Z" fill="#FFCD56" fill-rule="evenodd" fill-opacity="1"/><text fill="#585F70" fill-opacity="1" font-family="Calibri,Calibri_MSFontService,sans-serif" font-style="normal" font-variant="normal" font-weight="400" font-stretch="normal" font-size="41" text-anchor="start" direction="ltr" writing-mode="lr-tb" unicode-bidi="normal" text-decoration="none" transform="matrix(1 0 0 1 3933.2 604)">Referral</text><path d="M3874 669.5C3874 657.074 3884.07 647 3896.5 647 3908.93 647 3919 657.074 3919 669.5 3919 681.926 3908.93 692 3896.5 692 3884.07 692 3874 681.926 3874 669.5Z" fill="#00B050" fill-rule="evenodd" fill-opacity="1"/><text fill="#585F70" fill-opacity="1" font-family="Calibri,Calibri_MSFontService,sans-serif" font-style="normal" font-variant="normal" font-weight="400" font-stretch="normal" font-size="41" text-anchor="start" direction="ltr" writing-mode="lr-tb" unicode-bidi="normal" text-decoration="none" transform="matrix(1 0 0 1 3933.2 684)">Organic Search</text><path d="M3874 749C3874 736.297 3884.07 726 3896.5 726 3908.93 726 3919 736.297 3919 749 3919 761.703 3908.93 772 3896.5 772 3884.07 772 3874 761.703 3874 749Z" fill="#92D050" fill-rule="evenodd" fill-opacity="1"/><text fill="#585F70" fill-opacity="1" font-family="Calibri,Calibri_MSFontService,sans-serif" font-style="normal" font-variant="normal" font-weight="400" font-stretch="normal" font-size="41" text-anchor="start" direction="ltr" writing-mode="lr-tb" unicode-bidi="normal" text-decoration="none" transform="matrix(1 0 0 1 3933.2 763)">Organic Social</text><path d="M3874 828.5C3874 816.074 3884.07 806 3896.5 806 3908.93 806 3919 816.074 3919 828.5 3919 840.927 3908.93 851 3896.5 851 3884.07 851 3874 840.927 3874 828.5Z" fill="#C00000" fill-rule="evenodd" fill-opacity="1"/><text fill="#585F70" fill-opacity="1" font-family="Calibri,Calibri_MSFontService,sans-serif" font-style="normal" font-variant="normal" font-weight="400" font-stretch="normal" font-size="41" text-anchor="start" direction="ltr" writing-mode="lr-tb" unicode-bidi="normal" text-decoration="none" transform="matrix(1 0 0 1 3933.2 843)">Paid Search</text><path d="M3874 914.5C3874 902.074 3884.07 892 3896.5 892 3908.93 892 3919 902.074 3919 914.5 3919 926.927 3908.93 937 3896.5 937 3884.07 937 3874 926.927 3874 914.5Z" fill="#FF6384" fill-rule="evenodd" fill-opacity="1"/><text fill="#585F70" fill-opacity="1" font-family="Calibri,Calibri_MSFontService,sans-serif" font-style="normal" font-variant="normal" font-weight="400" font-stretch="normal" font-size="41" text-anchor="start" direction="ltr" writing-mode="lr-tb" unicode-bidi="normal" text-decoration="none" transform="matrix(1 0 0 1 3933.2 929)">Paid Social</text><path d="M3874 994C3874 981.298 3884.07 971 3896.5 971 3908.93 971 3919 981.298 3919 994 3919 1006.7 3908.93 1017 3896.5 1017 3884.07 1017 3874 1006.7 3874 994Z" fill="#4BC0C0" fill-rule="evenodd" fill-opacity="1"/><text fill="#585F70" fill-opacity="1" font-family="Calibri,Calibri_MSFontService,sans-serif" font-style="normal" font-variant="normal" font-weight="400" font-stretch="normal" font-size="41" text-anchor="start" direction="ltr" writing-mode="lr-tb" unicode-bidi="normal" text-decoration="none" transform="matrix(1 0 0 1 3933.2 1008)">Display Ad</text><path d="M3874 1073.5C3874 1061.07 3884.07 1051 3896.5 1051 3908.93 1051 3919 1061.07 3919 1073.5 3919 1085.93 3908.93 1096 3896.5 1096 3884.07 1096 3874 1085.93 3874 1073.5Z" fill="#B38CFE" fill-rule="evenodd" fill-opacity="1"/><text fill="#585F70" fill-opacity="1" font-family="Calibri,Calibri_MSFontService,sans-serif" font-style="normal" font-variant="normal" font-weight="400" font-stretch="normal" font-size="41" text-anchor="start" direction="ltr" writing-mode="lr-tb" unicode-bidi="normal" text-decoration="none" transform="matrix(1 0 0 1 3933.2 1088)">Other</text></g></g></svg>