<svg width="384" height="384" xmlns="http://www.w3.org/2000/svg" xmlns:xlink="http://www.w3.org/1999/xlink" xml:space="preserve" overflow="hidden"><g transform="translate(-694 -262)"><path d="M724 290 798 290 798 604 724 604ZM849 294 923 294 923 604 849 604ZM975 348 1049 348 1049 604 975 604Z" fill="#00B050"/><path d="M724 287 798 287 798 290 724 290ZM849 290 923 290 923 294 849 294ZM975 331 1049 331 1049 348 975 348Z" fill="#92D050"/><path d="M724 267 798 267 798 287 724 287ZM849 267 923 267 923 290 849 290ZM975 263 1049 263 1049 331 975 331Z" fill="#C00000"/><path d="M724 263 798 263 798 267 724 267ZM849 263 923 263 923 267 849 267Z" fill="#FF6384"/><path d="M697.5 603.5 1074.5 603.5" stroke="#D9D9D9" stroke-linejoin="round" stroke-miterlimit="10" fill="none" fill-rule="evenodd"/><text fill="#FFFFFF" font-family="Inter,Inter_MSFontService,sans-serif" font-weight="700" font-size="20" transform="translate(739.12 454)">92</text><text fill="#FFFFFF" font-family="Inter,Inter_MSFontService,sans-serif" font-weight="700" font-size="20" transform="translate(765.12 454)">% </text><text fill="#FFFFFF" font-family="Inter,Inter_MSFontService,sans-serif" font-weight="700" font-size="20" transform="translate(866.36 456)">91</text><text fill="#FFFFFF" font-family="Inter,Inter_MSFontService,sans-serif" font-weight="700" font-size="20" transform="translate(888.36 456)">% </text><text fill="#FFFFFF" font-family="Inter,Inter_MSFontService,sans-serif" font-weight="700" font-size="20" transform="translate(991.09 483)">75</text><text fill="#FFFFFF" font-family="Inter,Inter_MSFontService,sans-serif" font-weight="700" font-size="20" transform="translate(1016.09 483)">% </text><text fill="#404040" font-family="Inter,Inter_MSFontService,sans-serif" font-weight="700" font-size="15" transform="translate(1000.95 345)">5</text><text fill="#404040" font-family="Inter,Inter_MSFontService,sans-serif" font-weight="700" font-size="15" transform="translate(1010.95 345)">% </text><text fill="#FFFFFF" font-family="Inter,Inter_MSFontService,sans-serif" font-weight="700" font-size="20" transform="translate(745.42 284)">6</text><text fill="#FFFFFF" font-family="Inter,Inter_MSFontService,sans-serif" font-weight="700" font-size="20" transform="translate(758.42 284)">% </text><text fill="#FFFFFF" font-family="Inter,Inter_MSFontService,sans-serif" font-weight="700" font-size="20" transform="translate(871.76 286)">7</text><text fill="#FFFFFF" font-family="Inter,Inter_MSFontService,sans-serif" font-weight="700" font-size="20" transform="translate(883.76 286)">% </text><text fill="#FFFFFF" font-family="Inter,Inter_MSFontService,sans-serif" font-weight="700" font-size="20" transform="translate(990.2 304)">20</text><text fill="#FFFFFF" font-family="Inter,Inter_MSFontService,sans-serif" font-weight="700" font-size="20" transform="translate(1017.2 304)">% </text><text fill="#404040" font-family="Inter Medium,Inter Medium_MSFontService,sans-serif" font-weight="500" font-size="21" transform="translate(718.61 639)">StockX</text><text fill="#404040" font-family="Inter Medium,Inter Medium_MSFontService,sans-serif" font-weight="500" font-size="21" transform="translate(856.19 639)">Goat</text><text fill="#404040" font-family="Inter Medium,Inter Medium_MSFontService,sans-serif" font-weight="500" font-size="21" transform="translate(969.76 639)">Grailed</text></g></svg>