<svg width="298" height="175" xmlns="http://www.w3.org/2000/svg" xmlns:xlink="http://www.w3.org/1999/xlink" xml:space="preserve" overflow="hidden"><g transform="translate(-2383 -485)"><g><path d="M2387 525.5C2387 513.073 2397.07 503 2409.5 503 2421.93 503 2432 513.073 2432 525.5 2432 537.926 2421.93 548 2409.5 548 2397.07 548 2387 537.926 2387 525.5Z" fill="#36A2EB" fill-rule="evenodd" fill-opacity="1"/><text fill="#585F70" fill-opacity="1" font-family="Calibri,Calibri_MSFontService,sans-serif" font-style="normal" font-variant="normal" font-weight="400" font-stretch="normal" font-size="41" text-anchor="start" direction="ltr" writing-mode="lr-tb" unicode-bidi="normal" text-decoration="none" transform="matrix(1 0 0 1 2446.2 540)">Desktop</text><path d="M2387 605C2387 592.297 2397.07 582 2409.5 582 2421.93 582 2432 592.297 2432 605 2432 617.703 2421.93 628 2409.5 628 2397.07 628 2387 617.703 2387 605Z" fill="#FF6384" fill-rule="evenodd" fill-opacity="1"/><text fill="#585F70" fill-opacity="1" font-family="Calibri,Calibri_MSFontService,sans-serif" font-style="normal" font-variant="normal" font-weight="400" font-stretch="normal" font-size="41" text-anchor="start" direction="ltr" writing-mode="lr-tb" unicode-bidi="normal" text-decoration="none" transform="matrix(1 0 0 1 2446.2 619)">Mobile Web</text></g></g></svg>