<svg width="1050" height="294" xmlns="http://www.w3.org/2000/svg" xmlns:xlink="http://www.w3.org/1999/xlink" xml:space="preserve" overflow="hidden"><g transform="translate(-22 -46)"><path d="M86.5 306.5 1057.5 306.5M86.5 265.5 1057.5 265.5M86.5 183.5 1057.5 183.5M86.5 142.5 1057.5 142.5M86.5 101.5 1057.5 101.5M86.5 60.5 1057.5 60.5" stroke="#D9D9D9" stroke-linecap="square" stroke-linejoin="round" stroke-miterlimit="10" stroke-dasharray="3 1" fill="none"/><path d="M0 0 0.000104987 246" stroke="#A6A6A6" stroke-linejoin="round" stroke-miterlimit="10" fill="none" fill-rule="evenodd" transform="matrix(1 0 0 -1 86.5 306.5)"/><path d="M86.5 224.5 1057.5 224.5" stroke="#A6A6A6" stroke-linejoin="round" stroke-miterlimit="10" fill="none" fill-rule="evenodd"/><path d="M111.5 224.503C127.675 224.503 143.851 224.503 160.026 224.503 176.202 224.503 192.377 224.503 208.553 224.503 224.728 224.503 240.904 226.22 257.079 224.503 273.254 222.786 289.43 217.692 305.605 214.2 321.359 210.799 338.378 222.804 354.132 203.552 370.307 183.784 386.482 89.5 402.658 95.593 418.833 101.685 435.009 215.409 451.184 240.107 464.54 260.5 486.355 244.718 499.711 243.78 515.886 242.644 532.061 231.605 548.237 233.292 564.412 234.979 580.588 260.03 596.763 253.902 612.939 247.773 629.114 205.263 645.29 196.521 661.465 187.779 677.64 196.058 693.816 201.451 709.991 206.843 726.167 225.466 742.342 228.877 758.518 232.289 774.693 218.917 790.868 221.918 807.044 224.92 823.219 244.627 839.395 246.885 855.57 249.143 871.746 235.482 887.921 235.466 904.096 235.45 920.272 244.68 936.447 246.789 952.623 248.898 968.8 251.963 984.97 248.119 1001.15 244.275 1017.32 231.855 1033.5 223.723" stroke="#36A2EB" stroke-width="3" stroke-linecap="round" stroke-linejoin="round" stroke-miterlimit="10" fill="none"/><path d="M111.5 224.502C127.675 224.502 143.851 224.502 160.026 224.502 176.202 224.502 192.377 224.502 208.553 224.502 224.728 224.502 240.904 222.114 257.079 224.502 273.254 226.89 289.43 236.251 305.605 238.832 321.781 241.412 337.956 245.518 354.132 239.984 370.307 234.451 386.482 200.77 402.658 205.631 418.833 210.493 435.009 270.5 451.184 269.153 467.36 267.806 483.535 205.982 499.711 197.549 515.886 189.116 532.061 217.093 548.237 218.557 564.412 220.022 580.588 212.746 596.763 206.336 612.939 199.925 629.114 175.086 645.29 180.096 661.465 185.107 677.64 237.85 693.816 236.399 709.991 234.949 726.167 175.286 742.342 171.393 758.518 167.5 774.693 207.242 790.868 213.04 807.044 218.837 823.219 211.17 839.395 206.179 855.57 201.188 871.746 178.428 887.921 183.097 904.096 187.765 920.272 229.769 936.447 234.188 952.623 238.607 968.8 210.185 984.97 209.609 1001.15 209.033 1017.32 223.691 1033.5 230.732" stroke="#FF6384" stroke-width="3" stroke-linecap="round" stroke-linejoin="round" stroke-miterlimit="10" fill="none"/><path d="M111.5 224.463C127.675 224.463 143.851 224.463 160.026 224.463 176.202 224.463 192.377 224.463 208.553 224.463 224.728 224.463 240.904 226.782 257.079 224.463 273.254 222.144 289.43 209.154 305.605 210.546 321.781 211.938 337.956 235.151 354.132 232.817 370.307 230.483 386.482 193.398 402.658 196.543 418.833 199.688 435.009 238.886 451.184 251.685 467.36 264.485 483.535 276.5 499.711 273.341 515.886 270.182 532.061 242.573 548.237 232.732 564.412 222.892 580.588 221.793 596.763 214.298 612.939 206.803 629.114 196.684 645.29 187.76 661.465 178.837 677.64 155.5 693.816 160.756 709.991 166.012 726.167 213.651 742.342 219.295 758.518 224.939 774.693 190.736 790.868 194.621 807.044 198.505 823.219 237.124 839.395 242.602 855.57 248.08 871.746 231.64 887.921 227.487 904.096 223.335 920.272 215.439 936.447 217.686 952.623 219.933 968.8 238.031 984.97 240.969 1001.15 243.907 1017.32 237.201 1033.5 235.317" stroke="#FF9F40" stroke-width="3" stroke-linecap="round" stroke-linejoin="round" stroke-miterlimit="10" fill="none"/><text fill="#585F70" font-family="Inter Medium,Inter Medium_MSFontService,sans-serif" font-weight="500" font-size="13" transform="translate(30.1961 311)">(</text><text fill="#585F70" font-family="Inter Medium,Inter Medium_MSFontService,sans-serif" font-weight="500" font-size="13" transform="translate(35.1961 311)">100</text><text fill="#585F70" font-family="Inter Medium,Inter Medium_MSFontService,sans-serif" font-weight="500" font-size="13" transform="translate(57.1961 311)">%)</text><text fill="#585F70" font-family="Inter Medium,Inter Medium_MSFontService,sans-serif" font-weight="500" font-size="13" transform="translate(36.5762 270)">(</text><text fill="#585F70" font-family="Inter Medium,Inter Medium_MSFontService,sans-serif" font-weight="500" font-size="13" transform="translate(41.5762 270)">50</text><text fill="#585F70" font-family="Inter Medium,Inter Medium_MSFontService,sans-serif" font-weight="500" font-size="13" transform="translate(57.5762 270)">%)</text><text fill="#585F70" font-family="Inter Medium,Inter Medium_MSFontService,sans-serif" font-weight="500" font-size="13" transform="translate(62.229 229)">--</text><text fill="#585F70" font-family="Inter Medium,Inter Medium_MSFontService,sans-serif" font-weight="500" font-size="13" transform="translate(46.6562 188)">50</text><text fill="#585F70" font-family="Inter Medium,Inter Medium_MSFontService,sans-serif" font-weight="500" font-size="13" transform="translate(62.6562 188)">%</text><text fill="#585F70" font-family="Inter Medium,Inter Medium_MSFontService,sans-serif" font-weight="500" font-size="13" transform="translate(40.2761 147)">100</text><text fill="#585F70" font-family="Inter Medium,Inter Medium_MSFontService,sans-serif" font-weight="500" font-size="13" transform="translate(62.2761 147)">%</text><text fill="#585F70" font-family="Inter Medium,Inter Medium_MSFontService,sans-serif" font-weight="500" font-size="13" transform="translate(40.6228 106)">150</text><text fill="#585F70" font-family="Inter Medium,Inter Medium_MSFontService,sans-serif" font-weight="500" font-size="13" transform="translate(62.6228 106)">%</text><text fill="#585F70" font-family="Inter Medium,Inter Medium_MSFontService,sans-serif" font-weight="500" font-size="13" transform="translate(38.1294 65)">200</text><text fill="#585F70" font-family="Inter Medium,Inter Medium_MSFontService,sans-serif" font-weight="500" font-size="13" transform="translate(62.1294 65)">%</text><text fill="#585F70" font-family="Inter Medium,Inter Medium_MSFontService,sans-serif" font-weight="500" font-size="13" transform="translate(95.698 328)">1</text><text fill="#585F70" font-family="Inter Medium,Inter Medium_MSFontService,sans-serif" font-weight="500" font-size="13" transform="translate(101.698 328)">Q</text><text fill="#585F70" font-family="Inter Medium,Inter Medium_MSFontService,sans-serif" font-weight="500" font-size="13" transform="translate(111.698 328)">19</text><text fill="#585F70" font-family="Inter Medium,Inter Medium_MSFontService,sans-serif" font-weight="500" font-size="13" transform="translate(143.162 328)">2</text><text fill="#585F70" font-family="Inter Medium,Inter Medium_MSFontService,sans-serif" font-weight="500" font-size="13" transform="translate(151.162 328)">Q</text><text fill="#585F70" font-family="Inter Medium,Inter Medium_MSFontService,sans-serif" font-weight="500" font-size="13" transform="translate(161.162 328)">19</text><text fill="#585F70" font-family="Inter Medium,Inter Medium_MSFontService,sans-serif" font-weight="500" font-size="13" transform="translate(191.496 328)">3</text><text fill="#585F70" font-family="Inter Medium,Inter Medium_MSFontService,sans-serif" font-weight="500" font-size="13" transform="translate(199.496 328)">Q</text><text fill="#585F70" font-family="Inter Medium,Inter Medium_MSFontService,sans-serif" font-weight="500" font-size="13" transform="translate(209.496 328)">19</text><text fill="#585F70" font-family="Inter Medium,Inter Medium_MSFontService,sans-serif" font-weight="500" font-size="13" transform="translate(239.967 328)">4</text><text fill="#585F70" font-family="Inter Medium,Inter Medium_MSFontService,sans-serif" font-weight="500" font-size="13" transform="translate(248.967 328)">Q</text><text fill="#585F70" font-family="Inter Medium,Inter Medium_MSFontService,sans-serif" font-weight="500" font-size="13" transform="translate(258.967 328)">19</text><text fill="#585F70" font-family="Inter Medium,Inter Medium_MSFontService,sans-serif" font-weight="500" font-size="13" transform="translate(288.704 328)">1</text><text fill="#585F70" font-family="Inter Medium,Inter Medium_MSFontService,sans-serif" font-weight="500" font-size="13" transform="translate(294.704 328)">Q</text><text fill="#585F70" font-family="Inter Medium,Inter Medium_MSFontService,sans-serif" font-weight="500" font-size="13" transform="translate(304.704 328)">20</text><text fill="#585F70" font-family="Inter Medium,Inter Medium_MSFontService,sans-serif" font-weight="500" font-size="13" transform="translate(336.168 328)">2</text><text fill="#585F70" font-family="Inter Medium,Inter Medium_MSFontService,sans-serif" font-weight="500" font-size="13" transform="translate(344.168 328)">Q</text><text fill="#585F70" font-family="Inter Medium,Inter Medium_MSFontService,sans-serif" font-weight="500" font-size="13" transform="translate(354.168 328)">20</text><text fill="#585F70" font-family="Inter Medium,Inter Medium_MSFontService,sans-serif" font-weight="500" font-size="13" transform="translate(384.502 328)">3</text><text fill="#585F70" font-family="Inter Medium,Inter Medium_MSFontService,sans-serif" font-weight="500" font-size="13" transform="translate(392.502 328)">Q</text><text fill="#585F70" font-family="Inter Medium,Inter Medium_MSFontService,sans-serif" font-weight="500" font-size="13" transform="translate(402.502 328)">20</text><text fill="#585F70" font-family="Inter Medium,Inter Medium_MSFontService,sans-serif" font-weight="500" font-size="13" transform="translate(432.973 328)">4</text><text fill="#585F70" font-family="Inter Medium,Inter Medium_MSFontService,sans-serif" font-weight="500" font-size="13" transform="translate(441.973 328)">Q</text><text fill="#585F70" font-family="Inter Medium,Inter Medium_MSFontService,sans-serif" font-weight="500" font-size="13" transform="translate(451.973 328)">20</text><text fill="#585F70" font-family="Inter Medium,Inter Medium_MSFontService,sans-serif" font-weight="500" font-size="13" transform="translate(484.143 328)">1</text><text fill="#585F70" font-family="Inter Medium,Inter Medium_MSFontService,sans-serif" font-weight="500" font-size="13" transform="translate(490.143 328)">Q</text><text fill="#585F70" font-family="Inter Medium,Inter Medium_MSFontService,sans-serif" font-weight="500" font-size="13" transform="translate(500.143 328)">21</text><text fill="#585F70" font-family="Inter Medium,Inter Medium_MSFontService,sans-serif" font-weight="500" font-size="13" transform="translate(531.607 328)">2</text><text fill="#585F70" font-family="Inter Medium,Inter Medium_MSFontService,sans-serif" font-weight="500" font-size="13" transform="translate(539.607 328)">Q</text><text fill="#585F70" font-family="Inter Medium,Inter Medium_MSFontService,sans-serif" font-weight="500" font-size="13" transform="translate(549.607 328)">21</text><text fill="#585F70" font-family="Inter Medium,Inter Medium_MSFontService,sans-serif" font-weight="500" font-size="13" transform="translate(579.941 328)">3</text><text fill="#585F70" font-family="Inter Medium,Inter Medium_MSFontService,sans-serif" font-weight="500" font-size="13" transform="translate(587.941 328)">Q</text><text fill="#585F70" font-family="Inter Medium,Inter Medium_MSFontService,sans-serif" font-weight="500" font-size="13" transform="translate(597.941 328)">21</text><text fill="#585F70" font-family="Inter Medium,Inter Medium_MSFontService,sans-serif" font-weight="500" font-size="13" transform="translate(628.412 328)">4</text><text fill="#585F70" font-family="Inter Medium,Inter Medium_MSFontService,sans-serif" font-weight="500" font-size="13" transform="translate(637.412 328)">Q</text><text fill="#585F70" font-family="Inter Medium,Inter Medium_MSFontService,sans-serif" font-weight="500" font-size="13" transform="translate(647.412 328)">21</text><text fill="#585F70" font-family="Inter Medium,Inter Medium_MSFontService,sans-serif" font-weight="500" font-size="13" transform="translate(677.219 328)">1</text><text fill="#585F70" font-family="Inter Medium,Inter Medium_MSFontService,sans-serif" font-weight="500" font-size="13" transform="translate(683.219 328)">Q</text><text fill="#585F70" font-family="Inter Medium,Inter Medium_MSFontService,sans-serif" font-weight="500" font-size="13" transform="translate(693.219 328)">22</text><text fill="#585F70" font-family="Inter Medium,Inter Medium_MSFontService,sans-serif" font-weight="500" font-size="13" transform="translate(724.683 328)">2</text><text fill="#585F70" font-family="Inter Medium,Inter Medium_MSFontService,sans-serif" font-weight="500" font-size="13" transform="translate(732.683 328)">Q</text><text fill="#585F70" font-family="Inter Medium,Inter Medium_MSFontService,sans-serif" font-weight="500" font-size="13" transform="translate(742.683 328)">22</text><text fill="#585F70" font-family="Inter Medium,Inter Medium_MSFontService,sans-serif" font-weight="500" font-size="13" transform="translate(773.017 328)">3</text><text fill="#585F70" font-family="Inter Medium,Inter Medium_MSFontService,sans-serif" font-weight="500" font-size="13" transform="translate(781.017 328)">Q</text><text fill="#585F70" font-family="Inter Medium,Inter Medium_MSFontService,sans-serif" font-weight="500" font-size="13" transform="translate(791.017 328)">22</text><text fill="#585F70" font-family="Inter Medium,Inter Medium_MSFontService,sans-serif" font-weight="500" font-size="13" transform="translate(821.487 328)">4</text><text fill="#585F70" font-family="Inter Medium,Inter Medium_MSFontService,sans-serif" font-weight="500" font-size="13" transform="translate(830.487 328)">Q</text><text fill="#585F70" font-family="Inter Medium,Inter Medium_MSFontService,sans-serif" font-weight="500" font-size="13" transform="translate(840.487 328)">22</text><text fill="#585F70" font-family="Inter Medium,Inter Medium_MSFontService,sans-serif" font-weight="500" font-size="13" transform="translate(871.165 328)">1</text><text fill="#585F70" font-family="Inter Medium,Inter Medium_MSFontService,sans-serif" font-weight="500" font-size="13" transform="translate(877.165 328)">Q</text><text fill="#585F70" font-family="Inter Medium,Inter Medium_MSFontService,sans-serif" font-weight="500" font-size="13" transform="translate(887.165 328)">23</text><text fill="#585F70" font-family="Inter Medium,Inter Medium_MSFontService,sans-serif" font-weight="500" font-size="13" transform="translate(918.629 328)">2</text><text fill="#585F70" font-family="Inter Medium,Inter Medium_MSFontService,sans-serif" font-weight="500" font-size="13" transform="translate(926.629 328)">Q</text><text fill="#585F70" font-family="Inter Medium,Inter Medium_MSFontService,sans-serif" font-weight="500" font-size="13" transform="translate(936.629 328)">23</text><text fill="#585F70" font-family="Inter Medium,Inter Medium_MSFontService,sans-serif" font-weight="500" font-size="13" transform="translate(966.96 328)">3</text><text fill="#585F70" font-family="Inter Medium,Inter Medium_MSFontService,sans-serif" font-weight="500" font-size="13" transform="translate(974.96 328)">Q</text><text fill="#585F70" font-family="Inter Medium,Inter Medium_MSFontService,sans-serif" font-weight="500" font-size="13" transform="translate(984.96 328)">23</text><text fill="#585F70" font-family="Inter Medium,Inter Medium_MSFontService,sans-serif" font-weight="500" font-size="13" transform="translate(1015.43 328)">4</text><text fill="#585F70" font-family="Inter Medium,Inter Medium_MSFontService,sans-serif" font-weight="500" font-size="13" transform="translate(1024.43 328)">Q</text><text fill="#585F70" font-family="Inter Medium,Inter Medium_MSFontService,sans-serif" font-weight="500" font-size="13" transform="translate(1034.43 328)">23</text></g></svg>