<svg width="335" height="491" xmlns="http://www.w3.org/2000/svg" xmlns:xlink="http://www.w3.org/1999/xlink" xml:space="preserve" overflow="hidden"><g transform="translate(-939 -485)"><g><path d="M941 525.5C941 513.073 951.297 503 964 503 976.702 503 987 513.073 987 525.5 987 537.926 976.702 548 964 548 951.297 548 941 537.926 941 525.5Z" fill="#36A2EB" fill-rule="evenodd" fill-opacity="1"/><text fill="#585F70" fill-opacity="1" font-family="Calibri,Calibri_MSFontService,sans-serif" font-style="normal" font-variant="normal" font-weight="400" font-stretch="normal" font-size="41" text-anchor="start" direction="ltr" writing-mode="lr-tb" unicode-bidi="normal" text-decoration="none" transform="matrix(1 0 0 1 1000.48 540)">North America</text><path d="M941 605C941 592.297 951.297 582 964 582 976.702 582 987 592.297 987 605 987 617.703 976.702 628 964 628 951.297 628 941 617.703 941 605Z" fill="#FF6384" fill-rule="evenodd" fill-opacity="1"/><text fill="#585F70" fill-opacity="1" font-family="Calibri,Calibri_MSFontService,sans-serif" font-style="normal" font-variant="normal" font-weight="400" font-stretch="normal" font-size="41" text-anchor="start" direction="ltr" writing-mode="lr-tb" unicode-bidi="normal" text-decoration="none" transform="matrix(1 0 0 1 1000.48 619)">Europe</text><path d="M941 684.5C941 672.074 951.297 662 964 662 976.702 662 987 672.074 987 684.5 987 696.927 976.702 707 964 707 951.297 707 941 696.927 941 684.5Z" fill="#FF9F40" fill-rule="evenodd" fill-opacity="1"/><text fill="#585F70" fill-opacity="1" font-family="Calibri,Calibri_MSFontService,sans-serif" font-style="normal" font-variant="normal" font-weight="400" font-stretch="normal" font-size="41" text-anchor="start" direction="ltr" writing-mode="lr-tb" unicode-bidi="normal" text-decoration="none" transform="matrix(1 0 0 1 1000.48 699)">Asia</text><path d="M941 764C941 751.297 951.297 741 964 741 976.702 741 987 751.297 987 764 987 776.702 976.702 787 964 787 951.297 787 941 776.702 941 764Z" fill="#FFCD56" fill-rule="evenodd" fill-opacity="1"/><text fill="#585F70" fill-opacity="1" font-family="Calibri,Calibri_MSFontService,sans-serif" font-style="normal" font-variant="normal" font-weight="400" font-stretch="normal" font-size="41" text-anchor="start" direction="ltr" writing-mode="lr-tb" unicode-bidi="normal" text-decoration="none" transform="matrix(1 0 0 1 1000.48 778)">Australia</text><path d="M941 843.5C941 831.073 951.297 821 964 821 976.702 821 987 831.073 987 843.5 987 855.926 976.702 866 964 866 951.297 866 941 855.926 941 843.5Z" fill="#4BC0C0" fill-rule="evenodd" fill-opacity="1"/><text fill="#585F70" fill-opacity="1" font-family="Calibri,Calibri_MSFontService,sans-serif" font-style="normal" font-variant="normal" font-weight="400" font-stretch="normal" font-size="41" text-anchor="start" direction="ltr" writing-mode="lr-tb" unicode-bidi="normal" text-decoration="none" transform="matrix(1 0 0 1 1000.48 858)">South America</text><path d="M941 922.5C941 910.074 951.297 900 964 900 976.702 900 987 910.074 987 922.5 987 934.926 976.702 945 964 945 951.297 945 941 934.926 941 922.5Z" fill="#B38CFE" fill-rule="evenodd" fill-opacity="1"/><text fill="#585F70" fill-opacity="1" font-family="Calibri,Calibri_MSFontService,sans-serif" font-style="normal" font-variant="normal" font-weight="400" font-stretch="normal" font-size="41" text-anchor="start" direction="ltr" writing-mode="lr-tb" unicode-bidi="normal" text-decoration="none" transform="matrix(1 0 0 1 1000.48 937)">Africa</text></g></g></svg>